/* XPM */
static char * fighter_48_xpm[] = {
"40 40 399 2",
"  	c None",
". 	c #C8E2CD",
"+ 	c #8AB7A3",
"@ 	c #408474",
"# 	c #023D3D",
"$ 	c #F2FBEA",
"% 	c #CEE5D1",
"& 	c #7DB09B",
"* 	c #063E32",
"= 	c #002320",
"- 	c #D0E6D2",
"; 	c #F6FEEE",
"> 	c #C7E0CC",
", 	c #639C89",
"' 	c #054137",
") 	c #002629",
"! 	c #A6C9B3",
"~ 	c #E8F6E4",
"{ 	c #EEF8E8",
"] 	c #92BDA9",
"^ 	c #3A7F6F",
"/ 	c #074847",
"( 	c #002924",
"_ 	c #00286F",
": 	c #9CC2AD",
"< 	c #F0F9E9",
"[ 	c #C8E0CC",
"} 	c #6FA894",
"| 	c #377F6E",
"1 	c #105251",
"2 	c #002F23",
"3 	c #002863",
"4 	c #ACCDB8",
"5 	c #F0F8E8",
"6 	c #ABCDB8",
"7 	c #62A28E",
"8 	c #3B8572",
"9 	c #195B5D",
"0 	c #003729",
"a 	c #002750",
"b 	c #8AB4A0",
"c 	c #C4DDC9",
"d 	c #E8F4E3",
"e 	c #99C1AC",
"f 	c #569D89",
"g 	c #3D8876",
"h 	c #23645D",
"i 	c #013F3A",
"j 	c #00273F",
"k 	c #81B09C",
"l 	c #CAE1CE",
"m 	c #D1E7D3",
"n 	c #86B4A0",
"o 	c #4E9885",
"p 	c #3F8A76",
"q 	c #2A6C60",
"r 	c #064646",
"s 	c #002831",
"t 	c #7AAD99",
"u 	c #C8E1CD",
"v 	c #BAD8C3",
"w 	c #77AC98",
"x 	c #4B9783",
"y 	c #408B77",
"z 	c #307465",
"A 	c #094B4E",
"B 	c #002A24",
"C 	c #7EB09C",
"D 	c #CCE4D0",
"E 	c #AFD0BB",
"F 	c #6BA693",
"G 	c #489581",
"H 	c #418E7A",
"I 	c #337868",
"J 	c #0D4F54",
"K 	c #002C22",
"L 	c #7AAE9A",
"M 	c #C4E0CB",
"N 	c #A4C8B2",
"O 	c #66A490",
"P 	c #46947F",
"Q 	c #428F7A",
"R 	c #357C6B",
"S 	c #115355",
"T 	c #002E22",
"U 	c #002869",
"V 	c #88B9A8",
"W 	c #87B6A2",
"X 	c #C5E1CC",
"Y 	c #9FC4AF",
"Z 	c #5DA08D",
"` 	c #428F7B",
" .	c #377E6D",
"..	c #135555",
"+.	c #003124",
"@.	c #00275F",
"#.	c #001B3C",
"$.	c #8DBCAE",
"%.	c #7EB19D",
"&.	c #B9D9C2",
"*.	c #95BDA8",
"=.	c #5A9988",
"-.	c #4F7666",
";.	c #466F5F",
">.	c #357868",
",.	c #18595A",
"'.	c #003426",
").	c #00275D",
"!.	c #001931",
"~.	c #9CC4B8",
"{.	c #75AC98",
"].	c #AFD1BB",
"^.	c #8CAD9A",
"/.	c #B2ACA7",
"(.	c #C08F8E",
"_.	c #792D2C",
":.	c #271C19",
"<.	c #174A50",
"[.	c #003628",
"}.	c #00275C",
"|.	c #02202F",
"1.	c #D3E4DE",
"2.	c #80B5A4",
"3.	c #73AA97",
"4.	c #A9CBB6",
"5.	c #BDB3AC",
"6.	c #F7F0F0",
"7.	c #CB9B9B",
"8.	c #6B2222",
"9.	c #1B0404",
"0.	c #131112",
"a.	c #012E23",
"b.	c #002559",
"c.	c #042C31",
"d.	c #01120F",
"e.	c #ECEEEA",
"f.	c #C5DAD1",
"g.	c #76B09E",
"h.	c #75AC97",
"i.	c #A6AA9B",
"j.	c #E2C8C8",
"k.	c #DEC0C0",
"l.	c #AE6C6C",
"m.	c #460E0E",
"n.	c #150303",
"o.	c #110303",
"p.	c #07120D",
"q.	c #001F47",
"r.	c #042E2B",
"s.	c #03231D",
"t.	c #01110D",
"u.	c #E3E9E4",
"v.	c #82B7A5",
"w.	c #78B19E",
"x.	c #78AD98",
"y.	c #A88E86",
"z.	c #BF8686",
"A.	c #8D3E3E",
"B.	c #2F0808",
"C.	c #140303",
"D.	c #0D0604",
"E.	c #000F22",
"F.	c #04251F",
"G.	c #052D25",
"H.	c #032B23",
"I.	c #EFEFEC",
"J.	c #8ABCAB",
"K.	c #82B6A4",
"L.	c #7BB2A0",
"M.	c #79AB98",
"N.	c #A56F6B",
"O.	c #B77878",
"P.	c #AD6868",
"Q.	c #7C2A2A",
"R.	c #2C0707",
"S.	c #100403",
"T.	c #000A15",
"U.	c #041411",
"V.	c #052922",
"W.	c #064034",
"X.	c #04362C",
"Y.	c #EBEDEA",
"Z.	c #92C0B1",
"`.	c #7CB3A1",
" +	c #7EB4A2",
".+	c #76A391",
"++	c #9F5B5A",
"@+	c #AA6363",
"#+	c #A35959",
"$+	c #742323",
"%+	c #2A0707",
"&+	c #020B13",
"*+	c #050F0C",
"=+	c #05201B",
"-+	c #063D32",
";+	c #095747",
">+	c #064135",
",+	c #DDE6E1",
"'+	c #8ABBAA",
")+	c #80B5A3",
"!+	c #6EA18F",
"~+	c #975150",
"{+	c #A65E5E",
"]+	c #9F5353",
"^+	c #712020",
"/+	c #280606",
"(+	c #130303",
"_+	c #280707",
":+	c #030B13",
"<+	c #050E0B",
"[+	c #051914",
"}+	c #06352B",
"|+	c #095545",
"1+	c #0A5A4A",
"2+	c #084E3F",
"3+	c #BAD5CB",
"4+	c #81B6A5",
"5+	c #80B6A3",
"6+	c #6FA795",
"7+	c #8A4846",
"8+	c #9A4C4C",
"9+	c #974747",
"0+	c #671A1A",
"a+	c #220606",
"b+	c #120303",
"c+	c #631818",
"d+	c #030B15",
"e+	c #050E0C",
"f+	c #051712",
"g+	c #052C24",
"h+	c #074D3F",
"i+	c #0A5C4C",
"j+	c #0A5848",
"k+	c #0A5C4B",
"l+	c #0A6350",
"m+	c #8DBFAE",
"n+	c #84B8A7",
"o+	c #7FB5A2",
"p+	c #7BB3A0",
"q+	c #7AB2A0",
"r+	c #7DB4A2",
"s+	c #81B6A3",
"t+	c #6CA996",
"u+	c #6F4C45",
"v+	c #792222",
"w+	c #802A2A",
"x+	c #591111",
"y+	c #1D0505",
"z+	c #420D0D",
"A+	c #572020",
"B+	c #020D14",
"C+	c #051512",
"D+	c #052720",
"E+	c #095A4B",
"F+	c #095646",
"G+	c #0A5849",
"H+	c #0A5B4B",
"I+	c #0A5A49",
"J+	c #7FB5A3",
"K+	c #6BA795",
"L+	c #6E8173",
"M+	c #470F0E",
"N+	c #571010",
"O+	c #3B0A0A",
"P+	c #170404",
"Q+	c #1C0505",
"R+	c #5A1111",
"S+	c #200E10",
"T+	c #030C12",
"U+	c #051612",
"V+	c #05251F",
"W+	c #063A2F",
"X+	c #095848",
"Y+	c #0A5949",
"Z+	c #085142",
"`+	c #7BB3A1",
" @	c #6EA997",
".@	c #74A794",
"+@	c #423430",
"@@	c #1C0404",
"#@	c #360909",
"$@	c #280909",
"%@	c #010A12",
"&@	c #030D10",
"*@	c #050F0D",
"=@	c #051814",
"-@	c #052721",
";@	c #06382E",
">@	c #095546",
",@	c #074C3E",
"'@	c #58A894",
")@	c #6CAE9B",
"!@	c #81B6A4",
"~@	c #6DA695",
"{@	c #5B9B88",
"]@	c #789888",
"^@	c #221715",
"/@	c #2C0808",
"(@	c #2D0A0A",
"_@	c #040D0A",
":@	c #000B18",
"<@	c #040D0F",
"[@	c #05110F",
"}@	c #051C16",
"|@	c #063A30",
"1@	c #095344",
"2@	c #0A5B4A",
"3@	c #095647",
"4@	c #074B3D",
"5@	c #053D32",
"6@	c #18866E",
"7@	c #3C9681",
"8@	c #6DAE9B",
"9@	c #7DB3A1",
"0@	c #70A998",
"a@	c #428776",
"b@	c #82B09C",
"c@	c #658E7D",
"d@	c #342E28",
"e@	c #3E1A17",
"f@	c #141616",
"g@	c #000E0A",
"h@	c #000C1E",
"i@	c #040E0E",
"j@	c #051511",
"k@	c #063E33",
"l@	c #085344",
"m@	c #084C3E",
"n@	c #042F26",
"o@	c #021F19",
"p@	c #084D3E",
"q@	c #0C5344",
"r@	c #2F806E",
"s@	c #60A895",
"t@	c #75AD9B",
"u@	c #307365",
"v@	c #6DA793",
"w@	c #76AA97",
"x@	c #4C7E6F",
"y@	c #34332C",
"z@	c #091616",
"A@	c #000C0D",
"B@	c #000C21",
"C@	c #041311",
"D@	c #051B16",
"E@	c #052821",
"F@	c #05362C",
"G@	c #032C24",
"H@	c #021D18",
"I@	c #02211B",
"J@	c #042B23",
"K@	c #145345",
"L@	c #38806F",
"M@	c #5DA592",
"N@	c #72AE9C",
"O@	c #24635D",
"P@	c #4C927F",
"Q@	c #70A995",
"R@	c #529784",
"S@	c #29524A",
"T@	c #021B19",
"U@	c #000E1A",
"V@	c #00112E",
"W@	c #041916",
"X@	c #031B16",
"Y@	c #021B16",
"Z@	c #011411",
"`@	c #011915",
" #	c #021E19",
".#	c #021C17",
"+#	c #03221C",
"@#	c #083B31",
"##	c #11525B",
"$#	c #2C7166",
"%#	c #5FA08D",
"&#	c #559A87",
"*#	c #195957",
"=#	c #00281E",
"-#	c #001B46",
";#	c #00173B",
">#	c #010C0B",
",#	c #010F0C",
"'#	c #01110F",
")#	c #023637",
"!#	c #0D5058",
"~#	c #377D6D",
"{#	c #2E7369",
"]#	c #05443F",
"^#	c #002742",
"/#	c #00276C",
"(#	c #001D42",
"_#	c #003E2F",
":#	c #05413A",
"<#	c #023930",
"[#	c #002A31",
"}#	c #00286B",
"|#	c #002727",
"1#	c #002651",
"2#	c #00286C",
"                                                                                ",
"                                                                                ",
"                                    . + @ #                                     ",
"                                  . $ % & * =                                   ",
"                                  - ; > , ' )                                   ",
"                                ! ~ { ] ^ / ( _                                 ",
"                                : < [ } | 1 2 3                                 ",
"                                4 5 6 7 8 9 0 a                                 ",
"                              b c d e f g h i j _                               ",
"                              k l m n o p q r s _                               ",
"                              t u v w x y z A B _                               ",
"                              C D E F G H I J K _                               ",
"                              L M N O P Q R S T U                               ",
"                            V W X Y Z P `  ...+.@.#.                            ",
"                            $.%.&.*.=.-.;.>.,.'.).!.                            ",
"                            ~.{.].^./.(._.:.<.[.}.|.                            ",
"                          1.2.3.4.5.6.7.8.9.0.a.b.c.d.                          ",
"                        e.f.g.h.i.j.k.l.m.n.o.p.q.r.s.t.                        ",
"                        u.v.w.x.y.7.z.A.B.C.o.D.E.F.G.H.                        ",
"                      I.J.K.L.M.N.O.P.Q.R.C.o.S.T.U.V.W.X.                      ",
"                    Y.Z.`. + +.+++@+#+$+%+C.o.o.&+*+=+-+;+>+                    ",
"                  ,+'+`.)+`.)+!+~+{+]+^+/+(+(+_+:+<+[+}+|+1+2+                  ",
"              I.3+4+K.`.)+L.5+6+7+8+9+0+a+b+a+c+d+e+f+g+h+i+j+k+l+              ",
"            m+n+o+`.p+q+r+s+`.t+u+v+w+x+y+b+z+A+B+e+C+D+W.E+F+G+H+I+            ",
"            J+`.K.q+)+L.)+ +q+K+L+M+N+O+P+Q+R+S+T+*+U+V+W+X+Y+;+i+Z+            ",
"            q+`.`+`+o+ +`.J+`+ @.@+@%+@@(+#@$@%@&@*@=@-@;@>@Y+X+i+,@            ",
"            '@)@`.!@`+r+`+J+r+~@{@]@^@(+/@(@_@:@<@[@}@V.|@1@2@3@4@5@            ",
"              6@7@8@q+)+`. +9@0@a@b@c@d@e@f@g@h@i@j@=+g+k@l@m@n@o@              ",
"                p@q@r@s@r+L.5+t@u@v@w@x@y@z@A@B@C@D@E@G.F@G@o@H@                ",
"                    I@J@K@L@M@N@O@P@Q@R@S@T@U@V@W@X@Y@Z@`@ #                    ",
"                          .#+#@###$#%#&#*#=#-#;#>#,#'#                          ",
"                                )#!#~#{#]#^#/#(#                                ",
"                                  _#:#<#[#}#_                                   ",
"                                    |#1#2#_                                     ",
"                                                                                ",
"                                                                                ",
"                                                                                ",
"                                                                                ",
"                                                                                ",
"                                                                                "};
