<?xml version="1.0" encoding="UTF-8" standalone="no"?>
<!DOCTYPE svg PUBLIC "-//W3C//DTD SVG 20010904//EN"
"http://www.w3.org/TR/2001/REC-SVG-20010904/DTD/svg10.dtd">
<!-- Created with Sodipodi ("http://www.sodipodi.com/") -->
<svg
   id="svg1"
   sodipodi:version="0.32"
   inkscape:version="0.40"
   width="8.0000000cm"
   height="6.0000000cm"
   sodipodi:docname="splash-l.opie.svg"
   sodipodi:docbase="/home/kergoth/docs/oz/openzaurus.org-htdocs/oz_website/images"
   xmlns="http://www.w3.org/2000/svg"
   xmlns:inkscape="http://www.inkscape.org/namespaces/inkscape"
   xmlns:sodipodi="http://sodipodi.sourceforge.net/DTD/sodipodi-0.dtd"
   xmlns:xlink="http://www.w3.org/1999/xlink"
   xmlns:rdf="http://www.w3.org/1999/02/22-rdf-syntax-ns#"
   xmlns:cc="http://web.resource.org/cc/"
   xmlns:dc="http://purl.org/dc/elements/1.1/">
  <metadata
     id="metadata1136">
    <rdf:RDF
       id="RDF1137">
      <cc:Work
         rdf:about=""
         id="Work1138">
        <dc:format
           id="format1139">image/svg+xml</dc:format>
        <dc:type
           id="type1141"
           rdf:resource="http://purl.org/dc/dcmitype/StillImage" />
      </cc:Work>
    </rdf:RDF>
  </metadata>
  <defs
     id="defs3">
    <linearGradient
       inkscape:collect="always"
       xlink:href="#linearGradient1705"
       id="linearGradient1785"
       gradientUnits="userSpaceOnUse"
       gradientTransform="scale(1.144942,0.873407)"
       x1="59.353798"
       y1="96.341286"
       x2="77.783882"
       y2="107.33059" />
    <linearGradient
       inkscape:collect="always"
       xlink:href="#linearGradient1705"
       id="linearGradient1708"
       gradientTransform="scale(1.144942,0.873407)"
       x1="59.353798"
       y1="96.341286"
       x2="77.783882"
       y2="107.33059"
       gradientUnits="userSpaceOnUse" />
    <linearGradient
       id="linearGradient1705">
      <stop
         style="stop-color:#ff5a00;stop-opacity:1.0000000;"
         offset="0.0000000"
         id="stop1706" />
      <stop
         style="stop-color:#d6ff00;stop-opacity:1.0000000;"
         offset="1.0000000"
         id="stop1707" />
    </linearGradient>
  </defs>
  <sodipodi:namedview
     id="base"
     pagecolor="#ffffff"
     bordercolor="#666666"
     borderopacity="1.0"
     inkscape:pageopacity="0.0"
     inkscape:pageshadow="2"
     inkscape:zoom="2.0000000"
     inkscape:cx="130.17183"
     inkscape:cy="82.153473"
     inkscape:window-width="1356"
     inkscape:window-height="1181"
     showguides="true"
     snaptoguides="true"
     inkscape:window-x="14"
     inkscape:window-y="-10"
     inkscape:current-layer="svg1" />
  <path
     style="fill:#9ca3c2;fill-rule:evenodd;stroke:#000000;stroke-width:0.86250001;stroke-linecap:round;stroke-linejoin:round;"
     d="M 150.60592,91.743209 C 150.60592,126.90946 122.06521,155.45016 86.898980,155.45016 C 51.732741,155.45016 23.192037,126.90946 23.192037,91.743209 C 23.192037,56.576987 51.732741,28.036281 86.898980,28.036281 C 122.06521,28.036281 150.60592,56.576987 150.60592,91.743209 z M 125.59088,91.743225 C 125.59088,123.01260 108.25691,148.39065 86.898996,148.39065 C 65.541064,148.39065 48.207098,123.01260 48.207098,91.743225 C 48.207098,60.473843 65.541064,35.095803 86.898996,35.095803 C 108.25691,35.095803 125.59088,60.473843 125.59088,91.743225 z "
     id="path861"
     transform="matrix(0.500000,0.000000,0.000000,0.500000,132.6799,66.27024)" />
  <path
     style="fill:#9ca3c2;fill-rule:evenodd;stroke:#000000;stroke-width:0.86250001;stroke-linecap:round;stroke-linejoin:round;"
     d="M 132.75147,91.356420 C 132.87448,64.917742 151.72789,27.858725 196.63972,27.835097 C 207.45455,27.890687 223.63895,35.346804 225.55952,41.517017 C 183.84040,25.116588 151.35632,59.619550 151.26456,91.865400 C 151.42728,124.36573 184.86806,158.68422 225.66493,141.78379 C 222.82764,147.71089 208.80153,155.59326 196.50275,155.65048 C 151.84536,155.85942 132.62846,118.04958 132.75147,91.356420 z "
     id="path869"
     sodipodi:nodetypes="csczcsz"
     transform="matrix(0.500000,0.000000,0.000000,0.500000,132.6799,66.27024)" />
  <path
     style="fill:#9ca3c2;fill-rule:evenodd;stroke:#000000;stroke-width:0.86250001;stroke-linecap:round;stroke-linejoin:round;"
     d="M 173.2093 62.12526 C 187.1012 61.82853 198.1696 76.01726 198.3348 91.56551 C 198.4135 107.2003 187.9133 121.6873 173.1847 121.1256 C 187.7964 112.1516 188.1917 94.48494 188.1594 91.61621 C 188.1270 88.66092 187.4490 70.73875 173.2093 62.12526 z "
     id="path877"
     sodipodi:nodetypes="czczc"
     transform="matrix(0.500000,0.000000,0.000000,0.500000,132.6799,66.27024)" />
  <path
     transform="matrix(0.214671,0.000000,0.000000,0.214671,38.01651,-69.43022)"
     style="font-size:56.000000;stroke-width:3.0000000pt;font-family:Verdana;"
     d="M 688.45886,1061.9202 L 683.31824,1061.9202 L 683.31824,1044.5295 C 683.31824,1043.1259 683.23621,1041.8134 683.07214,1040.5920 C 682.90808,1039.3525 682.60730,1038.3863 682.16980,1037.6936 C 681.71407,1036.9280 681.05782,1036.3629 680.20105,1035.9983 C 679.34428,1035.6155 678.23230,1035.4241 676.86511,1035.4241 C 675.46147,1035.4241 673.99402,1035.7704 672.46277,1036.4631 C 670.93152,1037.1558 669.46407,1038.0400 668.06042,1039.1155 L 668.06042,1061.9202 L 662.91980,1061.9202 L 662.91980,1031.3772 L 668.06042,1031.3772 L 668.06042,1034.7678 C 669.66459,1033.4371 671.32345,1032.3980 673.03699,1031.6506 C 674.75053,1030.9032 676.50964,1030.5295 678.31433,1030.5295 C 681.61381,1030.5295 684.12944,1031.5230 685.86121,1033.5100 C 687.59298,1035.4970 688.45886,1038.3590 688.45886,1042.0959 L 688.45886,1061.9202 z M 655.12683,1047.1819 L 632.62292,1047.1819 C 632.62292,1049.0595 632.90548,1050.7001 633.47058,1052.1038 C 634.03569,1053.4892 634.81042,1054.6285 635.79480,1055.5217 C 636.74272,1056.3967 637.86381,1057.0530 639.15808,1057.4905 C 640.47058,1057.9280 641.91069,1058.1467 643.47839,1058.1467 C 645.55652,1058.1467 647.64376,1057.7366 649.74011,1056.9163 C 651.85470,1056.0777 653.35860,1055.2574 654.25183,1054.4553 L 654.52527,1054.4553 L 654.52527,1060.0608 C 652.79350,1060.7900 651.02527,1061.4006 649.22058,1061.8928 C 647.41589,1062.3850 645.52006,1062.6311 643.53308,1062.6311 C 638.46537,1062.6311 634.50964,1061.2639 631.66589,1058.5295 C 628.82214,1055.7769 627.40027,1051.8759 627.40027,1046.8264 C 627.40027,1041.8316 628.75834,1037.8668 631.47449,1034.9319 C 634.20886,1031.9970 637.80001,1030.5295 642.24792,1030.5295 C 646.36772,1030.5295 649.53959,1031.7327 651.76355,1034.1389 C 654.00574,1036.5452 655.12683,1039.9631 655.12683,1044.3928 L 655.12683,1047.1819 z M 650.12292,1043.2444 C 650.10470,1040.5465 649.42110,1038.4592 648.07214,1036.9827 C 646.74141,1035.5061 644.70886,1034.7678 641.97449,1034.7678 C 639.22188,1034.7678 637.02527,1035.5790 635.38464,1037.2014 C 633.76225,1038.8238 632.84167,1040.8381 632.62292,1043.2444 L 650.12292,1043.2444 z M 621.54871,1046.2795 C 621.54871,1048.7587 621.19324,1051.0282 620.48230,1053.0881 C 619.77136,1055.1298 618.76876,1056.8616 617.47449,1058.2834 C 616.27136,1059.6324 614.84949,1060.6806 613.20886,1061.4280 C 611.58647,1062.1571 609.86381,1062.5217 608.04089,1062.5217 C 606.45496,1062.5217 605.01485,1062.3486 603.72058,1062.0022 C 602.44454,1061.6558 601.14115,1061.1181 599.81042,1060.3889 L 599.81042,1073.1858 L 594.66980,1073.1858 L 594.66980,1031.3772 L 599.81042,1031.3772 L 599.81042,1034.5764 C 601.17761,1033.4280 602.70886,1032.4709 604.40417,1031.7053 C 606.11772,1030.9215 607.94063,1030.5295 609.87292,1030.5295 C 613.55522,1030.5295 616.41720,1031.9241 618.45886,1034.7131 C 620.51876,1037.4840 621.54871,1041.3394 621.54871,1046.2795 z M 616.24402,1046.4163 C 616.24402,1042.7340 615.61511,1039.9814 614.35730,1038.1584 C 613.09949,1036.3355 611.16720,1035.4241 608.56042,1035.4241 C 607.08386,1035.4241 605.59819,1035.7431 604.10339,1036.3811 C 602.60860,1037.0191 601.17761,1037.8577 599.81042,1038.8967 L 599.81042,1056.2053 C 601.26876,1056.8616 602.51746,1057.3082 603.55652,1057.5452 C 604.61381,1057.7821 605.80782,1057.9006 607.13855,1057.9006 C 610.00053,1057.9006 612.23360,1056.9345 613.83777,1055.0022 C 615.44194,1053.0699 616.24402,1050.2079 616.24402,1046.4163 z M 586.71277,1046.6624 C 586.71277,1051.6389 585.43673,1055.5673 582.88464,1058.4475 C 580.33256,1061.3277 576.91459,1062.7678 572.63074,1062.7678 C 568.31042,1062.7678 564.87423,1061.3277 562.32214,1058.4475 C 559.78829,1055.5673 558.52136,1051.6389 558.52136,1046.6624 C 558.52136,1041.6858 559.78829,1037.7574 562.32214,1034.8772 C 564.87423,1031.9788 568.31042,1030.5295 572.63074,1030.5295 C 576.91459,1030.5295 580.33256,1031.9788 582.88464,1034.8772 C 585.43673,1037.7574 586.71277,1041.6858 586.71277,1046.6624 z M 581.40808,1046.6624 C 581.40808,1042.7066 580.63334,1039.7717 579.08386,1037.8577 C 577.53438,1035.9254 575.38334,1034.9592 572.63074,1034.9592 C 569.84167,1034.9592 567.67240,1035.9254 566.12292,1037.8577 C 564.59167,1039.7717 563.82605,1042.7066 563.82605,1046.6624 C 563.82605,1050.4905 564.60079,1053.3980 566.15027,1055.3850 C 567.69975,1057.3538 569.85990,1058.3381 572.63074,1058.3381 C 575.36511,1058.3381 577.50704,1057.3629 579.05652,1055.4124 C 580.62423,1053.4436 581.40808,1050.5269 581.40808,1046.6624 z "
     id="path1762" />
  <path
     transform="matrix(0.214671,0.000000,0.000000,0.214671,36.84973,-69.43022)"
     style="font-size:56.000000;fill:#929292;stroke-width:3.0000000pt;font-family:Verdana;"
     d="M 994.68658,1061.9202 L 989.54596,1061.9202 L 989.54596,1058.7209 C 988.06940,1059.9970 986.52903,1060.9905 984.92487,1061.7014 C 983.32070,1062.4124 981.57981,1062.7678 979.70221,1062.7678 C 976.05638,1062.7678 973.15794,1061.3642 971.00690,1058.5569 C 968.87408,1055.7496 967.80768,1051.8577 967.80768,1046.8811 C 967.80768,1044.2926 968.17226,1041.9866 968.90143,1039.9631 C 969.64882,1037.9397 970.65143,1036.2170 971.90924,1034.7952 C 973.14882,1033.4097 974.58893,1032.3525 976.22955,1031.6233 C 977.88841,1030.8941 979.60195,1030.5295 981.37018,1030.5295 C 982.97434,1030.5295 984.39622,1030.7027 985.63580,1031.0491 C 986.87539,1031.3772 988.17877,1031.8967 989.54596,1032.6077 L 989.54596,1019.3733 L 994.68658,1019.3733 L 994.68658,1061.9202 z M 989.54596,1054.4006 L 989.54596,1036.8733 C 988.16054,1036.2535 986.92096,1035.8251 985.82721,1035.5881 C 984.73346,1035.3512 983.53945,1035.2327 982.24518,1035.2327 C 979.36497,1035.2327 977.12278,1036.2353 975.51862,1038.2405 C 973.91445,1040.2457 973.11237,1043.0894 973.11237,1046.7717 C 973.11237,1050.3993 973.73216,1053.1611 974.97174,1055.0569 C 976.21132,1056.9345 978.19830,1057.8733 980.93268,1057.8733 C 982.39101,1057.8733 983.86757,1057.5543 985.36237,1056.9163 C 986.85716,1056.2600 988.25169,1055.4215 989.54596,1054.4006 z M 962.12018,1047.1819 L 939.61627,1047.1819 C 939.61627,1049.0595 939.89882,1050.7001 940.46393,1052.1038 C 941.02903,1053.4892 941.80377,1054.6285 942.78815,1055.5217 C 943.73606,1056.3967 944.85716,1057.0530 946.15143,1057.4905 C 947.46393,1057.9280 948.90403,1058.1467 950.47174,1058.1467 C 952.54987,1058.1467 954.63711,1057.7366 956.73346,1056.9163 C 958.84804,1056.0777 960.35195,1055.2574 961.24518,1054.4553 L 961.51862,1054.4553 L 961.51862,1060.0608 C 959.78684,1060.7900 958.01862,1061.4006 956.21393,1061.8928 C 954.40924,1062.3850 952.51341,1062.6311 950.52643,1062.6311 C 945.45872,1062.6311 941.50299,1061.2639 938.65924,1058.5295 C 935.81549,1055.7769 934.39362,1051.8759 934.39362,1046.8264 C 934.39362,1041.8316 935.75169,1037.8668 938.46783,1034.9319 C 941.20221,1031.9970 944.79336,1030.5295 949.24127,1030.5295 C 953.36106,1030.5295 956.53294,1031.7327 958.75690,1034.1389 C 960.99908,1036.5452 962.12018,1039.9631 962.12018,1044.3928 L 962.12018,1047.1819 z M 957.11627,1043.2444 C 957.09804,1040.5465 956.41445,1038.4592 955.06549,1036.9827 C 953.73476,1035.5061 951.70221,1034.7678 948.96783,1034.7678 C 946.21523,1034.7678 944.01862,1035.5790 942.37799,1037.2014 C 940.75559,1038.8238 939.83502,1040.8381 939.61627,1043.2444 L 957.11627,1043.2444 z M 926.43658,1061.9202 L 921.29596,1061.9202 L 921.29596,1058.7209 C 919.81940,1059.9970 918.27903,1060.9905 916.67487,1061.7014 C 915.07070,1062.4124 913.32981,1062.7678 911.45221,1062.7678 C 907.80638,1062.7678 904.90794,1061.3642 902.75690,1058.5569 C 900.62408,1055.7496 899.55768,1051.8577 899.55768,1046.8811 C 899.55768,1044.2926 899.92226,1041.9866 900.65143,1039.9631 C 901.39882,1037.9397 902.40143,1036.2170 903.65924,1034.7952 C 904.89882,1033.4097 906.33893,1032.3525 907.97955,1031.6233 C 909.63841,1030.8941 911.35195,1030.5295 913.12018,1030.5295 C 914.72434,1030.5295 916.14622,1030.7027 917.38580,1031.0491 C 918.62539,1031.3772 919.92877,1031.8967 921.29596,1032.6077 L 921.29596,1019.3733 L 926.43658,1019.3733 L 926.43658,1061.9202 z M 921.29596,1054.4006 L 921.29596,1036.8733 C 919.91054,1036.2535 918.67096,1035.8251 917.57721,1035.5881 C 916.48346,1035.3512 915.28945,1035.2327 913.99518,1035.2327 C 911.11497,1035.2327 908.87278,1036.2353 907.26862,1038.2405 C 905.66445,1040.2457 904.86237,1043.0894 904.86237,1046.7717 C 904.86237,1050.3993 905.48216,1053.1611 906.72174,1055.0569 C 907.96132,1056.9345 909.94830,1057.8733 912.68268,1057.8733 C 914.14101,1057.8733 915.61757,1057.5543 917.11237,1056.9163 C 918.60716,1056.2600 920.00169,1055.4215 921.29596,1054.4006 z M 891.54596,1061.9202 L 886.40533,1061.9202 L 886.40533,1058.7209 C 884.92877,1059.9970 883.38841,1060.9905 881.78424,1061.7014 C 880.18007,1062.4124 878.43919,1062.7678 876.56158,1062.7678 C 872.91575,1062.7678 870.01731,1061.3642 867.86627,1058.5569 C 865.73346,1055.7496 864.66705,1051.8577 864.66705,1046.8811 C 864.66705,1044.2926 865.03164,1041.9866 865.76080,1039.9631 C 866.50820,1037.9397 867.51080,1036.2170 868.76862,1034.7952 C 870.00820,1033.4097 871.44830,1032.3525 873.08893,1031.6233 C 874.74778,1030.8941 876.46132,1030.5295 878.22955,1030.5295 C 879.83372,1030.5295 881.25559,1030.7027 882.49518,1031.0491 C 883.73476,1031.3772 885.03815,1031.8967 886.40533,1032.6077 L 886.40533,1019.3733 L 891.54596,1019.3733 L 891.54596,1061.9202 z M 886.40533,1054.4006 L 886.40533,1036.8733 C 885.01992,1036.2535 883.78033,1035.8251 882.68658,1035.5881 C 881.59283,1035.3512 880.39882,1035.2327 879.10455,1035.2327 C 876.22434,1035.2327 873.98216,1036.2353 872.37799,1038.2405 C 870.77382,1040.2457 869.97174,1043.0894 869.97174,1046.7717 C 869.97174,1050.3993 870.59153,1053.1611 871.83112,1055.0569 C 873.07070,1056.9345 875.05768,1057.8733 877.79205,1057.8733 C 879.25039,1057.8733 880.72695,1057.5543 882.22174,1056.9163 C 883.71653,1056.2600 885.11106,1055.4215 886.40533,1054.4006 z M 858.97955,1047.1819 L 836.47565,1047.1819 C 836.47565,1049.0595 836.75820,1050.7001 837.32330,1052.1038 C 837.88841,1053.4892 838.66315,1054.6285 839.64752,1055.5217 C 840.59544,1056.3967 841.71653,1057.0530 843.01080,1057.4905 C 844.32330,1057.9280 845.76341,1058.1467 847.33112,1058.1467 C 849.40924,1058.1467 851.49648,1057.7366 853.59283,1056.9163 C 855.70742,1056.0777 857.21132,1055.2574 858.10455,1054.4553 L 858.37799,1054.4553 L 858.37799,1060.0608 C 856.64622,1060.7900 854.87799,1061.4006 853.07330,1061.8928 C 851.26862,1062.3850 849.37278,1062.6311 847.38580,1062.6311 C 842.31809,1062.6311 838.36237,1061.2639 835.51862,1058.5295 C 832.67487,1055.7769 831.25299,1051.8759 831.25299,1046.8264 C 831.25299,1041.8316 832.61106,1037.8668 835.32721,1034.9319 C 838.06158,1031.9970 841.65273,1030.5295 846.10065,1030.5295 C 850.22044,1030.5295 853.39231,1031.7327 855.61627,1034.1389 C 857.85846,1036.5452 858.97955,1039.9631 858.97955,1044.3928 L 858.97955,1047.1819 z M 853.97565,1043.2444 C 853.95742,1040.5465 853.27382,1038.4592 851.92487,1036.9827 C 850.59414,1035.5061 848.56158,1034.7678 845.82721,1034.7678 C 843.07461,1034.7678 840.87799,1035.5790 839.23737,1037.2014 C 837.61497,1038.8238 836.69440,1040.8381 836.47565,1043.2444 L 853.97565,1043.2444 z M 825.40143,1046.4163 C 825.40143,1048.9683 825.03684,1051.2652 824.30768,1053.3069 C 823.59674,1055.3486 822.63059,1057.0621 821.40924,1058.4475 C 820.11497,1059.8876 818.69309,1060.9722 817.14362,1061.7014 C 815.59414,1062.4124 813.88971,1062.7678 812.03033,1062.7678 C 810.29856,1062.7678 808.78554,1062.5582 807.49127,1062.1389 C 806.19700,1061.7379 804.92096,1061.1910 803.66315,1060.4983 L 803.33502,1061.9202 L 798.52252,1061.9202 L 798.52252,1019.3733 L 803.66315,1019.3733 L 803.66315,1034.5764 C 805.10325,1033.3915 806.63450,1032.4254 808.25690,1031.6780 C 809.87929,1030.9124 811.70221,1030.5295 813.72565,1030.5295 C 817.33502,1030.5295 820.17877,1031.9150 822.25690,1034.6858 C 824.35325,1037.4566 825.40143,1041.3668 825.40143,1046.4163 z M 820.09674,1046.5530 C 820.09674,1042.9071 819.49518,1040.1454 818.29205,1038.2678 C 817.08893,1036.3720 815.14752,1035.4241 812.46783,1035.4241 C 810.97304,1035.4241 809.46002,1035.7522 807.92877,1036.4084 C 806.39752,1037.0465 804.97565,1037.8759 803.66315,1038.8967 L 803.66315,1056.3967 C 805.12148,1057.0530 806.37018,1057.5087 807.40924,1057.7639 C 808.46653,1058.0191 809.66054,1058.1467 810.99127,1058.1467 C 813.83502,1058.1467 816.05898,1057.2170 817.66315,1055.3577 C 819.28554,1053.4801 820.09674,1050.5452 820.09674,1046.5530 z M 788.62408,1061.9202 L 783.48346,1061.9202 L 783.48346,1044.5295 C 783.48346,1043.2170 783.41966,1041.9501 783.29205,1040.7288 C 783.18268,1039.5074 782.93658,1038.5321 782.55377,1037.8030 C 782.13450,1037.0191 781.53294,1036.4267 780.74908,1036.0256 C 779.96523,1035.6246 778.83502,1035.4241 777.35846,1035.4241 C 775.91836,1035.4241 774.47825,1035.7887 773.03815,1036.5178 C 771.59804,1037.2288 770.15794,1038.1402 768.71783,1039.2522 C 768.77252,1039.6715 768.81809,1040.1637 768.85455,1040.7288 C 768.89101,1041.2756 768.90924,1041.8225 768.90924,1042.3694 L 768.90924,1061.9202 L 763.76862,1061.9202 L 763.76862,1044.5295 C 763.76862,1043.1806 763.70481,1041.9045 763.57721,1040.7014 C 763.46783,1039.4801 763.22174,1038.5048 762.83893,1037.7756 C 762.41966,1036.9918 761.81809,1036.4084 761.03424,1036.0256 C 760.25039,1035.6246 759.12018,1035.4241 757.64362,1035.4241 C 756.23997,1035.4241 754.82721,1035.7704 753.40533,1036.4631 C 752.00169,1037.1558 750.59804,1038.0400 749.19440,1039.1155 L 749.19440,1061.9202 L 744.05377,1061.9202 L 744.05377,1031.3772 L 749.19440,1031.3772 L 749.19440,1034.7678 C 750.79856,1033.4371 752.39362,1032.3980 753.97955,1031.6506 C 755.58372,1030.9032 757.28815,1030.5295 759.09283,1030.5295 C 761.17096,1030.5295 762.93007,1030.9670 764.37018,1031.8420 C 765.82851,1032.7170 766.91315,1033.9293 767.62408,1035.4788 C 769.70221,1033.7288 771.59804,1032.4709 773.31158,1031.7053 C 775.02513,1030.9215 776.85716,1030.5295 778.80768,1030.5295 C 782.16184,1030.5295 784.63190,1031.5504 786.21783,1033.5920 C 787.82200,1035.6155 788.62408,1038.4501 788.62408,1042.0959 L 788.62408,1061.9202 z M 736.26080,1047.1819 L 713.75690,1047.1819 C 713.75690,1049.0595 714.03945,1050.7001 714.60455,1052.1038 C 715.16966,1053.4892 715.94440,1054.6285 716.92877,1055.5217 C 717.87669,1056.3967 718.99778,1057.0530 720.29205,1057.4905 C 721.60455,1057.9280 723.04466,1058.1467 724.61237,1058.1467 C 726.69049,1058.1467 728.77773,1057.7366 730.87408,1056.9163 C 732.98867,1056.0777 734.49257,1055.2574 735.38580,1054.4553 L 735.65924,1054.4553 L 735.65924,1060.0608 C 733.92747,1060.7900 732.15924,1061.4006 730.35455,1061.8928 C 728.54987,1062.3850 726.65403,1062.6311 724.66705,1062.6311 C 719.59934,1062.6311 715.64362,1061.2639 712.79987,1058.5295 C 709.95612,1055.7769 708.53424,1051.8759 708.53424,1046.8264 C 708.53424,1041.8316 709.89231,1037.8668 712.60846,1034.9319 C 715.34283,1031.9970 718.93398,1030.5295 723.38190,1030.5295 C 727.50169,1030.5295 730.67356,1031.7327 732.89752,1034.1389 C 735.13971,1036.5452 736.26080,1039.9631 736.26080,1044.3928 L 736.26080,1047.1819 z M 731.25690,1043.2444 C 731.23867,1040.5465 730.55507,1038.4592 729.20612,1036.9827 C 727.87539,1035.5061 725.84283,1034.7678 723.10846,1034.7678 C 720.35586,1034.7678 718.15924,1035.5790 716.51862,1037.2014 C 714.89622,1038.8238 713.97565,1040.8381 713.75690,1043.2444 L 731.25690,1043.2444 z "
     id="path1763" />
  <g
     id="g945"
     style="stroke:#000000;stroke-opacity:0.11999995;"
     transform="matrix(0.500000,0.000000,0.000000,0.500000,132.6799,66.27024)">
    <path
       style="fill:none;fill-opacity:0.75000000;fill-rule:evenodd;stroke:#000000;stroke-width:1.2500000;stroke-opacity:0.1200;"
       d="M 210.10063,527.64010 L 600.37556,527.64010"
       id="path840"
       sodipodi:nodetypes="cc"
       transform="matrix(0.680271,0.000000,0.000000,0.680271,-132.4632,-267.1952)" />
    <path
       style="fill:none;fill-rule:evenodd;stroke:#000000;stroke-width:1.2500000;stroke-linejoin:round;stroke-opacity:0.1200;"
       d="M 577.34380,527.64009 C 577.34380,579.33452 535.38890,621.28942 483.69447,621.28942 C 432.00004,621.28942 390.04514,579.33452 390.04514,527.64009 C 390.04514,475.94566 432.00004,433.99076 483.69447,433.99076 C 535.38890,433.99076 577.34380,475.94566 577.34380,527.64009 z "
       id="path849"
       transform="matrix(0.680271,0.000000,0.000000,0.680271,-132.4632,-267.1952)" />
    <path
       style="fill:none;fill-rule:evenodd;stroke:#000000;stroke-width:1.2500000;stroke-linejoin:round;stroke-opacity:0.1200;"
       d="M 378.24332,527.64008 C 378.24332,558.43082 353.25373,583.42040 322.46301,583.42040 C 291.67226,583.42040 266.68267,558.43082 266.68267,527.64008 C 266.68267,496.84933 291.67226,471.85976 322.46301,471.85976 C 353.25373,471.85976 378.24332,496.84933 378.24332,527.64008 z "
       id="path839"
       transform="matrix(0.680271,0.000000,0.000000,0.680271,-132.4632,-267.1952)" />
    <path
       style="fill:none;fill-opacity:0.75000000;fill-rule:evenodd;stroke:#000000;stroke-width:1.2500000;stroke-linejoin:round;stroke-opacity:0.1200;"
       d="M 322.46300,422.21153 L 322.46300,633.06864"
       id="path841"
       sodipodi:nodetypes="cc"
       transform="matrix(0.680271,0.000000,0.000000,0.680271,-132.4632,-267.1952)" />
    <path
       style="fill:none;fill-rule:evenodd;stroke:#000000;stroke-width:1.2500000;stroke-linejoin:round;stroke-opacity:0.1200;"
       d="M 539.47480,527.64009 C 539.47480,558.43083 514.48521,583.42041 483.69449,583.42041 C 452.90374,583.42041 427.91415,558.43083 427.91415,527.64009 C 427.91415,496.84934 452.90374,471.85977 483.69449,471.85977 C 514.48521,471.85977 539.47480,496.84934 539.47480,527.64009 z "
       id="path850"
       transform="matrix(0.680271,0.000000,0.000000,0.680271,-132.4632,-267.1952)" />
    <path
       style="fill:none;fill-opacity:0.75000000;fill-rule:evenodd;stroke:#000000;stroke-width:1.2500000;stroke-linejoin:round;stroke-opacity:0.1200;"
       d="M 483.69448,422.21153 L 483.69448,633.06864"
       id="path851"
       sodipodi:nodetypes="cc"
       transform="matrix(0.680271,0.000000,0.000000,0.680271,-132.4632,-267.1952)" />
    <path
       style="fill:none;fill-rule:evenodd;stroke:#000000;stroke-width:0.76683110;stroke-linejoin:round;stroke-opacity:0.1200;"
       d="M 144.34955,91.743214 C 144.34955,123.45594 118.61168,149.19380 86.898970,149.19380 C 55.186251,149.19380 29.448400,123.45594 29.448400,91.743214 C 29.448400,60.030495 55.186251,34.292644 86.898970,34.292644 C 118.61168,34.292644 144.34955,60.030495 144.34955,91.743214 z "
       id="path943" />
    <path
       style="fill:none;fill-rule:evenodd;stroke:#000000;stroke-width:0.76683110;stroke-linejoin:round;stroke-opacity:0.1200;"
       d="M 254.03070,91.743050 C 254.03070,123.45578 228.29283,149.19364 196.58012,149.19364 C 164.86740,149.19364 139.12954,123.45578 139.12954,91.743050 C 139.12954,60.030332 164.86740,34.292480 196.58012,34.292480 C 228.29283,34.292480 254.03070,60.030332 254.03070,91.743050 z "
       id="path944" />
  </g>
  <path
     style="font-size:12.000000;stroke-width:1.0000000pt;font-family:Bitstream Vera Sans;"
     d="M 235.76262,72.007408 C 235.45793,72.788658 235.16106,73.298424 234.87199,73.536705 C 234.58293,73.774986 234.19621,73.894127 233.71184,73.894127 L 232.85051,73.894127 L 232.85051,72.991783 L 233.48332,72.991783 C 233.78020,72.991783 234.01067,72.921471 234.17473,72.780846 C 234.33879,72.640221 234.52043,72.308189 234.71965,71.784752 L 234.91301,71.292564 L 232.25871,64.835533 L 233.40129,64.835533 L 235.45207,69.968346 L 237.50285,64.835533 L 238.64543,64.835533 L 235.76262,72.007408 z M 230.12590,68.122643 C 230.12590,67.329674 229.96184,66.708580 229.63371,66.259361 C 229.30949,65.806236 228.86223,65.579674 228.29192,65.579674 C 227.72160,65.579674 227.27238,65.806236 226.94426,66.259361 C 226.62004,66.708580 226.45793,67.329674 226.45793,68.122643 C 226.45793,68.915611 226.62004,69.538658 226.94426,69.991783 C 227.27238,70.441002 227.72160,70.665611 228.29192,70.665611 C 228.86223,70.665611 229.30949,70.441002 229.63371,69.991783 C 229.96184,69.538658 230.12590,68.915611 230.12590,68.122643 z M 226.45793,65.831627 C 226.68449,65.441002 226.96965,65.151939 227.31340,64.964439 C 227.66106,64.773033 228.07512,64.677330 228.55559,64.677330 C 229.35246,64.677330 229.99895,64.993736 230.49504,65.626549 C 230.99504,66.259361 231.24504,67.091393 231.24504,68.122643 C 231.24504,69.153893 230.99504,69.985924 230.49504,70.618736 C 229.99895,71.251549 229.35246,71.567955 228.55559,71.567955 C 228.07512,71.567955 227.66106,71.474205 227.31340,71.286705 C 226.96965,71.095299 226.68449,70.804283 226.45793,70.413658 L 226.45793,71.398033 L 225.37395,71.398033 L 225.37395,62.280846 L 226.45793,62.280846 L 226.45793,65.831627 z M 218.30168,65.831627 L 218.30168,62.280846 L 219.37981,62.280846 L 219.37981,71.398033 L 218.30168,71.398033 L 218.30168,70.413658 C 218.07512,70.804283 217.78801,71.095299 217.44035,71.286705 C 217.09660,71.474205 216.68254,71.567955 216.19817,71.567955 C 215.40520,71.567955 214.75871,71.251549 214.25871,70.618736 C 213.76262,69.985924 213.51457,69.153893 213.51457,68.122643 C 213.51457,67.091393 213.76262,66.259361 214.25871,65.626549 C 214.75871,64.993736 215.40520,64.677330 216.19817,64.677330 C 216.68254,64.677330 217.09660,64.773033 217.44035,64.964439 C 217.78801,65.151939 218.07512,65.441002 218.30168,65.831627 z M 214.62785,68.122643 C 214.62785,68.915611 214.78996,69.538658 215.11418,69.991783 C 215.44231,70.441002 215.89153,70.665611 216.46184,70.665611 C 217.03215,70.665611 217.48137,70.441002 217.80949,69.991783 C 218.13762,69.538658 218.30168,68.915611 218.30168,68.122643 C 218.30168,67.329674 218.13762,66.708580 217.80949,66.259361 C 217.48137,65.806236 217.03215,65.579674 216.46184,65.579674 C 215.89153,65.579674 215.44231,65.806236 215.11418,66.259361 C 214.78996,66.708580 214.62785,67.329674 214.62785,68.122643 z M 212.21379,67.847252 L 212.21379,68.374596 L 207.25676,68.374596 C 207.30363,69.116783 207.52629,69.683189 207.92473,70.073814 C 208.32707,70.460533 208.88567,70.653893 209.60051,70.653893 C 210.01457,70.653893 210.41496,70.603111 210.80168,70.501549 C 211.19231,70.399986 211.57903,70.247643 211.96184,70.044518 L 211.96184,71.064049 C 211.57512,71.228111 211.17863,71.353111 210.77238,71.439049 C 210.36613,71.524986 209.95403,71.567955 209.53606,71.567955 C 208.48918,71.567955 207.65910,71.263268 207.04582,70.653893 C 206.43645,70.044518 206.13176,69.220299 206.13176,68.181236 C 206.13176,67.107018 206.42082,66.255455 206.99895,65.626549 C 207.58098,64.993736 208.36418,64.677330 209.34856,64.677330 C 210.23137,64.677330 210.92863,64.962486 211.44035,65.532799 C 211.95598,66.099205 212.21379,66.870689 212.21379,67.847252 z M 211.13567,67.530846 C 211.12785,66.941002 210.96184,66.470299 210.63762,66.118736 C 210.31731,65.767174 209.89153,65.591393 209.36028,65.591393 C 208.75871,65.591393 208.27629,65.761314 207.91301,66.101158 C 207.55363,66.441002 207.34660,66.919518 207.29192,67.536705 L 211.13567,67.530846 z M 205.46965,65.843346 C 205.34856,65.773033 205.21574,65.722252 205.07121,65.691002 C 204.93059,65.655846 204.77434,65.638268 204.60246,65.638268 C 203.99309,65.638268 203.52434,65.837486 203.19621,66.235924 C 202.87199,66.630455 202.70988,67.198814 202.70988,67.941002 L 202.70988,71.398033 L 201.62590,71.398033 L 201.62590,64.835533 L 202.70988,64.835533 L 202.70988,65.855064 C 202.93645,65.456627 203.23137,65.161705 203.59465,64.970299 C 203.95793,64.774986 204.39934,64.677330 204.91887,64.677330 C 204.99309,64.677330 205.07512,64.683189 205.16496,64.694908 C 205.25481,64.702721 205.35442,64.716393 205.46379,64.735924 L 205.46965,65.843346 z M 199.89738,67.847252 L 199.89738,68.374596 L 194.94035,68.374596 C 194.98723,69.116783 195.20988,69.683189 195.60832,70.073814 C 196.01067,70.460533 196.56926,70.653893 197.28410,70.653893 C 197.69817,70.653893 198.09856,70.603111 198.48528,70.501549 C 198.87590,70.399986 199.26262,70.247643 199.64543,70.044518 L 199.64543,71.064049 C 199.25871,71.228111 198.86223,71.353111 198.45598,71.439049 C 198.04973,71.524986 197.63762,71.567955 197.21965,71.567955 C 196.17278,71.567955 195.34270,71.263268 194.72942,70.653893 C 194.12004,70.044518 193.81535,69.220299 193.81535,68.181236 C 193.81535,67.107018 194.10442,66.255455 194.68254,65.626549 C 195.26457,64.993736 196.04778,64.677330 197.03215,64.677330 C 197.91496,64.677330 198.61223,64.962486 199.12395,65.532799 C 199.63957,66.099205 199.89738,66.870689 199.89738,67.847252 z M 198.81926,67.530846 C 198.81145,66.941002 198.64543,66.470299 198.32121,66.118736 C 198.00090,65.767174 197.57512,65.591393 197.04387,65.591393 C 196.44231,65.591393 195.95988,65.761314 195.59660,66.101158 C 195.23723,66.441002 195.03020,66.919518 194.97551,67.536705 L 198.81926,67.530846 z M 183.84270,64.835533 L 184.92082,64.835533 L 186.26848,69.956627 L 187.61028,64.835533 L 188.88176,64.835533 L 190.22942,69.956627 L 191.57121,64.835533 L 192.64934,64.835533 L 190.93254,71.398033 L 189.66106,71.398033 L 188.24895,66.019127 L 186.83098,71.398033 L 185.55949,71.398033 L 183.84270,64.835533 z M 179.67082,65.591393 C 179.09270,65.591393 178.63567,65.817955 178.29973,66.271080 C 177.96379,66.720299 177.79582,67.337486 177.79582,68.122643 C 177.79582,68.907799 177.96184,69.526939 178.29387,69.980064 C 178.62981,70.429283 179.08879,70.653893 179.67082,70.653893 C 180.24504,70.653893 180.70012,70.427330 181.03606,69.974205 C 181.37199,69.521080 181.53996,68.903893 181.53996,68.122643 C 181.53996,67.345299 181.37199,66.730064 181.03606,66.276939 C 180.70012,65.819908 180.24504,65.591393 179.67082,65.591393 z M 179.67082,64.677330 C 180.60832,64.677330 181.34465,64.982018 181.87981,65.591393 C 182.41496,66.200768 182.68254,67.044518 182.68254,68.122643 C 182.68254,69.196861 182.41496,70.040611 181.87981,70.653893 C 181.34465,71.263268 180.60832,71.567955 179.67082,71.567955 C 178.72942,71.567955 177.99113,71.263268 177.45598,70.653893 C 176.92473,70.040611 176.65910,69.196861 176.65910,68.122643 C 176.65910,67.044518 176.92473,66.200768 177.45598,65.591393 C 177.99113,64.982018 178.72942,64.677330 179.67082,64.677330 z M 170.55363,70.413658 L 170.55363,73.894127 L 169.46965,73.894127 L 169.46965,64.835533 L 170.55363,64.835533 L 170.55363,65.831627 C 170.78020,65.441002 171.06535,65.151939 171.40910,64.964439 C 171.75676,64.773033 172.17082,64.677330 172.65129,64.677330 C 173.44817,64.677330 174.09465,64.993736 174.59074,65.626549 C 175.09074,66.259361 175.34074,67.091393 175.34074,68.122643 C 175.34074,69.153893 175.09074,69.985924 174.59074,70.618736 C 174.09465,71.251549 173.44817,71.567955 172.65129,71.567955 C 172.17082,71.567955 171.75676,71.474205 171.40910,71.286705 C 171.06535,71.095299 170.78020,70.804283 170.55363,70.413658 z M 174.22160,68.122643 C 174.22160,67.329674 174.05754,66.708580 173.72942,66.259361 C 173.40520,65.806236 172.95793,65.579674 172.38762,65.579674 C 171.81731,65.579674 171.36809,65.806236 171.03996,66.259361 C 170.71574,66.708580 170.55363,67.329674 170.55363,68.122643 C 170.55363,68.915611 170.71574,69.538658 171.03996,69.991783 C 171.36809,70.441002 171.81731,70.665611 172.38762,70.665611 C 172.95793,70.665611 173.40520,70.441002 173.72942,69.991783 C 174.05754,69.538658 174.22160,68.915611 174.22160,68.122643 z "
     id="path1764" />
  <g
     id="g1816"
     transform="matrix(0.203842,0.000000,0.000000,0.203842,17.71363,45.09115)">
    <g
       id="g1801">
      <path
         style="fill:#000000;fill-opacity:1.0000000;stroke:none"
         d="M 279.27355,57.268436 C 275.10226,59.099738 267.57357,66.831902 259.33271,77.819714 C 253.02489,86.365790 252.10924,87.179702 248.34490,87.688397 C 235.11883,89.417960 219.85798,103.45794 198.18757,133.67443 C 185.16498,151.78397 183.94411,153.41179 182.31629,153.41179 C 181.60411,153.51353 175.70325,150.76658 169.09022,147.51093 C 155.15197,140.49094 144.57112,137.03181 136.63548,136.82833 C 131.95548,136.72660 130.73461,137.13355 129.10679,139.16833 C 126.46158,142.42398 126.66505,145.06919 130.22592,152.08918 C 134.70244,160.94048 139.78939,166.12917 149.96329,172.13177 L 159.11980,177.42220 L 158.81458,183.42480 C 158.61110,188.61349 157.79719,190.85174 152.81198,199.39782 C 149.65807,204.99346 146.30068,209.67346 145.48677,209.87694 C 144.67286,210.08041 140.39982,211.09780 136.12678,212.01346 C 124.42680,214.65867 122.59549,216.08302 121.57810,223.30648 C 121.17115,226.66387 120.66245,239.38125 120.45898,251.69167 C 120.15376,273.46381 120.05202,274.48120 116.59289,288.41944 C 114.55811,296.25335 112.42159,307.54638 111.81116,313.34550 C 111.20073,319.14462 110.59029,324.02809 110.48855,324.12983 C 110.38681,324.23157 107.02943,323.01070 103.06161,321.48462 C 93.803358,317.72028 81.391200,314.15941 80.068593,314.97332 C 78.237291,316.09245 79.966854,331.55678 82.815546,340.10286 C 84.341631,344.47763 85.359021,348.24198 85.257282,348.34372 C 85.053804,348.54719 82.408590,347.22459 79.356420,345.39328 C 71.115561,340.50981 65.723394,338.67851 60.026010,338.67851 C 56.261667,338.67851 54.939060,339.08547 54.939060,340.10286 C 54.939060,343.25677 61.552095,360.24718 67.656435,372.76108 C 83.324241,405.21582 102.34943,420.98536 125.64766,421.08710 C 134.70244,421.08710 143.96068,419.25580 147.52155,416.71232 C 151.89633,413.66015 157.59371,405.72451 159.83197,399.51843 C 161.96849,393.92279 162.27371,393.51583 164.71544,394.02453 C 170.00587,395.24539 207.34408,395.75409 220.77363,394.83844 C 228.30232,394.32974 234.61013,394.02453 234.81361,394.12626 C 234.91535,394.22800 233.89796,396.56800 232.47361,399.21321 C 230.54057,402.87582 229.93014,405.62277 229.93014,410.30277 C 229.93014,413.76189 230.33710,417.11928 230.84579,417.93319 C 232.27014,420.06971 242.24056,418.74710 248.34490,415.49146 C 253.83880,412.64276 253.43185,412.54102 255.26315,419.56101 C 256.78924,425.46188 259.02749,428.20883 262.38488,428.20883 C 266.86140,428.20883 274.59356,425.15666 277.54399,422.20623 L 280.18921,419.45928 L 284.56398,425.36014 C 287.00572,428.61579 289.75267,431.66796 290.56658,431.97317 C 291.48224,432.27839 293.92397,432.07491 296.06049,431.36274 C 304.50483,428.81926 314.47525,412.94798 322.61437,389.14105 C 325.97176,379.37411 326.17523,379.17063 330.75349,376.93237 C 360.15606,362.58718 387.42211,336.03330 401.36035,308.15681 C 405.12470,300.72986 413.06034,278.14380 413.06034,274.98990 C 413.06034,273.97251 410.61860,275.49859 406.24383,279.36467 C 402.37775,282.72206 397.79949,286.48640 395.96819,287.70727 L 392.61080,290.04727 L 390.88124,287.70727 C 385.79429,280.28032 380.91082,278.65250 377.85865,283.23075 C 376.94299,284.55336 375.72213,289.23336 375.21343,293.60813 C 373.68735,304.79942 370.12648,307.44464 366.76909,299.91595 C 364.63258,295.33770 360.86823,291.87857 358.01954,291.87857 C 355.47607,291.87857 355.47607,291.77683 359.44389,281.70467 C 362.90301,272.85338 369.31257,252.20036 369.31257,249.96210 C 369.31257,249.24993 366.26040,247.01167 362.59780,245.07863 C 357.40911,242.33168 356.08650,241.11081 356.49346,239.68646 C 357.30737,236.32908 355.06911,232.25952 351.10129,230.02126 C 347.74390,228.08822 342.75869,227.07083 329.02393,225.13779 C 326.07349,224.73083 325.76828,224.32387 324.64915,218.93171 C 323.12306,210.99607 323.02132,211.19954 328.00654,207.53694 C 341.33434,198.07521 349.98216,187.90131 349.98216,181.89871 C 349.98216,178.54132 349.57520,177.72741 346.72651,176.20133 C 342.96217,174.26829 334.41609,173.86133 322.91959,175.18394 L 315.79786,175.99785 L 313.05090,165.72221 C 310.20221,155.14135 310.30395,153.41179 313.86481,150.46136 C 319.96916,145.37441 332.68653,124.41618 332.68653,119.43097 C 332.68653,116.07358 329.83784,113.02141 325.87002,111.90228 C 321.90220,110.78315 309.18482,112.51271 301.24918,115.36141 C 298.80744,116.17532 296.26397,116.88749 295.65353,116.88749 C 294.94136,116.88749 292.70310,114.24228 290.56658,110.98663 L 286.70050,105.18751 L 288.53180,93.996215 C 290.87180,78.735365 290.97354,64.491905 288.73528,60.320606 C 286.19181,55.742351 284.25877,55.131917 279.27355,57.268436 z "
         id="path5" />
      <path
         style="fill:#0ca14e;fill-opacity:1.0000000;stroke:none"
         d="M 267.06487,94.403171 C 269.91357,95.827517 275.10226,99.897077 278.76486,103.66142 C 291.17702,116.37880 301.35092,138.96485 310.30395,173.35264 C 315.28916,192.58131 322.10567,227.57952 321.08828,228.49517 C 320.78307,228.80039 316.61177,228.08822 311.93177,226.86735 C 301.14744,224.22214 299.11266,224.12040 299.11266,226.66387 C 299.11266,228.18996 301.14744,229.00387 311.11786,231.34387 C 332.68653,236.43082 364.22562,248.84297 364.22562,252.20036 C 364.22562,254.13340 358.32476,271.73425 353.54303,284.14641 C 349.77868,294.21857 343.57260,304.29073 336.04392,312.93854 C 330.34653,319.44984 329.73610,320.67071 330.65175,322.50201 C 331.77088,324.53679 331.87262,324.53679 334.51783,322.80723 C 336.04392,321.89157 338.28217,320.16201 339.60478,319.04288 C 341.02913,317.72028 345.70912,315.99071 352.01694,314.66811 C 367.27779,311.20898 385.08211,301.95073 401.25862,288.92814 C 403.49687,287.19858 405.42991,285.97771 405.73513,286.18119 C 406.54904,286.99510 396.47688,308.46203 391.38993,316.80462 C 384.57342,327.79244 377.85865,336.13504 368.60040,344.78285 C 354.15346,358.31414 343.87782,365.23239 323.12306,375.50803 L 311.01612,381.61237 L 294.12745,383.44367 C 278.76486,385.17323 251.80402,387.81845 238.27274,388.83584 C 233.38927,389.24279 232.98231,389.14105 234.20318,387.51323 C 234.91535,386.49584 238.27274,382.12106 241.73186,377.74629 C 256.68750,358.41588 265.94575,339.69590 269.71009,320.87419 C 271.43965,312.02289 271.23617,295.03248 269.30313,291.26814 C 266.55618,286.07945 252.41446,270.61512 244.58056,264.40904 C 223.41884,247.62211 204.19017,241.21255 178.34847,242.33168 C 165.02066,242.84037 152.20154,245.79080 138.56852,251.28471 C 135.61809,252.50558 132.87113,253.21775 132.56592,252.81079 C 131.44679,251.79340 143.75721,224.22214 152.30328,208.45259 L 157.08502,199.80478 L 158.40762,211.50476 C 160.64588,231.14039 165.32587,237.65168 176.61890,236.73603 C 191.37106,235.51516 212.43103,213.64128 223.52058,188.00305 C 226.57275,181.08480 226.87797,179.55871 225.75884,178.43959 C 224.94493,177.72741 216.60233,172.74220 207.03886,167.45177 C 197.57714,162.05961 189.03106,157.27787 188.21715,156.76918 C 186.99628,156.05701 187.50498,154.83614 191.16758,150.05440 C 193.60932,146.90050 195.94931,144.35702 196.35627,144.35702 C 196.76323,144.35702 197.88235,145.47615 198.79801,146.79876 C 199.61192,148.22310 202.46061,150.76658 205.10582,152.59788 C 209.48060,155.54831 209.88756,155.65005 211.41364,154.12396 C 213.04147,152.49614 213.04147,152.29266 211.10842,150.97006 C 204.39365,146.29006 202.46061,144.56050 200.93452,142.01702 C 199.30670,139.27007 199.30670,139.16833 204.08843,132.35182 C 217.00929,114.03880 231.04927,99.693599 240.91795,94.504910 C 246.10664,91.757957 247.53099,91.452740 254.34750,91.757957 C 259.94315,91.961435 263.40227,92.673608 267.06487,94.403171 z "
         id="path1797" />
      <path
         style="fill:#0ca14e;fill-opacity:1.0000000;stroke:none"
         d="M 284.97094,62.050169 C 286.39529,64.797122 286.39529,78.023192 284.86920,88.298831 C 283.03790,100.50751 283.34312,100.20229 278.35790,96.132734 C 273.47443,92.063174 264.01270,87.383180 260.75706,87.383180 C 259.43445,87.383180 258.41706,86.976224 258.41706,86.467529 C 258.41706,85.348400 268.59096,72.020591 273.06748,67.137119 C 276.11965,63.881471 281.51181,59.913650 283.03790,59.913650 C 283.44485,59.913650 284.25877,60.931040 284.97094,62.050169 z "
         id="path1798" />
      <path
         style="fill:#0ca14e;fill-opacity:1.0000000;stroke:none"
         d="M 325.97176,115.87010 C 329.12566,116.98923 329.22740,118.92227 326.48045,124.92487 C 324.54741,129.29965 312.64395,146.08658 309.89699,148.32484 C 308.77786,149.24049 307.96395,147.91789 305.72569,141.61007 C 304.19961,137.23529 301.55440,131.02921 299.92657,127.67182 C 298.29875,124.41618 297.28136,121.36401 297.79005,120.95705 C 298.19701,120.55009 302.06309,119.32923 306.23439,118.10836 C 318.13785,114.75097 322.00394,114.34402 325.97176,115.87010 z "
         id="path1796" />
      <path
         style="fill:#dad700;fill-opacity:1.0000000;stroke:none"
         d="M 145.18155,141.81355 C 152.60850,143.54311 165.12240,149.24049 184.24933,159.61787 C 201.13800,168.67264 220.67189,179.96567 221.18059,180.88132 C 221.38406,181.18654 220.16320,184.74740 218.33189,188.61349 C 208.36147,209.97868 191.16758,228.39343 177.73803,232.05604 C 173.77021,233.07343 172.85456,232.97169 170.41282,231.44560 C 166.95370,229.20735 163.90153,222.28909 163.08762,215.26910 L 162.57892,209.97868 L 165.32587,215.37084 C 170.71804,225.95170 177.94151,226.05344 188.11541,215.77780 C 193.81279,210.08041 202.15539,198.68565 201.34148,197.87173 C 200.62931,197.15956 168.27631,177.82915 155.15197,170.30047 C 142.12938,162.77178 140.90851,161.75439 135.10939,152.19092 C 128.08940,140.89789 130.53114,138.35442 145.18155,141.81355 z "
         id="path1795" />
      <path
         style="fill:#0ca14e;fill-opacity:1.0000000;stroke:none"
         d="M 345.09869,179.76219 C 347.94738,182.61088 342.45347,190.13957 330.65175,199.80478 C 326.68393,203.06042 323.22480,205.50216 323.02132,205.19694 C 322.10567,204.28129 317.22220,180.88132 317.73090,180.27089 C 319.96916,178.13437 343.06391,177.72741 345.09869,179.76219 z "
         id="path1794" />
      <path
         style="fill:#bd0000;fill-opacity:1.0000000;stroke:none"
         d="M 180.58673,189.93609 C 186.79280,193.49696 192.79540,197.15956 194.11801,197.97347 L 196.45801,199.39782 L 193.10062,203.97607 C 188.52237,210.28389 179.77281,218.42301 176.61890,219.23692 C 169.80239,220.86475 164.81718,208.45259 164.81718,190.03783 L 164.81718,180.88132 L 167.15718,182.10219 C 168.37804,182.81436 174.48238,186.27349 180.58673,189.93609 z "
         id="path1793" />
      <path
         style="fill:#0ca14e;fill-opacity:1.0000000;stroke:none"
         d="M 142.02764,218.82997 C 138.87373,224.22214 133.27809,237.24473 128.08940,250.67428 L 124.22332,260.84818 L 124.22332,252.91253 C 124.12158,242.63689 126.05462,220.45779 127.17375,219.23692 C 128.08940,218.21953 139.99286,214.76041 142.73982,214.65867 C 144.36764,214.55693 144.26590,214.96389 142.02764,218.82997 z "
         id="path1792" />
      <path
         style="fill:#0ca14e;fill-opacity:1.0000000;stroke:none"
         d="M 346.92999,232.46299 C 351.20303,234.19256 353.84824,237.34647 352.01694,238.46560 C 351.50824,238.77081 350.49086,238.77081 349.77868,238.36386 C 349.16825,237.95690 343.77608,235.82038 337.87522,233.68386 L 327.09089,229.71604 L 334.92479,230.22474 C 339.19783,230.52995 344.58999,231.54734 346.92999,232.46299 z "
         id="path1791" />
      <path
         style="fill:#34ed87;fill-opacity:1.0000000;stroke:none"
         d="M 205.91974,249.04645 C 226.97971,254.54036 250.78663,271.83599 263.80923,291.06466 C 266.35270,294.93074 266.55618,295.94813 266.55618,305.51160 C 266.55618,331.14982 254.95793,356.07588 229.21797,386.08888 L 224.84319,391.07409 L 197.67888,391.07409 C 182.62150,391.07409 168.78500,390.76888 166.75022,390.26018 L 163.08762,389.54801 L 162.57892,379.57759 C 161.86675,367.16543 157.79719,353.93936 149.45459,337.66112 C 144.06242,326.97852 131.14157,306.02029 127.47897,301.84899 C 124.42680,298.38987 120.35724,303.17160 117.40681,313.24376 L 116.08420,317.82202 L 116.59289,311.71767 C 117.91550,298.28813 126.86853,264.81600 130.42940,260.13600 C 133.07461,256.67688 155.05024,249.45341 169.39543,247.11341 C 178.65368,245.68906 196.66149,246.70645 205.91974,249.04645 z "
         id="path1790" />
      <path
         style="fill:#0ca14e;fill-opacity:1.0000000;stroke:none"
         d="M 384.77690,286.48640 C 385.69255,287.50379 386.81168,289.33510 387.42211,290.45422 C 388.43950,292.38727 388.13428,292.99770 384.57342,295.33770 C 382.33516,296.76204 380.30038,297.98291 379.99516,297.98291 C 379.07951,297.98291 379.48647,290.04727 380.50386,287.40205 C 381.62299,284.34988 382.64038,284.14641 384.77690,286.48640 z "
         id="path1789" />
      <path
         style="fill:#0ca14e;fill-opacity:1.0000000;stroke:none"
         d="M 362.19084,300.52639 C 363.41171,302.96812 364.12388,305.51160 363.71693,306.02029 C 362.90301,307.34290 352.22042,310.70029 351.40651,309.88637 C 350.69433,309.17420 353.33955,301.74725 355.67954,298.18639 C 357.91780,294.82900 359.74910,295.43944 362.19084,300.52639 z "
         id="path1788" />
      <path
         style="fill:#d7d400;fill-opacity:1.0000000;stroke:none"
         d="M 132.36244,315.99071 C 158.81458,357.19501 165.12240,386.49584 151.79459,405.82625 C 145.89373,414.37233 140.90851,416.50885 126.66505,416.50885 C 115.88072,416.50885 115.16855,416.40711 107.53812,412.74450 C 90.242493,404.50364 76.609467,386.29236 64.095570,354.95675 C 59.110359,342.54459 59.008620,341.22199 62.874702,342.13764 C 68.266869,343.46024 77.932074,348.64893 86.478150,354.75327 C 91.158144,358.21240 95.227704,360.85761 95.329443,360.65413 C 95.532921,360.45066 93.803358,356.27936 91.463361,351.29415 C 85.359021,337.96634 81.187722,319.34810 84.341631,319.34810 C 84.850326,319.34810 88.411191,320.36549 92.175534,321.48462 C 105.09639,325.45244 114.86333,331.65852 116.49115,336.74547 C 117.50854,340.00112 119.03463,337.86460 119.03463,333.08287 C 119.03463,321.99331 122.49376,306.12203 125.03723,306.12203 C 125.54593,306.12203 128.80157,310.59855 132.36244,315.99071 z "
         id="path1787" />
      <path
         style="fill:#d7d400;fill-opacity:1.0000000;stroke:none"
         d="M 317.32394,391.07409 C 309.49004,413.45668 299.72309,428.31057 293.00832,428.20883 C 291.58397,428.10709 284.56398,419.35754 281.91877,414.16885 C 280.29094,411.01494 279.17182,411.32016 277.13704,415.59319 C 275.10226,419.76449 271.13443,422.61318 265.74227,423.63058 C 260.96053,424.54623 260.14662,423.32536 257.29793,411.11668 C 254.95793,400.73930 254.95793,400.73930 251.09185,407.86103 C 249.15881,411.21842 244.78403,413.55841 238.17100,414.57580 L 233.99970,415.28798 L 233.99970,410.50624 C 233.99970,405.01234 235.72926,400.43408 239.39187,396.05931 C 242.03708,393.00714 242.34230,392.90540 253.02489,392.19322 C 276.01791,390.76888 310.60917,386.39410 314.88220,384.46106 C 317.12046,383.44367 319.25698,382.52802 319.66394,382.52802 C 320.07089,382.42628 319.05350,386.29236 317.32394,391.07409 z "
         id="path1786" />
    </g>
    <path
       d="M 2418.0000,3831.0000 C 2393.0000,3810.0000 2329.0000,3774.0000 2276.0000,3749.0000 C 2210.0000,3719.0000 2180.0000,3700.0000 2182.0000,3690.0000 C 2188.0000,3663.0000 2219.0000,3668.0000 2314.0000,3713.0000 C 2422.0000,3764.0000 2507.0000,3834.0000 2489.0000,3856.0000 C 2473.0000,3875.0000 2471.0000,3874.0000 2418.0000,3831.0000 z "
       id="path6"
       transform="matrix(0.101739,0.000000,0.000000,-0.101739,0.000000,533.0000)"
       style="fill:#000000;stroke:none" />
    <g
       id="g1782"
       transform="translate(5.323346,70.53433)">
      <path
         style="fill:#000000;stroke:none"
         d="M 85.216134,43.457712 C 81.579987,44.455482 78.076282,45.994852 74.984458,48.165942 C 71.318501,50.714732 68.206631,53.960392 65.285895,57.313892 C 63.485802,59.402542 61.902938,61.712602 60.887192,64.288562 C 59.553951,67.634112 58.922439,71.201972 58.290663,74.731362 C 57.078657,81.901442 57.184086,89.402142 59.403588,96.371692 C 61.264470,102.30906 64.716867,107.72158 69.269844,111.95717 C 73.396031,115.82465 78.330476,118.75466 83.545539,120.90257 C 85.152069,121.53513 86.791410,122.14636 88.510364,122.38214 C 88.974353,122.41291 89.541158,122.50839 89.910534,122.16061 C 90.151853,121.77233 89.725894,121.37057 89.602070,121.01005 C 88.386511,118.71243 87.002458,116.50979 85.729002,114.24499 C 84.676837,112.27987 83.697860,110.25251 83.095975,108.09911 C 82.825423,107.15187 82.793701,106.13026 83.045034,105.17600 C 83.203663,104.54490 83.770434,104.09037 84.401739,103.98948 C 85.666711,103.76593 86.951918,104.03399 88.197899,104.25552 C 91.906876,105.02231 95.531297,106.13976 99.164667,107.19696 C 101.21923,107.79013 103.25315,108.45635 105.31520,109.02201 C 105.60610,109.10995 106.44407,109.33236 106.15888,108.76163 C 105.65363,107.84662 104.99545,107.02584 104.39061,106.17594 C 102.40237,103.42548 100.44166,100.64253 98.779527,97.679372 C 98.351107,96.856792 97.863977,96.034202 97.681877,95.114352 C 97.549517,94.602582 98.156647,94.404352 98.557647,94.434172 C 99.867557,94.453262 101.13127,94.870082 102.37579,95.238612 C 106.63413,96.621302 110.73081,98.450252 114.79555,100.31495 C 123.69650,104.46144 132.35959,109.10948 140.79954,114.12561 C 142.52501,115.11170 144.23295,116.14923 146.07230,116.91348 C 146.80837,117.19178 147.68607,117.49815 148.43083,117.08257 C 148.99226,116.71749 149.42237,116.17628 149.79573,115.62810 C 150.10355,115.27606 150.04840,114.78705 149.57838,114.62255 C 144.84641,111.32145 140.03318,108.13889 135.24917,104.91428 C 128.54218,100.32740 121.87200,95.665272 115.56897,90.530242 C 113.08504,88.463382 110.59897,86.360182 108.50768,83.884462 C 107.81093,83.006982 107.07464,82.081292 106.82140,80.965062 C 106.67168,80.377582 106.91839,79.702862 107.47537,79.425932 C 108.49635,78.916802 109.65092,78.761022 110.77170,78.629192 C 112.25226,78.475142 113.75879,78.651752 115.22739,78.371372 C 115.69467,78.225282 115.07897,77.671142 115.03678,77.360542 C 114.12250,75.413022 113.09695,73.520692 112.15562,71.586702 C 111.49836,70.171402 110.84240,68.744302 110.40980,67.241492 C 110.17026,66.296302 110.67812,65.306112 111.41684,64.726152 C 112.60846,63.786652 114.11378,63.388912 115.56828,63.060112 C 118.97972,62.344762 122.47456,62.268922 125.94072,62.032702 C 127.35540,61.945382 128.77009,61.858052 130.18477,61.770732 C 127.54803,59.366452 124.97481,56.886552 122.15968,54.687032 C 116.31831,50.077912 109.77206,46.224182 102.61408,44.078752 C 97.369477,42.517922 91.718006,41.929342 86.342357,43.169122 C 85.964728,43.256342 85.589155,43.352502 85.216134,43.457712 z "
         id="path7" />
      <path
         style="fill:url(#linearGradient1785);fill-opacity:1.0000000;fill-rule:evenodd;stroke:#000000;stroke-width:1.0000000pt;stroke-linecap:butt;stroke-linejoin:miter;stroke-opacity:1.0000000"
         d="M 90.750000,46.500000 C 86.523321,46.777040 82.459028,48.285440 78.875000,50.500000 C 76.166465,52.191630 73.610691,54.155229 71.312500,56.375000 C 68.429355,59.156530 66.094667,62.516208 64.625000,66.250000 C 62.654483,71.184130 62.026861,76.513339 61.750000,81.781250 C 61.495949,86.520920 61.669249,91.407593 63.218750,95.937500 C 64.521101,99.821020 66.854602,103.27317 69.562500,106.31250 C 70.906651,107.78663 72.347364,109.14711 73.812500,110.50000 C 75.117729,111.66256 76.439593,112.86794 77.937500,113.78125 C 78.718821,114.17556 79.477477,114.60421 80.312500,114.87500 C 80.829899,115.09347 80.810048,114.47538 80.625000,114.18750 C 79.960929,112.72427 79.504265,111.17310 79.218750,109.59375 C 78.880935,107.57190 78.804850,105.42679 79.500000,103.46875 C 79.854870,102.42742 80.598181,101.56157 81.437500,100.87500 C 82.425986,100.06295 83.747004,100.00030 84.968750,100.03125 C 86.986107,100.09179 88.986281,100.38182 91.000000,100.50000 C 92.056258,100.55088 93.138651,100.69342 94.187500,100.50000 C 94.668620,100.45704 94.904522,99.951289 94.718750,99.531250 C 94.463900,98.743710 94.061348,98.009829 93.812500,97.218750 C 93.418200,96.029380 93.064270,94.700267 93.500000,93.468750 C 93.947550,92.270590 95.049063,91.487757 96.093750,90.843750 C 96.866440,90.347410 97.782620,89.993954 98.718750,90.062500 C 100.18717,90.156480 101.57357,90.662751 102.96875,91.093750 C 106.55498,92.287860 110.10932,93.500751 113.68750,94.718750 C 113.18773,94.196770 112.71851,93.678241 112.21875,93.156250 C 109.84394,90.653770 107.38108,88.225209 105.21875,85.531250 C 104.32183,84.377190 103.31828,83.213017 102.90625,81.781250 C 102.55032,80.442770 102.52117,79.008081 102.96875,77.687500 C 103.16018,77.140100 103.55977,76.502548 104.21875,76.531250 C 104.90634,76.363280 105.50904,75.946779 106.09375,75.562500 C 106.76153,75.079890 107.57220,74.588139 107.75000,73.718750 C 107.93941,72.713460 107.62287,71.695530 107.40625,70.718750 C 106.99833,69.259190 106.69380,67.740667 106.84375,66.218750 C 106.98472,64.448880 107.83585,62.753060 109.15625,61.562500 C 110.92974,59.940650 113.27502,59.115242 115.59375,58.656250 C 116.99760,58.420320 118.40623,58.221770 119.81250,58.000000 C 119.57817,57.804730 119.32808,57.601532 119.09375,57.406250 C 118.08979,56.591510 117.16456,55.716391 116.06250,55.031250 C 113.42357,53.354440 110.64372,51.916611 107.81250,50.593750 C 106.79814,50.095040 105.76247,49.621581 104.71875,49.187500 C 100.31895,47.350320 95.546533,46.153468 90.750000,46.500000 z "
         id="rect1697" />
    </g>
  </g>
  <text
     xml:space="preserve"
     style="font-size:24.000000;font-style:normal;font-variant:normal;font-weight:normal;font-stretch:normal;fill:#000000;fill-opacity:1.0000000;stroke:none;stroke-width:1.0000000pt;stroke-linecap:butt;stroke-linejoin:miter;stroke-opacity:1.0000000;font-family:Bitstream Vera Sans;text-anchor:start;writing-mode:lr"
     x="26.25"
     y="188.22342"
     id="text1265"
     sodipodi:linespacing="100%"
     transform="translate(-10.00000,-27.50000)"><tspan
       sodipodi:role="line"
       id="tspan1266"
       x="26.250000"
       y="188.22342">Opie 1.2</tspan></text>
</svg>
