/* XPM */
static char * logo_xpm[] = {
"32 32 4 1",
" 	c None",
".	c #729188",
"+	c #93ACA4",
"#	c #CCCCCC",
"                                ",
"               ++               ",
"               ++               ",
"               ++               ",
"              .++.              ",
"             .    .             ",
"             .    .             ",
"             . ++ .             ",
"              ++++              ",
"              ++++              ",
"             +#++#+             ",
"             +#++#+             ",
"            +#+  +#+            ",
"            +#+  +#+            ",
"            ++ ++ ++            ",
"           +#+ ++ +#+           ",
"        ...+#+.++.+#+...        ",
"        ...#+..++..+#...        ",
"          +#+  ++  +#+          ",
"          ++   ++   ++          ",
"         +#+        +#+         ",
"         ++          ++         ",
"        +#+          +#+        ",
"        ++            ++        ",
"       +#+            +#+       ",
"       +#+            +#+       ",
"       ++              ++       ",
"      +#+              +#+      ",
"      +++              +++      ",
"      .+                +.      ",
"      .                  .      ",
"                                "};
