<?xml version="1.0" encoding="UTF-8" standalone="no"?>
<!-- Created with Inkscape (http://www.inkscape.org/) -->
<svg
   xmlns:dc="http://purl.org/dc/elements/1.1/"
   xmlns:cc="http://web.resource.org/cc/"
   xmlns:rdf="http://www.w3.org/1999/02/22-rdf-syntax-ns#"
   xmlns:svg="http://www.w3.org/2000/svg"
   xmlns="http://www.w3.org/2000/svg"
   xmlns:xlink="http://www.w3.org/1999/xlink"
   xmlns:sodipodi="http://inkscape.sourceforge.net/DTD/sodipodi-0.dtd"
   xmlns:inkscape="http://www.inkscape.org/namespaces/inkscape"
   width="841.88977pt"
   height="595.27557pt"
   id="svg2"
   sodipodi:version="0.32"
   inkscape:version="0.43"
   version="1.0"
   sodipodi:docbase="/Users/koen/Projects/Ångström"
   sodipodi:docname="angstrom-background.svg"
   inkscape:export-filename="/Users/koen/Projects/Ångström/angstrom-background.png"
   inkscape:export-xdpi="55.049999"
   inkscape:export-ydpi="55.049999">
  <defs
     id="defs4">
    <linearGradient
       id="linearGradient4005">
      <stop
         style="stop-color:#faff8b;stop-opacity:1;"
         offset="0"
         id="stop4007" />
      <stop
         style="stop-color:#ffda89;stop-opacity:0;"
         offset="1"
         id="stop4009" />
    </linearGradient>
    <linearGradient
       id="linearGradient8471">
      <stop
         id="stop8479"
         offset="0"
         style="stop-color:#cbd0e5;stop-opacity:0.98039216;" />
      <stop
         style="stop-color:#2b469d;stop-opacity:0.96078432;"
         offset="1"
         id="stop8475" />
    </linearGradient>
    <linearGradient
       id="linearGradient8447">
      <stop
         style="stop-color:#000000;stop-opacity:1;"
         offset="0"
         id="stop8449" />
      <stop
         style="stop-color:#ffffff;stop-opacity:1;"
         offset="1"
         id="stop8451" />
    </linearGradient>
    <linearGradient
       inkscape:collect="always"
       id="linearGradient6662">
      <stop
         style="stop-color:#000000;stop-opacity:1;"
         offset="0"
         id="stop6664" />
      <stop
         style="stop-color:#000000;stop-opacity:0;"
         offset="1"
         id="stop6666" />
    </linearGradient>
    <linearGradient
       inkscape:collect="always"
       xlink:href="#linearGradient6662"
       id="linearGradient6668"
       x1="69.1875"
       y1="721.51025"
       x2="1115.5"
       y2="721.51025"
       gradientUnits="userSpaceOnUse"
       gradientTransform="translate(9.437349e-7,-8.924495e-6)" />
    <linearGradient
       inkscape:collect="always"
       xlink:href="#linearGradient4005"
       id="linearGradient4015"
       x1="73.751465"
       y1="619.28882"
       x2="205.8764"
       y2="619.28882"
       gradientUnits="userSpaceOnUse" />
  </defs>
  <sodipodi:namedview
     id="base"
     pagecolor="#ffffff"
     bordercolor="#666666"
     borderopacity="1.0"
     inkscape:pageopacity="0"
     inkscape:pageshadow="2"
     inkscape:zoom="0.57230612"
     inkscape:cx="596.83002"
     inkscape:cy="298.07797"
     inkscape:document-units="px"
     inkscape:current-layer="layer1"
     inkscape:window-width="938"
     inkscape:window-height="573"
     inkscape:window-x="0"
     inkscape:window-y="22" />
  <metadata
     id="metadata7">
    <rdf:RDF>
      <cc:Work
         rdf:about="">
        <dc:format>image/svg+xml</dc:format>
        <dc:type
           rdf:resource="http://purl.org/dc/dcmitype/StillImage" />
        <cc:license
           rdf:resource="http://creativecommons.org/licenses/GPL/2.0/" />
      </cc:Work>
      <cc:License
         rdf:about="http://creativecommons.org/licenses/GPL/2.0/">
        <cc:permits
           rdf:resource="http://web.resource.org/cc/Reproduction" />
        <cc:permits
           rdf:resource="http://web.resource.org/cc/Distribution" />
        <cc:requires
           rdf:resource="http://web.resource.org/cc/Notice" />
        <cc:permits
           rdf:resource="http://web.resource.org/cc/DerivativeWorks" />
        <cc:requires
           rdf:resource="http://web.resource.org/cc/ShareAlike" />
        <cc:requires
           rdf:resource="http://web.resource.org/cc/SourceCode" />
      </cc:License>
    </rdf:RDF>
  </metadata>
  <g
     inkscape:label="Layer 1"
     id="layer1"
     inkscape:groupmode="layer">
    <g
       id="g1619"
       transform="translate(0,-4)">
      <path
         id="text1367"
         d="M 310.04526,759.21459 L 294.95725,759.21459 L 294.95725,708.17218 C 294.95718,704.05245 294.7164,700.20019 294.23494,696.61539 C 293.75334,692.97722 292.87054,690.14152 291.58652,688.10831 C 290.24885,685.86125 288.32273,684.20262 285.80814,683.13248 C 283.2934,682.00899 280.02968,681.44721 276.01697,681.44712 C 271.89714,681.44721 267.5901,682.46376 263.09585,684.49683 C 258.60151,686.53003 254.29448,689.12496 250.17473,692.2816 L 250.17473,759.21459 L 235.0867,759.21459 L 235.0867,669.56933 L 250.17473,669.56933 L 250.17473,679.52098 C 254.88301,675.6153 259.75184,672.5656 264.78122,670.37188 C 269.8105,668.17832 274.9736,667.08149 280.27052,667.0814 C 289.95458,667.08149 297.33808,669.99744 302.42101,675.82925 C 307.50375,681.66122 310.04517,690.06127 310.04526,701.02943 L 310.04526,759.21459 M 412.13011,749.02216 C 412.13002,764.21717 408.67905,775.37266 401.77718,782.48866 C 394.87514,789.60461 384.25468,793.16259 369.91578,793.16263 C 365.15393,793.16259 360.49911,792.81482 355.95135,792.11932 C 351.45702,791.47723 347.01622,790.54093 342.62894,789.31038 L 342.62894,773.90132 L 343.43151,773.90132 C 345.89265,774.86438 349.79841,776.04146 355.14878,777.43256 C 360.49911,778.87714 365.84946,779.59945 371.19986,779.59946 C 376.33616,779.59945 380.5897,778.98416 383.96048,777.75359 C 387.33113,776.523 389.95281,774.81088 391.8255,772.61725 C 393.69805,770.53059 395.03565,768.01593 395.83827,765.07325 C 396.64074,762.13053 397.04203,758.84008 397.0421,755.20181 L 397.0421,747.01579 C 392.49423,750.65403 388.1337,753.38271 383.96048,755.20181 C 379.84063,756.96744 374.57055,757.85025 368.15016,757.85025 C 357.4494,757.85025 348.94235,753.998 342.62894,746.29347 C 336.369,738.53547 333.23905,727.62075 333.23907,713.54928 C 333.23905,705.84481 334.30913,699.21038 336.44927,693.64593 C 338.64291,688.02812 341.61236,683.18606 345.35764,679.11971 C 348.83533,675.32104 353.06211,672.37835 358.03798,670.29162 C 363.01378,668.15156 367.96285,667.08149 372.88523,667.0814 C 378.07503,667.08149 382.40881,667.61654 385.8866,668.68652 C 389.41777,669.70318 393.13627,671.28152 397.0421,673.42157 L 398.00518,669.56933 L 412.13011,669.56933 L 412.13011,749.02216 M 397.0421,734.57619 L 397.0421,685.70065 C 393.02926,683.88161 389.284,682.59752 385.80634,681.84839 C 382.38206,681.04592 378.95784,680.64464 375.53367,680.64457 C 367.24057,680.64464 360.71313,683.42682 355.95135,688.99113 C 351.18949,694.55557 348.8086,702.63459 348.80861,713.22825 C 348.8086,723.28697 350.57421,730.91122 354.10546,736.10104 C 357.63666,741.29091 363.49531,743.88584 371.6814,743.88581 C 376.06863,743.88584 380.45594,743.05654 384.84329,741.3979 C 389.284,739.68581 393.35029,737.41189 397.0421,734.57619 M 506.18943,733.37235 C 506.18937,741.55843 502.79189,748.27313 495.997,753.51645 C 489.2555,758.75982 480.02613,761.38149 468.3089,761.38149 C 461.67441,761.38149 455.57502,760.6057 450.01067,759.05408 C 444.49978,757.44898 439.87172,755.71011 436.12648,753.83749 L 436.12648,736.90359 L 436.92903,736.90359 C 441.69085,740.48836 446.9877,743.3508 452.8196,745.49093 C 458.65146,747.57758 464.24258,748.62089 469.59299,748.62088 C 476.22738,748.62089 481.41722,747.55082 485.16252,745.41066 C 488.90771,743.27054 490.78033,739.89982 490.78041,735.29849 C 490.78033,731.76727 489.76378,729.0921 487.7307,727.27295 C 485.69751,725.45386 481.79174,723.90226 476.01342,722.61814 C 473.87323,722.13664 471.0643,721.57486 467.5866,720.93277 C 464.16235,720.29076 461.03237,719.59524 458.19672,718.84613 C 450.33167,716.75954 444.74055,713.70983 441.42333,709.69701 C 438.15962,705.63079 436.52775,700.65498 436.52776,694.76951 C 436.52775,691.07784 437.27681,687.6001 438.77491,684.33632 C 440.32649,681.07267 442.6539,678.15672 445.75714,675.58848 C 448.7533,673.0739 452.55206,671.09426 457.15339,669.64958 C 461.80818,668.15156 466.99801,667.40252 472.72295,667.40242 C 478.07325,667.40252 483.4771,668.07132 488.93455,669.40881 C 494.44534,670.69298 499.01988,672.27134 502.65821,674.14389 L 502.65821,690.27522 L 501.85565,690.27522 C 498.00333,687.4396 493.32176,685.05867 487.81096,683.13248 C 482.30003,681.15293 476.89617,680.16311 471.59937,680.16303 C 466.08846,680.16311 461.43365,681.23319 457.63494,683.37325 C 453.83616,685.45995 451.93678,688.58992 451.9368,692.76312 C 451.93678,696.45494 453.08711,699.23713 455.38777,701.10969 C 457.63491,702.98238 461.27313,704.50722 466.30251,705.68424 C 469.08466,706.32634 472.18787,706.96839 475.61213,707.61037 C 479.08982,708.25248 481.97901,708.841 484.27971,709.37599 C 491.28863,710.98116 496.69248,713.73658 500.49131,717.6423 C 504.28999,721.60162 506.18937,726.84495 506.18943,733.37235 M 574.40654,758.41203 C 571.57078,759.1611 568.46759,759.77639 565.0969,760.25791 C 561.77964,760.73946 558.81019,760.98021 556.18855,760.98021 C 547.0394,760.98021 540.08395,758.51906 535.32215,753.59672 C 530.56032,748.6744 528.17941,740.78262 528.17942,729.92137 L 528.17942,682.24967 L 517.98698,682.24967 L 517.98698,669.56933 L 528.17942,669.56933 L 528.17942,643.80734 L 543.26744,643.80734 L 543.26744,669.56933 L 574.40654,669.56933 L 574.40654,682.24967 L 543.26744,682.24967 L 543.26744,723.09966 C 543.26741,727.80802 543.3744,731.49976 543.58848,734.1749 C 543.80244,736.79661 544.5515,739.25778 545.83561,741.5584 C 547.01265,743.69856 548.61776,745.27692 550.65093,746.29347 C 552.73754,747.25655 555.89426,747.73808 560.12108,747.73807 C 562.58218,747.73808 565.15037,747.39032 567.8256,746.69476 C 570.50071,745.94573 572.42685,745.33044 573.60398,744.84888 L 574.40654,744.84888 L 574.40654,758.41203 M 648.64274,686.02168 L 647.84018,686.02168 C 645.59297,685.48671 643.39932,685.1122 641.25925,684.8981 C 639.17254,684.63065 636.68462,684.49689 633.79549,684.49683 C 629.14063,684.49689 624.64634,685.54022 620.31258,687.62679 C 615.97875,689.65998 611.80548,692.30842 607.79273,695.57207 L 607.79273,759.21459 L 592.70473,759.21459 L 592.70473,669.56933 L 607.79273,669.56933 L 607.79273,682.81146 C 613.7851,677.99622 619.05521,674.59874 623.60305,672.61902 C 628.20433,670.58599 632.88586,669.56941 637.64775,669.56933 C 640.26936,669.56941 642.16874,669.64966 643.34589,669.81009 C 644.5229,669.91718 646.28851,670.15795 648.64274,670.53239 L 648.64274,686.02168 M 739.41159,714.43209 C 739.41151,729.03859 735.66626,740.56861 728.17584,749.02216 C 720.68525,757.47573 710.65335,761.7025 698.08006,761.70252 C 685.39968,761.7025 675.31426,757.47573 667.82378,749.02216 C 660.38677,740.56861 656.66827,729.03859 656.66827,714.43209 C 656.66827,699.82566 660.38677,688.29565 667.82378,679.842 C 675.31426,671.33504 685.39968,667.08149 698.08006,667.0814 C 710.65335,667.08149 720.68525,671.33504 728.17584,679.842 C 735.66626,688.29565 739.41151,699.82566 739.41159,714.43209 M 723.84203,714.43209 C 723.84196,702.82186 721.56806,694.2078 717.02033,688.58986 C 712.47246,682.91855 706.15904,680.08286 698.08006,680.08278 C 689.89397,680.08286 683.52706,682.91855 678.97928,688.58986 C 674.48496,694.2078 672.23779,702.82186 672.23782,714.43209 C 672.23779,725.66788 674.51171,734.20169 679.05953,740.03356 C 683.60731,745.81196 689.94748,748.70116 698.08006,748.70115 C 706.10554,748.70116 712.39221,745.8387 716.94009,740.11381 C 721.54132,734.33544 723.84196,725.77488 723.84203,714.43209 M 722.63821,654.56157 L 706.66739,654.56157 L 706.66739,638.91175 L 722.63821,638.91175 L 722.63821,654.56157 M 689.49274,654.56157 L 673.52191,654.56157 L 673.52191,638.91175 L 689.49274,638.91175 L 689.49274,654.56157 M 893.66249,759.21459 L 878.57448,759.21459 L 878.57448,708.17218 C 878.57435,704.31995 878.3871,700.60145 878.01269,697.01667 C 877.69154,693.43198 876.96924,690.56956 875.8458,688.42933 C 874.61509,686.12874 872.84946,684.38989 870.54894,683.21274 C 868.24817,682.03574 864.93094,681.44721 860.59727,681.44712 C 856.37038,681.44721 852.1436,682.51727 847.91692,684.65733 C 843.69003,686.74405 839.46326,689.41923 835.23657,692.68286 C 835.397,693.91353 835.53074,695.35811 835.63784,697.01667 C 835.74475,698.62184 835.79826,700.22694 835.79835,701.83198 L 835.79835,759.21459 L 820.71033,759.21459 L 820.71033,708.17218 C 820.71027,704.21296 820.523,700.46772 820.14855,696.93641 C 819.82746,693.35175 819.10517,690.48929 817.98165,688.34908 C 816.751,686.04851 814.98538,684.33639 812.6848,683.21274 C 810.38408,682.03574 807.06686,681.44721 802.73314,681.44712 C 798.61332,681.44721 794.46677,682.46376 790.29355,684.49683 C 786.17373,686.53003 782.05396,689.12496 777.93421,692.2816 L 777.93421,759.21459 L 762.84619,759.21459 L 762.84619,669.56933 L 777.93421,669.56933 L 777.93421,679.52098 C 782.64249,675.6153 787.32405,672.5656 791.9789,670.37188 C 796.68718,668.17832 801.68977,667.08149 806.98667,667.0814 C 813.086,667.08149 818.2491,668.36558 822.47596,670.93367 C 826.75616,673.50192 829.93964,677.05991 832.02635,681.60761 C 838.12567,676.47136 843.69003,672.77963 848.71947,670.53239 C 853.7487,668.23182 859.12582,667.08149 864.85081,667.0814 C 874.69533,667.08149 881.94508,670.0777 886.60002,676.07001 C 891.30819,682.00899 893.66236,690.32879 893.66249,701.02943 L 893.66249,759.21459"
         style="font-size:114.39354706px;font-style:normal;font-weight:normal;fill:#fb8900;fill-opacity:1;fill-rule:nonzero;stroke:none;stroke-width:1px;stroke-linecap:butt;stroke-linejoin:miter;stroke-opacity:1;font-family:Bitstream Vera Sans" />
      <text
         x="540.79816"
         y="817.07684"
         id="text2249"
         style="font-size:68.28195953px;font-style:normal;font-weight:normal;fill:#3d74c0;fill-opacity:1;stroke:none;stroke-width:1px;stroke-linecap:butt;stroke-linejoin:miter;stroke-opacity:1;font-family:Bitstream Vera Sans"
         xml:space="preserve"><tspan
           sodipodi:role="line"
           x="540.79816"
           y="817.07684"
           id="tspan2251">Embedded power</tspan></text>
      <path
         id="text1330"
         d="M 211.92787,759.73587 L 187.72871,759.73587 L 170.75489,712.14037 L 97.354621,712.14037 L 80.380806,759.73587 L 57.32853,759.73587 L 116.85155,598.36995 C 110.04668,595.00593 104.57991,590.30373 100.4512,584.26332 C 96.398846,578.14681 94.372695,571.18909 94.372734,563.39012 C 94.372695,552.45674 98.27208,543.28171 106.07089,535.86502 C 113.86962,528.44876 123.35048,524.74052 134.51351,524.74028 C 145.75283,524.74052 155.23369,528.44876 162.95612,535.86502 C 170.75477,543.28171 174.65417,552.45674 174.65429,563.39012 C 174.65417,571.03617 172.628,577.99391 168.57583,584.26332 C 164.59987,590.45664 159.20955,595.15885 152.40482,598.36995 L 211.92787,759.73587 M 157.45109,563.6195 C 157.45099,557.04426 155.27193,551.57747 150.91388,547.21912 C 146.55564,542.78474 141.08886,540.56744 134.51351,540.56721 C 127.93799,540.56744 122.47121,542.78474 118.11313,547.21912 C 113.75492,551.65393 111.57587,557.12071 111.57591,563.6195 C 111.57587,570.19512 113.75492,575.70015 118.11313,580.13456 C 122.54766,584.49287 128.01444,586.67195 134.51351,586.67178 C 141.08886,586.67195 146.55564,584.49287 150.91388,580.13456 C 155.27193,575.70015 157.45099,570.19512 157.45109,563.6195 M 163.64424,692.64342 L 134.05475,610.64154 L 104.35058,692.64342 L 163.64424,692.64342"
         style="font-size:191.88253784px;font-style:normal;font-weight:normal;fill:#fb8900;fill-opacity:1;stroke:none;stroke-width:1px;stroke-linecap:butt;stroke-linejoin:miter;stroke-opacity:1;font-family:Bitstream Vera Sans" />
    </g>
  </g>
</svg>
