<?xml version="1.0" encoding="UTF-8" standalone="no"?>
<!-- Created with Inkscape (http://www.inkscape.org/) -->
<svg
   xmlns:dc="http://purl.org/dc/elements/1.1/"
   xmlns:cc="http://web.resource.org/cc/"
   xmlns:rdf="http://www.w3.org/1999/02/22-rdf-syntax-ns#"
   xmlns:svg="http://www.w3.org/2000/svg"
   xmlns="http://www.w3.org/2000/svg"
   xmlns:xlink="http://www.w3.org/1999/xlink"
   xmlns:sodipodi="http://inkscape.sourceforge.net/DTD/sodipodi-0.dtd"
   xmlns:inkscape="http://www.inkscape.org/namespaces/inkscape"
   width="841.88977pt"
   height="595.27557pt"
   id="svg2"
   sodipodi:version="0.32"
   inkscape:version="0.43"
   version="1.0"
   sodipodi:docbase="/Users/koen/Projects/Ångström"
   sodipodi:docname="angstrom-background.svg"
   inkscape:export-filename="/Users/koen/Projects/Ångström/angstrom-background.png"
   inkscape:export-xdpi="55.049999"
   inkscape:export-ydpi="55.049999">
  <defs
     id="defs4">
    <linearGradient
       id="linearGradient3283">
      <stop
         style="stop-color:#000000;stop-opacity:1;"
         offset="0"
         id="stop3285" />
      <stop
         style="stop-color:#000000;stop-opacity:0;"
         offset="1"
         id="stop3287" />
    </linearGradient>
    <linearGradient
       id="linearGradient2374">
      <stop
         style="stop-color:#fbda93;stop-opacity:1;"
         offset="0"
         id="stop2376" />
      <stop
         style="stop-color:#bb7b25;stop-opacity:0.93814433;"
         offset="1"
         id="stop2378" />
    </linearGradient>
    <linearGradient
       id="linearGradient2366">
      <stop
         style="stop-color:#d4950e;stop-opacity:1;"
         offset="0"
         id="stop2368" />
      <stop
         style="stop-color:#f2ce3a;stop-opacity:1;"
         offset="1"
         id="stop2370" />
    </linearGradient>
    <linearGradient
       id="linearGradient2344">
      <stop
         style="stop-color:#616161;stop-opacity:1;"
         offset="0"
         id="stop2346" />
      <stop
         style="stop-color:#000000;stop-opacity:0.6082474;"
         offset="1"
         id="stop2348" />
    </linearGradient>
    <linearGradient
       id="linearGradient2324">
      <stop
         style="stop-color:#a16c25;stop-opacity:0;"
         offset="0"
         id="stop2326" />
      <stop
         style="stop-color:#a16c25;stop-opacity:0.7525773;"
         offset="1"
         id="stop2328" />
    </linearGradient>
    <linearGradient
       id="linearGradient4005">
      <stop
         style="stop-color:#faff8b;stop-opacity:1;"
         offset="0"
         id="stop4007" />
      <stop
         style="stop-color:#ffda89;stop-opacity:0;"
         offset="1"
         id="stop4009" />
    </linearGradient>
    <linearGradient
       id="linearGradient8471">
      <stop
         id="stop8479"
         offset="0"
         style="stop-color:#cbd0e5;stop-opacity:0.98039216;" />
      <stop
         style="stop-color:#2b469d;stop-opacity:0.96078432;"
         offset="1"
         id="stop8475" />
    </linearGradient>
    <linearGradient
       id="linearGradient8447">
      <stop
         style="stop-color:#000000;stop-opacity:1;"
         offset="0"
         id="stop8449" />
      <stop
         style="stop-color:#ffffff;stop-opacity:1;"
         offset="1"
         id="stop8451" />
    </linearGradient>
    <linearGradient
       inkscape:collect="always"
       id="linearGradient6662">
      <stop
         style="stop-color:#000000;stop-opacity:1;"
         offset="0"
         id="stop6664" />
      <stop
         style="stop-color:#000000;stop-opacity:0;"
         offset="1"
         id="stop6666" />
    </linearGradient>
    <linearGradient
       inkscape:collect="always"
       xlink:href="#linearGradient6662"
       id="linearGradient6668"
       x1="69.1875"
       y1="721.51025"
       x2="1115.5"
       y2="721.51025"
       gradientUnits="userSpaceOnUse"
       gradientTransform="translate(9.437349e-7,-8.924495e-6)" />
    <linearGradient
       inkscape:collect="always"
       xlink:href="#linearGradient4005"
       id="linearGradient4015"
       x1="73.751465"
       y1="619.28882"
       x2="205.8764"
       y2="619.28882"
       gradientUnits="userSpaceOnUse" />
    <radialGradient
       inkscape:collect="always"
       xlink:href="#linearGradient2374"
       id="radialGradient3311"
       cx="202.1609"
       cy="581.95923"
       fx="202.1609"
       fy="581.95923"
       r="161.44482"
       gradientTransform="matrix(0.404735,2.39512e-7,-2.549551e-7,0.430831,83.00297,330.5175)"
       gradientUnits="userSpaceOnUse" />
  </defs>
  <sodipodi:namedview
     id="base"
     pagecolor="#ffffff"
     bordercolor="#666666"
     borderopacity="1.0"
     inkscape:pageopacity="0"
     inkscape:pageshadow="2"
     inkscape:zoom="0.57230612"
     inkscape:cx="596.83002"
     inkscape:cy="32.789024"
     inkscape:document-units="px"
     inkscape:current-layer="layer1"
     inkscape:window-width="989"
     inkscape:window-height="622"
     inkscape:window-x="0"
     inkscape:window-y="22" />
  <metadata
     id="metadata7">
    <rdf:RDF>
      <cc:Work
         rdf:about="">
        <dc:format>image/svg+xml</dc:format>
        <dc:type
           rdf:resource="http://purl.org/dc/dcmitype/StillImage" />
        <cc:license
           rdf:resource="http://creativecommons.org/licenses/GPL/2.0/" />
      </cc:Work>
      <cc:License
         rdf:about="http://creativecommons.org/licenses/GPL/2.0/">
        <cc:permits
           rdf:resource="http://web.resource.org/cc/Reproduction" />
        <cc:permits
           rdf:resource="http://web.resource.org/cc/Distribution" />
        <cc:requires
           rdf:resource="http://web.resource.org/cc/Notice" />
        <cc:permits
           rdf:resource="http://web.resource.org/cc/DerivativeWorks" />
        <cc:requires
           rdf:resource="http://web.resource.org/cc/ShareAlike" />
        <cc:requires
           rdf:resource="http://web.resource.org/cc/SourceCode" />
      </cc:License>
    </rdf:RDF>
  </metadata>
  <g
     inkscape:label="Layer 1"
     id="layer1"
     inkscape:groupmode="layer">
    <text
       xml:space="preserve"
       style="font-size:66.54315948px;font-style:normal;font-weight:normal;fill:#3d74c0;fill-opacity:1;stroke:none;stroke-width:1px;stroke-linecap:butt;stroke-linejoin:miter;stroke-opacity:1;font-family:Bitstream Vera Sans"
       id="text2249"
       y="813.42664"
       x="555.96344"><tspan
         id="tspan2251"
         y="813.42664"
         x="555.96344"
         sodipodi:role="line">Embedded power</tspan></text>
    <path
       style="fill:url(#radialGradient3311);fill-opacity:1;fill-rule:nonzero;stroke:none;stroke-width:1px;stroke-linecap:butt;stroke-linejoin:miter;stroke-opacity:1"
       d="M 166.00737,492.46796 L 7.4907863,757.45093 L 322.15804,757.45093 L 166.00737,492.46796 z "
       id="path1449"
       sodipodi:nodetypes="cccc" />
    <path
       style="font-size:114.39354706px;font-style:normal;font-weight:normal;fill:#fb8900;fill-opacity:1;fill-rule:nonzero;stroke:none;stroke-width:1px;stroke-linecap:butt;stroke-linejoin:miter;stroke-opacity:1;font-family:Bitstream Vera Sans"
       d="M 331.08665,757.03785 L 316.38285,757.03785 L 316.38285,707.29524 C 316.38279,703.28042 316.14814,699.52625 315.67894,696.03274 C 315.2096,692.48722 314.34928,689.72373 313.09796,687.74229 C 311.79435,685.55245 309.91728,683.93606 307.46673,682.89317 C 305.01602,681.79829 301.83541,681.25082 297.92489,681.25073 C 293.90997,681.25082 289.71261,682.24148 285.3328,684.22278 C 280.95291,686.2042 276.75556,688.73305 272.74072,691.80931 L 272.74072,757.03785 L 258.03691,757.03785 L 258.03691,669.67541 L 272.74072,669.67541 L 272.74072,679.37364 C 277.3291,675.56742 282.07395,672.59538 286.97526,670.45752 C 291.87647,668.31982 296.90809,667.25092 302.07012,667.25083 C 311.50758,667.25092 318.70306,670.09262 323.65655,675.77592 C 328.60986,681.45938 331.08656,689.64552 331.08665,700.33438 L 331.08665,757.03785 M 430.57191,747.10497 C 430.57182,761.91304 427.20873,772.78446 420.48261,779.71925 C 413.75633,786.65399 403.40632,790.12136 389.43256,790.1214 C 384.79197,790.12136 380.25569,789.78245 375.82374,789.10466 C 371.44386,788.47892 367.11614,787.56647 362.84058,786.36725 L 362.84058,771.35058 L 363.62272,771.35058 C 366.02118,772.28912 369.82748,773.43622 375.04161,774.7919 C 380.25569,776.19969 385.46979,776.90361 390.68394,776.90362 C 395.68945,776.90361 399.83467,776.30399 403.11962,775.10475 C 406.40443,773.9055 408.95935,772.23698 410.78435,770.09921 C 412.60922,768.06569 413.91276,765.61506 414.69494,762.74732 C 415.47697,759.87954 415.86804,756.67288 415.86811,753.12726 L 415.86811,745.14969 C 411.43605,748.69529 407.18656,751.35448 403.11962,753.12726 C 399.10468,754.84792 393.9688,755.70825 387.71191,755.70825 C 377.28364,755.70825 368.99322,751.9541 362.84058,744.44577 C 356.74005,736.88532 353.68981,726.24855 353.68983,712.53541 C 353.68981,705.02713 354.73264,698.56165 356.81828,693.1389 C 358.95606,687.66414 361.84989,682.94539 365.4998,678.98259 C 368.88893,675.28065 373.00807,672.4129 377.85723,670.3793 C 382.70632,668.29374 387.52937,667.25092 392.3264,667.25083 C 397.38404,667.25092 401.60746,667.77235 404.99669,668.81508 C 408.43794,669.80585 412.06174,671.344 415.86811,673.42955 L 416.80667,669.67541 L 430.57191,669.67541 L 430.57191,747.10497 M 415.86811,733.02687 L 415.86811,685.39594 C 411.95746,683.62323 408.30757,682.37184 404.91847,681.64178 C 401.58139,680.85975 398.24437,680.46869 394.90739,680.46862 C 386.82548,680.46869 380.46426,683.18002 375.82374,688.60263 C 371.18314,694.02537 368.86288,701.89866 368.86289,712.22255 C 368.86288,722.02513 370.58353,729.45523 374.02485,734.51289 C 377.46613,739.5706 383.17559,742.09945 391.15322,742.09942 C 395.42873,742.09945 399.70432,741.29127 403.97994,739.67486 C 408.30757,738.00637 412.27031,735.79036 415.86811,733.02687 M 522.236,731.85368 C 522.23595,739.8313 518.92498,746.37502 512.30312,751.48481 C 505.7333,756.59466 496.73895,759.14957 485.3201,759.14957 C 478.85456,759.14957 472.91049,758.39354 467.48784,756.88143 C 462.11728,755.3172 457.60708,753.62261 453.95721,751.79768 L 453.95721,735.295 L 454.73932,735.295 C 459.37988,738.78848 464.54185,741.57803 470.22524,743.66366 C 475.90859,745.69718 481.35733,746.71392 486.57149,746.71391 C 493.03694,746.71392 498.09462,745.6711 501.74454,743.58544 C 505.39436,741.49982 507.2193,738.21493 507.21937,733.73077 C 507.2193,730.28948 506.22863,727.68243 504.24733,725.9096 C 502.26591,724.13684 498.4596,722.62475 492.82843,721.37333 C 490.74274,720.90409 488.00534,720.35662 484.6162,719.73088 C 481.27914,719.10522 478.22887,718.42741 475.46543,717.69737 C 467.80066,715.66392 462.35192,712.69187 459.11917,708.78124 C 455.93857,704.81856 454.34826,699.96946 454.34827,694.23387 C 454.34826,690.6362 455.07824,687.24702 456.5382,684.06636 C 458.05026,680.88582 460.31841,678.04412 463.34262,675.54128 C 466.26249,673.09073 469.96451,671.16151 474.44867,669.75361 C 478.98492,668.29374 484.04259,667.56378 489.62175,667.56368 C 494.8358,667.56378 500.10204,668.21554 505.42052,669.51898 C 510.79098,670.77044 515.24903,672.30861 518.79471,674.13348 L 518.79471,689.85402 L 518.01258,689.85402 C 514.25836,687.09061 509.69601,684.77031 504.32554,682.89317 C 498.95495,680.96403 493.6887,679.99942 488.52678,679.99934 C 483.15621,679.99942 478.61993,681.04225 474.91795,683.12781 C 471.21591,685.16137 469.3649,688.21164 469.36492,692.27857 C 469.3649,695.87638 470.48594,698.58772 472.72801,700.41259 C 474.91793,702.23759 478.4635,703.7236 483.3648,704.87065 C 486.07611,705.4964 489.10029,706.1221 492.43736,706.74773 C 495.82649,707.37349 498.6421,707.94702 500.88422,708.46839 C 507.71465,710.03269 512.98089,712.71794 516.68299,716.5242 C 520.38493,720.3827 522.23595,725.4925 522.236,731.85368 M 588.71596,756.25573 C 585.95242,756.98572 582.92825,757.58534 579.64339,758.0546 C 576.41061,758.52389 573.51678,758.75851 570.9619,758.75851 C 562.04573,758.75851 555.2674,756.36003 550.62686,751.56304 C 545.98629,746.76607 543.66601,739.07525 543.66602,728.49058 L 543.66602,682.03284 L 533.73313,682.03284 L 533.73313,669.67541 L 543.66602,669.67541 L 543.66602,644.56945 L 558.36982,644.56945 L 558.36982,669.67541 L 588.71596,669.67541 L 588.71596,682.03284 L 558.36982,682.03284 L 558.36982,721.84259 C 558.36979,726.43105 558.47406,730.02878 558.68269,732.6358 C 558.8912,735.19074 559.62118,737.58924 560.87259,739.83128 C 562.01966,741.91694 563.5839,743.4551 565.56529,744.44577 C 567.59877,745.38432 570.6751,745.85359 574.79428,745.85358 C 577.19271,745.85359 579.6955,745.51469 582.30261,744.83684 C 584.9096,744.10688 586.78669,743.50726 587.93384,743.03796 L 588.71596,743.03796 L 588.71596,756.25573 M 661.06174,685.7088 L 660.27962,685.7088 C 658.08963,685.18745 655.95184,684.82248 653.86627,684.61383 C 651.8327,684.35319 649.40813,684.22284 646.59257,684.22278 C 642.05625,684.22284 637.67641,685.2396 633.45301,687.27303 C 629.22954,689.25445 625.16254,691.83545 621.25198,695.01599 L 621.25198,757.03785 L 606.54819,757.03785 L 606.54819,669.67541 L 621.25198,669.67541 L 621.25198,682.58033 C 627.09175,677.88771 632.22766,674.57674 636.65969,672.64744 C 641.14379,670.66618 645.70611,669.67549 650.34674,669.67541 C 652.90159,669.67549 654.7526,669.75369 655.89977,669.91004 C 657.04681,670.0144 658.76746,670.24904 661.06174,670.61394 L 661.06174,685.7088 M 749.51916,713.39574 C 749.51908,727.63028 745.8692,738.86669 738.56953,747.10497 C 731.26969,755.34327 721.49325,759.46241 709.24014,759.46243 C 696.88266,759.46241 687.05407,755.34327 679.75433,747.10497 C 672.50671,738.86669 668.8829,727.63028 668.8829,713.39574 C 668.8829,699.16126 672.50671,687.92486 679.75433,679.68648 C 687.05407,671.39615 696.88266,667.25092 709.24014,667.25083 C 721.49325,667.25092 731.26969,671.39615 738.56953,679.68648 C 745.8692,687.92486 749.51908,699.16126 749.51916,713.39574 M 734.34608,713.39574 C 734.34601,702.08116 732.13002,693.68646 727.69809,688.21158 C 723.26603,682.68469 717.11339,679.92121 709.24014,679.92113 C 701.26251,679.92121 695.05773,682.68469 690.62576,688.21158 C 686.24589,693.68646 684.05594,702.08116 684.05597,713.39574 C 684.05594,724.34541 686.27196,732.6619 690.70397,738.34527 C 695.13594,743.97652 701.31465,746.79215 709.24014,746.79214 C 717.06125,746.79215 723.18783,744.00258 727.6199,738.42347 C 732.10396,732.79225 734.34601,724.44968 734.34608,713.39574 M 733.17291,655.04982 L 717.60879,655.04982 L 717.60879,639.79852 L 733.17291,639.79852 L 733.17291,655.04982 M 700.87149,655.04982 L 685.30736,655.04982 L 685.30736,639.79852 L 700.87149,639.79852 L 700.87149,655.04982 M 899.84206,757.03785 L 885.13827,757.03785 L 885.13827,707.29524 C 885.13814,703.5411 884.95566,699.91729 884.59078,696.4238 C 884.27781,692.9304 883.5739,690.14087 882.47907,688.05514 C 881.2797,685.81313 879.55903,684.11856 877.3171,682.97139 C 875.07491,681.82436 871.84216,681.25082 867.61885,681.25073 C 863.49959,681.25082 859.38045,682.29363 855.2614,684.37919 C 851.14215,686.41277 847.02301,689.01983 842.90396,692.20035 C 843.0603,693.39968 843.19063,694.80748 843.29501,696.4238 C 843.39919,697.9881 843.45134,699.55232 843.45143,701.11649 L 843.45143,757.03785 L 828.74763,757.03785 L 828.74763,707.29524 C 828.74757,703.43684 828.56507,699.78697 828.20015,696.34559 C 827.88724,692.85221 827.18334,690.06264 826.08843,687.97693 C 824.88912,685.73495 823.16846,684.06642 820.92647,682.97139 C 818.68433,681.82436 815.45159,681.25082 811.22823,681.25073 C 807.21332,681.25082 803.17236,682.24148 799.10541,684.22278 C 795.0905,686.2042 791.07564,688.73305 787.0608,691.80931 L 787.0608,757.03785 L 772.357,757.03785 L 772.357,669.67541 L 787.0608,669.67541 L 787.0608,679.37364 C 791.64918,675.56742 796.21153,672.59538 800.74784,670.45752 C 805.33623,668.31982 810.21143,667.25092 815.37344,667.25083 C 821.31745,667.25092 826.34907,668.50231 830.46829,671.00501 C 834.6395,673.50785 837.74191,676.97524 839.77548,681.40713 C 845.71948,676.40168 851.14215,672.80396 856.04351,670.61394 C 860.94467,668.37196 866.18487,667.25092 871.76407,667.25083 C 881.3579,667.25092 888.42303,670.17083 892.95943,676.01055 C 897.54771,681.79829 899.84193,689.90623 899.84206,700.33438 L 899.84206,757.03785"
       id="text1367" />
    <path
       style="font-size:191.88253784px;font-style:normal;font-weight:normal;fill:#fb8900;fill-opacity:1;stroke:none;stroke-width:1px;stroke-linecap:butt;stroke-linejoin:miter;stroke-opacity:1;font-family:Bitstream Vera Sans"
       d="M 235.46782,757.54586 L 213.81376,757.54586 L 198.62512,714.95612 L 132.94458,714.95612 L 117.75596,757.54586 L 97.128158,757.54586 L 150.39096,613.15128 C 144.30178,610.14107 139.40997,605.9334 135.71549,600.52828 C 132.08933,595.05507 130.27628,588.82912 130.27632,581.85038 C 130.27628,572.0669 133.76555,563.85683 140.74414,557.22018 C 147.72266,550.58391 156.20638,547.26568 166.19536,547.26546 C 176.25261,547.26568 184.73633,550.58391 191.64658,557.22018 C 198.62502,563.85683 202.11431,572.0669 202.11442,581.85038 C 202.11431,588.69227 200.30124,594.91824 196.67524,600.52828 C 193.11745,606.07024 188.29404,610.2779 182.20499,613.15128 L 235.46782,757.54586 M 186.72052,582.05564 C 186.72044,576.17193 184.77056,571.28011 180.87085,567.38014 C 176.97098,563.41213 172.07916,561.42804 166.19536,561.42783 C 160.31141,561.42804 155.41958,563.41213 151.51985,567.38014 C 147.62002,571.34852 145.67014,576.24035 145.67018,582.05564 C 145.67014,587.93968 147.62002,592.86573 151.51985,596.83376 C 155.48799,600.73369 160.37982,602.68359 166.19536,602.68344 C 172.07916,602.68359 176.97098,600.73369 180.87085,596.83376 C 184.77056,592.86573 186.72044,587.93968 186.72052,582.05564 M 192.26233,697.50973 L 165.78485,624.13223 L 139.20476,697.50973 L 192.26233,697.50973"
       id="text1330" />
  </g>
</svg>
