<?xml version="1.0" encoding="UTF-8" standalone="no"?>
<!-- Created with Inkscape (http://www.inkscape.org/) -->
<svg
   xmlns:dc="http://purl.org/dc/elements/1.1/"
   xmlns:cc="http://web.resource.org/cc/"
   xmlns:rdf="http://www.w3.org/1999/02/22-rdf-syntax-ns#"
   xmlns:svg="http://www.w3.org/2000/svg"
   xmlns="http://www.w3.org/2000/svg"
   xmlns:xlink="http://www.w3.org/1999/xlink"
   xmlns:sodipodi="http://sodipodi.sourceforge.net/DTD/sodipodi-0.dtd"
   xmlns:inkscape="http://www.inkscape.org/namespaces/inkscape"
   width="744.09448"
   height="1052.3622"
   id="svg2"
   sodipodi:version="0.32"
   inkscape:version="0.45"
   version="1.0"
   sodipodi:docbase="/tmp"
   sodipodi:docname="splash-p.svg"
   inkscape:export-filename="/Users/koen/Projects/Ångström/angstrom-background.png"
   inkscape:export-xdpi="55.049999"
   inkscape:export-ydpi="55.049999"
   inkscape:output_extension="org.inkscape.output.svg.inkscape"
   sodipodi:modified="true">
  <defs
     id="defs4">
    <linearGradient
       id="linearGradient3283">
      <stop
         style="stop-color:#000000;stop-opacity:1;"
         offset="0"
         id="stop3285" />
      <stop
         style="stop-color:#000000;stop-opacity:0;"
         offset="1"
         id="stop3287" />
    </linearGradient>
    <linearGradient
       id="linearGradient2374">
      <stop
         style="stop-color:#fbda93;stop-opacity:1;"
         offset="0"
         id="stop2376" />
      <stop
         style="stop-color:#bb7b25;stop-opacity:0.93814433;"
         offset="1"
         id="stop2378" />
    </linearGradient>
    <linearGradient
       id="linearGradient2366">
      <stop
         style="stop-color:#d4950e;stop-opacity:1;"
         offset="0"
         id="stop2368" />
      <stop
         style="stop-color:#f2ce3a;stop-opacity:1;"
         offset="1"
         id="stop2370" />
    </linearGradient>
    <linearGradient
       id="linearGradient2344">
      <stop
         style="stop-color:#616161;stop-opacity:1;"
         offset="0"
         id="stop2346" />
      <stop
         style="stop-color:#000000;stop-opacity:0.6082474;"
         offset="1"
         id="stop2348" />
    </linearGradient>
    <linearGradient
       id="linearGradient2324">
      <stop
         style="stop-color:#a16c25;stop-opacity:0;"
         offset="0"
         id="stop2326" />
      <stop
         style="stop-color:#a16c25;stop-opacity:0.7525773;"
         offset="1"
         id="stop2328" />
    </linearGradient>
    <linearGradient
       id="linearGradient4005">
      <stop
         style="stop-color:#faff8b;stop-opacity:1;"
         offset="0"
         id="stop4007" />
      <stop
         style="stop-color:#ffda89;stop-opacity:0;"
         offset="1"
         id="stop4009" />
    </linearGradient>
    <linearGradient
       id="linearGradient8471">
      <stop
         id="stop8479"
         offset="0"
         style="stop-color:#cbd0e5;stop-opacity:0.98039216;" />
      <stop
         style="stop-color:#2b469d;stop-opacity:0.96078432;"
         offset="1"
         id="stop8475" />
    </linearGradient>
    <linearGradient
       id="linearGradient8447">
      <stop
         style="stop-color:#000000;stop-opacity:1;"
         offset="0"
         id="stop8449" />
      <stop
         style="stop-color:#ffffff;stop-opacity:1;"
         offset="1"
         id="stop8451" />
    </linearGradient>
    <linearGradient
       inkscape:collect="always"
       id="linearGradient6662">
      <stop
         style="stop-color:#000000;stop-opacity:1;"
         offset="0"
         id="stop6664" />
      <stop
         style="stop-color:#000000;stop-opacity:0;"
         offset="1"
         id="stop6666" />
    </linearGradient>
    <linearGradient
       inkscape:collect="always"
       xlink:href="#linearGradient6662"
       id="linearGradient6668"
       x1="69.1875"
       y1="721.51025"
       x2="1115.5"
       y2="721.51025"
       gradientUnits="userSpaceOnUse"
       gradientTransform="translate(9.437349e-7,-8.924495e-6)" />
    <linearGradient
       inkscape:collect="always"
       xlink:href="#linearGradient4005"
       id="linearGradient4015"
       x1="73.751465"
       y1="619.28882"
       x2="205.8764"
       y2="619.28882"
       gradientUnits="userSpaceOnUse" />
    <radialGradient
       inkscape:collect="always"
       xlink:href="#linearGradient2374"
       id="radialGradient3311"
       cx="202.1609"
       cy="581.95923"
       fx="202.1609"
       fy="581.95923"
       r="161.44482"
       gradientTransform="matrix(0.281574,1.666278e-7,-1.773716e-7,0.299729,-4.54534,519.7451)"
       gradientUnits="userSpaceOnUse" />
  </defs>
  <sodipodi:namedview
     id="base"
     pagecolor="#ffffff"
     bordercolor="#666666"
     borderopacity="1.0"
     inkscape:pageopacity="0"
     inkscape:pageshadow="2"
     inkscape:zoom="0.57230612"
     inkscape:cx="596.83002"
     inkscape:cy="549.6484"
     inkscape:document-units="px"
     inkscape:current-layer="layer1"
     inkscape:window-width="1280"
     inkscape:window-height="968"
     inkscape:window-x="1600"
     inkscape:window-y="0" />
  <metadata
     id="metadata7">
    <rdf:RDF>
      <cc:Work
         rdf:about="">
        <dc:format>image/svg+xml</dc:format>
        <dc:type
           rdf:resource="http://purl.org/dc/dcmitype/StillImage" />
        <cc:license
           rdf:resource="http://creativecommons.org/licenses/GPL/2.0/" />
      </cc:Work>
      <cc:License
         rdf:about="http://creativecommons.org/licenses/GPL/2.0/">
        <cc:permits
           rdf:resource="http://web.resource.org/cc/Reproduction" />
        <cc:permits
           rdf:resource="http://web.resource.org/cc/Distribution" />
        <cc:requires
           rdf:resource="http://web.resource.org/cc/Notice" />
        <cc:permits
           rdf:resource="http://web.resource.org/cc/DerivativeWorks" />
        <cc:requires
           rdf:resource="http://web.resource.org/cc/ShareAlike" />
        <cc:requires
           rdf:resource="http://web.resource.org/cc/SourceCode" />
      </cc:License>
    </rdf:RDF>
  </metadata>
  <g
     inkscape:label="Layer 1"
     id="layer1"
     inkscape:groupmode="layer">
    <text
       xml:space="preserve"
       style="font-size:46.29391098px;font-style:normal;font-weight:normal;fill:#3d74c0;fill-opacity:1;stroke:none;stroke-width:1px;stroke-linecap:butt;stroke-linejoin:miter;stroke-opacity:1;font-family:Bitstream Vera Sans"
       id="text2249"
       y="855.70374"
       x="324.49207"><tspan
         id="tspan2251"
         y="855.70374"
         x="324.49207"
         sodipodi:role="line">Embedded power</tspan></text>
    <path
       style="fill:url(#radialGradient3311);fill-opacity:1;fill-rule:nonzero;stroke:none;stroke-width:1px;stroke-linecap:butt;stroke-linejoin:miter;stroke-opacity:1"
       d="M 53.20061,632.41367 L -57.078981,816.76166 L 161.83424,816.76166 L 53.20061,632.41367 z "
       id="path1449"
       sodipodi:nodetypes="cccc" />
    <path
       style="font-size:114.39354706px;font-style:normal;font-weight:normal;fill:#fb8900;fill-opacity:1;fill-rule:nonzero;stroke:none;stroke-width:1px;stroke-linecap:butt;stroke-linejoin:miter;stroke-opacity:1;font-family:Bitstream Vera Sans"
       d="M 168.04585,816.47428 L 157.81645,816.47428 L 157.81645,781.86847 C 157.81641,779.07537 157.65318,776.4636 157.32676,774.03318 C 157.00023,771.56658 156.40171,769.64402 155.53116,768.26553 C 154.62426,766.74206 153.31838,765.61755 151.61353,764.89201 C 149.90859,764.13031 147.69584,763.74944 144.9753,763.74937 C 142.18213,763.74944 139.26203,764.43865 136.21502,765.81703 C 133.16794,767.19549 130.24785,768.9548 127.45474,771.09495 L 127.45474,816.47428 L 117.22533,816.47428 L 117.22533,755.69645 L 127.45474,755.69645 L 127.45474,762.44348 C 130.64687,759.79551 133.94785,757.72787 137.35768,756.24056 C 140.76743,754.75337 144.26791,754.00975 147.85913,754.00969 C 154.42475,754.00975 159.43062,755.98671 162.87675,759.94056 C 166.32276,763.89453 168.04579,769.58962 168.04585,777.02582 L 168.04585,816.47428 M 237.25751,809.56401 C 237.25745,819.86595 234.91776,827.42917 230.23841,832.25369 C 225.55894,837.07816 218.35847,839.49041 208.63696,839.49044 C 205.4085,839.49041 202.25264,839.25461 199.16933,838.78308 C 196.12226,838.34776 193.11148,837.71297 190.13698,836.87868 L 190.13698,826.43162 L 190.68112,826.43162 C 192.34973,827.08456 194.99776,827.8826 198.6252,828.82574 C 202.25264,829.80513 205.88007,830.29486 209.50755,830.29487 C 212.98986,830.29486 215.87368,829.8777 218.15902,829.04338 C 220.44424,828.20907 222.22171,827.04829 223.49134,825.56104 C 224.76091,824.14633 225.66778,822.44143 226.21194,820.44635 C 226.75599,818.45124 227.02805,816.22039 227.0281,813.7537 L 227.0281,808.20373 C 223.94474,810.67039 220.98837,812.52037 218.15902,813.7537 C 215.36584,814.95075 211.79281,815.54928 207.43991,815.54928 C 200.18498,815.54928 194.41736,812.93753 190.13698,807.71402 C 185.89287,802.45422 183.77082,795.05424 183.77083,785.51405 C 183.77082,780.29055 184.49631,775.79253 185.94729,772.01994 C 187.43453,768.21117 189.44776,764.92834 191.987,762.17144 C 194.34481,759.59601 197.21049,757.60092 200.58404,756.18614 C 203.95753,754.73523 207.31291,754.00975 210.65019,754.00969 C 214.16878,754.00975 217.10702,754.3725 219.46489,755.09793 C 221.85896,755.78719 224.38003,756.85729 227.0281,758.3082 L 227.68106,755.69645 L 237.25751,755.69645 L 237.25751,809.56401 M 227.0281,799.76991 L 227.0281,766.63319 C 224.30748,765.39992 221.76826,764.52933 219.41046,764.02142 C 217.08888,763.47738 214.76732,763.20531 212.44578,763.20527 C 206.82322,763.20531 202.39774,765.09157 199.16933,768.86408 C 195.94088,772.63666 194.32669,778.11408 194.3267,785.29638 C 194.32669,792.11602 195.52373,797.28513 197.91786,800.80372 C 200.31195,804.32236 204.284,806.08168 209.83403,806.08166 C 212.80849,806.08168 215.783,805.51944 218.75754,804.39489 C 221.76826,803.23413 224.52512,801.69246 227.0281,799.76991 M 301.02799,798.95373 C 301.02795,804.50374 298.72452,809.05618 294.11771,812.61105 C 289.5471,816.16596 283.28975,817.94341 275.34569,817.94341 C 270.84762,817.94341 266.71235,817.41744 262.93982,816.36547 C 259.20353,815.27723 256.0658,814.09832 253.5266,812.82872 L 253.5266,801.34784 L 254.07071,801.34784 C 257.29913,803.77825 260.89031,805.71894 264.84422,807.1699 C 268.79812,808.58462 272.58879,809.29195 276.21628,809.29194 C 280.71428,809.29195 284.23288,808.56647 286.77213,807.11548 C 289.31129,805.66452 290.58091,803.37922 290.58095,800.25961 C 290.58091,797.86551 289.8917,796.0518 288.51331,794.81844 C 287.13484,793.58513 284.4868,792.53318 280.56921,791.66256 C 279.1182,791.33612 277.2138,790.95525 274.85598,790.51992 C 272.53439,790.08465 270.41233,789.61309 268.48983,789.10521 C 263.15746,787.69054 259.36677,785.6229 257.11776,782.90228 C 254.90503,780.14545 253.79865,776.77196 253.79866,772.78172 C 253.79865,770.27883 254.3065,767.92098 255.32218,765.7082 C 256.37412,763.49551 257.95208,761.51855 260.05601,759.77732 C 262.08735,758.07248 264.66283,756.73033 267.78246,755.75086 C 270.93831,754.73523 274.45692,754.22739 278.33833,754.22733 C 281.96573,754.22739 285.62944,754.68082 289.3295,755.58763 C 293.06571,756.45827 296.16717,757.52836 298.63389,758.79791 L 298.63389,769.73467 L 298.08977,769.73467 C 295.47797,767.81217 292.30394,766.19793 288.56772,764.89201 C 284.83141,763.54992 281.16769,762.87884 277.57655,762.87878 C 273.84027,762.87884 270.6844,763.60433 268.10893,765.05525 C 265.53343,766.46999 264.24568,768.59206 264.2457,771.42141 C 264.24568,773.9244 265.0256,775.81068 266.58539,777.08023 C 268.10892,778.34988 270.57556,779.38369 273.98538,780.18169 C 275.87164,780.61703 277.97555,781.05233 280.29715,781.48757 C 282.65495,781.92292 284.61376,782.32192 286.1736,782.68463 C 290.92552,783.77291 294.58923,785.64104 297.16477,788.28903 C 299.7402,790.97338 301.02795,794.52827 301.02799,798.95373 M 347.27793,815.93017 C 345.35534,816.43802 343.25142,816.85517 340.96616,817.18165 C 338.71712,817.50812 336.70389,817.67135 334.92647,817.67135 C 328.72352,817.67135 324.00785,816.00273 320.77944,812.66548 C 317.551,809.32823 315.93678,803.97775 315.9368,796.61402 L 315.9368,764.29349 L 309.02651,764.29349 L 309.02651,755.69645 L 315.9368,755.69645 L 315.9368,738.23029 L 326.1662,738.23029 L 326.1662,755.69645 L 347.27793,755.69645 L 347.27793,764.29349 L 326.1662,764.29349 L 326.1662,791.98903 C 326.16618,795.18121 326.23872,797.68414 326.38385,799.49785 C 326.52892,801.2753 327.03677,802.94394 327.90736,804.50372 C 328.70538,805.9547 329.79362,807.0248 331.17207,807.71402 C 332.58675,808.36695 334.72694,808.69343 337.59265,808.69342 C 339.26123,808.69343 341.00242,808.45764 342.81618,807.98607 C 344.62985,807.47823 345.93574,807.06109 346.73381,806.7346 L 347.27793,806.7346 L 347.27793,815.93017 M 397.60872,766.85085 L 397.06459,766.85085 C 395.54102,766.48815 394.05376,766.23423 392.60283,766.08909 C 391.18809,765.90774 389.50133,765.81706 387.54254,765.81703 C 384.38663,765.81706 381.3396,766.52443 378.40139,767.93907 C 375.46312,769.31755 372.63372,771.11315 369.91316,773.32584 L 369.91316,816.47428 L 359.68376,816.47428 L 359.68376,755.69645 L 369.91316,755.69645 L 369.91316,764.67438 C 373.97586,761.40974 377.54891,759.1063 380.63226,757.76408 C 383.75184,756.38573 386.92584,755.6965 390.15431,755.69645 C 391.93172,755.6965 393.21946,755.75091 394.01754,755.85968 C 394.81552,755.9323 396.01259,756.09553 397.60872,756.34939 L 397.60872,766.85085 M 459.14832,786.11258 C 459.14826,796.01551 456.60904,803.83265 451.53069,809.56401 C 446.4522,815.29537 439.65075,818.16105 431.1263,818.16106 C 422.52923,818.16105 415.6915,815.29537 410.6131,809.56401 C 405.57095,803.83265 403.04987,796.01551 403.04987,786.11258 C 403.04987,776.20968 405.57095,768.39254 410.6131,762.66113 C 415.6915,756.89358 422.52923,754.00975 431.1263,754.00969 C 439.65075,754.00975 446.4522,756.89358 451.53069,762.66113 C 456.60904,768.39254 459.14826,776.20968 459.14832,786.11258 M 448.59245,786.11258 C 448.59239,778.24106 447.05074,772.40087 443.96746,768.59203 C 440.88407,764.74697 436.6037,762.82443 431.1263,762.82438 C 425.57629,762.82443 421.25963,764.74697 418.17632,768.59203 C 415.12926,772.40087 413.60571,778.24106 413.60573,786.11258 C 413.60571,793.73024 415.14741,799.516 418.23073,803.46989 C 421.31405,807.38755 425.61255,809.34638 431.1263,809.34637 C 436.56743,809.34638 440.82967,807.40568 443.91306,803.52432 C 447.0326,799.60668 448.59239,793.80277 448.59245,786.11258 M 447.77627,745.52147 L 436.94835,745.52147 L 436.94835,734.91117 L 447.77627,734.91117 L 447.77627,745.52147 M 425.30426,745.52147 L 414.47632,745.52147 L 414.47632,734.91117 L 425.30426,734.91117 L 425.30426,745.52147 M 563.72758,816.47428 L 553.4982,816.47428 L 553.4982,781.86847 C 553.4981,779.25674 553.37115,776.73566 553.11731,774.30525 C 552.89957,771.87489 552.40987,769.93423 551.64819,768.48318 C 550.8138,766.92342 549.61673,765.74452 548.05702,764.94643 C 546.49714,764.14845 544.24813,763.74944 541.30998,763.74937 C 538.44422,763.74944 535.57854,764.47491 532.71293,765.92583 C 529.84717,767.34059 526.9815,769.15432 524.11589,771.367 C 524.22465,772.20136 524.31531,773.18078 524.38795,774.30525 C 524.46042,775.39353 524.4967,776.48174 524.49676,777.56993 L 524.49676,816.47428 L 514.26737,816.47428 L 514.26737,781.86847 C 514.26733,779.18419 514.14035,776.64499 513.88647,774.25084 C 513.6688,771.8205 513.17909,769.8798 512.41736,768.42878 C 511.58301,766.86903 510.38596,765.70824 508.8262,764.94643 C 507.26635,764.14845 505.01734,763.74944 502.07916,763.74937 C 499.28599,763.74944 496.47472,764.43865 493.64534,765.81703 C 490.85218,767.19549 488.05906,768.9548 485.26595,771.09495 L 485.26595,816.47428 L 475.03655,816.47428 L 475.03655,755.69645 L 485.26595,755.69645 L 485.26595,762.44348 C 488.45807,759.79551 491.63208,757.72787 494.78798,756.24056 C 497.98011,754.75337 501.37177,754.00975 504.96296,754.00969 C 509.0982,754.00975 512.59869,754.88034 515.46441,756.62146 C 518.36633,758.36268 520.52467,760.77493 521.93941,763.85818 C 526.07464,760.3759 529.84717,757.87298 533.25704,756.34939 C 536.66677,754.78964 540.31236,754.00975 544.19379,754.00969 C 550.8682,754.00975 555.7834,756.04112 558.93935,760.10379 C 562.13141,764.13031 563.72748,769.77098 563.72758,777.02582 L 563.72758,816.47428"
       id="text1367" />
    <path
       style="font-size:191.88253784px;font-style:normal;font-weight:normal;fill:#fb8900;fill-opacity:1;stroke:none;stroke-width:1px;stroke-linecap:butt;stroke-linejoin:miter;stroke-opacity:1;font-family:Bitstream Vera Sans"
       d="M 101.52407,816.82771 L 86.4594,816.82771 L 75.89269,787.19813 L 30.198912,787.19813 L 19.632227,816.82771 L 5.281514,816.82771 L 42.33631,716.37276 C 38.100083,714.27857 34.696867,711.3513 32.126627,707.59097 C 29.603911,703.78327 28.342578,699.45189 28.34261,694.59679 C 28.342578,687.79046 30.770061,682.07872 35.625051,677.46163 C 40.479985,672.84478 46.382087,670.5363 53.3314,670.53615 C 60.328195,670.5363 66.230301,672.84478 71.037754,677.46163 C 75.89263,682.07872 78.32012,687.79046 78.3202,694.59679 C 78.32012,699.35669 77.05877,703.68807 74.53617,707.59097 C 72.06102,711.4465 68.705395,714.37376 64.469261,716.37276 L 101.52407,816.82771 M 67.610701,694.73959 C 67.61065,690.6463 66.254109,687.24309 63.541099,684.52988 C 60.827967,681.76935 57.424742,680.38902 53.3314,680.38887 C 49.23794,680.38902 45.834713,681.76935 43.121682,684.52988 C 40.408585,687.29067 39.052053,690.69391 39.052076,694.73959 C 39.052053,698.83311 40.408585,702.26014 43.121682,705.02069 C 45.882305,707.73387 49.285532,709.09041 53.3314,709.0903 C 57.424742,709.09041 60.827967,707.73387 63.541099,705.02069 C 66.254109,702.26014 67.61065,698.83311 67.610701,694.73959 M 71.466113,775.06072 L 53.045808,724.01218 L 34.554099,775.06072 L 71.466113,775.06072"
       id="text1330" />
    <g
       id="g625"
       transform="matrix(1.57221,0,0,1.783879,117.3601,-832.5448)">
      <path
         style="font-size:12px;fill:#3673b9;fill-rule:evenodd;stroke:black;stroke-width:5;stroke-linecap:round;stroke-linejoin:round"
         d="M 94.0243,653.144 C 92.9148,643.848 92.7925,633.53 100.937,626.205 C 110.403,617.654 128.339,609.24 161.179,608.437 C 198.937,607.895 218.386,616.406 225.076,630.58 C 228.365,637.914 224.721,648.089 221.448,650.927 C 213.78,658.207 201.683,661.711 188.673,661.848 C 186.641,661.928 175.967,663.211 169.531,664.713 C 164.673,665.763 155.85,669.834 156.459,677.063 C 156.844,681.447 161.193,684.034 165.183,684.871 C 170.445,686.339 176.027,688.99 178.258,694.859 C 181.546,704.105 177.959,710.957 168.8,715.903 C 161.709,719.634 154.415,719.213 147.278,719.071 C 140.141,718.929 133.162,719.066 126.7,716.626 C 117.33,713.315 110.463,707.247 105.645,695.933 C 97.8806,678.555 95.4338,662.383 94.0243,653.144 z "
         id="path616"
         sodipodi:nodetypes="cssssssssssssss" />
      <path
         style="font-size:12px;fill:#3673b9;fill-rule:evenodd;stroke:black;stroke-width:5;stroke-linecap:round;stroke-linejoin:round"
         d="M 194.062,704.69 C 193.14,694.185 196.652,689.208 200.953,687.124 C 209.472,682.649 222.59,684.248 225.987,684.099 C 229.385,683.951 240.209,683.735 243.865,684.205 C 249.754,684.601 256.049,688.543 258.82,692.571 C 265.332,701.232 261.469,710.7 256.411,712.489 C 249.962,715.244 244.289,715.677 227.774,716.564 C 204.065,718.344 195.456,716.622 194.062,704.69 z "
         id="path617"
         sodipodi:nodetypes="csssssss" />
      <path
         style="font-size:12px;fill:#3673b9;fill-rule:evenodd;stroke:black;stroke-width:5;stroke-linecap:round;stroke-linejoin:round"
         d="M 223.572,534.437 C 234.346,534.712 236.996,549.599 235.829,563.596 C 235.421,567.174 233.429,584.092 233.002,587.692 C 231.882,597.71 226.094,605.34 215.928,601.764 C 208.095,599.279 204.245,594.862 204.961,585.102 C 205.236,571.731 206.463,562.435 206.901,558.881 C 208.572,545.91 212.509,533.783 223.572,534.437 z "
         id="path618"
         sodipodi:nodetypes="cssssss" />
      <path
         style="font-size:12px;fill:#3673b9;fill-rule:evenodd;stroke:black;stroke-width:5;stroke-linecap:round;stroke-linejoin:round"
         d="M 190.996,543.844 C 191.248,547.435 190.83,570.43 190.842,574.055 C 190.523,588.357 184.241,590.165 176.737,590.029 C 168.365,589.868 163.49,586.734 162.868,574.191 C 162.796,570.779 162.302,547.265 162.343,543.724 C 162.467,532.535 165.296,520.122 176.461,519.777 C 188.953,519.799 190.569,532.18 190.996,543.844 z "
         id="path619"
         sodipodi:nodetypes="cssssss" />
      <path
         style="font-size:12px;fill:#3673b9;fill-rule:evenodd;stroke:black;stroke-width:5;stroke-linecap:round;stroke-linejoin:round"
         d="M 130.758,527.278 C 119.981,527.402 117.124,542.25 118.094,556.262 C 118.452,559.846 120.207,576.79 120.584,580.395 C 121.563,590.428 126.706,597.399 135.905,595.198 C 144.244,593.308 148.701,589.506 148.659,578.198 C 148.244,564.831 147.473,555.513 147.086,551.953 C 145.597,538.96 141.829,526.779 130.758,527.278 z "
         id="path620"
         sodipodi:nodetypes="cssssss" />
      <path
         style="font-size:12px;fill:#3673b9;fill-rule:evenodd;stroke:black;stroke-width:5;stroke-linecap:round;stroke-linejoin:round"
         d="M 85.9856,547.512 C 75.8101,548.42 74.2169,562.557 76.1787,575.631 C 76.7843,578.964 79.706,594.216 81.3616,598.086 C 84.0428,607.187 88.7859,615.406 97.9757,610.333 C 107.283,605.467 110.045,600.467 108.762,592.936 C 106.17,580.739 104.92,575.864 103.257,569.463 C 99.9087,557.613 96.4103,546.232 85.9856,547.512 z "
         id="path621"
         sodipodi:nodetypes="cssssss" />
    </g>
    <text
       xml:space="preserve"
       style="font-size:96px;font-style:normal;font-variant:normal;font-weight:normal;font-stretch:normal;text-align:start;line-height:100%;writing-mode:lr-tb;text-anchor:start;fill:#000000;fill-opacity:1;stroke:none;stroke-width:1px;stroke-linecap:butt;stroke-linejoin:miter;stroke-opacity:1;font-family:Bitstream Vera Sans"
       x="192.20483"
       y="568.35547"
       id="text2200"
       sodipodi:linespacing="100%"><tspan
         sodipodi:role="line"
         id="tspan2202"
         x="192.20483"
         y="568.35547">GPE 2.8</tspan></text>
  </g>
</svg>
