<?xml version="1.0" encoding="UTF-8" standalone="no"?>
<!-- Created with Inkscape (http://www.inkscape.org/) -->
<svg
   xmlns:dc="http://purl.org/dc/elements/1.1/"
   xmlns:cc="http://web.resource.org/cc/"
   xmlns:rdf="http://www.w3.org/1999/02/22-rdf-syntax-ns#"
   xmlns:svg="http://www.w3.org/2000/svg"
   xmlns="http://www.w3.org/2000/svg"
   xmlns:xlink="http://www.w3.org/1999/xlink"
   xmlns:sodipodi="http://sodipodi.sourceforge.net/DTD/sodipodi-0.dtd"
   xmlns:inkscape="http://www.inkscape.org/namespaces/inkscape"
   width="841.88977pt"
   height="595.27557pt"
   id="svg2"
   sodipodi:version="0.32"
   inkscape:version="0.43+0.44pre4"
   version="1.0"
   sodipodi:docbase="J:\"
   sodipodi:docname="foo.svg"
   inkscape:export-filename="/Users/koen/Projects/Ångström/angstrom-background.png"
   inkscape:export-xdpi="55.049999"
   inkscape:export-ydpi="55.049999">
  <defs
     id="defs4">
    <linearGradient
       id="linearGradient3283">
      <stop
         style="stop-color:#000000;stop-opacity:1;"
         offset="0"
         id="stop3285" />
      <stop
         style="stop-color:#000000;stop-opacity:0;"
         offset="1"
         id="stop3287" />
    </linearGradient>
    <linearGradient
       id="linearGradient2374">
      <stop
         style="stop-color:#fbda93;stop-opacity:1;"
         offset="0"
         id="stop2376" />
      <stop
         style="stop-color:#bb7b25;stop-opacity:0.93814433;"
         offset="1"
         id="stop2378" />
    </linearGradient>
    <linearGradient
       id="linearGradient2366">
      <stop
         style="stop-color:#d4950e;stop-opacity:1;"
         offset="0"
         id="stop2368" />
      <stop
         style="stop-color:#f2ce3a;stop-opacity:1;"
         offset="1"
         id="stop2370" />
    </linearGradient>
    <linearGradient
       id="linearGradient2344">
      <stop
         style="stop-color:#616161;stop-opacity:1;"
         offset="0"
         id="stop2346" />
      <stop
         style="stop-color:#000000;stop-opacity:0.6082474;"
         offset="1"
         id="stop2348" />
    </linearGradient>
    <linearGradient
       id="linearGradient2324">
      <stop
         style="stop-color:#a16c25;stop-opacity:0;"
         offset="0"
         id="stop2326" />
      <stop
         style="stop-color:#a16c25;stop-opacity:0.7525773;"
         offset="1"
         id="stop2328" />
    </linearGradient>
    <linearGradient
       id="linearGradient4005">
      <stop
         style="stop-color:#faff8b;stop-opacity:1;"
         offset="0"
         id="stop4007" />
      <stop
         style="stop-color:#ffda89;stop-opacity:0;"
         offset="1"
         id="stop4009" />
    </linearGradient>
    <linearGradient
       id="linearGradient8471">
      <stop
         id="stop8479"
         offset="0"
         style="stop-color:#cbd0e5;stop-opacity:0.98039216;" />
      <stop
         style="stop-color:#2b469d;stop-opacity:0.96078432;"
         offset="1"
         id="stop8475" />
    </linearGradient>
    <linearGradient
       id="linearGradient8447">
      <stop
         style="stop-color:#000000;stop-opacity:1;"
         offset="0"
         id="stop8449" />
      <stop
         style="stop-color:#ffffff;stop-opacity:1;"
         offset="1"
         id="stop8451" />
    </linearGradient>
    <linearGradient
       inkscape:collect="always"
       id="linearGradient6662">
      <stop
         style="stop-color:#000000;stop-opacity:1;"
         offset="0"
         id="stop6664" />
      <stop
         style="stop-color:#000000;stop-opacity:0;"
         offset="1"
         id="stop6666" />
    </linearGradient>
    <linearGradient
       inkscape:collect="always"
       xlink:href="#linearGradient6662"
       id="linearGradient6668"
       x1="69.1875"
       y1="721.51025"
       x2="1115.5"
       y2="721.51025"
       gradientUnits="userSpaceOnUse"
       gradientTransform="translate(9.437349e-7,-8.924495e-6)" />
    <linearGradient
       inkscape:collect="always"
       xlink:href="#linearGradient4005"
       id="linearGradient4015"
       x1="73.751465"
       y1="619.28882"
       x2="205.8764"
       y2="619.28882"
       gradientUnits="userSpaceOnUse" />
    <radialGradient
       inkscape:collect="always"
       xlink:href="#linearGradient2374"
       id="radialGradient3311"
       cx="202.1609"
       cy="581.95923"
       fx="202.1609"
       fy="581.95923"
       r="161.44482"
       gradientTransform="matrix(0.404735,2.39512e-7,-2.549551e-7,0.430831,83.00297,226.5175)"
       gradientUnits="userSpaceOnUse" />
  </defs>
  <sodipodi:namedview
     id="base"
     pagecolor="#ffffff"
     bordercolor="#666666"
     borderopacity="1.0"
     inkscape:pageopacity="0"
     inkscape:pageshadow="2"
     inkscape:zoom="0.57230612"
     inkscape:cx="596.83002"
     inkscape:cy="104.03094"
     inkscape:document-units="px"
     inkscape:current-layer="layer1"
     inkscape:window-width="989"
     inkscape:window-height="622"
     inkscape:window-x="121"
     inkscape:window-y="262" />
  <metadata
     id="metadata7">
    <rdf:RDF>
      <cc:Work
         rdf:about="">
        <dc:format>image/svg+xml</dc:format>
        <dc:type
           rdf:resource="http://purl.org/dc/dcmitype/StillImage" />
        <cc:license
           rdf:resource="http://creativecommons.org/licenses/GPL/2.0/" />
      </cc:Work>
      <cc:License
         rdf:about="http://creativecommons.org/licenses/GPL/2.0/">
        <cc:permits
           rdf:resource="http://web.resource.org/cc/Reproduction" />
        <cc:permits
           rdf:resource="http://web.resource.org/cc/Distribution" />
        <cc:requires
           rdf:resource="http://web.resource.org/cc/Notice" />
        <cc:permits
           rdf:resource="http://web.resource.org/cc/DerivativeWorks" />
        <cc:requires
           rdf:resource="http://web.resource.org/cc/ShareAlike" />
        <cc:requires
           rdf:resource="http://web.resource.org/cc/SourceCode" />
      </cc:License>
    </rdf:RDF>
  </metadata>
  <g
     inkscape:label="Layer 1"
     id="layer1"
     inkscape:groupmode="layer">
    <text
       xml:space="preserve"
       style="font-size:66.54315948px;font-style:normal;font-weight:normal;fill:#3d74c0;fill-opacity:1;stroke:none;stroke-width:1px;stroke-linecap:butt;stroke-linejoin:miter;stroke-opacity:1;font-family:Bitstream Vera Sans"
       id="text2249"
       y="709.42664"
       x="555.96344"><tspan
         id="tspan2251"
         y="709.42664"
         x="555.96344"
         sodipodi:role="line">Embedded power</tspan></text>
    <path
       style="fill:url(#radialGradient3311);fill-opacity:1;fill-rule:nonzero;stroke:none;stroke-width:1px;stroke-linecap:butt;stroke-linejoin:miter;stroke-opacity:1"
       d="M 166.00737,388.46796 L 7.4907863,653.45093 L 322.15804,653.45093 L 166.00737,388.46796 z "
       id="path1449"
       sodipodi:nodetypes="cccc" />
    <path
       style="font-size:114.39354706px;font-style:normal;font-weight:normal;fill:#fb8900;fill-opacity:1;fill-rule:nonzero;stroke:none;stroke-width:1px;stroke-linecap:butt;stroke-linejoin:miter;stroke-opacity:1;font-family:Bitstream Vera Sans"
       d="M 331.08665,653.03785 L 316.38285,653.03785 L 316.38285,603.29524 C 316.38279,599.28042 316.14814,595.52625 315.67894,592.03274 C 315.2096,588.48722 314.34928,585.72373 313.09796,583.74229 C 311.79435,581.55245 309.91728,579.93606 307.46673,578.89317 C 305.01602,577.79829 301.83541,577.25082 297.92489,577.25073 C 293.90997,577.25082 289.71261,578.24148 285.3328,580.22278 C 280.95291,582.2042 276.75556,584.73305 272.74072,587.80931 L 272.74072,653.03785 L 258.03691,653.03785 L 258.03691,565.67541 L 272.74072,565.67541 L 272.74072,575.37364 C 277.3291,571.56742 282.07395,568.59538 286.97526,566.45752 C 291.87647,564.31982 296.90809,563.25092 302.07012,563.25083 C 311.50758,563.25092 318.70306,566.09262 323.65655,571.77592 C 328.60986,577.45938 331.08656,585.64552 331.08665,596.33438 L 331.08665,653.03785 M 430.57191,643.10497 C 430.57182,657.91304 427.20873,668.78446 420.48261,675.71925 C 413.75633,682.65399 403.40632,686.12136 389.43256,686.1214 C 384.79197,686.12136 380.25569,685.78245 375.82374,685.10466 C 371.44386,684.47892 367.11614,683.56647 362.84058,682.36725 L 362.84058,667.35058 L 363.62272,667.35058 C 366.02118,668.28912 369.82748,669.43622 375.04161,670.7919 C 380.25569,672.19969 385.46979,672.90361 390.68394,672.90362 C 395.68945,672.90361 399.83467,672.30399 403.11962,671.10475 C 406.40443,669.9055 408.95935,668.23698 410.78435,666.09921 C 412.60922,664.06569 413.91276,661.61506 414.69494,658.74732 C 415.47697,655.87954 415.86804,652.67288 415.86811,649.12726 L 415.86811,641.14969 C 411.43605,644.69529 407.18656,647.35448 403.11962,649.12726 C 399.10468,650.84792 393.9688,651.70825 387.71191,651.70825 C 377.28364,651.70825 368.99322,647.9541 362.84058,640.44577 C 356.74005,632.88532 353.68981,622.24855 353.68983,608.53541 C 353.68981,601.02713 354.73264,594.56165 356.81828,589.1389 C 358.95606,583.66414 361.84989,578.94539 365.4998,574.98259 C 368.88893,571.28065 373.00807,568.4129 377.85723,566.3793 C 382.70632,564.29374 387.52937,563.25092 392.3264,563.25083 C 397.38404,563.25092 401.60746,563.77235 404.99669,564.81508 C 408.43794,565.80585 412.06174,567.344 415.86811,569.42955 L 416.80667,565.67541 L 430.57191,565.67541 L 430.57191,643.10497 M 415.86811,629.02687 L 415.86811,581.39594 C 411.95746,579.62323 408.30757,578.37184 404.91847,577.64178 C 401.58139,576.85975 398.24437,576.46869 394.90739,576.46862 C 386.82548,576.46869 380.46426,579.18002 375.82374,584.60263 C 371.18314,590.02537 368.86288,597.89866 368.86289,608.22255 C 368.86288,618.02513 370.58353,625.45523 374.02485,630.51289 C 377.46613,635.5706 383.17559,638.09945 391.15322,638.09942 C 395.42873,638.09945 399.70432,637.29127 403.97994,635.67486 C 408.30757,634.00637 412.27031,631.79036 415.86811,629.02687 M 522.236,627.85368 C 522.23595,635.8313 518.92498,642.37502 512.30312,647.48481 C 505.7333,652.59466 496.73895,655.14957 485.3201,655.14957 C 478.85456,655.14957 472.91049,654.39354 467.48784,652.88143 C 462.11728,651.3172 457.60708,649.62261 453.95721,647.79768 L 453.95721,631.295 L 454.73932,631.295 C 459.37988,634.78848 464.54185,637.57803 470.22524,639.66366 C 475.90859,641.69718 481.35733,642.71392 486.57149,642.71391 C 493.03694,642.71392 498.09462,641.6711 501.74454,639.58544 C 505.39436,637.49982 507.2193,634.21493 507.21937,629.73077 C 507.2193,626.28948 506.22863,623.68243 504.24733,621.9096 C 502.26591,620.13684 498.4596,618.62475 492.82843,617.37333 C 490.74274,616.90409 488.00534,616.35662 484.6162,615.73088 C 481.27914,615.10522 478.22887,614.42741 475.46543,613.69737 C 467.80066,611.66392 462.35192,608.69187 459.11917,604.78124 C 455.93857,600.81856 454.34826,595.96946 454.34827,590.23387 C 454.34826,586.6362 455.07824,583.24702 456.5382,580.06636 C 458.05026,576.88582 460.31841,574.04412 463.34262,571.54128 C 466.26249,569.09073 469.96451,567.16151 474.44867,565.75361 C 478.98492,564.29374 484.04259,563.56378 489.62175,563.56368 C 494.8358,563.56378 500.10204,564.21554 505.42052,565.51898 C 510.79098,566.77044 515.24903,568.30861 518.79471,570.13348 L 518.79471,585.85402 L 518.01258,585.85402 C 514.25836,583.09061 509.69601,580.77031 504.32554,578.89317 C 498.95495,576.96403 493.6887,575.99942 488.52678,575.99934 C 483.15621,575.99942 478.61993,577.04225 474.91795,579.12781 C 471.21591,581.16137 469.3649,584.21164 469.36492,588.27857 C 469.3649,591.87638 470.48594,594.58772 472.72801,596.41259 C 474.91793,598.23759 478.4635,599.7236 483.3648,600.87065 C 486.07611,601.4964 489.10029,602.1221 492.43736,602.74773 C 495.82649,603.37349 498.6421,603.94702 500.88422,604.46839 C 507.71465,606.03269 512.98089,608.71794 516.68299,612.5242 C 520.38493,616.3827 522.23595,621.4925 522.236,627.85368 M 588.71596,652.25573 C 585.95242,652.98572 582.92825,653.58534 579.64339,654.0546 C 576.41061,654.52389 573.51678,654.75851 570.9619,654.75851 C 562.04573,654.75851 555.2674,652.36003 550.62686,647.56304 C 545.98629,642.76607 543.66601,635.07525 543.66602,624.49058 L 543.66602,578.03284 L 533.73313,578.03284 L 533.73313,565.67541 L 543.66602,565.67541 L 543.66602,540.56945 L 558.36982,540.56945 L 558.36982,565.67541 L 588.71596,565.67541 L 588.71596,578.03284 L 558.36982,578.03284 L 558.36982,617.84259 C 558.36979,622.43105 558.47406,626.02878 558.68269,628.6358 C 558.8912,631.19074 559.62118,633.58924 560.87259,635.83128 C 562.01966,637.91694 563.5839,639.4551 565.56529,640.44577 C 567.59877,641.38432 570.6751,641.85359 574.79428,641.85358 C 577.19271,641.85359 579.6955,641.51469 582.30261,640.83684 C 584.9096,640.10688 586.78669,639.50726 587.93384,639.03796 L 588.71596,639.03796 L 588.71596,652.25573 M 661.06174,581.7088 L 660.27962,581.7088 C 658.08963,581.18745 655.95184,580.82248 653.86627,580.61383 C 651.8327,580.35319 649.40813,580.22284 646.59257,580.22278 C 642.05625,580.22284 637.67641,581.2396 633.45301,583.27303 C 629.22954,585.25445 625.16254,587.83545 621.25198,591.01599 L 621.25198,653.03785 L 606.54819,653.03785 L 606.54819,565.67541 L 621.25198,565.67541 L 621.25198,578.58033 C 627.09175,573.88771 632.22766,570.57674 636.65969,568.64744 C 641.14379,566.66618 645.70611,565.67549 650.34674,565.67541 C 652.90159,565.67549 654.7526,565.75369 655.89977,565.91004 C 657.04681,566.0144 658.76746,566.24904 661.06174,566.61394 L 661.06174,581.7088 M 749.51916,609.39574 C 749.51908,623.63028 745.8692,634.86669 738.56953,643.10497 C 731.26969,651.34327 721.49325,655.46241 709.24014,655.46243 C 696.88266,655.46241 687.05407,651.34327 679.75433,643.10497 C 672.50671,634.86669 668.8829,623.63028 668.8829,609.39574 C 668.8829,595.16126 672.50671,583.92486 679.75433,575.68648 C 687.05407,567.39615 696.88266,563.25092 709.24014,563.25083 C 721.49325,563.25092 731.26969,567.39615 738.56953,575.68648 C 745.8692,583.92486 749.51908,595.16126 749.51916,609.39574 M 734.34608,609.39574 C 734.34601,598.08116 732.13002,589.68646 727.69809,584.21158 C 723.26603,578.68469 717.11339,575.92121 709.24014,575.92113 C 701.26251,575.92121 695.05773,578.68469 690.62576,584.21158 C 686.24589,589.68646 684.05594,598.08116 684.05597,609.39574 C 684.05594,620.34541 686.27196,628.6619 690.70397,634.34527 C 695.13594,639.97652 701.31465,642.79215 709.24014,642.79214 C 717.06125,642.79215 723.18783,640.00258 727.6199,634.42347 C 732.10396,628.79225 734.34601,620.44968 734.34608,609.39574 M 733.17291,551.04982 L 717.60879,551.04982 L 717.60879,535.79852 L 733.17291,535.79852 L 733.17291,551.04982 M 700.87149,551.04982 L 685.30736,551.04982 L 685.30736,535.79852 L 700.87149,535.79852 L 700.87149,551.04982 M 899.84206,653.03785 L 885.13827,653.03785 L 885.13827,603.29524 C 885.13814,599.5411 884.95566,595.91729 884.59078,592.4238 C 884.27781,588.9304 883.5739,586.14087 882.47907,584.05514 C 881.2797,581.81313 879.55903,580.11856 877.3171,578.97139 C 875.07491,577.82436 871.84216,577.25082 867.61885,577.25073 C 863.49959,577.25082 859.38045,578.29363 855.2614,580.37919 C 851.14215,582.41277 847.02301,585.01983 842.90396,588.20035 C 843.0603,589.39968 843.19063,590.80748 843.29501,592.4238 C 843.39919,593.9881 843.45134,595.55232 843.45143,597.11649 L 843.45143,653.03785 L 828.74763,653.03785 L 828.74763,603.29524 C 828.74757,599.43684 828.56507,595.78697 828.20015,592.34559 C 827.88724,588.85221 827.18334,586.06264 826.08843,583.97693 C 824.88912,581.73495 823.16846,580.06642 820.92647,578.97139 C 818.68433,577.82436 815.45159,577.25082 811.22823,577.25073 C 807.21332,577.25082 803.17236,578.24148 799.10541,580.22278 C 795.0905,582.2042 791.07564,584.73305 787.0608,587.80931 L 787.0608,653.03785 L 772.357,653.03785 L 772.357,565.67541 L 787.0608,565.67541 L 787.0608,575.37364 C 791.64918,571.56742 796.21153,568.59538 800.74784,566.45752 C 805.33623,564.31982 810.21143,563.25092 815.37344,563.25083 C 821.31745,563.25092 826.34907,564.50231 830.46829,567.00501 C 834.6395,569.50785 837.74191,572.97524 839.77548,577.40713 C 845.71948,572.40168 851.14215,568.80396 856.04351,566.61394 C 860.94467,564.37196 866.18487,563.25092 871.76407,563.25083 C 881.3579,563.25092 888.42303,566.17083 892.95943,572.01055 C 897.54771,577.79829 899.84193,585.90623 899.84206,596.33438 L 899.84206,653.03785"
       id="text1367" />
    <path
       style="font-size:191.88253784px;font-style:normal;font-weight:normal;fill:#fb8900;fill-opacity:1;stroke:none;stroke-width:1px;stroke-linecap:butt;stroke-linejoin:miter;stroke-opacity:1;font-family:Bitstream Vera Sans"
       d="M 235.46782,653.54586 L 213.81376,653.54586 L 198.62512,610.95612 L 132.94458,610.95612 L 117.75596,653.54586 L 97.128158,653.54586 L 150.39096,509.15128 C 144.30178,506.14107 139.40997,501.9334 135.71549,496.52828 C 132.08933,491.05507 130.27628,484.82912 130.27632,477.85038 C 130.27628,468.0669 133.76555,459.85683 140.74414,453.22018 C 147.72266,446.58391 156.20638,443.26568 166.19536,443.26546 C 176.25261,443.26568 184.73633,446.58391 191.64658,453.22018 C 198.62502,459.85683 202.11431,468.0669 202.11442,477.85038 C 202.11431,484.69227 200.30124,490.91824 196.67524,496.52828 C 193.11745,502.07024 188.29404,506.2779 182.20499,509.15128 L 235.46782,653.54586 M 186.72052,478.05564 C 186.72044,472.17193 184.77056,467.28011 180.87085,463.38014 C 176.97098,459.41213 172.07916,457.42804 166.19536,457.42783 C 160.31141,457.42804 155.41958,459.41213 151.51985,463.38014 C 147.62002,467.34852 145.67014,472.24035 145.67018,478.05564 C 145.67014,483.93968 147.62002,488.86573 151.51985,492.83376 C 155.48799,496.73369 160.37982,498.68359 166.19536,498.68344 C 172.07916,498.68359 176.97098,496.73369 180.87085,492.83376 C 184.77056,488.86573 186.72044,483.93968 186.72052,478.05564 M 192.26233,593.50973 L 165.78485,520.13223 L 139.20476,593.50973 L 192.26233,593.50973"
       id="text1330" />
  </g>
</svg>
