<?xml version="1.0" encoding="UTF-8" standalone="no"?>
<!-- Created with Sodipodi ("http://www.sodipodi.com/") -->
<svg
   xmlns:dc="http://purl.org/dc/elements/1.1/"
   xmlns:cc="http://web.resource.org/cc/"
   xmlns:rdf="http://www.w3.org/1999/02/22-rdf-syntax-ns#"
   xmlns:svg="http://www.w3.org/2000/svg"
   xmlns="http://www.w3.org/2000/svg"
   xmlns:xlink="http://www.w3.org/1999/xlink"
   xmlns:sodipodi="http://inkscape.sourceforge.net/DTD/sodipodi-0.dtd"
   xmlns:inkscape="http://www.inkscape.org/namespaces/inkscape"
   id="svg1"
   sodipodi:version="0.32"
   inkscape:version="0.43"
   width="170.00000pt"
   height="226.00000pt"
   sodipodi:docname="splash-opie-portrait.svg"
   sodipodi:docbase="/home/mhentges/projects/Zaurus/Dev/oe-akita-head/OpenEmbedded">
  <metadata
     id="metadata1148">
    <rdf:RDF>
      <cc:Work
         rdf:about="">
        <dc:format>image/svg+xml</dc:format>
        <dc:type
           rdf:resource="http://purl.org/dc/dcmitype/StillImage" />
        <cc:license
           rdf:resource="http://creativecommons.org/licenses/GPL/2.0/" />
      </cc:Work>
      <cc:License
         rdf:about="http://creativecommons.org/licenses/GPL/2.0/">
        <cc:permits
           rdf:resource="http://web.resource.org/cc/Reproduction" />
        <cc:permits
           rdf:resource="http://web.resource.org/cc/Distribution" />
        <cc:requires
           rdf:resource="http://web.resource.org/cc/Notice" />
        <cc:permits
           rdf:resource="http://web.resource.org/cc/DerivativeWorks" />
        <cc:requires
           rdf:resource="http://web.resource.org/cc/ShareAlike" />
        <cc:requires
           rdf:resource="http://web.resource.org/cc/SourceCode" />
      </cc:License>
    </rdf:RDF>
  </metadata>
  <defs
     id="defs3">
    <radialGradient
       inkscape:collect="always"
       xlink:href="#linearGradient4514"
       id="radialGradient5650"
       gradientUnits="userSpaceOnUse"
       gradientTransform="matrix(0.26031,-9.320602e-18,9.620143e-18,0.536134,750.9936,1.457323)"
       cx="-598.74634"
       cy="30.362427"
       fx="-598.74634"
       fy="30.362427"
       r="522.35461" />
    <radialGradient
       inkscape:collect="always"
       xlink:href="#linearGradient4514"
       id="radialGradient5653"
       gradientUnits="userSpaceOnUse"
       gradientTransform="matrix(0.401671,-6.7632e-17,1.422346e-17,9.309084e-2,475.981,238.2603)"
       cx="-598.74634"
       cy="30.362427"
       fx="-598.74634"
       fy="30.362427"
       r="522.35461" />
    <radialGradient
       inkscape:collect="always"
       xlink:href="#linearGradient4558"
       id="radialGradient5656"
       gradientUnits="userSpaceOnUse"
       gradientTransform="matrix(1.107027,0,0,0.304618,1208.682,-103.117)"
       cx="-798.99255"
       cy="798.64606"
       fx="-798.99255"
       fy="798.64606"
       r="242.40273" />
    <radialGradient
       inkscape:collect="always"
       xlink:href="#linearGradient4558"
       id="radialGradient5659"
       gradientUnits="userSpaceOnUse"
       gradientTransform="matrix(0.297188,-2.993348e-17,-1.377547e-17,0.902709,827.2997,-720.2978)"
       cx="-798.99255"
       cy="798.64606"
       fx="-798.99255"
       fy="798.64606"
       r="242.40273" />
    <radialGradient
       inkscape:collect="always"
       xlink:href="#linearGradient4558"
       id="radialGradient5662"
       gradientUnits="userSpaceOnUse"
       gradientTransform="matrix(0.159739,6.408007e-19,-3.283664e-17,0.958432,198.8149,-459.9196)"
       cx="-798.99255"
       cy="798.64606"
       fx="-798.99255"
       fy="798.64606"
       r="242.40273" />
    <radialGradient
       inkscape:collect="always"
       xlink:href="#linearGradient4558"
       id="radialGradient5665"
       gradientUnits="userSpaceOnUse"
       gradientTransform="matrix(0.282329,0,0,0.196887,562.3623,230.5567)"
       cx="-798.99255"
       cy="798.64606"
       fx="-798.99255"
       fy="798.64606"
       r="242.40273" />
    <linearGradient
       id="linearGradient4558">
      <stop
         style="stop-color:#ffffff;stop-opacity:1.0000000;"
         offset="0.0000000"
         id="stop4560" />
      <stop
         style="stop-color:#ffffff;stop-opacity:1.0000000;"
         offset="0.50000000"
         id="stop4562" />
      <stop
         style="stop-color:#ffffff;stop-opacity:0.0000000;"
         offset="1.0000000"
         id="stop4564" />
    </linearGradient>
    <radialGradient
       inkscape:collect="always"
       xlink:href="#linearGradient4558"
       id="radialGradient5668"
       gradientUnits="userSpaceOnUse"
       gradientTransform="matrix(0.921284,0,0,0.902709,1061.176,-165.6541)"
       cx="-798.99255"
       cy="798.64606"
       fx="-798.99255"
       fy="798.64606"
       r="242.40273" />
    <radialGradient
       inkscape:collect="always"
       xlink:href="#linearGradient4514"
       id="radialGradient5671"
       gradientUnits="userSpaceOnUse"
       gradientTransform="matrix(0.433185,-4.970046e-17,3.818488e-18,5.503769e-2,533.6158,732.5024)"
       cx="-598.74634"
       cy="30.362427"
       fx="-598.74634"
       fy="30.362427"
       r="522.35461" />
    <radialGradient
       inkscape:collect="always"
       xlink:href="#linearGradient4514"
       id="radialGradient5674"
       gradientUnits="userSpaceOnUse"
       gradientTransform="matrix(0.196526,0,0,0.198249,464.3579,379.9796)"
       cx="-598.74634"
       cy="30.362427"
       fx="-598.74634"
       fy="30.362427"
       r="522.35461" />
    <radialGradient
       inkscape:collect="always"
       xlink:href="#linearGradient4514"
       id="radialGradient5677"
       gradientUnits="userSpaceOnUse"
       gradientTransform="matrix(6.895639e-2,0,0,7.585212e-2,400.5833,256.7266)"
       cx="-598.74634"
       cy="30.362427"
       fx="-598.74634"
       fy="30.362427"
       r="522.35461" />
    <radialGradient
       inkscape:collect="always"
       xlink:href="#linearGradient4514"
       id="radialGradient5680"
       gradientUnits="userSpaceOnUse"
       gradientTransform="matrix(0.298236,0,-4.551299e-18,0.443043,231.3465,305.0295)"
       cx="-598.74634"
       cy="30.362427"
       fx="-598.74634"
       fy="30.362427"
       r="522.35461" />
    <radialGradient
       inkscape:collect="always"
       xlink:href="#linearGradient4514"
       id="radialGradient5683"
       gradientUnits="userSpaceOnUse"
       gradientTransform="matrix(0.653361,0,0,0.443043,392.9982,510.3221)"
       cx="-598.74634"
       cy="30.362427"
       fx="-598.74634"
       fy="30.362427"
       r="522.35461" />
    <linearGradient
       id="linearGradient4514">
      <stop
         style="stop-color:#fdfc8d;stop-opacity:1.0000000;"
         offset="0.0000000"
         id="stop4516" />
      <stop
         style="stop-color:#fdfc8d;stop-opacity:1.0000000;"
         offset="0.50000000"
         id="stop4518" />
      <stop
         style="stop-color:#fdfc8d;stop-opacity:0.0000000;"
         offset="1.0000000"
         id="stop4520" />
    </linearGradient>
    <radialGradient
       inkscape:collect="always"
       xlink:href="#linearGradient4514"
       id="radialGradient5686"
       gradientUnits="userSpaceOnUse"
       gradientTransform="matrix(0.725765,0,0,0.558545,751.5217,535.6309)"
       cx="-598.74634"
       cy="30.362427"
       fx="-598.74634"
       fy="30.362427"
       r="522.35461" />
    <radialGradient
       inkscape:collect="always"
       xlink:href="#linearGradient4494"
       id="radialGradient5689"
       gradientUnits="userSpaceOnUse"
       gradientTransform="matrix(0.653361,0,0,0.470626,1035.949,526.594)"
       cx="-598.74634"
       cy="30.362427"
       fx="-598.74634"
       fy="30.362427"
       r="522.35461" />
    <radialGradient
       inkscape:collect="always"
       xlink:href="#linearGradient4494"
       id="radialGradient5692"
       gradientUnits="userSpaceOnUse"
       gradientTransform="matrix(0.653361,0,0,0.470626,478.5449,630.1504)"
       cx="-598.74634"
       cy="30.362427"
       fx="-598.74634"
       fy="30.362427"
       r="522.35461" />
    <linearGradient
       id="linearGradient4494">
      <stop
         style="stop-color:#fdd565;stop-opacity:1.0000000;"
         offset="0.0000000"
         id="stop4496" />
      <stop
         style="stop-color:#fdd565;stop-opacity:1.0000000;"
         offset="0.50000000"
         id="stop4498" />
      <stop
         style="stop-color:#fdd565;stop-opacity:0.0000000;"
         offset="1.0000000"
         id="stop4500" />
    </linearGradient>
    <radialGradient
       inkscape:collect="always"
       xlink:href="#linearGradient4494"
       id="radialGradient5695"
       gradientUnits="userSpaceOnUse"
       gradientTransform="matrix(0.792997,0,0,0.682667,823.2942,517.4544)"
       cx="-598.74634"
       cy="30.362427"
       fx="-598.74634"
       fy="30.362427"
       r="522.35461" />
    <linearGradient
       id="linearGradient4468">
      <stop
         style="stop-color:#fdfc8d;stop-opacity:0.0000000;"
         offset="0.0000000"
         id="stop4470" />
      <stop
         style="stop-color:#fdfc8d;stop-opacity:0.0000000;"
         offset="0.50000000"
         id="stop4472" />
      <stop
         style="stop-color:#fdfc8d;stop-opacity:1.0000000;"
         offset="1.0000000"
         id="stop4474" />
    </linearGradient>
    <radialGradient
       inkscape:collect="always"
       xlink:href="#linearGradient4468"
       id="radialGradient5701"
       gradientUnits="userSpaceOnUse"
       gradientTransform="matrix(1.227421,0,0,1.354991,1074.4,673.5371)"
       cx="-598.74634"
       cy="30.362427"
       fx="-598.74634"
       fy="30.362427"
       r="522.35461" />
    <linearGradient
       id="linearGradient4349">
      <stop
         style="stop-color:#f0b34f;stop-opacity:1.0000000;"
         offset="0.0000000"
         id="stop4351" />
      <stop
         style="stop-color:#f0b34f;stop-opacity:1.0000000;"
         offset="0.50000000"
         id="stop4353" />
      <stop
         style="stop-color:#fdd565;stop-opacity:1.0000000;"
         offset="1.0000000"
         id="stop4355" />
    </linearGradient>
    <radialGradient
       inkscape:collect="always"
       xlink:href="#linearGradient4349"
       id="radialGradient5704"
       gradientUnits="userSpaceOnUse"
       gradientTransform="scale(0.872297,1.146399)"
       cx="344.64807"
       cy="664.23560"
       fx="344.64832"
       fy="678.54639"
       r="522.35461" />
    <linearGradient
       id="linearGradient4755">
      <stop
         style="stop-color:#b1874c;stop-opacity:1;"
         offset="0"
         id="stop4757" />
      <stop
         style="stop-color:#a67e47;stop-opacity:1.0000000;"
         offset="1.0000000"
         id="stop4759" />
    </linearGradient>
    <linearGradient
       inkscape:collect="always"
       xlink:href="#linearGradient4755"
       id="linearGradient5698"
       gradientUnits="userSpaceOnUse"
       gradientTransform="scale(0.896217,1.115801)"
       x1="365.02838"
       y1="690.92419"
       x2="365.02835"
       y2="170.67706" />
  </defs>
  <sodipodi:namedview
     id="base"
     pagecolor="#ffffff"
     bordercolor="#666666"
     borderopacity="1.0"
     inkscape:pageopacity="0.0"
     inkscape:pageshadow="2"
     inkscape:zoom="2"
     inkscape:cx="123.79126"
     inkscape:cy="136.7073"
     inkscape:window-width="880"
     inkscape:window-height="682"
     showguides="true"
     snaptoguides="true"
     inkscape:window-x="447"
     inkscape:window-y="192"
     inkscape:current-layer="svg1"
     showborder="true"
     inkscape:showpageshadow="false" />
  <path
     style="fill:#9ca3c2;fill-rule:evenodd;stroke:#000000;stroke-width:0.86250001;stroke-linecap:round;stroke-linejoin:round;"
     d="M 150.60592,91.743209 C 150.60592,126.90946 122.06521,155.45016 86.898980,155.45016 C 51.732741,155.45016 23.192037,126.90946 23.192037,91.743209 C 23.192037,56.576987 51.732741,28.036281 86.898980,28.036281 C 122.06521,28.036281 150.60592,56.576987 150.60592,91.743209 z M 125.59088,91.743225 C 125.59088,123.01260 108.25691,148.39065 86.898996,148.39065 C 65.541064,148.39065 48.207098,123.01260 48.207098,91.743225 C 48.207098,60.473843 65.541064,35.095803 86.898996,35.095803 C 108.25691,35.095803 125.59088,60.473843 125.59088,91.743225 z "
     id="path861"
     transform="matrix(0.500000,0.000000,0.000000,0.500000,36.42990,161.2702)" />
  <path
     style="fill:#9ca3c2;fill-rule:evenodd;stroke:#000000;stroke-width:0.86250001;stroke-linecap:round;stroke-linejoin:round;"
     d="M 132.75147,91.356420 C 132.87448,64.917742 151.72789,27.858725 196.63972,27.835097 C 207.45455,27.890687 223.63895,35.346804 225.55952,41.517017 C 183.84040,25.116588 151.35632,59.619550 151.26456,91.865400 C 151.42728,124.36573 184.86806,158.68422 225.66493,141.78379 C 222.82764,147.71089 208.80153,155.59326 196.50275,155.65048 C 151.84536,155.85942 132.62846,118.04958 132.75147,91.356420 z "
     id="path869"
     sodipodi:nodetypes="csczcsz"
     transform="matrix(0.500000,0.000000,0.000000,0.500000,36.42990,161.2702)" />
  <path
     style="fill:#9ca3c2;fill-rule:evenodd;stroke:#000000;stroke-width:0.86250001;stroke-linecap:round;stroke-linejoin:round;"
     d="M 173.2093 62.12526 C 187.1012 61.82853 198.1696 76.01726 198.3348 91.56551 C 198.4135 107.2003 187.9133 121.6873 173.1847 121.1256 C 187.7964 112.1516 188.1917 94.48494 188.1594 91.61621 C 188.1270 88.66092 187.4490 70.73875 173.2093 62.12526 z "
     id="path877"
     sodipodi:nodetypes="czczc"
     transform="matrix(0.500000,0.000000,0.000000,0.500000,36.42990,161.2702)" />
  <path
     transform="matrix(0.214671,0.000000,0.000000,0.214671,-58.23349,25.56978)"
     style="font-size:56.000000;stroke-width:3.0000000pt;font-family:Verdana;"
     d="M 688.45886,1061.9202 L 683.31824,1061.9202 L 683.31824,1044.5295 C 683.31824,1043.1259 683.23621,1041.8134 683.07214,1040.5920 C 682.90808,1039.3525 682.60730,1038.3863 682.16980,1037.6936 C 681.71407,1036.9280 681.05782,1036.3629 680.20105,1035.9983 C 679.34428,1035.6155 678.23230,1035.4241 676.86511,1035.4241 C 675.46147,1035.4241 673.99402,1035.7704 672.46277,1036.4631 C 670.93152,1037.1558 669.46407,1038.0400 668.06042,1039.1155 L 668.06042,1061.9202 L 662.91980,1061.9202 L 662.91980,1031.3772 L 668.06042,1031.3772 L 668.06042,1034.7678 C 669.66459,1033.4371 671.32345,1032.3980 673.03699,1031.6506 C 674.75053,1030.9032 676.50964,1030.5295 678.31433,1030.5295 C 681.61381,1030.5295 684.12944,1031.5230 685.86121,1033.5100 C 687.59298,1035.4970 688.45886,1038.3590 688.45886,1042.0959 L 688.45886,1061.9202 z M 655.12683,1047.1819 L 632.62292,1047.1819 C 632.62292,1049.0595 632.90548,1050.7001 633.47058,1052.1038 C 634.03569,1053.4892 634.81042,1054.6285 635.79480,1055.5217 C 636.74272,1056.3967 637.86381,1057.0530 639.15808,1057.4905 C 640.47058,1057.9280 641.91069,1058.1467 643.47839,1058.1467 C 645.55652,1058.1467 647.64376,1057.7366 649.74011,1056.9163 C 651.85470,1056.0777 653.35860,1055.2574 654.25183,1054.4553 L 654.52527,1054.4553 L 654.52527,1060.0608 C 652.79350,1060.7900 651.02527,1061.4006 649.22058,1061.8928 C 647.41589,1062.3850 645.52006,1062.6311 643.53308,1062.6311 C 638.46537,1062.6311 634.50964,1061.2639 631.66589,1058.5295 C 628.82214,1055.7769 627.40027,1051.8759 627.40027,1046.8264 C 627.40027,1041.8316 628.75834,1037.8668 631.47449,1034.9319 C 634.20886,1031.9970 637.80001,1030.5295 642.24792,1030.5295 C 646.36772,1030.5295 649.53959,1031.7327 651.76355,1034.1389 C 654.00574,1036.5452 655.12683,1039.9631 655.12683,1044.3928 L 655.12683,1047.1819 z M 650.12292,1043.2444 C 650.10470,1040.5465 649.42110,1038.4592 648.07214,1036.9827 C 646.74141,1035.5061 644.70886,1034.7678 641.97449,1034.7678 C 639.22188,1034.7678 637.02527,1035.5790 635.38464,1037.2014 C 633.76225,1038.8238 632.84167,1040.8381 632.62292,1043.2444 L 650.12292,1043.2444 z M 621.54871,1046.2795 C 621.54871,1048.7587 621.19324,1051.0282 620.48230,1053.0881 C 619.77136,1055.1298 618.76876,1056.8616 617.47449,1058.2834 C 616.27136,1059.6324 614.84949,1060.6806 613.20886,1061.4280 C 611.58647,1062.1571 609.86381,1062.5217 608.04089,1062.5217 C 606.45496,1062.5217 605.01485,1062.3486 603.72058,1062.0022 C 602.44454,1061.6558 601.14115,1061.1181 599.81042,1060.3889 L 599.81042,1073.1858 L 594.66980,1073.1858 L 594.66980,1031.3772 L 599.81042,1031.3772 L 599.81042,1034.5764 C 601.17761,1033.4280 602.70886,1032.4709 604.40417,1031.7053 C 606.11772,1030.9215 607.94063,1030.5295 609.87292,1030.5295 C 613.55522,1030.5295 616.41720,1031.9241 618.45886,1034.7131 C 620.51876,1037.4840 621.54871,1041.3394 621.54871,1046.2795 z M 616.24402,1046.4163 C 616.24402,1042.7340 615.61511,1039.9814 614.35730,1038.1584 C 613.09949,1036.3355 611.16720,1035.4241 608.56042,1035.4241 C 607.08386,1035.4241 605.59819,1035.7431 604.10339,1036.3811 C 602.60860,1037.0191 601.17761,1037.8577 599.81042,1038.8967 L 599.81042,1056.2053 C 601.26876,1056.8616 602.51746,1057.3082 603.55652,1057.5452 C 604.61381,1057.7821 605.80782,1057.9006 607.13855,1057.9006 C 610.00053,1057.9006 612.23360,1056.9345 613.83777,1055.0022 C 615.44194,1053.0699 616.24402,1050.2079 616.24402,1046.4163 z M 586.71277,1046.6624 C 586.71277,1051.6389 585.43673,1055.5673 582.88464,1058.4475 C 580.33256,1061.3277 576.91459,1062.7678 572.63074,1062.7678 C 568.31042,1062.7678 564.87423,1061.3277 562.32214,1058.4475 C 559.78829,1055.5673 558.52136,1051.6389 558.52136,1046.6624 C 558.52136,1041.6858 559.78829,1037.7574 562.32214,1034.8772 C 564.87423,1031.9788 568.31042,1030.5295 572.63074,1030.5295 C 576.91459,1030.5295 580.33256,1031.9788 582.88464,1034.8772 C 585.43673,1037.7574 586.71277,1041.6858 586.71277,1046.6624 z M 581.40808,1046.6624 C 581.40808,1042.7066 580.63334,1039.7717 579.08386,1037.8577 C 577.53438,1035.9254 575.38334,1034.9592 572.63074,1034.9592 C 569.84167,1034.9592 567.67240,1035.9254 566.12292,1037.8577 C 564.59167,1039.7717 563.82605,1042.7066 563.82605,1046.6624 C 563.82605,1050.4905 564.60079,1053.3980 566.15027,1055.3850 C 567.69975,1057.3538 569.85990,1058.3381 572.63074,1058.3381 C 575.36511,1058.3381 577.50704,1057.3629 579.05652,1055.4124 C 580.62423,1053.4436 581.40808,1050.5269 581.40808,1046.6624 z "
     id="path1883" />
  <path
     transform="matrix(0.214671,0.000000,0.000000,0.214671,-59.40027,25.56978)"
     style="font-size:56.000000;fill:#929292;stroke-width:3.0000000pt;font-family:Verdana;"
     d="M 994.68658,1061.9202 L 989.54596,1061.9202 L 989.54596,1058.7209 C 988.06940,1059.9970 986.52903,1060.9905 984.92487,1061.7014 C 983.32070,1062.4124 981.57981,1062.7678 979.70221,1062.7678 C 976.05638,1062.7678 973.15794,1061.3642 971.00690,1058.5569 C 968.87408,1055.7496 967.80768,1051.8577 967.80768,1046.8811 C 967.80768,1044.2926 968.17226,1041.9866 968.90143,1039.9631 C 969.64882,1037.9397 970.65143,1036.2170 971.90924,1034.7952 C 973.14882,1033.4097 974.58893,1032.3525 976.22955,1031.6233 C 977.88841,1030.8941 979.60195,1030.5295 981.37018,1030.5295 C 982.97434,1030.5295 984.39622,1030.7027 985.63580,1031.0491 C 986.87539,1031.3772 988.17877,1031.8967 989.54596,1032.6077 L 989.54596,1019.3733 L 994.68658,1019.3733 L 994.68658,1061.9202 z M 989.54596,1054.4006 L 989.54596,1036.8733 C 988.16054,1036.2535 986.92096,1035.8251 985.82721,1035.5881 C 984.73346,1035.3512 983.53945,1035.2327 982.24518,1035.2327 C 979.36497,1035.2327 977.12278,1036.2353 975.51862,1038.2405 C 973.91445,1040.2457 973.11237,1043.0894 973.11237,1046.7717 C 973.11237,1050.3993 973.73216,1053.1611 974.97174,1055.0569 C 976.21132,1056.9345 978.19830,1057.8733 980.93268,1057.8733 C 982.39101,1057.8733 983.86757,1057.5543 985.36237,1056.9163 C 986.85716,1056.2600 988.25169,1055.4215 989.54596,1054.4006 z M 962.12018,1047.1819 L 939.61627,1047.1819 C 939.61627,1049.0595 939.89882,1050.7001 940.46393,1052.1038 C 941.02903,1053.4892 941.80377,1054.6285 942.78815,1055.5217 C 943.73606,1056.3967 944.85716,1057.0530 946.15143,1057.4905 C 947.46393,1057.9280 948.90403,1058.1467 950.47174,1058.1467 C 952.54987,1058.1467 954.63711,1057.7366 956.73346,1056.9163 C 958.84804,1056.0777 960.35195,1055.2574 961.24518,1054.4553 L 961.51862,1054.4553 L 961.51862,1060.0608 C 959.78684,1060.7900 958.01862,1061.4006 956.21393,1061.8928 C 954.40924,1062.3850 952.51341,1062.6311 950.52643,1062.6311 C 945.45872,1062.6311 941.50299,1061.2639 938.65924,1058.5295 C 935.81549,1055.7769 934.39362,1051.8759 934.39362,1046.8264 C 934.39362,1041.8316 935.75169,1037.8668 938.46783,1034.9319 C 941.20221,1031.9970 944.79336,1030.5295 949.24127,1030.5295 C 953.36106,1030.5295 956.53294,1031.7327 958.75690,1034.1389 C 960.99908,1036.5452 962.12018,1039.9631 962.12018,1044.3928 L 962.12018,1047.1819 z M 957.11627,1043.2444 C 957.09804,1040.5465 956.41445,1038.4592 955.06549,1036.9827 C 953.73476,1035.5061 951.70221,1034.7678 948.96783,1034.7678 C 946.21523,1034.7678 944.01862,1035.5790 942.37799,1037.2014 C 940.75559,1038.8238 939.83502,1040.8381 939.61627,1043.2444 L 957.11627,1043.2444 z M 926.43658,1061.9202 L 921.29596,1061.9202 L 921.29596,1058.7209 C 919.81940,1059.9970 918.27903,1060.9905 916.67487,1061.7014 C 915.07070,1062.4124 913.32981,1062.7678 911.45221,1062.7678 C 907.80638,1062.7678 904.90794,1061.3642 902.75690,1058.5569 C 900.62408,1055.7496 899.55768,1051.8577 899.55768,1046.8811 C 899.55768,1044.2926 899.92226,1041.9866 900.65143,1039.9631 C 901.39882,1037.9397 902.40143,1036.2170 903.65924,1034.7952 C 904.89882,1033.4097 906.33893,1032.3525 907.97955,1031.6233 C 909.63841,1030.8941 911.35195,1030.5295 913.12018,1030.5295 C 914.72434,1030.5295 916.14622,1030.7027 917.38580,1031.0491 C 918.62539,1031.3772 919.92877,1031.8967 921.29596,1032.6077 L 921.29596,1019.3733 L 926.43658,1019.3733 L 926.43658,1061.9202 z M 921.29596,1054.4006 L 921.29596,1036.8733 C 919.91054,1036.2535 918.67096,1035.8251 917.57721,1035.5881 C 916.48346,1035.3512 915.28945,1035.2327 913.99518,1035.2327 C 911.11497,1035.2327 908.87278,1036.2353 907.26862,1038.2405 C 905.66445,1040.2457 904.86237,1043.0894 904.86237,1046.7717 C 904.86237,1050.3993 905.48216,1053.1611 906.72174,1055.0569 C 907.96132,1056.9345 909.94830,1057.8733 912.68268,1057.8733 C 914.14101,1057.8733 915.61757,1057.5543 917.11237,1056.9163 C 918.60716,1056.2600 920.00169,1055.4215 921.29596,1054.4006 z M 891.54596,1061.9202 L 886.40533,1061.9202 L 886.40533,1058.7209 C 884.92877,1059.9970 883.38841,1060.9905 881.78424,1061.7014 C 880.18007,1062.4124 878.43919,1062.7678 876.56158,1062.7678 C 872.91575,1062.7678 870.01731,1061.3642 867.86627,1058.5569 C 865.73346,1055.7496 864.66705,1051.8577 864.66705,1046.8811 C 864.66705,1044.2926 865.03164,1041.9866 865.76080,1039.9631 C 866.50820,1037.9397 867.51080,1036.2170 868.76862,1034.7952 C 870.00820,1033.4097 871.44830,1032.3525 873.08893,1031.6233 C 874.74778,1030.8941 876.46132,1030.5295 878.22955,1030.5295 C 879.83372,1030.5295 881.25559,1030.7027 882.49518,1031.0491 C 883.73476,1031.3772 885.03815,1031.8967 886.40533,1032.6077 L 886.40533,1019.3733 L 891.54596,1019.3733 L 891.54596,1061.9202 z M 886.40533,1054.4006 L 886.40533,1036.8733 C 885.01992,1036.2535 883.78033,1035.8251 882.68658,1035.5881 C 881.59283,1035.3512 880.39882,1035.2327 879.10455,1035.2327 C 876.22434,1035.2327 873.98216,1036.2353 872.37799,1038.2405 C 870.77382,1040.2457 869.97174,1043.0894 869.97174,1046.7717 C 869.97174,1050.3993 870.59153,1053.1611 871.83112,1055.0569 C 873.07070,1056.9345 875.05768,1057.8733 877.79205,1057.8733 C 879.25039,1057.8733 880.72695,1057.5543 882.22174,1056.9163 C 883.71653,1056.2600 885.11106,1055.4215 886.40533,1054.4006 z M 858.97955,1047.1819 L 836.47565,1047.1819 C 836.47565,1049.0595 836.75820,1050.7001 837.32330,1052.1038 C 837.88841,1053.4892 838.66315,1054.6285 839.64752,1055.5217 C 840.59544,1056.3967 841.71653,1057.0530 843.01080,1057.4905 C 844.32330,1057.9280 845.76341,1058.1467 847.33112,1058.1467 C 849.40924,1058.1467 851.49648,1057.7366 853.59283,1056.9163 C 855.70742,1056.0777 857.21132,1055.2574 858.10455,1054.4553 L 858.37799,1054.4553 L 858.37799,1060.0608 C 856.64622,1060.7900 854.87799,1061.4006 853.07330,1061.8928 C 851.26862,1062.3850 849.37278,1062.6311 847.38580,1062.6311 C 842.31809,1062.6311 838.36237,1061.2639 835.51862,1058.5295 C 832.67487,1055.7769 831.25299,1051.8759 831.25299,1046.8264 C 831.25299,1041.8316 832.61106,1037.8668 835.32721,1034.9319 C 838.06158,1031.9970 841.65273,1030.5295 846.10065,1030.5295 C 850.22044,1030.5295 853.39231,1031.7327 855.61627,1034.1389 C 857.85846,1036.5452 858.97955,1039.9631 858.97955,1044.3928 L 858.97955,1047.1819 z M 853.97565,1043.2444 C 853.95742,1040.5465 853.27382,1038.4592 851.92487,1036.9827 C 850.59414,1035.5061 848.56158,1034.7678 845.82721,1034.7678 C 843.07461,1034.7678 840.87799,1035.5790 839.23737,1037.2014 C 837.61497,1038.8238 836.69440,1040.8381 836.47565,1043.2444 L 853.97565,1043.2444 z M 825.40143,1046.4163 C 825.40143,1048.9683 825.03684,1051.2652 824.30768,1053.3069 C 823.59674,1055.3486 822.63059,1057.0621 821.40924,1058.4475 C 820.11497,1059.8876 818.69309,1060.9722 817.14362,1061.7014 C 815.59414,1062.4124 813.88971,1062.7678 812.03033,1062.7678 C 810.29856,1062.7678 808.78554,1062.5582 807.49127,1062.1389 C 806.19700,1061.7379 804.92096,1061.1910 803.66315,1060.4983 L 803.33502,1061.9202 L 798.52252,1061.9202 L 798.52252,1019.3733 L 803.66315,1019.3733 L 803.66315,1034.5764 C 805.10325,1033.3915 806.63450,1032.4254 808.25690,1031.6780 C 809.87929,1030.9124 811.70221,1030.5295 813.72565,1030.5295 C 817.33502,1030.5295 820.17877,1031.9150 822.25690,1034.6858 C 824.35325,1037.4566 825.40143,1041.3668 825.40143,1046.4163 z M 820.09674,1046.5530 C 820.09674,1042.9071 819.49518,1040.1454 818.29205,1038.2678 C 817.08893,1036.3720 815.14752,1035.4241 812.46783,1035.4241 C 810.97304,1035.4241 809.46002,1035.7522 807.92877,1036.4084 C 806.39752,1037.0465 804.97565,1037.8759 803.66315,1038.8967 L 803.66315,1056.3967 C 805.12148,1057.0530 806.37018,1057.5087 807.40924,1057.7639 C 808.46653,1058.0191 809.66054,1058.1467 810.99127,1058.1467 C 813.83502,1058.1467 816.05898,1057.2170 817.66315,1055.3577 C 819.28554,1053.4801 820.09674,1050.5452 820.09674,1046.5530 z M 788.62408,1061.9202 L 783.48346,1061.9202 L 783.48346,1044.5295 C 783.48346,1043.2170 783.41966,1041.9501 783.29205,1040.7288 C 783.18268,1039.5074 782.93658,1038.5321 782.55377,1037.8030 C 782.13450,1037.0191 781.53294,1036.4267 780.74908,1036.0256 C 779.96523,1035.6246 778.83502,1035.4241 777.35846,1035.4241 C 775.91836,1035.4241 774.47825,1035.7887 773.03815,1036.5178 C 771.59804,1037.2288 770.15794,1038.1402 768.71783,1039.2522 C 768.77252,1039.6715 768.81809,1040.1637 768.85455,1040.7288 C 768.89101,1041.2756 768.90924,1041.8225 768.90924,1042.3694 L 768.90924,1061.9202 L 763.76862,1061.9202 L 763.76862,1044.5295 C 763.76862,1043.1806 763.70481,1041.9045 763.57721,1040.7014 C 763.46783,1039.4801 763.22174,1038.5048 762.83893,1037.7756 C 762.41966,1036.9918 761.81809,1036.4084 761.03424,1036.0256 C 760.25039,1035.6246 759.12018,1035.4241 757.64362,1035.4241 C 756.23997,1035.4241 754.82721,1035.7704 753.40533,1036.4631 C 752.00169,1037.1558 750.59804,1038.0400 749.19440,1039.1155 L 749.19440,1061.9202 L 744.05377,1061.9202 L 744.05377,1031.3772 L 749.19440,1031.3772 L 749.19440,1034.7678 C 750.79856,1033.4371 752.39362,1032.3980 753.97955,1031.6506 C 755.58372,1030.9032 757.28815,1030.5295 759.09283,1030.5295 C 761.17096,1030.5295 762.93007,1030.9670 764.37018,1031.8420 C 765.82851,1032.7170 766.91315,1033.9293 767.62408,1035.4788 C 769.70221,1033.7288 771.59804,1032.4709 773.31158,1031.7053 C 775.02513,1030.9215 776.85716,1030.5295 778.80768,1030.5295 C 782.16184,1030.5295 784.63190,1031.5504 786.21783,1033.5920 C 787.82200,1035.6155 788.62408,1038.4501 788.62408,1042.0959 L 788.62408,1061.9202 z M 736.26080,1047.1819 L 713.75690,1047.1819 C 713.75690,1049.0595 714.03945,1050.7001 714.60455,1052.1038 C 715.16966,1053.4892 715.94440,1054.6285 716.92877,1055.5217 C 717.87669,1056.3967 718.99778,1057.0530 720.29205,1057.4905 C 721.60455,1057.9280 723.04466,1058.1467 724.61237,1058.1467 C 726.69049,1058.1467 728.77773,1057.7366 730.87408,1056.9163 C 732.98867,1056.0777 734.49257,1055.2574 735.38580,1054.4553 L 735.65924,1054.4553 L 735.65924,1060.0608 C 733.92747,1060.7900 732.15924,1061.4006 730.35455,1061.8928 C 728.54987,1062.3850 726.65403,1062.6311 724.66705,1062.6311 C 719.59934,1062.6311 715.64362,1061.2639 712.79987,1058.5295 C 709.95612,1055.7769 708.53424,1051.8759 708.53424,1046.8264 C 708.53424,1041.8316 709.89231,1037.8668 712.60846,1034.9319 C 715.34283,1031.9970 718.93398,1030.5295 723.38190,1030.5295 C 727.50169,1030.5295 730.67356,1031.7327 732.89752,1034.1389 C 735.13971,1036.5452 736.26080,1039.9631 736.26080,1044.3928 L 736.26080,1047.1819 z M 731.25690,1043.2444 C 731.23867,1040.5465 730.55507,1038.4592 729.20612,1036.9827 C 727.87539,1035.5061 725.84283,1034.7678 723.10846,1034.7678 C 720.35586,1034.7678 718.15924,1035.5790 716.51862,1037.2014 C 714.89622,1038.8238 713.97565,1040.8381 713.75690,1043.2444 L 731.25690,1043.2444 z "
     id="path1884" />
  <g
     id="g945"
     style="stroke:#000000;stroke-opacity:0.11999995;"
     transform="matrix(0.500000,0.000000,0.000000,0.500000,36.42990,161.2702)">
    <path
       style="fill:none;fill-opacity:0.75000000;fill-rule:evenodd;stroke:#000000;stroke-width:1.2500000;stroke-opacity:0.1200;"
       d="M 210.10063,527.64010 L 600.37556,527.64010"
       id="path840"
       sodipodi:nodetypes="cc"
       transform="matrix(0.680271,0.000000,0.000000,0.680271,-132.4632,-267.1952)" />
    <path
       style="fill:none;fill-rule:evenodd;stroke:#000000;stroke-width:1.2500000;stroke-linejoin:round;stroke-opacity:0.1200;"
       d="M 577.34380,527.64009 C 577.34380,579.33452 535.38890,621.28942 483.69447,621.28942 C 432.00004,621.28942 390.04514,579.33452 390.04514,527.64009 C 390.04514,475.94566 432.00004,433.99076 483.69447,433.99076 C 535.38890,433.99076 577.34380,475.94566 577.34380,527.64009 z "
       id="path849"
       transform="matrix(0.680271,0.000000,0.000000,0.680271,-132.4632,-267.1952)" />
    <path
       style="fill:none;fill-rule:evenodd;stroke:#000000;stroke-width:1.2500000;stroke-linejoin:round;stroke-opacity:0.1200;"
       d="M 378.24332,527.64008 C 378.24332,558.43082 353.25373,583.42040 322.46301,583.42040 C 291.67226,583.42040 266.68267,558.43082 266.68267,527.64008 C 266.68267,496.84933 291.67226,471.85976 322.46301,471.85976 C 353.25373,471.85976 378.24332,496.84933 378.24332,527.64008 z "
       id="path839"
       transform="matrix(0.680271,0.000000,0.000000,0.680271,-132.4632,-267.1952)" />
    <path
       style="fill:none;fill-opacity:0.75000000;fill-rule:evenodd;stroke:#000000;stroke-width:1.2500000;stroke-linejoin:round;stroke-opacity:0.1200;"
       d="M 322.46300,422.21153 L 322.46300,633.06864"
       id="path841"
       sodipodi:nodetypes="cc"
       transform="matrix(0.680271,0.000000,0.000000,0.680271,-132.4632,-267.1952)" />
    <path
       style="fill:none;fill-rule:evenodd;stroke:#000000;stroke-width:1.2500000;stroke-linejoin:round;stroke-opacity:0.1200;"
       d="M 539.47480,527.64009 C 539.47480,558.43083 514.48521,583.42041 483.69449,583.42041 C 452.90374,583.42041 427.91415,558.43083 427.91415,527.64009 C 427.91415,496.84934 452.90374,471.85977 483.69449,471.85977 C 514.48521,471.85977 539.47480,496.84934 539.47480,527.64009 z "
       id="path850"
       transform="matrix(0.680271,0.000000,0.000000,0.680271,-132.4632,-267.1952)" />
    <path
       style="fill:none;fill-opacity:0.75000000;fill-rule:evenodd;stroke:#000000;stroke-width:1.2500000;stroke-linejoin:round;stroke-opacity:0.1200;"
       d="M 483.69448,422.21153 L 483.69448,633.06864"
       id="path851"
       sodipodi:nodetypes="cc"
       transform="matrix(0.680271,0.000000,0.000000,0.680271,-132.4632,-267.1952)" />
    <path
       style="fill:none;fill-rule:evenodd;stroke:#000000;stroke-width:0.76683110;stroke-linejoin:round;stroke-opacity:0.1200;"
       d="M 144.34955,91.743214 C 144.34955,123.45594 118.61168,149.19380 86.898970,149.19380 C 55.186251,149.19380 29.448400,123.45594 29.448400,91.743214 C 29.448400,60.030495 55.186251,34.292644 86.898970,34.292644 C 118.61168,34.292644 144.34955,60.030495 144.34955,91.743214 z "
       id="path943" />
    <path
       style="fill:none;fill-rule:evenodd;stroke:#000000;stroke-width:0.76683110;stroke-linejoin:round;stroke-opacity:0.1200;"
       d="M 254.03070,91.743050 C 254.03070,123.45578 228.29283,149.19364 196.58012,149.19364 C 164.86740,149.19364 139.12954,123.45578 139.12954,91.743050 C 139.12954,60.030332 164.86740,34.292480 196.58012,34.292480 C 228.29283,34.292480 254.03070,60.030332 254.03070,91.743050 z "
       id="path944" />
  </g>
  <path
     transform="translate(-96.25000,95.00000)"
     style="font-size:12.000000;stroke-width:1.0000000pt;font-family:Bitstream Vera Sans;"
     d="M 235.76262,72.007408 C 235.45793,72.788658 235.16106,73.298424 234.87199,73.536705 C 234.58293,73.774986 234.19621,73.894127 233.71184,73.894127 L 232.85051,73.894127 L 232.85051,72.991783 L 233.48332,72.991783 C 233.78020,72.991783 234.01067,72.921471 234.17473,72.780846 C 234.33879,72.640221 234.52043,72.308189 234.71965,71.784752 L 234.91301,71.292564 L 232.25871,64.835533 L 233.40129,64.835533 L 235.45207,69.968346 L 237.50285,64.835533 L 238.64543,64.835533 L 235.76262,72.007408 z M 230.12590,68.122643 C 230.12590,67.329674 229.96184,66.708580 229.63371,66.259361 C 229.30949,65.806236 228.86223,65.579674 228.29192,65.579674 C 227.72160,65.579674 227.27238,65.806236 226.94426,66.259361 C 226.62004,66.708580 226.45793,67.329674 226.45793,68.122643 C 226.45793,68.915611 226.62004,69.538658 226.94426,69.991783 C 227.27238,70.441002 227.72160,70.665611 228.29192,70.665611 C 228.86223,70.665611 229.30949,70.441002 229.63371,69.991783 C 229.96184,69.538658 230.12590,68.915611 230.12590,68.122643 z M 226.45793,65.831627 C 226.68449,65.441002 226.96965,65.151939 227.31340,64.964439 C 227.66106,64.773033 228.07512,64.677330 228.55559,64.677330 C 229.35246,64.677330 229.99895,64.993736 230.49504,65.626549 C 230.99504,66.259361 231.24504,67.091393 231.24504,68.122643 C 231.24504,69.153893 230.99504,69.985924 230.49504,70.618736 C 229.99895,71.251549 229.35246,71.567955 228.55559,71.567955 C 228.07512,71.567955 227.66106,71.474205 227.31340,71.286705 C 226.96965,71.095299 226.68449,70.804283 226.45793,70.413658 L 226.45793,71.398033 L 225.37395,71.398033 L 225.37395,62.280846 L 226.45793,62.280846 L 226.45793,65.831627 z M 218.30168,65.831627 L 218.30168,62.280846 L 219.37981,62.280846 L 219.37981,71.398033 L 218.30168,71.398033 L 218.30168,70.413658 C 218.07512,70.804283 217.78801,71.095299 217.44035,71.286705 C 217.09660,71.474205 216.68254,71.567955 216.19817,71.567955 C 215.40520,71.567955 214.75871,71.251549 214.25871,70.618736 C 213.76262,69.985924 213.51457,69.153893 213.51457,68.122643 C 213.51457,67.091393 213.76262,66.259361 214.25871,65.626549 C 214.75871,64.993736 215.40520,64.677330 216.19817,64.677330 C 216.68254,64.677330 217.09660,64.773033 217.44035,64.964439 C 217.78801,65.151939 218.07512,65.441002 218.30168,65.831627 z M 214.62785,68.122643 C 214.62785,68.915611 214.78996,69.538658 215.11418,69.991783 C 215.44231,70.441002 215.89153,70.665611 216.46184,70.665611 C 217.03215,70.665611 217.48137,70.441002 217.80949,69.991783 C 218.13762,69.538658 218.30168,68.915611 218.30168,68.122643 C 218.30168,67.329674 218.13762,66.708580 217.80949,66.259361 C 217.48137,65.806236 217.03215,65.579674 216.46184,65.579674 C 215.89153,65.579674 215.44231,65.806236 215.11418,66.259361 C 214.78996,66.708580 214.62785,67.329674 214.62785,68.122643 z M 212.21379,67.847252 L 212.21379,68.374596 L 207.25676,68.374596 C 207.30363,69.116783 207.52629,69.683189 207.92473,70.073814 C 208.32707,70.460533 208.88567,70.653893 209.60051,70.653893 C 210.01457,70.653893 210.41496,70.603111 210.80168,70.501549 C 211.19231,70.399986 211.57903,70.247643 211.96184,70.044518 L 211.96184,71.064049 C 211.57512,71.228111 211.17863,71.353111 210.77238,71.439049 C 210.36613,71.524986 209.95403,71.567955 209.53606,71.567955 C 208.48918,71.567955 207.65910,71.263268 207.04582,70.653893 C 206.43645,70.044518 206.13176,69.220299 206.13176,68.181236 C 206.13176,67.107018 206.42082,66.255455 206.99895,65.626549 C 207.58098,64.993736 208.36418,64.677330 209.34856,64.677330 C 210.23137,64.677330 210.92863,64.962486 211.44035,65.532799 C 211.95598,66.099205 212.21379,66.870689 212.21379,67.847252 z M 211.13567,67.530846 C 211.12785,66.941002 210.96184,66.470299 210.63762,66.118736 C 210.31731,65.767174 209.89153,65.591393 209.36028,65.591393 C 208.75871,65.591393 208.27629,65.761314 207.91301,66.101158 C 207.55363,66.441002 207.34660,66.919518 207.29192,67.536705 L 211.13567,67.530846 z M 205.46965,65.843346 C 205.34856,65.773033 205.21574,65.722252 205.07121,65.691002 C 204.93059,65.655846 204.77434,65.638268 204.60246,65.638268 C 203.99309,65.638268 203.52434,65.837486 203.19621,66.235924 C 202.87199,66.630455 202.70988,67.198814 202.70988,67.941002 L 202.70988,71.398033 L 201.62590,71.398033 L 201.62590,64.835533 L 202.70988,64.835533 L 202.70988,65.855064 C 202.93645,65.456627 203.23137,65.161705 203.59465,64.970299 C 203.95793,64.774986 204.39934,64.677330 204.91887,64.677330 C 204.99309,64.677330 205.07512,64.683189 205.16496,64.694908 C 205.25481,64.702721 205.35442,64.716393 205.46379,64.735924 L 205.46965,65.843346 z M 199.89738,67.847252 L 199.89738,68.374596 L 194.94035,68.374596 C 194.98723,69.116783 195.20988,69.683189 195.60832,70.073814 C 196.01067,70.460533 196.56926,70.653893 197.28410,70.653893 C 197.69817,70.653893 198.09856,70.603111 198.48528,70.501549 C 198.87590,70.399986 199.26262,70.247643 199.64543,70.044518 L 199.64543,71.064049 C 199.25871,71.228111 198.86223,71.353111 198.45598,71.439049 C 198.04973,71.524986 197.63762,71.567955 197.21965,71.567955 C 196.17278,71.567955 195.34270,71.263268 194.72942,70.653893 C 194.12004,70.044518 193.81535,69.220299 193.81535,68.181236 C 193.81535,67.107018 194.10442,66.255455 194.68254,65.626549 C 195.26457,64.993736 196.04778,64.677330 197.03215,64.677330 C 197.91496,64.677330 198.61223,64.962486 199.12395,65.532799 C 199.63957,66.099205 199.89738,66.870689 199.89738,67.847252 z M 198.81926,67.530846 C 198.81145,66.941002 198.64543,66.470299 198.32121,66.118736 C 198.00090,65.767174 197.57512,65.591393 197.04387,65.591393 C 196.44231,65.591393 195.95988,65.761314 195.59660,66.101158 C 195.23723,66.441002 195.03020,66.919518 194.97551,67.536705 L 198.81926,67.530846 z M 183.84270,64.835533 L 184.92082,64.835533 L 186.26848,69.956627 L 187.61028,64.835533 L 188.88176,64.835533 L 190.22942,69.956627 L 191.57121,64.835533 L 192.64934,64.835533 L 190.93254,71.398033 L 189.66106,71.398033 L 188.24895,66.019127 L 186.83098,71.398033 L 185.55949,71.398033 L 183.84270,64.835533 z M 179.67082,65.591393 C 179.09270,65.591393 178.63567,65.817955 178.29973,66.271080 C 177.96379,66.720299 177.79582,67.337486 177.79582,68.122643 C 177.79582,68.907799 177.96184,69.526939 178.29387,69.980064 C 178.62981,70.429283 179.08879,70.653893 179.67082,70.653893 C 180.24504,70.653893 180.70012,70.427330 181.03606,69.974205 C 181.37199,69.521080 181.53996,68.903893 181.53996,68.122643 C 181.53996,67.345299 181.37199,66.730064 181.03606,66.276939 C 180.70012,65.819908 180.24504,65.591393 179.67082,65.591393 z M 179.67082,64.677330 C 180.60832,64.677330 181.34465,64.982018 181.87981,65.591393 C 182.41496,66.200768 182.68254,67.044518 182.68254,68.122643 C 182.68254,69.196861 182.41496,70.040611 181.87981,70.653893 C 181.34465,71.263268 180.60832,71.567955 179.67082,71.567955 C 178.72942,71.567955 177.99113,71.263268 177.45598,70.653893 C 176.92473,70.040611 176.65910,69.196861 176.65910,68.122643 C 176.65910,67.044518 176.92473,66.200768 177.45598,65.591393 C 177.99113,64.982018 178.72942,64.677330 179.67082,64.677330 z M 170.55363,70.413658 L 170.55363,73.894127 L 169.46965,73.894127 L 169.46965,64.835533 L 170.55363,64.835533 L 170.55363,65.831627 C 170.78020,65.441002 171.06535,65.151939 171.40910,64.964439 C 171.75676,64.773033 172.17082,64.677330 172.65129,64.677330 C 173.44817,64.677330 174.09465,64.993736 174.59074,65.626549 C 175.09074,66.259361 175.34074,67.091393 175.34074,68.122643 C 175.34074,69.153893 175.09074,69.985924 174.59074,70.618736 C 174.09465,71.251549 173.44817,71.567955 172.65129,71.567955 C 172.17082,71.567955 171.75676,71.474205 171.40910,71.286705 C 171.06535,71.095299 170.78020,70.804283 170.55363,70.413658 z M 174.22160,68.122643 C 174.22160,67.329674 174.05754,66.708580 173.72942,66.259361 C 173.40520,65.806236 172.95793,65.579674 172.38762,65.579674 C 171.81731,65.579674 171.36809,65.806236 171.03996,66.259361 C 170.71574,66.708580 170.55363,67.329674 170.55363,68.122643 C 170.55363,68.915611 170.71574,69.538658 171.03996,69.991783 C 171.36809,70.441002 171.81731,70.665611 172.38762,70.665611 C 172.95793,70.665611 173.40520,70.441002 173.72942,69.991783 C 174.05754,69.538658 174.22160,68.915611 174.22160,68.122643 z "
     id="path1872" />
  <g
     id="g8308">
    <image
       y="33"
       x="64.25"
       id="image8133"
       height="81"
       width="84"
       sodipodi:absref="/usr/share/gpe/opie-logo.png"
       xlink:href="/usr/share/gpe/opie-logo.png" />
    <path
       id="text8226"
       d="M 86.870117,119.16406 C 88.174798,119.16407 89.266594,119.59962 90.145508,120.4707 C 91.024405,121.3418 91.463857,122.41407 91.463867,123.6875 C 91.463857,124.94922 91.024405,126.01953 90.145508,126.89844 C 89.2705,127.77734 88.202142,128.2168 86.94043,128.2168 C 85.663082,128.2168 84.584958,127.7793 83.706055,126.9043 C 82.827147,126.0293 82.387695,124.97071 82.387695,123.72852 C 82.387695,122.9004 82.586913,122.13282 82.985352,121.42578 C 83.387694,120.71876 83.934568,120.16602 84.625977,119.76758 C 85.317379,119.36524 86.065425,119.16407 86.870117,119.16406 M 86.911133,120.00781 C 86.27441,120.00782 85.670894,120.17384 85.100586,120.50586 C 84.530271,120.8379 84.084959,121.28516 83.764648,121.84766 C 83.444334,122.41016 83.284178,123.03711 83.28418,123.72852 C 83.284178,124.75196 83.637693,125.61719 84.344727,126.32422 C 85.055661,127.02734 85.911129,127.37891 86.911133,127.37891 C 87.579096,127.37891 88.196283,127.2168 88.762695,126.89258 C 89.333,126.56836 89.776359,126.125 90.092773,125.5625 C 90.413077,125 90.573233,124.375 90.573242,123.6875 C 90.573233,123.00391 90.413077,122.38672 90.092773,121.83594 C 89.776359,121.28126 89.329094,120.8379 88.750977,120.50586 C 88.172845,120.17384 87.559564,120.00782 86.911133,120.00781 M 93.069336,121.625 L 93.883789,121.625 L 93.883789,122.79688 C 94.208006,122.35157 94.581052,122.01758 95.00293,121.79492 C 95.424801,121.57227 95.895504,121.46094 96.415039,121.46094 C 97.321284,121.46094 98.096674,121.78712 98.741211,122.43945 C 99.385735,123.0918 99.708,123.87696 99.708008,124.79492 C 99.708,125.73242 99.387688,126.5293 98.74707,127.18555 C 98.110346,127.83789 97.340815,128.16406 96.438477,128.16406 C 95.93066,128.16406 95.463864,128.05859 95.038086,127.84766 C 94.612302,127.63672 94.227537,127.32227 93.883789,126.9043 L 93.883789,130.33203 L 93.069336,130.33203 L 93.069336,121.625 M 96.350586,122.25195 C 95.639645,122.25196 95.040036,122.50001 94.551758,122.99609 C 94.067381,123.49219 93.825194,124.10938 93.825195,124.84766 C 93.825194,125.33203 93.932615,125.76758 94.147461,126.1543 C 94.366209,126.54102 94.676755,126.84766 95.079102,127.07422 C 95.485348,127.30078 95.913082,127.41406 96.362305,127.41406 C 96.803706,127.41406 97.217768,127.30078 97.604492,127.07422 C 97.995111,126.84375 98.305658,126.52344 98.536133,126.11328 C 98.766595,125.70313 98.881829,125.27344 98.881836,124.82422 C 98.881829,124.3711 98.766595,123.94141 98.536133,123.53516 C 98.309564,123.12891 98.002924,122.81446 97.616211,122.5918 C 97.229487,122.36524 96.807613,122.25196 96.350586,122.25195 M 101.52441,119 C 101.71191,119.00001 101.87207,119.06642 102.00488,119.19922 C 102.13769,119.33204 102.2041,119.4922 102.2041,119.67969 C 102.2041,119.86329 102.13769,120.02149 102.00488,120.1543 C 101.87207,120.28712 101.71191,120.35352 101.52441,120.35352 C 101.34082,120.35352 101.18262,120.28712 101.0498,120.1543 C 100.91699,120.02149 100.85059,119.86329 100.85059,119.67969 C 100.85059,119.4922 100.91699,119.33204 101.0498,119.19922 C 101.18262,119.06642 101.34082,119.00001 101.52441,119 M 101.11426,121.625 L 101.94043,121.625 L 101.94043,128 L 101.11426,128 L 101.11426,121.625 M 109.04199,125.88477 L 109.7334,126.24805 C 109.50683,126.69336 109.24511,127.05274 108.94824,127.32617 C 108.65136,127.59961 108.31738,127.80859 107.94629,127.95312 C 107.57519,128.09375 107.15527,128.16406 106.68652,128.16406 C 105.64746,128.16406 104.83496,127.82422 104.24902,127.14453 C 103.66309,126.46094 103.37012,125.68946 103.37012,124.83008 C 103.37012,124.02149 103.61816,123.30079 104.11426,122.66797 C 104.74316,121.86329 105.58496,121.46094 106.63965,121.46094 C 107.72558,121.46094 108.59277,121.87305 109.24121,122.69727 C 109.70214,123.2793 109.93652,124.00586 109.94434,124.87695 L 104.21387,124.87695 C 104.22949,125.61914 104.46582,126.22852 104.92285,126.70508 C 105.37988,127.17774 105.94433,127.41406 106.61621,127.41406 C 106.94043,127.41406 107.25488,127.35742 107.55957,127.24414 C 107.86816,127.13086 108.12988,126.98047 108.34473,126.79297 C 108.55956,126.60547 108.79199,126.30274 109.04199,125.88477 M 109.04199,124.16797 C 108.93261,123.73047 108.77245,123.38086 108.56152,123.11914 C 108.35449,122.85743 108.0791,122.64649 107.73535,122.48633 C 107.3916,122.32618 107.03027,122.2461 106.65137,122.24609 C 106.02636,122.2461 105.48926,122.44727 105.04004,122.84961 C 104.71191,123.14258 104.46387,123.58204 104.2959,124.16797 L 109.04199,124.16797 M 116.11426,119.38086 L 117.80762,119.38086 L 117.80762,128 L 116.95215,128 L 116.95215,120.22461 L 115.59863,120.22461 L 116.11426,119.38086 M 122.36621,126.71094 C 122.56543,126.71094 122.73535,126.78125 122.87598,126.92188 C 123.0166,127.0625 123.08691,127.23438 123.08691,127.4375 C 123.08691,127.63672 123.0166,127.80859 122.87598,127.95312 C 122.73535,128.09375 122.56543,128.16406 122.36621,128.16406 C 122.16699,128.16406 121.99707,128.09375 121.85645,127.95312 C 121.71582,127.80859 121.64551,127.63672 121.64551,127.4375 C 121.64551,127.23438 121.71582,127.0625 121.85645,126.92188 C 121.99707,126.78125 122.16699,126.71094 122.36621,126.71094 M 125.29004,122.08203 L 124.46387,122.08203 C 124.4873,121.23048 124.77051,120.53126 125.31348,119.98438 C 125.86035,119.43751 126.53418,119.16407 127.33496,119.16406 C 128.12793,119.16407 128.76855,119.41993 129.25684,119.93164 C 129.74902,120.44337 129.99511,121.04688 129.99512,121.74219 C 129.99511,122.23047 129.87792,122.68946 129.64355,123.11914 C 129.40917,123.54493 128.9541,124.12305 128.27832,124.85352 L 126.13379,127.16797 L 130.1123,127.16797 L 130.1123,128 L 124.25879,128 L 127.55176,124.44336 C 128.21972,123.72852 128.65332,123.19922 128.85254,122.85547 C 129.05566,122.50782 129.15722,122.14258 129.15723,121.75977 C 129.15722,121.2754 128.97558,120.85938 128.6123,120.51172 C 128.25293,120.16016 127.81152,119.98438 127.28809,119.98438 C 126.7373,119.98438 126.27832,120.16798 125.91113,120.53516 C 125.54785,120.90235 125.34082,121.41798 125.29004,122.08203"
       style="font-size:12px;font-style:normal;font-variant:normal;font-weight:normal;font-stretch:normal;text-align:center;line-height:100%;writing-mode:lr-tb;text-anchor:middle;fill:#000000;fill-opacity:1;stroke:none;stroke-width:1px;stroke-linecap:butt;stroke-linejoin:miter;stroke-opacity:1;font-family:Century Gothic" />
  </g>
</svg>
