<?xml version="1.0" encoding="utf-8"?>
<!-- Generator: Adobe Illustrator 12.0.0, SVG Export Plug-In . SVG Version: 6.00 Build 51448)  -->
<!DOCTYPE svg PUBLIC "-//W3C//DTD SVG 1.0//EN" "http://www.w3.org/TR/2001/REC-SVG-20010904/DTD/svg10.dtd" [
	<!ENTITY ns_svg "http://www.w3.org/2000/svg">
	<!ENTITY ns_xlink "http://www.w3.org/1999/xlink">
]>
<svg  version="1.0" id="Layer_1" xmlns="&ns_svg;" xmlns:xlink="&ns_xlink;" width="116.443" height="62.092"
	 viewBox="0 0 116.443 62.092" overflow="visible" enable-background="new 0 0 116.443 62.092" xml:space="preserve">
<path d="M18.423,54.975c-3.621,0.32-6.418-1.433-9.069-6.17c-2.65-4.737-8.222-18.436-8.918-21.989
	c-0.714-3.646-0.762-6.208,1.488-6.534c2.25-0.329,3.169,1.686,3.426,3.456c0.268,1.841,1.858,8.563,4.768,7.96
	c2.91-0.601-0.223-7.294-1.375-9.94C7.59,19.111,3.575,10.56,8.149,9.755c4.575-0.803,5.91,7.485,6.434,9.34
	c0.523,1.854,1.392,6.74,3.642,6.413c2.25-0.327,1.028-4.332,0.16-6.877C17.517,16.086,12.183-0.088,17.745,0
	c5.99,0.095,6.329,13.55,6.157,15.912c-0.154,2.125-0.286,9.02,2.516,8.999c2.958,0.134,2.891-4.054,2.24-7.829
	c-0.651-3.774-1.52-15.031,3.483-14.366c5.002,0.665,2.774,17.271,2.696,21.865c-0.079,4.592,0.874,6.782,5.447,2.88"/>
<path fill="#0084FF" d="M38.287,28.396c2.004-3.67,2.145-8.613,4.87-10.347c1.227-0.78,3.773-1.875,4.39-1.391
	c0.759,0.597,0.553,2.032,0.423,3.063c-0.177,1.404-1.297,14.868-1.901,19.217c-1.63,11.743-3.426,20.386-8.565,22.401
	c-3.672,1.439-11.917,0.386-15.984,0.296c-5.341-0.118-6.237-4.937-6.596-10.208c-0.149-2.186,0.087-11.423,0.705-16.466
	c0.48-3.922,4.639-4.614,6.849-4.783c1.75-0.134,4.309-0.109,8.534-0.227C34.407,29.857,37.353,30.106,38.287,28.396z"/>
<path fill="#0084FF" d="M68.1,48.104c-0.827,0.121-1.656,0.182-2.487,0.182c-1.287,0-2.462-0.164-3.525-0.494
	c-1.063-0.33-1.972-0.821-2.73-1.474c-0.757-0.652-1.345-1.469-1.765-2.447c-0.419-0.979-0.628-2.116-0.628-3.415
	c0-1.325,0.213-2.496,0.639-3.511c0.426-1.014,1.025-1.863,1.797-2.548s1.698-1.2,2.78-1.548c1.081-0.347,2.279-0.521,3.596-0.521
	c0.706,0,1.397,0.052,2.074,0.155c0.677,0.103,1.331,0.271,1.963,0.507l-0.132,2.573c-0.604-0.251-1.208-0.422-1.814-0.514
	c-0.607-0.092-1.253-0.139-1.937-0.139c-0.964,0-1.798,0.128-2.504,0.383s-1.291,0.621-1.754,1.1
	c-0.462,0.479-0.807,1.061-1.031,1.748c-0.225,0.688-0.336,1.468-0.336,2.34c0,0.789,0.112,1.519,0.336,2.188
	c0.224,0.67,0.559,1.252,1.004,1.744s1,0.876,1.665,1.151s1.44,0.413,2.322,0.413c0.286,0,0.573-0.018,0.86-0.055
	c0.286-0.036,0.566-0.095,0.838-0.176v-5.234H70.5v7.023C69.728,47.794,68.927,47.983,68.1,48.104z"/>
<path d="M92.542,37.561c0,0.896-0.17,1.667-0.513,2.314c-0.342,0.647-0.799,1.185-1.369,1.61c-0.57,0.425-1.229,0.739-1.976,0.943
	s-1.525,0.31-2.334,0.316c-0.31,0-0.609-0.004-0.9-0.011c-0.29-0.007-0.601-0.011-0.933-0.011v5.808h-3.191V32.859
	c0.795-0.103,1.595-0.176,2.401-0.22c0.806-0.044,1.609-0.066,2.412-0.066c0.537,0,1.068,0.033,1.596,0.099
	c0.525,0.065,1.025,0.175,1.501,0.328c0.474,0.152,0.914,0.354,1.319,0.605c0.404,0.251,0.754,0.562,1.048,0.933
	c0.295,0.371,0.525,0.806,0.69,1.305C92.459,36.341,92.542,36.914,92.542,37.561z M89.292,37.671c0-0.497-0.083-0.927-0.248-1.288
	c-0.166-0.36-0.393-0.654-0.68-0.882c-0.288-0.228-0.629-0.395-1.022-0.503c-0.395-0.108-0.816-0.163-1.266-0.163
	c-0.259,0-0.519,0.006-0.78,0.017c-0.261,0.011-0.521,0.034-0.779,0.07v5.52c0.259,0.036,0.513,0.057,0.763,0.06
	c0.251,0.004,0.502,0.006,0.752,0.006c0.457,0,0.884-0.056,1.282-0.168c0.398-0.111,0.743-0.284,1.034-0.52
	c0.29-0.234,0.521-0.528,0.69-0.882S89.292,38.161,89.292,37.671z"/>
<path d="M103.84,48.531h-5.703c-0.729,0-1.324-0.094-1.789-0.281c-0.463-0.188-0.829-0.448-1.099-0.783
	c-0.268-0.335-0.452-0.732-0.552-1.192s-0.148-0.958-0.148-1.495V32.573h8.95l0.22,2.503h-5.979v3.949h5.521v2.411h-5.521v2.914
	c0,0.206,0.02,0.408,0.06,0.607c0.041,0.198,0.114,0.377,0.222,0.535c0.105,0.158,0.253,0.287,0.441,0.387
	c0.187,0.099,0.428,0.148,0.722,0.148h4.877L103.84,48.531z"/>
<g>
	<path fill="#0084FF" d="M116.318,32.939h-5.853v-1.453c0.251-0.175,0.519-0.365,0.803-0.572s0.564-0.426,0.84-0.656
		c0.274-0.23,0.538-0.472,0.789-0.723c0.251-0.252,0.473-0.51,0.664-0.775c0.192-0.264,0.345-0.536,0.46-0.815
		c0.114-0.279,0.172-0.562,0.172-0.848c0-0.397-0.103-0.711-0.308-0.941c-0.205-0.23-0.49-0.346-0.855-0.346
		c-0.318,0-0.564,0.107-0.74,0.32c-0.177,0.214-0.282,0.486-0.317,0.817l-1.521-0.463c0.062-0.379,0.177-0.695,0.344-0.95
		c0.168-0.254,0.372-0.459,0.615-0.614c0.242-0.154,0.515-0.265,0.819-0.332c0.304-0.066,0.623-0.1,0.958-0.1
		c0.4,0,0.779,0.051,1.134,0.154c0.355,0.102,0.668,0.257,0.937,0.463c0.27,0.207,0.482,0.467,0.64,0.78
		c0.156,0.313,0.235,0.681,0.235,1.103c0,0.332-0.053,0.647-0.156,0.946s-0.243,0.582-0.417,0.851
		c-0.175,0.269-0.376,0.524-0.605,0.768c-0.23,0.242-0.472,0.472-0.726,0.688c-0.254,0.215-0.511,0.419-0.771,0.613
		s-0.509,0.378-0.747,0.553v0.039h3.731L116.318,32.939z"/>
</g>
<path d="M76.6,48.07c-0.382-0.452-0.747-0.952-1.095-1.503c-0.348-0.55-0.654-1.15-0.922-1.802
	c-0.266-0.651-0.478-1.352-0.634-2.102s-0.235-1.553-0.235-2.409s0.079-1.662,0.235-2.418s0.368-1.46,0.634-2.11
	c0.268-0.651,0.574-1.254,0.922-1.806c0.348-0.554,0.713-1.056,1.095-1.507h1.832c-0.395,0.544-0.749,1.094-1.063,1.649
	c-0.316,0.556-0.586,1.146-0.812,1.768c-0.227,0.622-0.399,1.292-0.521,2.01s-0.182,1.511-0.182,2.379
	c0,0.875,0.06,1.673,0.182,2.397c0.122,0.723,0.295,1.397,0.521,2.022c0.226,0.626,0.495,1.217,0.812,1.776
	c0.314,0.558,0.669,1.109,1.063,1.654H76.6z"/>
<path d="M110.568,40.285c0,0.79-0.072,1.532-0.217,2.228c-0.146,0.696-0.343,1.347-0.589,1.95c-0.249,0.604-0.533,1.162-0.856,1.673
	c-0.322,0.51-0.661,0.976-1.016,1.395h-1.716c0.365-0.506,0.695-1.018,0.991-1.536c0.295-0.519,0.546-1.07,0.753-1.656
	c0.207-0.585,0.366-1.214,0.479-1.885c0.112-0.672,0.169-1.413,0.169-2.225c0-0.806-0.057-1.54-0.169-2.204
	c-0.113-0.663-0.272-1.284-0.479-1.861c-0.207-0.578-0.458-1.123-0.753-1.636c-0.296-0.514-0.626-1.022-0.991-1.527h1.716
	c0.354,0.419,0.693,0.885,1.016,1.397c0.323,0.514,0.607,1.073,0.856,1.681c0.246,0.607,0.443,1.262,0.589,1.963
	C110.496,38.741,110.568,39.49,110.568,40.285z"/>
<path fill="#FFFFFF" d="M33.396,34.556c5.372,0.147,7.137,2.96,7.137,6.409c0,3.461-1.811,6.281-7.192,6.411
	c-0.129,0.003-5.146,0.005-5.273,0.005c-5.441,0-7.24-2.873-7.24-6.416s1.798-6.416,7.24-6.416
	C28.212,34.549,33.248,34.551,33.396,34.556z"/>
</svg>
