<?xml version="1.0" encoding="UTF-8" standalone="no"?>
<!-- Created with Sodipodi ("http://www.sodipodi.com/") -->
<svg
   xmlns:dc="http://purl.org/dc/elements/1.1/"
   xmlns:cc="http://web.resource.org/cc/"
   xmlns:rdf="http://www.w3.org/1999/02/22-rdf-syntax-ns#"
   xmlns:svg="http://www.w3.org/2000/svg"
   xmlns="http://www.w3.org/2000/svg"
   xmlns:sodipodi="http://inkscape.sourceforge.net/DTD/sodipodi-0.dtd"
   xmlns:inkscape="http://www.inkscape.org/namespaces/inkscape"
   id="svg1"
   sodipodi:version="0.32"
   inkscape:version="0.43"
   width="170.00000pt"
   height="226.00000pt"
   sodipodi:docname="blue-portrait.svg"
   sodipodi:docbase="/home/fuchs/Projekte/terracotta/gpephone/marketing">
  <metadata
     id="metadata1148">
    <rdf:RDF>
      <cc:Work
         rdf:about="">
        <dc:format>image/svg+xml</dc:format>
        <dc:type
           rdf:resource="http://purl.org/dc/dcmitype/StillImage" />
        <cc:license
           rdf:resource="http://creativecommons.org/licenses/GPL/2.0/" />
      </cc:Work>
      <cc:License
         rdf:about="http://creativecommons.org/licenses/GPL/2.0/">
        <cc:permits
           rdf:resource="http://web.resource.org/cc/Reproduction" />
        <cc:permits
           rdf:resource="http://web.resource.org/cc/Distribution" />
        <cc:requires
           rdf:resource="http://web.resource.org/cc/Notice" />
        <cc:permits
           rdf:resource="http://web.resource.org/cc/DerivativeWorks" />
        <cc:requires
           rdf:resource="http://web.resource.org/cc/ShareAlike" />
        <cc:requires
           rdf:resource="http://web.resource.org/cc/SourceCode" />
      </cc:License>
    </rdf:RDF>
  </metadata>
  <defs
     id="defs3" />
  <sodipodi:namedview
     id="base"
     pagecolor="#ffffff"
     bordercolor="#666666"
     borderopacity="1.0"
     inkscape:pageopacity="0.0"
     inkscape:pageshadow="2"
     inkscape:zoom="2"
     inkscape:cx="123.79126"
     inkscape:cy="136.7073"
     inkscape:window-width="879"
     inkscape:window-height="682"
     showguides="true"
     snaptoguides="true"
     inkscape:window-x="575"
     inkscape:window-y="31"
     inkscape:current-layer="svg1"
     showborder="true"
     inkscape:showpageshadow="false" />
  <path
     d="M 96.11295,172.47525 C 87.896908,173.15778 81.550522,169.4188 75.53541,159.31524 C 69.522567,149.21168 56.879712,119.99305 55.300491,112.41484 C 53.680427,104.63828 53.571513,99.17378 58.676759,98.478454 C 63.782004,97.776729 65.867213,102.07453 66.450344,105.84977 C 67.058436,109.77644 70.666141,124.11381 77.268924,122.82767 C 83.871707,121.5458 76.762938,107.27028 74.149053,101.62662 C 71.532899,95.980825 62.422873,77.742372 72.801267,76.025385 C 83.181932,74.312663 86.211044,91.990163 87.399999,95.946698 C 88.586683,99.9011 90.558442,110.32246 95.66369,109.62501 C 100.76893,108.92755 97.99622,100.38527 96.02673,94.957031 C 94.05724,89.528793 81.954404,55.031219 94.57457,55.218915 C 108.16586,55.421542 108.93505,84.119752 108.54479,89.157668 C 108.19536,93.690087 107.89585,108.39645 114.25358,108.35166 C 120.96528,108.63747 120.81326,99.70487 119.33614,91.653165 C 117.85902,83.603589 115.88726,59.5935 127.23906,61.011879 C 138.58858,62.430262 133.53326,97.849248 133.35627,107.6478 C 133.17702,117.44209 135.33938,122.11315 145.7155,113.79056"
     id="path3" />
  <path
     d="M 141.18432,115.78483 C 145.73139,107.95708 146.05132,97.414135 152.23433,93.715682 C 155.01839,92.052017 160.79526,89.716489 162.19523,90.748814 C 163.9174,92.022157 163.44999,95.082872 163.15502,97.281895 C 162.75341,100.27649 160.21213,128.9939 158.84165,138.26989 C 155.14319,163.31657 151.06807,181.75125 139.40769,186.04905 C 131.07593,189.1183 112.36805,186.87235 103.14003,186.68039 C 91.021318,186.4287 88.988297,176.15025 88.173726,164.90771 C 87.835646,160.24519 88.371128,140.54356 89.77337,129.78734 C 90.862488,121.42209 100.29925,119.94612 105.31373,119.58566 C 109.28448,119.29985 115.09084,119.35317 124.67736,119.10149 C 132.3806,118.901 139.06507,119.43209 141.18432,115.78483 z "
     id="path5"
     style="fill:#0084ff" />
  <path
     d="M 73.578809,234.4565 C 71.702347,234.71458 69.821348,234.84469 67.935811,234.84469 C 65.015612,234.84469 62.34954,234.49489 59.937596,233.79103 C 57.52565,233.08717 55.463132,232.03992 53.743232,230.64713 C 52.025601,229.25648 50.69143,227.5139 49.738451,225.42792 C 48.787741,223.33981 48.313521,220.9147 48.313521,218.14406 C 48.313521,215.31796 48.796818,212.82033 49.763411,210.65543 C 50.730003,208.49267 52.089132,206.68184 53.8408,205.2208 C 55.592465,203.75976 57.693556,202.66131 60.148612,201.91906 C 62.601398,201.17895 65.319658,200.80782 68.307927,200.80782 C 69.909838,200.80782 71.477717,200.91873 73.013828,201.13842 C 74.54994,201.35811 76.033863,201.71644 77.46787,202.2198 L 77.168361,207.70776 C 75.797889,207.1724 74.427414,206.80768 73.052401,206.61145 C 71.67512,206.41522 70.209347,206.31498 68.657353,206.31498 C 66.470039,206.31498 64.577696,206.58799 62.975784,207.13188 C 61.37387,207.67577 60.046508,208.45641 58.995961,209.47807 C 57.947685,210.49973 57.16488,211.74108 56.656625,213.20639 C 56.1461,214.67382 55.894242,216.33749 55.894242,218.19738 C 55.894242,219.88024 56.148369,221.43726 56.656625,222.86417 C 57.16488,224.29322 57.924994,225.53457 58.934698,226.58395 C 59.944403,227.63334 61.203696,228.45238 62.71258,229.03892 C 64.221463,229.62547 65.979935,229.91981 67.981192,229.91981 C 68.630125,229.91981 69.281326,229.88142 69.93253,229.8025 C 70.581463,229.72572 71.216782,229.59988 71.833948,229.42711 L 71.833948,218.2635 L 79.024402,218.2635 L 79.024402,233.24288 C 77.272736,233.7953 75.45527,234.19842 73.578809,234.4565 z "
     id="path7"
     style="fill:#0084ff" />
  <path
     d="M 129.03764,211.9693 C 129.03764,213.88038 128.65192,215.52485 127.87365,216.90484 C 127.09765,218.28483 126.06072,219.43233 124.76739,220.33881 C 123.47406,221.2453 121.97879,221.91503 120.28385,222.35014 C 118.58891,222.78525 116.82363,223.01134 114.98801,223.02414 C 114.28462,223.02414 113.60619,223.01561 112.94591,223.00068 C 112.28791,222.98575 111.58225,222.97721 110.82894,222.97721 L 110.82894,235.36511 L 103.58857,235.36511 L 103.58857,201.94039 C 105.39242,201.7207 107.20762,201.565 109.03643,201.47115 C 110.86524,201.37731 112.68725,201.33038 114.50925,201.33038 C 115.72771,201.33038 116.93254,201.40077 118.13057,201.54154 C 119.3218,201.68018 120.4563,201.9148 121.53634,202.24113 C 122.61185,202.56533 123.6102,202.99618 124.52915,203.53154 C 125.44582,204.0669 126.23997,204.73023 126.90706,205.52154 C 127.57641,206.31284 128.09828,207.24066 128.47267,208.30497 C 128.84932,209.36716 129.03764,210.58931 129.03764,211.9693 z M 121.6634,212.20392 C 121.6634,211.14387 121.47508,210.22672 121.10069,209.45674 C 120.72404,208.6889 120.20898,208.06182 119.55777,207.57552 C 118.9043,207.08922 118.13057,206.73303 117.23886,206.50267 C 116.3426,206.27232 115.38736,206.15501 114.36631,206.15501 C 113.77864,206.15501 113.1887,206.16781 112.59649,206.19127 C 112.00428,206.21473 111.41434,206.26379 110.82894,206.34057 L 110.82894,218.1142 C 111.41661,218.19098 111.99294,218.23577 112.56019,218.24217 C 113.1297,218.2507 113.69922,218.25497 114.26647,218.25497 C 115.3034,218.25497 116.27227,218.13552 117.17533,217.89664 C 118.07839,217.65989 118.86119,217.2909 119.52147,216.78753 C 120.17948,216.28843 120.70362,215.66136 121.08708,214.90631 C 121.47054,214.15126 121.6634,213.24904 121.6634,212.20392 z "
     id="path9" />
  <path
     d="M 154.67278,235.36725 L 141.73269,235.36725 C 140.07859,235.36725 138.72853,235.16675 137.67345,234.7679 C 136.6229,234.36692 135.79245,233.81236 135.17982,233.09784 C 134.57173,232.38332 134.15423,231.53655 133.92734,230.55542 C 133.70044,229.57428 133.59152,228.5121 133.59152,227.36673 L 133.59152,201.33038 L 153.89905,201.33038 L 154.39823,206.66904 L 140.83189,206.66904 L 140.83189,215.09187 L 153.35903,215.09187 L 153.35903,220.2343 L 140.83189,220.2343 L 140.83189,226.44958 C 140.83189,226.88896 140.87727,227.31981 140.96803,227.74425 C 141.06106,228.16657 141.2267,228.54836 141.47175,228.88536 C 141.71,229.22235 142.04581,229.4975 142.47238,229.71079 C 142.89668,229.92195 143.44351,230.02646 144.1106,230.02646 L 155.1765,230.02646 L 154.67278,235.36725 z "
     id="path11" />
  <g
     id="g13"
     transform="matrix(2.268998,0,0,2.132904,-80.93994,131.8553)">
	<path
   d="M 116.318,32.939 L 110.465,32.939 L 110.465,31.486 C 110.716,31.311 110.984,31.121 111.268,30.914 C 111.552,30.707 111.832,30.488 112.108,30.258 C 112.382,30.028 112.646,29.786 112.897,29.535 C 113.148,29.283 113.37,29.025 113.561,28.76 C 113.753,28.496 113.906,28.224 114.021,27.945 C 114.135,27.666 114.193,27.383 114.193,27.097 C 114.193,26.7 114.09,26.386 113.885,26.156 C 113.68,25.926 113.395,25.81 113.03,25.81 C 112.712,25.81 112.466,25.917 112.29,26.13 C 112.113,26.344 112.008,26.616 111.973,26.947 L 110.452,26.484 C 110.514,26.105 110.629,25.789 110.796,25.534 C 110.964,25.28 111.168,25.075 111.411,24.92 C 111.653,24.766 111.926,24.655 112.23,24.588 C 112.534,24.522 112.853,24.488 113.188,24.488 C 113.588,24.488 113.967,24.539 114.322,24.642 C 114.677,24.744 114.99,24.899 115.259,25.105 C 115.529,25.312 115.741,25.572 115.899,25.885 C 116.055,26.198 116.134,26.566 116.134,26.988 C 116.134,27.32 116.081,27.635 115.978,27.934 C 115.875,28.233 115.735,28.516 115.561,28.785 C 115.386,29.054 115.185,29.309 114.956,29.553 C 114.726,29.795 114.484,30.025 114.23,30.241 C 113.976,30.456 113.719,30.66 113.459,30.854 C 113.199,31.048 112.95,31.232 112.712,31.407 L 112.712,31.446 L 116.443,31.446 L 116.318,32.939 z "
   id="path15"
   style="fill:#0084ff" />

</g>
  <path
     d="M 92.86529,234.38398 C 91.99853,233.41991 91.170346,232.35346 90.380734,231.17823 C 89.591123,230.00513 88.896811,228.72539 88.288718,227.33474 C 87.685166,225.94622 87.204139,224.45105 86.850174,222.85137 C 86.496211,221.2517 86.31696,219.53898 86.31696,217.71321 C 86.31696,215.88744 86.496211,214.16832 86.850174,212.55585 C 87.204139,210.94338 87.685166,209.44181 88.288718,208.05543 C 88.896811,206.66691 89.591123,205.38076 90.380734,204.2034 C 91.170346,203.02177 91.99853,201.95106 92.86529,200.98912 L 97.02209,200.98912 C 96.12584,202.14942 95.32261,203.32251 94.61015,204.50627 C 93.89314,205.69217 93.28051,206.95058 92.76772,208.27725 C 92.25266,209.60391 91.862391,211.03296 91.585573,212.56438 C 91.308755,214.09581 91.172616,215.7872 91.172616,217.63856 C 91.172616,219.50485 91.308755,221.2069 91.585573,222.75113 C 91.862391,224.29322 92.25493,225.73079 92.76772,227.06386 C 93.28051,228.39905 93.89087,229.6596 94.61015,230.85189 C 95.32261,232.04205 96.1281,233.21728 97.02209,234.37971 L 92.86529,234.37971 L 92.86529,234.38398 z "
     id="path17" />
  <path
     d="M 169.93859,217.77933 C 169.93859,219.46432 169.77523,221.04694 169.44622,222.53144 C 169.11495,224.01594 168.66796,225.40446 168.10978,226.6906 C 167.5448,227.97887 166.90041,229.16903 166.16752,230.25895 C 165.4369,231.34673 164.66771,232.34066 163.86222,233.23434 L 159.96862,233.23434 C 160.7968,232.1551 161.54557,231.06305 162.2172,229.9582 C 162.88655,228.85123 163.45607,227.676 163.92575,226.42612 C 164.39543,225.17837 164.75621,223.83677 165.0126,222.4056 C 165.26673,220.97229 165.39606,219.3918 165.39606,217.65989 C 165.39606,215.94077 165.26673,214.37522 165.0126,212.95897 C 164.75621,211.54486 164.39543,210.22032 163.92575,208.98964 C 163.45607,207.75682 162.88655,206.59439 162.2172,205.50021 C 161.54557,204.4039 160.7968,203.32038 159.96862,202.24326 L 163.86222,202.24326 C 164.66544,203.13695 165.43463,204.13089 166.16752,205.22293 C 166.90041,206.31924 167.5448,207.51153 168.10978,208.80834 C 168.66796,210.10301 169.11495,211.50006 169.44622,212.99523 C 169.77523,214.48613 169.93859,216.08367 169.93859,217.77933 z "
     id="path19" />
  <path
     d="M 130.08665,128.92351 C 142.2757,129.23705 146.28048,135.2369 146.28048,142.59328 C 146.28048,149.97526 142.17133,155.99005 129.96185,156.26733 C 129.66915,156.27372 118.28559,156.27799 117.99743,156.27799 C 105.65181,156.27799 101.56989,150.15016 101.56989,142.59328 C 101.56989,135.03641 105.64954,128.90858 117.99743,128.90858 C 118.32417,128.90858 129.75084,128.91285 130.08665,128.92351 z "
     id="path21"
     style="fill:#ffffff" />
</svg>
