<?xml version="1.0" encoding="UTF-8" standalone="no"?>
<!-- Created with Sodipodi ("http://www.sodipodi.com/") -->
<svg
   xmlns:dc="http://purl.org/dc/elements/1.1/"
   xmlns:cc="http://web.resource.org/cc/"
   xmlns:rdf="http://www.w3.org/1999/02/22-rdf-syntax-ns#"
   xmlns:svg="http://www.w3.org/2000/svg"
   xmlns="http://www.w3.org/2000/svg"
   xmlns:sodipodi="http://inkscape.sourceforge.net/DTD/sodipodi-0.dtd"
   xmlns:inkscape="http://www.inkscape.org/namespaces/inkscape"
   id="svg1"
   sodipodi:version="0.32"
   inkscape:version="0.42.2"
   width="8.0000000cm"
   height="6.0000000cm"
   sodipodi:docname="splash-l2_.svg"
   sodipodi:docbase="/home/reno/gpe/splash-ng">
  <metadata
     id="metadata27">
    <rdf:RDF>
      <cc:Work
         rdf:about="">
        <dc:format>image/svg+xml</dc:format>
        <dc:type
           rdf:resource="http://purl.org/dc/dcmitype/StillImage" />
      </cc:Work>
    </rdf:RDF>
  </metadata>
  <defs
     id="defs3" />
  <sodipodi:namedview
     id="base"
     pagecolor="#ffffff"
     bordercolor="#666666"
     borderopacity="1.0"
     inkscape:pageopacity="0.0"
     inkscape:pageshadow="2"
     inkscape:zoom="3.1279631"
     inkscape:cx="141.73228"
     inkscape:cy="80.723460"
     inkscape:window-width="1386"
     inkscape:window-height="1022"
     showguides="true"
     snaptoguides="true"
     inkscape:window-x="237"
     inkscape:window-y="72"
     inkscape:current-layer="svg1" />
  <g
     id="g1401"
     transform="matrix(0.632672,0.000000,0.000000,0.632672,65.87047,-320.0595)">
    <path
       style="font-size:12.000000px;fill:#3673b9;fill-rule:evenodd;stroke:#000000;stroke-width:5.0000000;stroke-linecap:round;stroke-linejoin:round"
       d="M 94.024300,653.14400 C 92.914800,643.84800 92.792500,633.53000 100.93700,626.20500 C 110.40300,617.65400 128.33900,609.24000 161.17900,608.43700 C 198.93700,607.89500 218.38600,616.40600 225.07600,630.58000 C 228.36500,637.91400 224.72100,648.08900 221.44800,650.92700 C 213.78000,658.20700 201.68300,661.71100 188.67300,661.84800 C 186.64100,661.92800 175.96700,663.21100 169.53100,664.71300 C 164.67300,665.76300 155.85000,669.83400 156.45900,677.06300 C 156.84400,681.44700 161.19300,684.03400 165.18300,684.87100 C 170.44500,686.33900 176.02700,688.99000 178.25800,694.85900 C 181.54600,704.10500 177.95900,710.95700 168.80000,715.90300 C 161.70900,719.63400 154.41500,719.21300 147.27800,719.07100 C 140.14100,718.92900 133.16200,719.06600 126.70000,716.62600 C 117.33000,713.31500 110.46300,707.24700 105.64500,695.93300 C 97.880600,678.55500 95.433800,662.38300 94.024300,653.14400 z "
       id="path1403"
       sodipodi:nodetypes="cssssssssssssss" />
    <path
       style="font-size:12.000000px;fill:#3673b9;fill-rule:evenodd;stroke:#000000;stroke-width:5.0000000;stroke-linecap:round;stroke-linejoin:round"
       d="M 194.06200,704.69000 C 193.14000,694.18500 196.65200,689.20800 200.95300,687.12400 C 209.47200,682.64900 222.59000,684.24800 225.98700,684.09900 C 229.38500,683.95100 240.20900,683.73500 243.86500,684.20500 C 249.75400,684.60100 256.04900,688.54300 258.82000,692.57100 C 265.33200,701.23200 261.46900,710.70000 256.41100,712.48900 C 249.96200,715.24400 244.28900,715.67700 227.77400,716.56400 C 204.06500,718.34400 195.45600,716.62200 194.06200,704.69000 z "
       id="path1405"
       sodipodi:nodetypes="csssssss" />
    <path
       style="font-size:12.000000px;fill:#3673b9;fill-rule:evenodd;stroke:#000000;stroke-width:5.0000000;stroke-linecap:round;stroke-linejoin:round"
       d="M 223.57200,534.43700 C 234.34600,534.71200 236.99600,549.59900 235.82900,563.59600 C 235.42100,567.17400 233.42900,584.09200 233.00200,587.69200 C 231.88200,597.71000 226.09400,605.34000 215.92800,601.76400 C 208.09500,599.27900 204.24500,594.86200 204.96100,585.10200 C 205.23600,571.73100 206.46300,562.43500 206.90100,558.88100 C 208.57200,545.91000 212.50900,533.78300 223.57200,534.43700 z "
       id="path1407"
       sodipodi:nodetypes="cssssss" />
    <path
       style="font-size:12.000000px;fill:#3673b9;fill-rule:evenodd;stroke:#000000;stroke-width:5.0000000;stroke-linecap:round;stroke-linejoin:round"
       d="M 190.99600,543.84400 C 191.24800,547.43500 190.83000,570.43000 190.84200,574.05500 C 190.52300,588.35700 184.24100,590.16500 176.73700,590.02900 C 168.36500,589.86800 163.49000,586.73400 162.86800,574.19100 C 162.79600,570.77900 162.30200,547.26500 162.34300,543.72400 C 162.46700,532.53500 165.29600,520.12200 176.46100,519.77700 C 188.95300,519.79900 190.56900,532.18000 190.99600,543.84400 z "
       id="path1409"
       sodipodi:nodetypes="cssssss" />
    <path
       style="font-size:12.000000px;fill:#3673b9;fill-rule:evenodd;stroke:#000000;stroke-width:5.0000000;stroke-linecap:round;stroke-linejoin:round"
       d="M 130.75800,527.27800 C 119.98100,527.40200 117.12400,542.25000 118.09400,556.26200 C 118.45200,559.84600 120.20700,576.79000 120.58400,580.39500 C 121.56300,590.42800 126.70600,597.39900 135.90500,595.19800 C 144.24400,593.30800 148.70100,589.50600 148.65900,578.19800 C 148.24400,564.83100 147.47300,555.51300 147.08600,551.95300 C 145.59700,538.96000 141.82900,526.77900 130.75800,527.27800 z "
       id="path1411"
       sodipodi:nodetypes="cssssss" />
    <path
       style="font-size:12.000000px;fill:#3673b9;fill-rule:evenodd;stroke:#000000;stroke-width:5.0000000;stroke-linecap:round;stroke-linejoin:round"
       d="M 85.985600,547.51200 C 75.810100,548.42000 74.216900,562.55700 76.178700,575.63100 C 76.784300,578.96400 79.706000,594.21600 81.361600,598.08600 C 84.042800,607.18700 88.785900,615.40600 97.975700,610.33300 C 107.28300,605.46700 110.04500,600.46700 108.76200,592.93600 C 106.17000,580.73900 104.92000,575.86400 103.25700,569.46300 C 99.908700,557.61300 96.410300,546.23200 85.985600,547.51200 z "
       id="path1413"
       sodipodi:nodetypes="cssssss" />
  </g>
  <path
     style="font-size:24.000000px;font-style:normal;font-weight:normal;fill:#000000;fill-opacity:1.0000000;stroke:none;stroke-width:1.0000000pt;stroke-linecap:butt;stroke-linejoin:miter;stroke-opacity:1.0000000;font-family:Bitstream Vera Sans"
     d="M 119.55592,176.80189 L 119.55592,168.87373 L 113.03148,168.87373 L 113.03148,165.59173 L 123.51012,165.59173 L 123.51012,178.26495 C 121.96795,179.35894 120.26764,180.18932 118.40919,180.75610 C 116.55069,181.30969 114.56701,181.58648 112.45812,181.58648 C 107.84488,181.58648 104.23338,180.24206 101.62361,177.55319 C 99.027013,174.85118 97.728719,171.09468 97.728719,166.28373 C 97.728719,161.45960 99.027013,157.70311 101.62361,155.01424 C 104.23338,152.31223 107.84488,150.96120 112.45812,150.96119 C 114.38248,150.96120 116.20800,151.19846 117.93468,151.67294 C 119.67452,152.14749 121.27596,152.84604 122.73905,153.76866 L 122.73905,158.01943 C 121.26278,156.76730 119.69429,155.82488 118.03354,155.19218 C 116.37277,154.55953 114.62632,154.24320 112.79423,154.24316 C 109.18271,154.24320 106.46750,155.25152 104.64858,157.26813 C 102.84283,159.28479 101.93994,162.28998 101.93995,166.28373 C 101.93994,170.26429 102.84283,173.26288 104.64858,175.27952 C 106.46750,177.29616 109.18271,178.30449 112.79423,178.30449 C 114.20454,178.30449 115.46330,178.18587 116.57049,177.94861 C 117.67764,177.69816 118.67278,177.31594 119.55592,176.80189 M 134.81913,154.77699 L 134.81913,165.86852 L 139.84098,165.86852 C 141.69943,165.86854 143.13612,165.38746 144.15106,164.42524 C 145.16595,163.46306 145.67340,162.09227 145.67341,160.31288 C 145.67340,158.54667 145.16595,157.18248 144.15106,156.22026 C 143.13612,155.25812 141.69943,154.77701 139.84098,154.77699 L 134.81913,154.77699 M 130.82539,151.49500 L 139.84098,151.49500 C 143.14931,151.49503 145.64705,152.24631 147.33419,153.74890 C 149.03446,155.23834 149.88462,157.42632 149.88464,160.31288 C 149.88462,163.22583 149.03446,165.42699 147.33419,166.91639 C 145.64705,168.40581 143.14931,169.15051 139.84098,169.15051 L 134.81913,169.15051 L 134.81913,181.01312 L 130.82539,181.01312 L 130.82539,151.49500 M 155.26235,151.49500 L 173.92618,151.49500 L 173.92618,154.85607 L 159.25610,154.85607 L 159.25610,163.59487 L 173.31328,163.59487 L 173.31328,166.95594 L 159.25610,166.95594 L 159.25610,177.65204 L 174.28207,177.65204 L 174.28207,181.01312 L 155.26235,181.01312 L 155.26235,151.49500 M 197.57231,177.65204 L 211.51087,177.65204 L 211.51087,181.01312 L 192.76797,181.01312 L 192.76797,177.65204 C 194.28373,176.08355 196.34651,173.98123 198.95628,171.34510 C 201.57923,168.69578 203.22680,166.98888 203.89903,166.22440 C 205.17754,164.78773 206.06724,163.57510 206.56812,162.58654 C 207.08214,161.58484 207.33918,160.60286 207.33919,159.64066 C 207.33918,158.07217 206.78558,156.79367 205.67842,155.80509 C 204.58442,154.81656 203.15432,154.32229 201.38812,154.32225 C 200.13595,154.32229 198.81128,154.53977 197.41414,154.97470 C 196.03017,155.40969 194.54734,156.06871 192.96568,156.95180 L 192.96568,152.91852 C 194.57370,152.27270 196.07629,151.78501 197.47345,151.45545 C 198.87060,151.12597 200.14912,150.96120 201.30904,150.96119 C 204.36694,150.96120 206.80536,151.72568 208.62430,153.25462 C 210.44322,154.78362 211.35269,156.82660 211.35271,159.38362 C 211.35269,160.59627 211.12203,161.74958 210.66073,162.84357 C 210.21255,163.92439 209.38877,165.20291 208.18932,166.67913 C 207.85980,167.06139 206.81195,168.16856 205.04575,170.00065 C 203.27953,171.81960 200.78840,174.37008 197.57231,177.65204 M 219.91353,175.99128 L 224.08525,175.99128 L 224.08525,181.01312 L 219.91353,181.01312 L 219.91353,175.99128 M 231.79592,151.49500 L 250.77609,151.49500 L 250.77609,153.19533 L 240.06022,181.01312 L 235.88851,181.01312 L 245.97172,154.85607 L 231.79592,154.85607 L 231.79592,151.49500"
     id="text1326" />
  <path
     style="font-size:46.729351px;font-style:normal;font-variant:normal;font-weight:bold;font-stretch:normal;text-align:start;line-height:125.00000%;writing-mode:lr-tb;text-anchor:start;fill:#000000;fill-opacity:0.50819671;stroke:none;stroke-width:1.0000000px;stroke-linecap:butt;stroke-linejoin:miter;stroke-opacity:1.0000000;font-family:Bitstream Vera Sans"
     d="M 5.5309328,225.67583 L 5.5309328,200.38347 L 10.751653,200.38347 L 10.751653,216.30379 L 15.739155,216.30379 L 15.739155,201.33285 L 20.959877,201.33285 L 20.959877,216.30379 L 32.316303,216.30379 L 32.316303,225.67583 L 5.5309328,225.67583 M 23.274219,182.68611 C 23.274227,184.50374 23.501473,185.87505 23.955964,186.80008 C 24.410464,187.70890 25.080253,188.16330 25.965319,188.16328 C 26.778634,188.16330 27.418513,187.79816 27.884962,187.06787 C 28.339463,186.32135 28.566709,185.29082 28.566709,183.97629 C 28.566709,182.33722 28.136134,180.95778 27.274986,179.83799 C 26.401878,178.71823 25.313483,178.15834 24.009791,178.15832 L 23.274219,178.15832 L 23.274219,182.68611 M 20.852232,169.37051 L 32.316303,169.37051 L 32.316303,178.15832 L 29.338156,178.15832 C 30.558120,179.32681 31.449170,180.64132 32.011314,182.10188 C 32.561490,183.56247 32.836579,185.33952 32.836579,187.43301 C 32.836579,190.25680 32.232577,192.55315 31.024579,194.32207 C 29.804616,196.07476 28.225844,196.95112 26.288250,196.95110 C 23.932057,196.95112 22.203775,195.85568 21.103404,193.66481 C 20.003060,191.45771 19.452884,188.00101 19.452865,183.29469 L 19.452865,178.15832 L 18.950532,178.15832 C 17.933905,178.15834 17.192359,178.70200 16.725890,179.78929 C 16.247491,180.87663 16.008277,182.57254 16.008269,184.87698 C 16.008277,186.74329 16.145821,188.47977 16.420901,190.08639 C 16.696009,191.69304 17.108640,193.18607 17.658808,194.56549 L 12.761008,194.56549 C 12.426138,192.69921 12.174967,190.82480 12.007503,188.94227 C 11.828118,187.05975 11.738416,185.17723 11.738398,183.29469 C 11.738416,178.37743 12.456038,174.83146 13.891270,172.65681 C 15.314573,170.46596 17.634900,169.37054 20.852232,169.37051 M 15.559752,135.94758 C 14.315880,134.84406 13.371013,133.53766 12.725133,132.02836 C 12.067322,130.50290 11.738416,128.83135 11.738398,127.01370 C 11.738416,123.88162 12.450064,121.49601 13.873328,119.85688 C 15.296640,118.21781 17.365786,117.39827 20.080784,117.39822 L 32.316303,117.39822 L 32.316303,126.16170 L 21.838967,126.16170 C 21.683499,126.14551 21.522029,126.13740 21.354575,126.13736 C 21.187139,126.12117 20.947926,126.11305 20.636944,126.11302 C 19.213670,126.11305 18.185077,126.39706 17.551163,126.96502 C 16.905311,127.53305 16.582381,128.44998 16.582362,129.71578 C 16.582381,131.37113 17.084714,132.65320 18.089382,133.56197 C 19.094068,134.45458 20.547252,134.91709 22.448954,134.94952 L 32.316303,134.94952 L 32.316303,143.71300 L 21.838967,143.71300 C 19.614344,143.71302 18.185077,143.97267 17.551163,144.49198 C 16.905311,145.01131 16.582381,145.93634 16.582362,147.26707 C 16.582381,148.93864 17.090699,150.22882 18.107314,151.13761 C 19.112011,152.04642 20.553238,152.50082 22.431011,152.50081 L 32.316303,152.50081 L 32.316303,161.26429 L 12.222790,161.26429 L 12.222790,152.50081 L 15.165052,152.50081 C 14.028834,151.42973 13.173667,150.20448 12.599547,148.82503 C 12.025463,147.42938 11.738416,145.89576 11.738398,144.22420 C 11.738416,142.34169 12.073306,140.67826 12.743066,139.23388 C 13.412873,137.78956 14.351764,136.69413 15.559752,135.94758 M 12.222790,109.21898 L 12.222790,100.50420 L 32.316303,100.50420 L 32.316303,109.21898 L 12.222790,109.21898 M 4.4006700,109.21898 L 4.4006700,100.50420 L 9.6393425,100.50420 L 9.6393425,109.21898 L 4.4006700,109.21898 M 4.4006700,92.081523 L 4.4006700,83.366729 L 32.316303,83.366729 L 32.316303,92.081523 L 4.4006700,92.081523 M 12.222790,74.944060 L 12.222790,66.229269 L 32.316303,66.229269 L 32.316303,74.944060 L 12.222790,74.944060 M 4.4006700,74.944060 L 4.4006700,66.229269 L 9.6393425,66.229269 L 9.6393425,74.944060 L 4.4006700,74.944060 M 23.274219,45.586411 C 23.274227,47.404036 23.501473,48.775356 23.955964,49.700376 C 24.410464,50.609193 25.080253,51.063594 25.965319,51.063584 C 26.778634,51.063594 27.418513,50.698450 27.884962,49.968149 C 28.339463,49.221644 28.566709,48.191124 28.566709,46.876591 C 28.566709,45.237512 28.136134,43.858077 27.274986,42.738282 C 26.401878,41.618525 25.313483,41.058637 24.009791,41.058616 L 23.274219,41.058616 L 23.274219,45.586411 M 20.852232,32.270797 L 32.316303,32.270797 L 32.316303,41.058616 L 29.338156,41.058616 C 30.558120,42.227099 31.449170,43.541620 32.011314,45.002180 C 32.561490,46.462775 32.836579,48.239810 32.836579,50.333294 C 32.836579,53.157089 32.232577,55.453442 31.024579,57.222360 C 29.804616,58.975057 28.225844,59.851405 26.288250,59.851403 C 23.932057,59.851405 22.203775,58.755971 21.103404,56.565099 C 20.003060,54.358009 19.452884,50.901309 19.452865,46.194986 L 19.452865,41.058616 L 18.950532,41.058616 C 17.933905,41.058637 17.192359,41.602296 16.725890,42.689596 C 16.247491,43.776935 16.008277,45.472827 16.008269,47.777280 C 16.008277,49.643589 16.145821,51.380054 16.420901,52.986679 C 16.696009,54.593324 17.108640,56.086360 17.658808,57.465789 L 12.761008,57.465789 C 12.426138,55.599500 12.174967,53.725092 12.007503,51.842559 C 11.828118,49.960048 11.738416,48.077525 11.738398,46.194986 C 11.738416,41.277724 12.456038,37.731765 13.891270,35.557101 C 15.314573,33.366260 17.634900,32.270827 20.852232,32.270797 M 17.694683,3.8625394 C 17.431572,4.6253096 17.240201,5.3880558 17.120580,6.1507802 C 16.989038,6.8973192 16.923254,7.6519516 16.923235,8.4146776 C 16.923254,10.654250 17.455488,12.382600 18.519957,13.599734 C 19.572485,14.800669 21.085472,15.401127 23.058931,15.401114 L 32.316303,15.401114 L 32.316303,24.115904 L 12.222790,24.115904 L 12.222790,15.401114 L 15.523868,15.401114 C 14.208237,14.281351 13.251402,12.999289 12.653364,11.554924 C 12.043406,10.094362 11.738416,8.3497828 11.738398,6.3211811 C 11.738416,6.0290870 11.750375,5.7126286 11.774273,5.3718043 C 11.786259,5.0310257 11.822134,4.5360518 11.881917,3.8868821 L 17.694683,3.8625394"
     id="text1325" />
  <path
     style="font-size:12.000000px;font-style:normal;font-weight:normal;line-height:125.00000%;fill:#000000;fill-opacity:1.0000000;stroke:none;stroke-width:1.0000000px;stroke-linecap:butt;stroke-linejoin:miter;stroke-opacity:1.0000000;font-family:Bitstream Vera Sans"
     d="M 117.32563,208.90199 L 117.32563,211.85930 L 119.07732,211.85930 C 119.66481,211.85930 120.09913,211.73856 120.38027,211.49708 C 120.66500,211.25199 120.80737,210.87894 120.80738,210.37795 C 120.80737,209.87335 120.66500,209.50211 120.38027,209.26421 C 120.09913,209.02274 119.66481,208.90199 119.07732,208.90199 L 117.32563,208.90199 M 117.32563,205.58245 L 117.32563,208.01534 L 118.94216,208.01534 C 119.47559,208.01535 119.87206,207.91622 120.13158,207.71798 C 120.39467,207.51615 120.52624,207.20978 120.52624,206.79889 C 120.52624,206.39162 120.39467,206.08705 120.13158,205.88521 C 119.87206,205.68337 119.47559,205.58245 118.94216,205.58245 L 117.32563,205.58245 M 116.23355,204.68497 L 119.02325,204.68497 C 119.85585,204.68498 120.49740,204.85799 120.94794,205.20400 C 121.39847,205.55002 121.62374,206.04200 121.62375,206.67995 C 121.62374,207.17375 121.50841,207.56660 121.27774,207.85854 C 121.04706,208.15051 120.70826,208.33253 120.26132,208.40460 C 120.79837,208.51994 121.21466,208.76143 121.51021,209.12906 C 121.80936,209.49310 121.95894,209.94903 121.95894,210.49688 C 121.95894,211.21775 121.71384,211.77461 121.22367,212.16747 C 120.73349,212.56034 120.03606,212.75677 119.13138,212.75677 L 116.23355,212.75677 L 116.23355,204.68497 M 126.12730,207.39900 C 125.59386,207.39901 125.17216,207.60806 124.86220,208.02615 C 124.55223,208.44065 124.39724,209.01012 124.39725,209.73458 C 124.39724,210.45905 124.55042,211.03033 124.85680,211.44842 C 125.16676,211.86291 125.59026,212.07015 126.12730,212.07015 C 126.65712,212.07015 127.07703,211.86110 127.38700,211.44302 C 127.69696,211.02492 127.85195,210.45543 127.85195,209.73458 C 127.85195,209.01733 127.69696,208.44966 127.38700,208.03156 C 127.07703,207.60986 126.65712,207.39901 126.12730,207.39900 M 126.12730,206.55559 C 126.99232,206.55561 127.67174,206.83675 128.16552,207.39900 C 128.65931,207.96128 128.90619,208.73979 128.90620,209.73458 C 128.90619,210.72575 128.65931,211.50430 128.16552,212.07015 C 127.67174,212.63243 126.99232,212.91355 126.12730,212.91355 C 125.25866,212.91355 124.57746,212.63243 124.08368,212.07015 C 123.59349,211.50430 123.34840,210.72575 123.34840,209.73458 C 123.34840,208.73979 123.59349,207.96128 124.08368,207.39900 C 124.57746,206.83675 125.25866,206.55561 126.12730,206.55559 M 132.89614,207.39900 C 132.36271,207.39901 131.94101,207.60806 131.63104,208.02615 C 131.32106,208.44065 131.16608,209.01012 131.16608,209.73458 C 131.16608,210.45905 131.31927,211.03033 131.62563,211.44842 C 131.93560,211.86291 132.35910,212.07015 132.89614,212.07015 C 133.42597,212.07015 133.84586,211.86110 134.15584,211.44302 C 134.46580,211.02492 134.62079,210.45543 134.62079,209.73458 C 134.62079,209.01733 134.46580,208.44966 134.15584,208.03156 C 133.84586,207.60986 133.42597,207.39901 132.89614,207.39900 M 132.89614,206.55559 C 133.76117,206.55561 134.44057,206.83675 134.93437,207.39900 C 135.42814,207.96128 135.67505,208.73979 135.67505,209.73458 C 135.67505,210.72575 135.42814,211.50430 134.93437,212.07015 C 134.44057,212.63243 133.76117,212.91355 132.89614,212.91355 C 132.02752,212.91355 131.34630,212.63243 130.85251,212.07015 C 130.36233,211.50430 130.11724,210.72575 130.11724,209.73458 C 130.11724,208.73979 130.36233,207.96128 130.85251,207.39900 C 131.34630,206.83675 132.02752,206.55561 132.89614,206.55559 M 138.30257,204.98234 L 138.30257,206.70158 L 140.35160,206.70158 L 140.35160,207.47469 L 138.30257,207.47469 L 138.30257,210.76180 C 138.30256,211.25559 138.36924,211.57277 138.50261,211.71333 C 138.63957,211.85389 138.91529,211.92418 139.32979,211.92418 L 140.35160,211.92418 L 140.35160,212.75677 L 139.32979,212.75677 C 138.56208,212.75677 138.03225,212.61439 137.74031,212.32967 C 137.44835,212.04132 137.30238,211.51870 137.30238,210.76180 L 137.30238,207.47469 L 136.57251,207.47469 L 136.57251,206.70158 L 137.30238,206.70158 L 137.30238,204.98234 L 138.30257,204.98234 M 141.66537,206.70158 L 142.66015,206.70158 L 142.66015,212.75677 L 141.66537,212.75677 L 141.66537,206.70158 M 141.66537,204.34437 L 142.66015,204.34437 L 142.66015,205.60408 L 141.66537,205.60408 L 141.66537,204.34437 M 149.76960,209.10203 L 149.76960,212.75677 L 148.77482,212.75677 L 148.77482,209.13448 C 148.77482,208.56140 148.66308,208.13248 148.43962,207.84774 C 148.21615,207.56300 147.88094,207.42064 147.43403,207.42063 C 146.89699,207.42064 146.47348,207.59184 146.16352,207.93424 C 145.85355,208.27666 145.69857,208.74341 145.69857,209.33451 L 145.69857,212.75677 L 144.69837,212.75677 L 144.69837,206.70158 L 145.69857,206.70158 L 145.69857,207.64229 C 145.93644,207.27827 146.21577,207.00614 146.53655,206.82591 C 146.86094,206.64571 147.23398,206.55561 147.65569,206.55559 C 148.35131,206.55561 148.87753,206.77186 149.23435,207.20437 C 149.59118,207.63330 149.76960,208.26583 149.76960,209.10203 M 155.74911,209.65890 C 155.74911,208.93804 155.59953,208.37937 155.30037,207.98291 C 155.00481,207.58643 154.58852,207.38820 154.05149,207.38820 C 153.51806,207.38820 153.10176,207.58643 152.80260,207.98291 C 152.50705,208.37937 152.35928,208.93804 152.35928,209.65890 C 152.35928,210.37615 152.50705,210.93301 152.80260,211.32947 C 153.10176,211.72594 153.51806,211.92418 154.05149,211.92418 C 154.58852,211.92418 155.00481,211.72594 155.30037,211.32947 C 155.59953,210.93301 155.74911,210.37615 155.74911,209.65890 M 156.74389,212.00528 C 156.74388,213.03611 156.51501,213.80201 156.05727,214.30301 C 155.59953,214.80761 154.89849,215.05991 153.95417,215.05991 C 153.60455,215.05991 153.27476,215.03287 152.96479,214.97881 C 152.65482,214.92835 152.35386,214.84906 152.06191,214.74093 L 152.06191,213.77317 C 152.35386,213.93177 152.64221,214.04890 152.92695,214.12459 C 153.21169,214.20029 153.50184,214.23813 153.79740,214.23813 C 154.44977,214.23813 154.93814,214.06693 155.26253,213.72452 C 155.58691,213.38572 155.74911,212.87211 155.74911,212.18370 L 155.74911,211.69172 C 155.54365,212.04853 155.28054,212.31525 154.95977,212.49185 C 154.63899,212.66846 154.25513,212.75677 153.80820,212.75677 C 153.06571,212.75677 152.46740,212.47383 152.01327,211.90796 C 151.55913,211.34210 151.33205,210.59240 151.33205,209.65890 C 151.33205,208.72178 151.55913,207.97028 152.01327,207.40441 C 152.46740,206.83855 153.06571,206.55561 153.80820,206.55559 C 154.25513,206.55561 154.63899,206.64391 154.95977,206.82051 C 155.28054,206.99713 155.54365,207.26385 155.74911,207.62066 L 155.74911,206.70158 L 156.74389,206.70158 L 156.74389,212.00528 M 158.93349,211.38354 L 160.07424,211.38354 L 160.07424,212.75677 L 158.93349,212.75677 L 158.93349,211.38354 M 166.97825,205.58245 L 166.97825,208.61546 L 168.35149,208.61546 C 168.85968,208.61546 169.25255,208.48389 169.53009,208.22078 C 169.80761,207.95767 169.94637,207.58283 169.94638,207.09625 C 169.94637,206.61327 169.80761,206.24023 169.53009,205.97711 C 169.25255,205.71401 168.85968,205.58245 168.35149,205.58245 L 166.97825,205.58245 M 165.88616,204.68497 L 168.35149,204.68497 C 169.25614,204.68498 169.93916,204.89042 170.40051,205.30132 C 170.86546,205.70860 171.09794,206.30692 171.09795,207.09625 C 171.09794,207.89280 170.86546,208.49470 170.40051,208.90199 C 169.93916,209.30929 169.25614,209.51292 168.35149,209.51291 L 166.97825,209.51291 L 166.97825,212.75677 L 165.88616,212.75677 L 165.88616,204.68497 M 172.52525,204.34437 L 173.52003,204.34437 L 173.52003,212.75677 L 172.52525,212.75677 L 172.52525,204.34437 M 180.77544,209.48048 L 180.77544,209.96706 L 176.20161,209.96706 C 176.24486,210.65187 176.45031,211.17448 176.81794,211.53491 C 177.18918,211.89174 177.70459,212.07015 178.36418,212.07015 C 178.74623,212.07015 179.11567,212.02330 179.47250,211.92959 C 179.83292,211.83588 180.18974,211.69531 180.54298,211.50789 L 180.54298,212.44860 C 180.18614,212.59999 179.82031,212.71533 179.44547,212.79462 C 179.07060,212.87391 178.69037,212.91355 178.30471,212.91355 C 177.33877,212.91355 176.57285,212.63243 176.00699,212.07015 C 175.44471,211.50789 175.16357,210.74738 175.16357,209.78865 C 175.16357,208.79747 175.43029,208.01173 175.96373,207.43144 C 176.50076,206.84755 177.22342,206.55561 178.13171,206.55559 C 178.94627,206.55561 179.58963,206.81871 180.06180,207.34494 C 180.53755,207.86757 180.77544,208.57942 180.77544,209.48048 M 179.78066,209.18852 C 179.77345,208.64429 179.62027,208.20998 179.32111,207.88559 C 179.02556,207.56120 178.63271,207.39901 178.14251,207.39900 C 177.58746,207.39901 177.14233,207.55579 176.80714,207.86936 C 176.47554,208.18294 176.28451,208.62446 176.23405,209.19395 L 179.78066,209.18852 M 185.16006,209.71296 C 184.35630,209.71296 183.79944,209.80487 183.48947,209.98869 C 183.17949,210.17251 183.02451,210.48608 183.02451,210.92940 C 183.02451,211.28261 183.13985,211.56376 183.37053,211.77279 C 183.60481,211.97825 183.92199,212.08097 184.32206,212.08097 C 184.87351,212.08097 185.31504,211.88634 185.64664,211.49708 C 185.98183,211.10422 186.14943,210.58339 186.14944,209.93462 L 186.14944,209.71296 L 185.16006,209.71296 M 187.14420,209.30207 L 187.14420,212.75677 L 186.14944,212.75677 L 186.14944,211.83767 C 185.92236,212.20531 185.63942,212.47744 185.30063,212.65405 C 184.96181,212.82706 184.54733,212.91355 184.05715,212.91355 C 183.43721,212.91355 182.94342,212.74055 182.57579,212.39454 C 182.21175,212.04493 182.02974,211.57817 182.02974,210.99427 C 182.02974,210.31307 182.25680,209.79946 182.71095,209.45345 C 183.16869,209.10743 183.84989,208.93443 184.75457,208.93442 L 186.14944,208.93442 L 186.14944,208.83711 C 186.14943,208.37937 185.99804,208.02615 185.69529,207.77746 C 185.39613,207.52517 184.97443,207.39901 184.43018,207.39900 C 184.08418,207.39901 183.74718,207.44045 183.41920,207.52335 C 183.09119,207.60626 182.77582,207.73061 182.47306,207.89639 L 182.47306,206.97730 C 182.83709,206.83675 183.19031,206.73221 183.53274,206.66372 C 183.87513,206.59164 184.20851,206.55561 184.53292,206.55559 C 185.40875,206.55561 186.06293,206.78268 186.49545,207.23681 C 186.92795,207.69096 187.14420,208.37937 187.14420,209.30207 M 193.05883,206.87998 L 193.05883,207.82071 C 192.77770,207.67654 192.48576,207.56841 192.18301,207.49632 C 191.88024,207.42424 191.56667,207.38820 191.24228,207.38820 C 190.74850,207.38820 190.37725,207.46389 190.12857,207.61527 C 189.88347,207.76665 189.76092,207.99372 189.76094,208.29647 C 189.76092,208.52715 189.84923,208.70917 190.02583,208.84252 C 190.20245,208.97228 190.55746,209.09663 191.09090,209.21558 L 191.43150,209.29126 C 192.13794,209.44264 192.63895,209.65709 192.93450,209.93462 C 193.23365,210.20855 193.38322,210.59240 193.38323,211.08619 C 193.38322,211.64845 193.15975,212.09359 192.71283,212.42158 C 192.26951,212.74956 191.65857,212.91355 190.88006,212.91355 C 190.55567,212.91355 190.21687,212.88111 189.86364,212.81623 C 189.51402,212.75497 189.14458,212.66126 188.75533,212.53510 L 188.75533,211.50789 C 189.12296,211.69892 189.48519,211.84309 189.84202,211.94041 C 190.19883,212.03411 190.55206,212.08097 190.90168,212.08097 C 191.37023,212.08097 191.73066,212.00166 191.98296,211.84308 C 192.23526,211.68089 192.36141,211.45382 192.36142,211.16188 C 192.36141,210.89155 192.26951,210.68431 192.08568,210.54015 C 191.90547,210.39597 191.50719,210.25721 190.89087,210.12385 L 190.54486,210.04275 C 189.92851,209.91299 189.48340,209.71476 189.20946,209.44804 C 188.93554,209.17772 188.79857,208.80828 188.79857,208.33971 C 188.79857,207.77025 189.00042,207.33054 189.40410,207.02055 C 189.80777,206.71059 190.38086,206.55561 191.12333,206.55559 C 191.49097,206.55561 191.83699,206.58264 192.16137,206.63671 C 192.48576,206.69078 192.78491,206.77186 193.05883,206.87998 M 200.15207,209.48048 L 200.15207,209.96706 L 195.57824,209.96706 C 195.62149,210.65187 195.82693,211.17448 196.19457,211.53491 C 196.56581,211.89174 197.08121,212.07015 197.74081,212.07015 C 198.12285,212.07015 198.49229,212.02330 198.84912,211.92959 C 199.20955,211.83588 199.56637,211.69531 199.91959,211.50789 L 199.91959,212.44860 C 199.56276,212.59999 199.19693,212.71533 198.82209,212.79462 C 198.44724,212.87391 198.06698,212.91355 197.68134,212.91355 C 196.71539,212.91355 195.94948,212.63243 195.38361,212.07015 C 194.82134,211.50789 194.54020,210.74738 194.54020,209.78865 C 194.54020,208.79747 194.80692,208.01173 195.34036,207.43144 C 195.87739,206.84755 196.60006,206.55561 197.50834,206.55559 C 198.32290,206.55561 198.96625,206.81871 199.43843,207.34494 C 199.91418,207.86757 200.15207,208.57942 200.15207,209.48048 M 199.15729,209.18852 C 199.15008,208.64429 198.99689,208.20998 198.69774,207.88559 C 198.40219,207.56120 198.00932,207.39901 197.51914,207.39900 C 196.96408,207.39901 196.51896,207.55579 196.18376,207.86936 C 195.85217,208.18294 195.66114,208.62446 195.61069,209.19395 L 199.15729,209.18852 M 204.73132,206.70158 L 205.72609,206.70158 L 206.96958,211.42679 L 208.20764,206.70158 L 209.38084,206.70158 L 210.62432,211.42679 L 211.86238,206.70158 L 212.85716,206.70158 L 211.27309,212.75677 L 210.09990,212.75677 L 208.79695,207.79368 L 207.48859,212.75677 L 206.31540,212.75677 L 204.73132,206.70158 M 217.12284,209.71296 C 216.31909,209.71296 215.76223,209.80487 215.45226,209.98869 C 215.14228,210.17251 214.98730,210.48608 214.98730,210.92940 C 214.98730,211.28261 215.10263,211.56376 215.33332,211.77279 C 215.56759,211.97825 215.88477,212.08097 216.28484,212.08097 C 216.83629,212.08097 217.27782,211.88634 217.60942,211.49708 C 217.94461,211.10422 218.11221,210.58339 218.11221,209.93462 L 218.11221,209.71296 L 217.12284,209.71296 M 219.10699,209.30207 L 219.10699,212.75677 L 218.11221,212.75677 L 218.11221,211.83767 C 217.88514,212.20531 217.60221,212.47744 217.26340,212.65405 C 216.92460,212.82706 216.51011,212.91355 216.01993,212.91355 C 215.39999,212.91355 214.90620,212.74055 214.53857,212.39454 C 214.17454,212.04493 213.99252,211.57817 213.99252,210.99427 C 213.99252,210.31307 214.21959,209.79946 214.67373,209.45345 C 215.13147,209.10743 215.81269,208.93443 216.71736,208.93442 L 218.11221,208.93442 L 218.11221,208.83711 C 218.11221,208.37937 217.96083,208.02615 217.65808,207.77746 C 217.35892,207.52517 216.93720,207.39901 216.39297,207.39900 C 216.04696,207.39901 215.70996,207.44045 215.38196,207.52335 C 215.05398,207.60626 214.73860,207.73061 214.43584,207.89639 L 214.43584,206.97730 C 214.79988,206.83675 215.15309,206.73221 215.49551,206.66372 C 215.83792,206.59164 216.17131,206.55561 216.49569,206.55559 C 217.37154,206.55561 218.02571,206.78268 218.45821,207.23681 C 218.89072,207.69096 219.10699,208.37937 219.10699,209.30207 M 221.16144,206.70158 L 222.15622,206.70158 L 222.15622,212.75677 L 221.16144,212.75677 L 221.16144,206.70158 M 221.16144,204.34437 L 222.15622,204.34437 L 222.15622,205.60408 L 221.16144,205.60408 L 221.16144,204.34437 M 225.21627,204.98234 L 225.21627,206.70158 L 227.26529,206.70158 L 227.26529,207.47469 L 225.21627,207.47469 L 225.21627,210.76180 C 225.21627,211.25559 225.28294,211.57277 225.41629,211.71333 C 225.55326,211.85389 225.82898,211.92418 226.24347,211.92418 L 227.26529,211.92418 L 227.26529,212.75677 L 226.24347,212.75677 C 225.47576,212.75677 224.94593,212.61439 224.65399,212.32967 C 224.36203,212.04132 224.21607,211.51870 224.21607,210.76180 L 224.21607,207.47469 L 223.48621,207.47469 L 223.48621,206.70158 L 224.21607,206.70158 L 224.21607,204.98234 L 225.21627,204.98234 M 228.71961,211.38354 L 229.86038,211.38354 L 229.86038,212.75677 L 228.71961,212.75677 L 228.71961,211.38354"
     id="text3642" />
  <path
     style="fill:#9ca3c2;fill-rule:evenodd;stroke:#000000;stroke-width:0.084825546;stroke-linecap:round;stroke-linejoin:round"
     d="M 45.471699,84.444887 C 48.930240,84.455102 51.728875,87.270312 51.718671,90.728854 C 51.708467,94.187374 48.893257,96.986020 45.434726,96.975816 C 41.976195,96.965612 39.177549,94.150402 39.187764,90.691882 C 39.197958,87.233340 42.013179,84.434694 45.471699,84.444887 z M 45.464457,86.905085 C 48.539737,86.914157 51.030581,88.626292 51.024384,90.726796 C 51.018177,92.827321 48.517271,94.524700 45.441990,94.515639 C 42.366709,94.506546 39.875866,92.794422 39.882062,90.693918 C 39.888270,88.593425 42.389165,86.896014 45.464457,86.905085 z "
     id="path3646" />
  <path
     style="fill:#9ca3c2;fill-rule:evenodd;stroke:#000000;stroke-width:0.084825546;stroke-linecap:round;stroke-linejoin:round"
     d="M 45.428475,86.200747 C 42.828326,86.180981 39.189104,84.316023 39.199842,79.899039 C 39.208434,78.835420 39.946424,77.245887 40.553818,77.058793 C 38.928761,81.157018 42.312628,84.361794 45.483917,84.380166 C 48.680309,84.373589 52.065156,81.094704 50.414878,77.077524 C 50.996984,77.358275 51.768124,78.740010 51.770171,79.949581 C 51.777762,84.341615 48.053661,86.220578 45.428475,86.200747 z "
     id="path3648"
     sodipodi:nodetypes="csczcsz" />
  <path
     style="fill:#9ca3c2;fill-rule:evenodd;stroke:#000000;stroke-width:0.084825546;stroke-linecap:round;stroke-linejoin:round"
     d="M 42.565413,82.213308 C 42.540257,80.846983 43.938894,79.762552 45.468072,79.750823 C 47.005767,79.747610 48.427469,80.784494 48.367965,82.232856 C 47.489611,80.793217 45.752243,80.749221 45.470130,80.751562 C 45.179458,80.753893 43.416640,80.815379 42.565413,82.213308 z "
     id="path3650"
     sodipodi:nodetypes="czczc" />
  <path
     style="font-size:56.000000px;stroke-width:3.0000000pt;font-family:Verdana"
     d="M 47.766637,50.117711 L 47.771146,50.941635 L 44.983760,50.956925 C 44.758800,50.958145 44.548498,50.972422 44.352876,50.999800 C 44.154357,51.027189 43.999759,51.076250 43.889114,51.146971 C 43.766795,51.220699 43.676808,51.326389 43.619112,51.464042 C 43.558529,51.601673 43.528810,51.780088 43.530008,51.999222 C 43.531238,52.224204 43.588042,52.459096 43.700419,52.703931 C 43.812784,52.948744 43.955795,53.183146 44.129397,53.407203 L 47.784552,53.387154 L 47.789082,54.211122 L 42.893635,54.237945 L 42.889126,53.413998 L 43.432551,53.411014 C 43.217860,53.155071 43.049867,52.890100 42.928571,52.616101 C 42.807264,52.342124 42.745821,52.060491 42.744231,51.771223 C 42.741324,51.242381 42.898372,50.838330 43.215333,50.558995 C 43.532284,50.279682 43.990230,50.138391 44.589184,50.135124 L 47.766637,50.117711 z M 45.433648,55.473108 L 45.453425,59.080051 C 45.754355,59.078407 46.017061,59.031666 46.241553,58.939850 C 46.463116,58.848067 46.645049,58.722894 46.787341,58.564332 C 46.926758,58.411629 47.030956,58.231362 47.099946,58.023521 C 47.168903,57.812773 47.202706,57.581769 47.201323,57.330508 C 47.199494,56.997419 47.131942,56.663218 46.998623,56.327929 C 46.862342,55.989753 46.729557,55.749449 46.600213,55.606982 L 46.599974,55.563127 L 47.498410,55.558215 C 47.616809,55.835155 47.716248,56.118019 47.796705,56.406840 C 47.877173,56.695671 47.918284,56.999314 47.920037,57.317799 C 47.924459,58.130050 47.708842,58.765279 47.273058,59.223476 C 46.834365,59.681684 46.210353,59.913004 45.401021,59.917448 C 44.600466,59.921836 43.963789,59.707636 43.490988,59.274878 C 43.018187,58.839191 42.779810,58.264882 42.775922,57.551984 C 42.772285,56.891652 42.962352,56.382206 43.346060,56.023644 C 43.729790,55.662130 44.276612,55.479457 44.986613,55.475558 L 45.433648,55.473108 z M 44.806946,56.278596 C 44.374548,56.283878 44.040598,56.395285 43.805128,56.612796 C 43.569616,56.827378 43.453057,57.153814 43.455475,57.592071 C 43.457881,58.033279 43.589839,58.384621 43.851314,58.646151 C 44.112778,58.904773 44.436437,59.050550 44.822323,59.083504 L 44.806946,56.278596 z M 45.318494,60.855818 C 45.715869,60.853640 46.079942,60.908625 46.410734,61.020784 C 46.738596,61.132921 47.017060,61.292082 47.246082,61.498301 C 47.463354,61.689947 47.632600,61.916922 47.753841,62.179225 C 47.872109,62.438621 47.932082,62.714417 47.933672,63.006602 C 47.935066,63.260781 47.908592,63.491753 47.854195,63.699507 C 47.799787,63.904331 47.714756,64.113718 47.599058,64.327657 L 49.650152,64.316418 L 49.654661,65.140343 L 42.953586,65.177065 L 42.949055,64.353119 L 43.461813,64.350331 C 43.276558,64.132188 43.121819,63.887603 42.997593,63.616555 C 42.870471,63.342589 42.806044,63.050762 42.804346,62.741054 C 42.801122,62.150845 43.022140,61.690895 43.467367,61.361214 C 43.909664,61.028625 44.526685,60.860153 45.318494,60.855818 z M 45.345088,61.705945 C 44.754901,61.709169 44.314248,61.812376 44.023162,62.015610 C 43.732098,62.218790 43.587715,62.529304 43.590002,62.947120 C 43.591320,63.183787 43.643746,63.421620 43.747312,63.660639 C 43.850878,63.899659 43.986549,64.128300 44.154292,64.346530 L 46.928500,64.331327 C 47.032415,64.097012 47.102908,63.896468 47.139989,63.729716 C 47.177016,63.560035 47.194963,63.368551 47.193809,63.155265 C 47.191272,62.696557 47.034463,62.339486 46.723360,62.084066 C 46.412247,61.828657 45.952809,61.702602 45.345088,61.705945 z M 45.410463,66.439008 C 46.208109,66.434641 46.838863,66.635686 47.302755,67.042219 C 47.766648,67.448742 48.000462,67.995303 48.004230,68.681912 C 48.008020,69.374381 47.780239,69.926408 47.320811,70.337984 C 46.861395,70.746620 46.232885,70.953154 45.435227,70.957521 C 44.637591,70.961899 44.006816,70.762280 43.542978,70.358687 C 43.076156,69.952175 42.840861,69.402696 42.837049,68.710227 C 42.833281,68.023628 43.062576,67.474519 43.524911,67.062933 C 43.984306,66.651357 44.612816,66.443375 45.410463,66.439008 z M 45.415124,67.289232 C 44.781103,67.292696 44.311373,67.419480 44.005945,67.669510 C 43.697609,67.919539 43.544644,68.265153 43.547051,68.706350 C 43.549501,69.153396 43.706267,69.500229 44.017336,69.746882 C 44.325454,69.990639 44.796535,70.110770 45.430577,70.107285 C 46.044156,70.103931 46.509487,69.977179 46.826611,69.727106 C 47.140795,69.477022 47.296657,69.129916 47.294228,68.685822 C 47.291822,68.247554 47.133640,67.905088 46.819663,67.658456 C 46.502735,67.408895 46.034540,67.285835 45.415124,67.289232 z "
     id="path3652" />
  <path
     style="font-size:56.000000px;fill:#929292;stroke-width:3.0000000pt;font-family:Verdana"
     d="M 47.994864,2.9046261 L 47.990508,3.7285728 L 47.477740,3.7258502 C 47.681029,3.9636283 47.838948,4.2113710 47.951543,4.4690673 C 48.064137,4.7267746 48.119645,5.0060882 48.118044,5.3070625 C 48.114973,5.8913906 47.887552,6.3547823 47.435780,6.6971832 C 46.984008,7.0366546 46.359321,7.2043211 45.561674,7.2001066 C 45.146798,7.1979177 44.777488,7.1375311 44.453796,7.0189470 C 44.130105,6.8974661 43.854821,6.7352883 43.628031,6.5325006 C 43.406980,6.3326315 43.238747,6.1009193 43.123267,5.8373531 C 43.007776,5.5708356 42.950809,5.2958999 42.952290,5.0124808 C 42.953662,4.7553725 42.982587,4.5276243 43.039183,4.3292145 C 43.092807,4.1308266 43.177174,3.9223542 43.292295,3.7038301 L 41.171089,3.6926349 L 41.175423,2.8687100 L 47.994864,2.9046261 z M 46.785283,3.7222238 L 43.975986,3.7074348 C 43.875480,3.9289537 43.805760,4.1272545 43.766860,4.3023809 C 43.727949,4.4774855 43.707955,4.6687622 43.706855,4.8762000 C 43.704415,5.3378492 43.863239,5.6980775 44.183271,5.9568956 C 44.503293,6.2157027 44.958429,6.3466691 45.548606,6.3497619 C 46.130048,6.3528439 46.573238,6.2558225 46.878155,6.0587304 C 47.180120,5.8616493 47.332279,5.5439693 47.334598,5.1057014 C 47.335840,4.8719636 47.285930,4.6350350 47.184944,4.3949046 C 47.081030,4.1547634 46.947809,3.9305219 46.785283,3.7222238 z M 45.605093,8.1119595 L 45.586068,11.718903 C 45.887021,11.720482 46.150217,11.676572 46.375656,11.587185 C 46.598210,11.497787 46.781471,11.374564 46.925473,11.217548 C 47.066524,11.066358 47.172649,10.887191 47.243861,10.680135 C 47.315094,10.470149 47.351369,10.239493 47.352676,9.9882218 C 47.354451,9.6551321 47.290482,9.3202346 47.160779,8.9835729 C 47.028146,8.6439055 46.897921,8.4021851 46.770134,8.2583356 L 46.770352,8.2145132 L 47.668799,8.2192504 C 47.784225,8.4974205 47.880604,8.7813624 47.957968,9.0710217 C 48.035333,9.3607137 48.073176,9.6647700 48.071488,9.9832558 C 48.067208,10.795495 47.844742,11.428383 47.404078,11.881876 C 46.960485,12.335336 46.334012,12.559947 45.524691,12.555689 C 44.724114,12.551464 44.089789,12.330435 43.621682,11.892614 C 43.153586,11.451874 42.921394,10.875038 42.925162,10.162118 C 42.928636,9.5017862 43.124149,8.9944414 43.511701,8.6400177 C 43.899286,8.2826644 44.448046,8.1058610 45.158037,8.1096072 L 45.605093,8.1119595 z M 44.969755,8.9106626 C 44.537303,8.9113051 44.202198,9.0191187 43.964388,9.2340708 C 43.726599,9.4461152 43.606534,9.7712550 43.604236,10.209545 C 43.601916,10.650720 43.730062,11.003478 43.988738,11.267828 C 44.247393,11.529205 44.569473,11.678478 44.954966,11.715571 L 44.969755,8.9106626 z M 47.937200,13.843790 L 47.932866,14.667726 L 47.420076,14.665036 C 47.623376,14.902759 47.781295,15.150469 47.893890,15.408188 C 48.006484,15.665928 48.061992,15.945274 48.060402,16.246194 C 48.057320,16.830554 47.829899,17.293946 47.378116,17.636347 C 46.926377,17.975808 46.301689,18.143452 45.504021,18.139249 C 45.089124,18.137071 44.719824,18.076684 44.396132,17.958111 C 44.072452,17.836597 43.797179,17.674441 43.570356,17.471654 C 43.349327,17.271795 43.181105,17.040083 43.065614,16.776484 C 42.950134,16.509999 42.893145,16.235042 42.894659,15.951634 C 42.895998,15.694504 42.924944,15.466755 42.981530,15.268368 C 43.035176,15.069958 43.119521,14.861496 43.234642,14.642961 L 41.113425,14.631788 L 41.117781,13.807830 L 47.937200,13.843790 z M 46.727619,14.661377 L 43.918344,14.646555 C 43.817826,14.868118 43.748118,15.066418 43.709207,15.241523 C 43.670307,15.416638 43.650302,15.607904 43.649202,15.815353 C 43.646795,16.276991 43.805575,16.637209 44.125618,16.896027 C 44.445661,17.154856 44.900765,17.285811 45.490953,17.288915 C 46.072417,17.291975 46.515596,17.194986 46.820491,16.997883 C 47.122489,16.800802 47.274648,16.483122 47.276945,16.044854 C 47.278176,15.811106 47.228309,15.574177 47.127313,15.334058 C 47.023366,15.093905 46.890156,14.869675 46.727619,14.661377 z M 47.907742,19.436073 L 47.903386,20.260019 L 47.390607,20.257308 C 47.593896,20.495042 47.751826,20.742785 47.864399,21.000503 C 47.977026,21.258210 48.032512,21.537535 48.030944,21.838487 C 48.027851,22.422848 47.800430,22.886218 47.348647,23.228619 C 46.896897,23.568090 46.272199,23.735735 45.474530,23.731531 C 45.059676,23.729342 44.690366,23.668945 44.366674,23.550372 C 44.042972,23.428880 43.767720,23.266724 43.540876,23.063914 C 43.319858,22.864089 43.151647,22.632366 43.036134,22.368778 C 42.920686,22.102304 42.863665,21.827325 42.865168,21.543916 C 42.866518,21.286808 42.895475,21.059049 42.952061,20.860661 C 43.005685,20.662273 43.090063,20.453801 43.205162,20.235244 L 41.083967,20.224081 L 41.088301,19.400146 L 47.907742,19.436073 z M 46.698150,20.253670 L 43.888864,20.238859 C 43.788357,20.460389 43.718638,20.658701 43.679738,20.833816 C 43.640827,21.008910 43.620822,21.200198 43.619733,21.407646 C 43.617293,21.869296 43.776095,22.229524 44.096149,22.488331 C 44.416170,22.747138 44.871307,22.878105 45.461494,22.881208 C 46.042926,22.884269 46.486127,22.787258 46.791022,22.590166 C 47.093009,22.393085 47.245168,22.075383 47.247476,21.637137 C 47.248707,21.403388 47.198819,21.166449 47.097833,20.926340 C 46.993886,20.686188 46.860676,20.461968 46.698150,20.253670 z M 45.517960,24.643384 L 45.498957,28.250317 C 45.799888,28.251918 46.063095,28.207997 46.288556,28.118621 C 46.511077,28.029212 46.694349,27.905988 46.838340,27.748983 C 46.979380,27.597783 47.085516,27.418638 47.156739,27.211581 C 47.227961,27.001584 47.264236,26.770928 47.265576,26.519668 C 47.267329,26.186568 47.203360,25.851681 47.073646,25.514987 C 46.941013,25.175352 46.810809,24.933632 46.683012,24.789771 L 46.683241,24.745960 L 47.581688,24.750697 C 47.697114,25.028867 47.793482,25.312809 47.870835,25.602446 C 47.948200,25.892149 47.986043,26.196205 47.984377,26.514680 C 47.980086,27.326931 47.757631,27.959819 47.316956,28.413290 C 46.873352,28.866771 46.246890,29.091383 45.437558,29.087125 C 44.636992,29.082888 44.002656,28.861860 43.534560,28.424049 C 43.066463,27.983309 42.834261,27.406463 42.838040,26.693553 C 42.841503,26.033222 43.037038,25.525866 43.424579,25.171421 C 43.812153,24.814089 44.360935,24.637286 45.070937,24.641032 L 45.517960,24.643384 z M 44.882633,25.442076 C 44.450192,25.442697 44.115065,25.550522 43.877276,25.765485 C 43.639466,25.977518 43.519422,26.302691 43.517114,26.740969 C 43.514794,27.182156 43.642961,27.534902 43.901605,27.799253 C 44.160282,28.060652 44.482340,28.209903 44.867844,28.247006 L 44.882633,25.442076 z M 45.366891,30.024657 C 45.775929,30.026802 46.143770,30.087200 46.470380,30.205795 C 46.797022,30.321460 47.070858,30.477779 47.291876,30.674675 C 47.521595,30.883344 47.694250,31.112181 47.809817,31.361121 C 47.922466,31.610095 47.977985,31.883582 47.976427,32.181594 C 47.974957,32.459165 47.940076,32.701495 47.871783,32.908585 C 47.806430,33.115696 47.717696,33.319758 47.605614,33.520770 L 47.833231,33.574579 L 47.829147,34.345904 L 41.009728,34.309977 L 41.014062,33.486041 L 43.450814,33.498870 C 43.262129,33.267060 43.108554,33.020820 42.990144,32.760161 C 42.868805,32.499470 42.808963,32.206968 42.810673,31.882656 C 42.813733,31.304122 43.038203,30.849497 43.484062,30.518748 C 43.929942,30.185103 44.557537,30.020399 45.366891,30.024657 z M 45.384315,30.875012 C 44.799965,30.871941 44.356808,30.966012 44.054831,31.157256 C 43.749958,31.348489 43.596373,31.658872 43.594119,32.088362 C 43.592855,32.327970 43.644181,32.570747 43.748053,32.816714 C 43.849027,33.062693 43.980767,33.291290 44.143282,33.502529 L 46.948190,33.517307 C 47.054610,33.284125 47.128707,33.084354 47.170493,32.918037 C 47.212290,32.748792 47.233744,32.557526 47.234876,32.344229 C 47.237283,31.888439 47.090145,31.531195 46.793472,31.272507 C 46.493913,31.010890 46.024184,30.878399 45.384315,30.875012 z M 47.820773,35.932452 L 47.816449,36.756388 L 45.029075,36.741697 C 44.818696,36.740575 44.615582,36.749745 44.419721,36.769162 C 44.223859,36.785650 44.067333,36.824278 43.950154,36.885024 C 43.824143,36.951553 43.728701,37.047485 43.663740,37.172788 C 43.598801,37.298070 43.565706,37.479055 43.564464,37.715733 C 43.563245,37.946553 43.620473,38.177677 43.736117,38.409106 C 43.848875,38.640513 43.993726,38.872127 44.170736,39.103872 C 44.238017,39.095476 44.316916,39.088571 44.407513,39.083224 C 44.495201,39.077834 44.582868,39.075383 44.670534,39.075819 L 47.804143,39.092350 L 47.799787,39.916297 L 45.012402,39.901606 C 44.796208,39.900484 44.591634,39.909610 44.398670,39.929049 C 44.202830,39.945570 44.046304,39.984165 43.929092,40.044900 C 43.803125,40.111451 43.709120,40.207361 43.647089,40.332675 C 43.582150,40.458001 43.549066,40.638975 43.547813,40.875631 C 43.546637,41.100592 43.600936,41.327349 43.710764,41.555827 C 43.820603,41.781386 43.961131,42.007108 44.132326,42.232983 L 47.787481,42.252248 L 47.783136,43.076206 L 42.887711,43.050396 L 42.892034,42.226460 L 43.435491,42.229313 C 43.223556,41.971083 43.058372,41.714530 42.939908,41.459720 C 42.821454,41.201958 42.763017,40.928482 42.764542,40.639204 C 42.766273,40.306136 42.837888,40.024546 42.979363,39.794457 C 43.120839,39.561470 43.316047,39.388642 43.565009,39.276004 C 43.286273,38.941444 43.086251,38.636516 42.964988,38.361221 C 42.840828,38.085904 42.779538,37.791933 42.781171,37.479306 C 42.784013,36.941686 42.949731,36.546674 43.278301,36.294183 C 43.603963,36.038785 44.058991,35.912621 44.643330,35.915703 L 47.820773,35.932452 z M 45.414307,44.312806 L 45.395271,47.919739 C 45.696234,47.921351 45.959419,47.877419 46.184891,47.788043 C 46.407412,47.698634 46.590684,47.575411 46.734697,47.418416 C 46.875737,47.267205 46.981852,47.088060 47.053074,46.880993 C 47.124307,46.670985 47.160594,46.440351 47.161912,46.189080 C 47.163665,45.856001 47.099695,45.521114 46.970003,45.184420 C 46.837360,44.844785 46.707145,44.603065 46.579358,44.459193 L 46.579576,44.415371 L 47.478023,44.420108 C 47.593427,44.698289 47.689817,44.982220 47.767171,45.271890 C 47.844535,45.561550 47.882390,45.865639 47.880702,46.184103 C 47.876422,46.996375 47.653945,47.629241 47.213281,48.082734 C 46.769688,48.536193 46.143236,48.760816 45.333893,48.756569 C 44.533339,48.752333 43.898992,48.531304 43.430884,48.093471 C 42.962788,47.652731 42.730608,47.075885 42.734365,46.362986 C 42.737839,45.702677 42.933363,45.195288 43.320925,44.840865 C 43.708488,44.483500 44.257271,44.306730 44.967272,44.310443 L 45.414307,44.312806 z M 44.778969,45.111509 C 44.346516,45.112152 44.011412,45.219955 43.773601,45.434929 C 43.535801,45.646962 43.415758,45.972135 43.413449,46.410392 C 43.411140,46.851600 43.539275,47.204346 43.797930,47.468653 C 44.056617,47.730085 44.378686,47.879325 44.764180,47.916417 L 44.778969,45.111509 z "
     id="path3654" />
  <g
     id="g3656"
     style="stroke:#000000;stroke-opacity:0.11999995"
     transform="matrix(0.269093,3.517881e-4,-3.517881e-4,0.269093,59.20390,200.0407)">
    <path
       style="fill:none;fill-opacity:0.75000000;fill-rule:evenodd;stroke:#000000;stroke-width:0.31078178;stroke-opacity:0.11999995"
       d="M -51.676826,-378.28741 L -51.517365,-475.31955"
       id="path3658"
       sodipodi:nodetypes="cc" />
    <path
       style="fill:none;fill-rule:evenodd;stroke:#000000;stroke-width:0.31078178;stroke-linejoin:round;stroke-opacity:0.11999995"
       d="M -51.526778,-469.59328 C -38.674247,-469.57216 -28.260345,-459.12397 -28.281467,-446.27144 C -28.302588,-433.41891 -38.750775,-423.00501 -51.603306,-423.02613 C -64.455839,-423.04725 -74.869737,-433.49544 -74.848615,-446.34797 C -74.827494,-459.20050 -64.379311,-469.61440 -51.526778,-469.59328 z "
       id="path3660" />
    <path
       style="fill:none;fill-rule:evenodd;stroke:#000000;stroke-width:0.31078178;stroke-linejoin:round;stroke-opacity:0.11999995"
       d="M -51.608130,-420.09190 C -43.952780,-420.07932 -37.749954,-413.85607 -37.762534,-406.20073 C -37.775115,-398.54537 -43.998362,-392.34255 -51.653713,-392.35513 C -59.309066,-392.36771 -65.511889,-398.59096 -65.499309,-406.24631 C -65.486728,-413.90166 -59.263484,-420.10448 -51.608130,-420.09190 z "
       id="path3662" />
    <path
       style="fill:none;fill-opacity:0.75000000;fill-rule:evenodd;stroke:#000000;stroke-width:0.31078178;stroke-linejoin:round;stroke-opacity:0.11999995"
       d="M -77.843105,-406.26659 L -25.418735,-406.18044"
       id="path3664"
       sodipodi:nodetypes="cc" />
    <path
       style="fill:none;fill-rule:evenodd;stroke:#000000;stroke-width:0.31078178;stroke-linejoin:round;stroke-opacity:0.11999995"
       d="M -51.542251,-460.17809 C -43.886901,-460.16551 -37.684072,-453.94227 -37.696653,-446.28692 C -37.709234,-438.63157 -43.932483,-432.42874 -51.587833,-432.44132 C -59.243186,-432.45390 -65.446010,-438.67715 -65.433430,-446.33250 C -65.420849,-453.98785 -59.197604,-460.19067 -51.542251,-460.17809 z "
       id="path3666" />
    <path
       style="fill:none;fill-opacity:0.75000000;fill-rule:evenodd;stroke:#000000;stroke-width:0.31078178;stroke-linejoin:round;stroke-opacity:0.11999995"
       d="M -77.777228,-446.35279 L -25.352858,-446.26663"
       id="path3668"
       sodipodi:nodetypes="cc" />
    <path
       style="fill:none;fill-rule:evenodd;stroke:#000000;stroke-width:0.28026143;stroke-linejoin:round;stroke-opacity:0.11999995"
       d="M -51.596353,-427.22050 C -40.006003,-427.20146 -30.614802,-417.77933 -30.633850,-406.18899 C -30.652897,-394.59864 -40.075015,-385.20744 -51.665366,-385.22649 C -63.255714,-385.24554 -72.646912,-394.66765 -72.627865,-406.25800 C -72.608817,-417.84835 -63.186702,-427.23955 -51.596353,-427.22050 z "
       id="path3670" />
    <path
       style="fill:none;fill-rule:evenodd;stroke:#000000;stroke-width:0.28026143;stroke-linejoin:round;stroke-opacity:0.11999995"
       d="M -51.530536,-467.30671 C -39.940185,-467.28767 -30.548983,-457.86554 -30.568031,-446.27520 C -30.587078,-434.68485 -40.009197,-425.29365 -51.599549,-425.31270 C -63.189897,-425.33174 -72.581095,-434.75386 -72.562047,-446.34421 C -72.543000,-457.93456 -63.120884,-467.32576 -51.530536,-467.30671 z "
       id="path3672" />
  </g>
  <path
     style="font-size:6.7119541px;font-style:normal;font-variant:normal;font-weight:normal;font-stretch:normal;text-align:start;line-height:125.00000%;writing-mode:lr-tb;text-anchor:start;fill:#000000;fill-opacity:0.55191255;stroke:none;stroke-width:1.0000000px;stroke-linecap:butt;stroke-linejoin:miter;stroke-opacity:1.0000000;font-family:Bitstream Vera Sans"
     d="M 46.755465,146.92225 L 49.358424,146.92716 L 49.357945,147.66090 L 42.583241,147.64813 L 42.583731,146.91439 L 43.328690,146.91579 C 43.036635,146.76189 42.820583,146.56845 42.680545,146.33550 C 42.537534,146.09990 42.466148,145.81949 42.466366,145.49426 C 42.466736,144.95486 42.703643,144.51770 43.177130,144.18278 C 43.650628,143.84523 44.273007,143.67717 45.044245,143.67863 C 45.815493,143.68007 46.437654,143.85047 46.910673,144.18982 C 47.383714,144.52652 47.620054,144.96457 47.619695,145.50398 C 47.619477,145.82920 47.549180,146.10936 47.408794,146.34441 C 47.265489,146.57683 47.047705,146.76944 46.755465,146.92225 M 45.043733,144.43617 C 44.450693,144.43505 43.986125,144.54524 43.649997,144.76671 C 43.310983,144.98553 43.141345,145.28797 43.141084,145.67401 C 43.140833,146.06006 43.310068,146.36445 43.648799,146.58720 C 43.984611,146.80730 44.449037,146.91790 45.042078,146.91901 C 45.635118,146.92015 46.101156,146.81129 46.440192,146.59246 C 46.776298,146.37099 46.944476,146.06723 46.944727,145.68117 C 46.944999,145.29513 46.777202,144.99207 46.441401,144.77197 C 46.102659,144.54923 45.636773,144.43729 45.043733,144.43617 M 43.153139,140.74402 C 43.152889,141.13536 43.322134,141.44504 43.660843,141.67307 C 43.996656,141.90111 44.458163,142.01567 45.045356,142.01677 C 45.632548,142.01788 46.095678,141.90639 46.434703,141.68227 C 46.770809,141.45551 46.938999,141.14514 46.939260,140.75116 C 46.939532,140.36246 46.770308,140.05411 46.431567,139.82607 C 46.092836,139.59804 45.631328,139.48347 45.047065,139.48237 C 44.465699,139.48128 44.005488,139.59410 43.666452,139.82087 C 43.324508,140.04762 43.153400,140.35534 43.153139,140.74402 M 42.469546,140.74273 C 42.469971,140.10814 42.698176,139.61014 43.154141,139.24876 C 43.610116,138.88738 44.241273,138.70745 45.047555,138.70895 C 45.850974,138.71048 46.481847,138.89279 46.940273,139.25589 C 47.395769,139.61901 47.623321,140.11786 47.622897,140.75244 C 47.622439,141.38969 47.394266,141.88901 46.938258,142.25039 C 46.479353,142.60913 45.848251,142.78774 45.044844,142.78622 C 44.238550,142.78471 43.607633,142.60372 43.152137,142.24325 C 42.696663,141.88015 42.469121,141.37997 42.469546,140.74273 M 42.589742,137.92298 L 42.590221,137.19320 L 46.420785,136.28819 L 42.591441,135.37270 L 42.592029,134.51203 L 46.422582,133.60702 L 42.593238,132.69155 L 42.593728,131.96176 L 47.500893,133.13311 L 47.500316,133.99378 L 43.476907,134.94205 L 47.499031,135.90947 L 47.498453,136.77013 L 42.589742,137.92298 M 44.849418,127.05583 L 45.243798,127.05657 L 45.241555,130.41198 C 45.796653,130.38131 46.220339,130.23139 46.512656,129.96224 C 46.802054,129.69044 46.946905,129.31260 46.947232,128.82871 C 46.947417,128.54844 46.909649,128.27734 46.833842,128.01543 C 46.758068,127.75087 46.644319,127.48888 46.492574,127.22947 L 47.255067,127.23090 C 47.377582,127.49292 47.470901,127.76147 47.534979,128.03658 C 47.599058,128.31170 47.631010,128.59071 47.630825,128.87364 C 47.630345,129.58227 47.402096,130.14372 46.946077,130.55799 C 46.490069,130.96962 45.873517,131.17469 45.096420,131.17323 C 44.293056,131.17171 43.656324,130.97485 43.186235,130.58262 C 42.713249,130.18776 42.476962,129.65717 42.477409,128.99084 C 42.477801,128.39327 42.691381,127.92168 43.118149,127.57610 C 43.541976,127.22789 44.119051,127.05445 44.849418,127.05583 M 44.612293,127.78516 C 44.171139,127.78962 43.819057,127.90133 43.555981,128.12030 C 43.292905,128.33664 43.161263,128.62460 43.161013,128.98419 C 43.160730,129.39140 43.287590,129.71819 43.541606,129.96457 C 43.795589,130.20831 44.153377,130.34912 44.614918,130.38701 L 44.612293,127.78516 M 43.353248,123.28114 C 43.300626,123.36300 43.262586,123.45283 43.239139,123.55061 C 43.212796,123.64576 43.199564,123.75151 43.199510,123.86784 C 43.199216,124.28033 43.347999,124.59791 43.645826,124.82057 C 43.940745,125.04060 44.365738,125.15114 44.920782,125.15218 L 47.506229,125.15705 L 47.505739,125.89080 L 42.597790,125.88156 L 42.598291,125.14779 L 43.360773,125.14923 C 43.062891,124.99532 42.842472,124.79526 42.699472,124.54909 C 42.553575,124.30291 42.480752,124.00399 42.480981,123.65231 C 42.481014,123.60207 42.485446,123.54655 42.494223,123.48576 C 42.500104,123.42495 42.510396,123.35755 42.525043,123.28354 L 43.353248,123.28114 M 44.854885,118.88542 L 45.249265,118.88617 L 45.247032,122.24158 C 45.802120,122.21090 46.225806,122.06098 46.518123,121.79183 C 46.807510,121.52004 46.952372,121.14219 46.952699,120.65831 C 46.952895,120.37804 46.915116,120.10694 46.839320,119.84502 C 46.763546,119.58047 46.649786,119.31848 46.498052,119.05908 L 47.260512,119.06050 C 47.383060,119.32250 47.476368,119.59107 47.540446,119.86618 C 47.604525,120.14130 47.636488,120.42031 47.636302,120.70323 C 47.635812,121.41186 47.407563,121.97330 46.951555,122.38759 C 46.495525,122.79920 45.878973,123.00428 45.101898,123.00282 C 44.298534,123.00131 43.661802,122.80445 43.191701,122.41222 C 42.718715,122.01736 42.482429,121.48677 42.482865,120.82044 C 42.483279,120.22287 42.696870,119.75128 43.123616,119.40570 C 43.547443,119.05748 44.124529,118.88406 44.854885,118.88542 M 44.617738,119.61476 C 44.176617,119.61922 43.824535,119.73093 43.561437,119.94989 C 43.298393,120.16622 43.166730,120.45420 43.166480,120.81379 C 43.166207,121.22099 43.293068,121.54779 43.547073,121.79416 C 43.801055,122.03791 44.158844,122.17872 44.620396,122.21660 L 44.617738,119.61476 M 43.350188,114.76168 L 40.694650,114.75668 L 40.695130,114.02689 L 47.513678,114.03975 L 47.513166,114.76953 L 46.776984,114.76815 C 47.069018,114.92206 47.286540,115.11681 47.429529,115.35241 C 47.569600,115.58535 47.639515,115.86578 47.639308,116.19364 C 47.638949,116.73040 47.402020,117.16757 46.928511,117.50512 C 46.455035,117.84003 45.832667,118.00676 45.061419,118.00531 C 44.290181,118.00385 43.668042,117.83477 43.194979,117.49808 C 42.721961,117.15875 42.485609,116.72070 42.485969,116.18393 C 42.486197,115.85605 42.557964,115.57592 42.701258,115.34349 C 42.841634,115.10843 43.057958,114.91450 43.350188,114.76168 M 45.061931,117.25173 C 45.654982,117.25285 46.120998,117.14399 46.460023,116.92516 C 46.796129,116.70370 46.964329,116.39993 46.964580,116.01390 C 46.964841,115.62786 46.797077,115.32345 46.461254,115.10072 C 46.122512,114.87797 45.656626,114.76604 45.063597,114.76491 C 44.470535,114.76379 44.005978,114.87398 43.669860,115.09546 C 43.330836,115.31692 43.161187,115.62069 43.160926,116.00672 C 43.160686,116.39276 43.329921,116.69716 43.668641,116.91990 C 44.004464,117.14000 44.468879,117.25062 45.061931,117.25173 M 45.068955,106.75712 C 44.475904,106.75599 44.011325,106.86617 43.675229,107.08766 C 43.336194,107.30649 43.166567,107.60892 43.166273,107.99496 C 43.166033,108.38102 43.335268,108.68540 43.673999,108.90815 C 44.009811,109.12823 44.474237,109.23887 45.067289,109.23998 C 45.660329,109.24109 46.126367,109.13224 46.465392,108.91341 C 46.801498,108.69193 46.969698,108.38818 46.969938,108.00213 C 46.970210,107.61607 46.802435,107.31301 46.466612,107.09291 C 46.127870,106.87018 45.661984,106.75823 45.068955,106.75712 M 43.353890,109.23673 C 43.061857,109.08284 42.845794,108.88941 42.705734,108.65644 C 42.562756,108.42085 42.491359,108.14044 42.491566,107.81520 C 42.491926,107.27580 42.728865,106.83864 43.202341,106.50371 C 43.675839,106.16617 44.298207,105.99811 45.069456,105.99957 C 45.840704,106.00103 46.462854,106.17142 46.935884,106.51076 C 47.408925,106.84746 47.645265,107.28552 47.644906,107.82491 C 47.644699,108.15016 47.574391,108.43031 47.434005,108.66536 C 47.290700,108.89778 47.072938,109.09040 46.780676,109.24321 L 47.516869,109.24458 L 47.516379,109.97834 L 40.697863,109.96550 L 40.698364,109.23174 L 43.353890,109.23673 M 47.976819,102.94709 C 48.560951,103.15444 48.942067,103.35611 49.120167,103.55211 C 49.298222,103.74811 49.387141,104.01005 49.386924,104.33793 L 49.386553,104.92096 L 48.711694,104.91969 L 48.711988,104.49135 C 48.712108,104.29039 48.659639,104.13428 48.554526,104.02304 C 48.449457,103.91177 48.201213,103.78835 47.809839,103.65278 L 47.441813,103.52118 L 42.611566,105.30879 L 42.612078,104.53537 L 46.451714,103.15443 L 42.613929,101.75901 L 42.614452,100.98560 L 47.976819,102.94709"
     id="text3674" />
</svg>
