<?xml version="1.0" encoding="UTF-8" standalone="no"?>
<!-- Created with Inkscape (http://www.inkscape.org/) -->
<svg
   xmlns:dc="http://purl.org/dc/elements/1.1/"
   xmlns:cc="http://web.resource.org/cc/"
   xmlns:rdf="http://www.w3.org/1999/02/22-rdf-syntax-ns#"
   xmlns:svg="http://www.w3.org/2000/svg"
   xmlns="http://www.w3.org/2000/svg"
   xmlns:xlink="http://www.w3.org/1999/xlink"
   xmlns:sodipodi="http://inkscape.sourceforge.net/DTD/sodipodi-0.dtd"
   xmlns:inkscape="http://www.inkscape.org/namespaces/inkscape"
   width="750.00000px"
   height="1000.0000px"
   id="svg2"
   sodipodi:version="0.32"
   inkscape:version="0.42"
   sodipodi:docbase="/home/koen/Desktop"
   sodipodi:docname="splash-pp.svg">
  <defs
     id="defs4">
    <linearGradient
       id="linearGradient2069">
      <stop
         style="stop-color:#535454;stop-opacity:0.78350514;"
         offset="0.0000000"
         id="stop2079" />
      <stop
         id="stop2083"
         offset="1.0000000"
         style="stop-color:#fffaff;stop-opacity:0.76288658;" />
      <stop
         style="stop-color:#000000;stop-opacity:0;"
         offset="1"
         id="stop2073" />
    </linearGradient>
    <linearGradient
       id="linearGradient2059">
      <stop
         style="stop-color:#ffff00;stop-opacity:1.0000000;"
         offset="0.0000000"
         id="stop2061" />
      <stop
         style="stop-color:#ebe941;stop-opacity:0.57559681;"
         offset="1.0000000"
         id="stop2063" />
    </linearGradient>
    <linearGradient
       id="linearGradient1308">
      <stop
         style="stop-color:#1d2b3b;stop-opacity:1.0000000;"
         offset="0.0000000"
         id="stop1310" />
      <stop
         style="stop-color:#0000ff;stop-opacity:0;"
         offset="1"
         id="stop1312" />
    </linearGradient>
    <linearGradient
       inkscape:collect="always"
       xlink:href="#linearGradient2059"
       id="linearGradient2065"
       x1="-410.46967"
       y1="576.14488"
       x2="282.72299"
       y2="576.14488"
       gradientUnits="userSpaceOnUse"
       gradientTransform="matrix(0.645606,-0.672479,0.753218,0.764362,4.982132e-5,-5.031800e-5)" />
    <linearGradient
       inkscape:collect="always"
       xlink:href="#linearGradient2059"
       id="linearGradient2063"
       gradientUnits="userSpaceOnUse"
       gradientTransform="matrix(0.645606,-0.672479,0.753218,0.764362,-4.879525,-27.65096)"
       x1="-410.46967"
       y1="576.14488"
       x2="282.72299"
       y2="576.14488" />
    <linearGradient
       inkscape:collect="always"
       xlink:href="#linearGradient2069"
       id="linearGradient2081"
       x1="28.323669"
       y1="48.707714"
       x2="720.34747"
       y2="48.707714"
       gradientUnits="userSpaceOnUse" />
    <linearGradient
       inkscape:collect="always"
       xlink:href="#linearGradient2059"
       id="linearGradient2189"
       gradientUnits="userSpaceOnUse"
       gradientTransform="matrix(0.645606,-0.672479,0.753218,0.764362,-9.759102,-1.626548)"
       x1="-410.46967"
       y1="576.14488"
       x2="282.72299"
       y2="576.14488" />
  </defs>
  <sodipodi:namedview
     id="base"
     pagecolor="#ffffff"
     bordercolor="#666666"
     borderopacity="1.0"
     inkscape:pageopacity="0.0"
     inkscape:pageshadow="2"
     inkscape:zoom="0.61480735"
     inkscape:cx="435.08980"
     inkscape:cy="530.62620"
     inkscape:document-units="px"
     inkscape:current-layer="layer1"
     inkscape:window-width="1178"
     inkscape:window-height="945"
     inkscape:window-x="262"
     inkscape:window-y="27" />
  <metadata
     id="metadata7">
    <rdf:RDF>
      <cc:Work
         rdf:about="">
        <dc:format>image/svg+xml</dc:format>
        <dc:type
           rdf:resource="http://purl.org/dc/dcmitype/StillImage" />
      </cc:Work>
    </rdf:RDF>
  </metadata>
  <g
     inkscape:label="Layer 1"
     inkscape:groupmode="layer"
     id="layer1">
    <rect
       style="fill:#385676;fill-opacity:0.76862746;fill-rule:evenodd;stroke:#000000;stroke-width:0.99141712pt;stroke-linecap:butt;stroke-linejoin:miter;stroke-opacity:1.0000000"
       id="rect1306"
       width="764.17017"
       height="1012.0468"
       x="-9.7282715"
       y="-5.1840858" />
    <g
       id="g625"
       transform="matrix(2.876651,0.000000,0.000000,2.873875,-110.2478,-1363.660)">
      <path
         style="font-size:12.000000px;fill:#3673b9;fill-rule:evenodd;stroke:#000000;stroke-width:5.0000000;stroke-linecap:round;stroke-linejoin:round"
         d="M 94.024300,653.14400 C 92.914800,643.84800 92.792500,633.53000 100.93700,626.20500 C 110.40300,617.65400 128.33900,609.24000 161.17900,608.43700 C 198.93700,607.89500 218.38600,616.40600 225.07600,630.58000 C 228.36500,637.91400 224.72100,648.08900 221.44800,650.92700 C 213.78000,658.20700 201.68300,661.71100 188.67300,661.84800 C 186.64100,661.92800 175.96700,663.21100 169.53100,664.71300 C 164.67300,665.76300 155.85000,669.83400 156.45900,677.06300 C 156.84400,681.44700 161.19300,684.03400 165.18300,684.87100 C 170.44500,686.33900 176.02700,688.99000 178.25800,694.85900 C 181.54600,704.10500 177.95900,710.95700 168.80000,715.90300 C 161.70900,719.63400 154.41500,719.21300 147.27800,719.07100 C 140.14100,718.92900 133.16200,719.06600 126.70000,716.62600 C 117.33000,713.31500 110.46300,707.24700 105.64500,695.93300 C 97.880600,678.55500 95.433800,662.38300 94.024300,653.14400 z "
         id="path616"
         sodipodi:nodetypes="cssssssssssssss" />
      <path
         style="font-size:12.000000px;fill:#3673b9;fill-rule:evenodd;stroke:#000000;stroke-width:5.0000000;stroke-linecap:round;stroke-linejoin:round"
         d="M 194.06200,704.69000 C 193.14000,694.18500 196.65200,689.20800 200.95300,687.12400 C 209.47200,682.64900 222.59000,684.24800 225.98700,684.09900 C 229.38500,683.95100 240.20900,683.73500 243.86500,684.20500 C 249.75400,684.60100 256.04900,688.54300 258.82000,692.57100 C 265.33200,701.23200 261.46900,710.70000 256.41100,712.48900 C 249.96200,715.24400 244.28900,715.67700 227.77400,716.56400 C 204.06500,718.34400 195.45600,716.62200 194.06200,704.69000 z "
         id="path617"
         sodipodi:nodetypes="csssssss" />
      <path
         style="font-size:12.000000px;fill:#3673b9;fill-rule:evenodd;stroke:#000000;stroke-width:5.0000000;stroke-linecap:round;stroke-linejoin:round"
         d="M 223.57200,534.43700 C 234.34600,534.71200 236.99600,549.59900 235.82900,563.59600 C 235.42100,567.17400 233.42900,584.09200 233.00200,587.69200 C 231.88200,597.71000 226.09400,605.34000 215.92800,601.76400 C 208.09500,599.27900 204.24500,594.86200 204.96100,585.10200 C 205.23600,571.73100 206.46300,562.43500 206.90100,558.88100 C 208.57200,545.91000 212.50900,533.78300 223.57200,534.43700 z "
         id="path618"
         sodipodi:nodetypes="cssssss" />
      <path
         style="font-size:12.000000px;fill:#3673b9;fill-rule:evenodd;stroke:#000000;stroke-width:5.0000000;stroke-linecap:round;stroke-linejoin:round"
         d="M 190.99600,543.84400 C 191.24800,547.43500 190.83000,570.43000 190.84200,574.05500 C 190.52300,588.35700 184.24100,590.16500 176.73700,590.02900 C 168.36500,589.86800 163.49000,586.73400 162.86800,574.19100 C 162.79600,570.77900 162.30200,547.26500 162.34300,543.72400 C 162.46700,532.53500 165.29600,520.12200 176.46100,519.77700 C 188.95300,519.79900 190.56900,532.18000 190.99600,543.84400 z "
         id="path619"
         sodipodi:nodetypes="cssssss" />
      <path
         style="font-size:12.000000px;fill:#3673b9;fill-rule:evenodd;stroke:#000000;stroke-width:5.0000000;stroke-linecap:round;stroke-linejoin:round"
         d="M 130.75800,527.27800 C 119.98100,527.40200 117.12400,542.25000 118.09400,556.26200 C 118.45200,559.84600 120.20700,576.79000 120.58400,580.39500 C 121.56300,590.42800 126.70600,597.39900 135.90500,595.19800 C 144.24400,593.30800 148.70100,589.50600 148.65900,578.19800 C 148.24400,564.83100 147.47300,555.51300 147.08600,551.95300 C 145.59700,538.96000 141.82900,526.77900 130.75800,527.27800 z "
         id="path620"
         sodipodi:nodetypes="cssssss" />
      <path
         style="font-size:12.000000px;fill:#3673b9;fill-rule:evenodd;stroke:#000000;stroke-width:5.0000000;stroke-linecap:round;stroke-linejoin:round"
         d="M 85.985600,547.51200 C 75.810100,548.42000 74.216900,562.55700 76.178700,575.63100 C 76.784300,578.96400 79.706000,594.21600 81.361600,598.08600 C 84.042800,607.18700 88.785900,615.40600 97.975700,610.33300 C 107.28300,605.46700 110.04500,600.46700 108.76200,592.93600 C 106.17000,580.73900 104.92000,575.86400 103.25700,569.46300 C 99.908700,557.61300 96.410300,546.23200 85.985600,547.51200 z "
         id="path621"
         sodipodi:nodetypes="cssssss" />
    </g>
    <path
       style="font-size:229.43694px;font-style:normal;font-variant:normal;font-weight:normal;font-stretch:normal;text-indent:0.0000000;text-align:start;text-decoration:none;line-height:125.00000%;letter-spacing:normal;word-spacing:normal;text-transform:none;direction:ltr;block-progression:tb;writing-mode:lr-tb;text-anchor:start;color:#000000;fill:#000000;fill-opacity:1.0000000;fill-rule:nonzero;stroke:none;stroke-width:1.0000000pt;stroke-linecap:butt;stroke-linejoin:miter;marker:none;marker-start:none;marker-mid:none;marker-end:none;stroke-miterlimit:4.0000000;stroke-dashoffset:0.0000000;stroke-opacity:1.0000000;visibility:visible;display:inline;overflow:visible;font-family:Bitstream Vera Sans"
       d="M 130.80570,881.44297 L 130.80570,846.62471 L 102.15227,846.62471 L 102.15227,832.21117 L 148.17142,832.21117 L 148.17142,887.86829 C 141.39867,892.67281 133.93142,896.31961 125.76965,898.80869 C 117.60767,901.23989 108.89588,902.45549 99.634239,902.45549 C 79.374186,902.45549 63.513516,896.55115 52.052180,884.74246 C 40.648679,872.87591 34.946943,856.37850 34.946951,835.25017 C 34.946943,814.06408 40.648679,797.56667 52.052180,785.75788 C 63.513516,773.89143 79.374186,767.95815 99.634239,767.95802 C 108.08548,767.95815 116.10265,769.00010 123.68576,771.08385 C 131.32658,773.16786 138.35967,776.23580 144.78510,780.28768 L 144.78510,798.95583 C 138.30179,793.45679 131.41341,789.31797 124.11990,786.53934 C 116.82622,783.76094 109.15637,782.37168 101.11033,782.37156 C 85.249579,782.37168 73.325136,786.79994 65.336951,795.65634 C 57.406577,804.51295 53.441409,817.71088 53.441440,835.25017 C 53.441409,852.73171 57.406577,865.90069 65.336951,874.75717 C 73.325136,883.61371 85.249579,888.04196 101.11033,888.04195 C 107.30402,888.04196 112.83210,887.52099 117.69458,886.47903 C 122.55689,885.37922 126.92727,883.70054 130.80570,881.44297 M 197.83737,784.71594 L 197.83737,833.42677 L 219.89182,833.42677 C 228.05364,833.42683 234.36318,831.31401 238.82045,827.08829 C 243.27757,822.86270 245.50617,816.84259 245.50625,809.02794 C 245.50617,801.27135 243.27757,795.28019 238.82045,791.05443 C 234.36318,786.82888 228.05364,784.71605 219.89182,784.71594 L 197.83737,784.71594 M 180.29799,770.30240 L 219.89182,770.30240 C 234.42107,770.30252 245.39040,773.60200 252.79986,780.20085 C 260.26701,786.74205 264.00064,796.35107 264.00075,809.02794 C 264.00064,821.82077 260.26701,831.48767 252.79986,838.02868 C 245.39040,844.56983 234.42107,847.84036 219.89182,847.84032 L 197.83737,847.84032 L 197.83737,899.93746 L 180.29799,899.93746 L 180.29799,770.30240 M 287.61812,770.30240 L 369.58428,770.30240 L 369.58428,785.06326 L 305.15748,785.06326 L 305.15748,823.44149 L 366.89260,823.44149 L 366.89260,838.20234 L 305.15748,838.20234 L 305.15748,885.17660 L 371.14721,885.17660 L 371.14721,899.93746 L 287.61812,899.93746 L 287.61812,770.30240"
       id="text1325" />
    <a
       id="a2048"
       transform="translate(9.759152,1.626548)">
      <path
         id="text1329"
         d="M 470.63666,884.44860 L 527.82184,884.32562 L 527.78611,900.19963 L 450.89028,900.36501 L 450.92603,884.49099 C 457.16140,877.06977 465.64661,867.12253 476.38168,854.64926 C 487.17089,842.11372 493.94851,834.03769 496.71456,830.42113 C 501.97513,823.62455 505.63814,817.88962 507.70359,813.21629 C 509.82313,808.48076 510.88805,803.84079 510.89836,799.29637 C 510.91496,791.88861 508.65738,785.85515 504.12558,781.19598 C 499.64774,776.53692 493.78577,774.21513 486.53967,774.23059 C 481.40243,774.24177 475.96550,775.28060 470.22887,777.34708 C 464.54626,779.41370 458.45573,782.53933 451.95727,786.72399 L 452.00015,767.67517 C 458.60425,764.61081 464.77407,762.29427 470.50963,760.72553 C 476.24514,759.15707 481.49224,758.36765 486.25096,758.35727 C 498.79648,758.33043 508.79238,761.91947 516.23865,769.12441 C 523.68477,776.32960 527.39428,785.97048 527.36718,798.04706 C 527.35419,803.77426 526.39560,809.22326 524.49141,814.39407 C 522.64126,819.50269 519.24792,825.54830 514.31141,832.53093 C 512.95537,834.33918 508.64458,839.57751 501.37901,848.24593 C 494.11345,856.85220 483.86601,868.91975 470.63666,884.44860 M 562.31284,876.40784 L 579.42783,876.37103 L 579.37444,900.08868 L 562.25944,900.12549 L 562.31284,876.40784 M 611.32266,760.60944 L 689.19184,760.44197 L 689.17376,768.47235 L 644.91433,899.94772 L 627.79934,899.98454 L 669.44546,776.35837 L 611.28692,776.48345 L 611.32266,760.60944"
         style="font-size:483.86453px;font-style:normal;font-variant:normal;font-weight:normal;font-stretch:normal;text-indent:0.0000000;text-align:start;text-decoration:none;line-height:125.00000%;letter-spacing:normal;word-spacing:normal;text-transform:none;direction:ltr;block-progression:tb;writing-mode:lr-tb;text-anchor:start;color:#000000;fill:url(#linearGradient2189);fill-opacity:1.0000000;fill-rule:nonzero;stroke:none;stroke-width:1.0000000pt;stroke-linecap:butt;stroke-linejoin:miter;marker:none;marker-start:none;marker-mid:none;marker-end:none;stroke-miterlimit:4.0000000;stroke-dashoffset:0.0000000;stroke-opacity:1.0000000;visibility:visible;display:inline;overflow:visible;font-family:Bitstream Vera Sans" />
    </a>
    <path
       style="font-size:69.902084px;font-style:normal;font-variant:normal;font-weight:normal;font-stretch:normal;text-indent:0.0000000;text-align:start;text-decoration:none;line-height:125.00000%;letter-spacing:normal;word-spacing:normal;text-transform:none;direction:ltr;block-progression:tb;writing-mode:lr-tb;text-anchor:start;color:#000000;fill:#000000;fill-opacity:1.0000000;fill-rule:nonzero;stroke:none;stroke-width:1.0000000pt;stroke-linecap:butt;stroke-linejoin:miter;marker:none;marker-start:none;marker-mid:none;marker-end:none;stroke-miterlimit:4.0000000;stroke-dashoffset:0.0000000;stroke-opacity:1.0000000;visibility:visible;display:inline;overflow:visible;font-family:Bitstream Vera Sans"
       d="M 13.719765,31.931238 L 43.942717,31.931238 L 43.942717,37.706940 L 20.835191,37.706940 L 20.835191,52.655817 L 41.688325,52.655817 L 41.688325,58.431521 L 20.835191,58.431521 L 20.835191,82.655497 L 13.719765,82.655497 L 13.719765,31.931238 M 66.310520,63.527729 C 61.073736,63.527748 57.445575,64.105316 55.426030,65.260440 C 53.406459,66.415596 52.396679,68.386127 52.396690,71.172040 C 52.396679,73.391733 53.148143,75.158416 54.651084,76.472097 C 56.177481,77.763142 58.244005,78.408660 60.850663,78.408656 C 64.443580,78.408660 67.320275,77.185571 69.480760,74.739385 C 71.664673,72.270567 72.756643,68.997673 72.756675,64.920693 L 72.756675,63.527729 L 66.310520,63.527729 M 79.238055,60.945649 L 79.238055,82.655497 L 72.756675,82.655497 L 72.756675,76.879795 C 71.277201,79.190078 69.433765,80.900137 67.226368,82.009976 C 65.018917,83.097167 62.318346,83.640761 59.124643,83.640763 C 55.085509,83.640761 51.868306,82.553573 49.473025,80.379188 C 47.101209,78.182162 45.915307,75.249015 45.915311,71.579737 C 45.915307,67.298939 47.394751,64.071342 50.353648,61.896942 C 53.336009,59.722583 57.774341,58.635393 63.668653,58.635369 L 72.756675,58.635369 L 72.756675,58.023823 C 72.756643,55.147325 71.770348,52.927644 69.797785,51.364779 C 67.848648,49.779324 65.101110,48.986581 61.555161,48.986547 C 59.300750,48.986581 57.105068,49.247054 54.968108,49.767966 C 52.831120,50.288946 50.776336,51.070362 48.803751,52.112223 L 48.803751,46.336520 C 51.175552,45.453216 53.476908,44.796369 55.707829,44.365986 C 57.938722,43.913029 60.110921,43.686531 62.224434,43.686492 C 67.930839,43.686531 72.193046,45.113468 75.011069,47.967306 C 77.829022,50.821214 79.238016,55.147325 79.238055,60.945649 M 123.33962,51.908373 C 124.95991,49.099830 126.89728,47.027375 129.15170,45.691000 C 131.40606,44.354699 134.05968,43.686531 137.11254,43.686492 C 141.22206,43.686531 144.39229,45.079492 146.62327,47.865383 C 148.85410,50.628691 149.96956,54.569755 149.96960,59.688585 L 149.96960,82.655497 L 143.45303,82.655497 L 143.45303,59.892434 C 143.45296,56.245840 142.78370,53.539188 141.44519,51.772476 C 140.10661,50.005823 138.06357,49.122480 135.31606,49.122446 C 131.95791,49.122480 129.30432,50.198344 127.35525,52.350045 C 125.40610,54.501805 124.43154,57.434955 124.43157,61.149498 L 124.43157,82.655497 L 117.91498,82.655497 L 117.91498,59.892434 C 117.91495,56.223190 117.24567,53.516540 115.90715,51.772476 C 114.56858,50.005823 112.50206,49.122480 109.70758,49.122446 C 106.39641,49.122480 103.76629,50.209671 101.81720,52.384021 C 99.868073,54.535781 98.893525,57.457605 98.893532,61.149498 L 98.893532,82.655497 L 92.376936,82.655497 L 92.376936,44.603809 L 98.893532,44.603809 L 98.893532,50.515411 C 100.37297,48.182514 102.14595,46.461131 104.21250,45.351254 C 106.27900,44.241452 108.73300,43.686531 111.57449,43.686492 C 114.43942,43.686531 116.86995,44.388673 118.86605,45.792925 C 120.88557,47.197248 122.37676,49.235729 123.33962,51.908373 M 162.93238,44.603809 L 169.41377,44.603809 L 169.41377,82.655497 L 162.93238,82.655497 L 162.93238,44.603809 M 162.93238,29.790832 L 169.41377,29.790832 L 169.41377,37.706940 L 162.93238,37.706940 L 162.93238,29.790832 M 182.94012,29.790832 L 189.42148,29.790832 L 189.42148,82.655497 L 182.94012,82.655497 L 182.94012,29.790832 M 202.94787,44.603809 L 209.42925,44.603809 L 209.42925,82.655497 L 202.94787,82.655497 L 202.94787,44.603809 M 202.94787,29.790832 L 209.42925,29.790832 L 209.42925,37.706940 L 202.94787,37.706940 L 202.94787,29.790832 M 240.88505,63.527729 C 235.64827,63.527748 232.02011,64.105316 230.00056,65.260440 C 227.98100,66.415596 226.97121,68.386127 226.97122,71.172040 C 226.97121,73.391733 227.72269,75.158416 229.22562,76.472097 C 230.75201,77.763142 232.81854,78.408660 235.42519,78.408656 C 239.01811,78.408660 241.89481,77.185571 244.05530,74.739385 C 246.23921,72.270567 247.33118,68.997673 247.33121,64.920693 L 247.33121,63.527729 L 240.88505,63.527729 M 253.81259,60.945649 L 253.81259,82.655497 L 247.33121,82.655497 L 247.33121,76.879795 C 245.85174,79.190078 244.00831,80.900137 241.80090,82.009976 C 239.59346,83.097167 236.89288,83.640761 233.69918,83.640763 C 229.66006,83.640761 226.44284,82.553573 224.04756,80.379188 C 221.67575,78.182162 220.48984,75.249015 220.48985,71.579737 C 220.48984,67.298939 221.96929,64.071342 224.92818,61.896942 C 227.91054,59.722583 232.34889,58.635393 238.24319,58.635369 L 247.33121,58.635369 L 247.33121,58.023823 C 247.33118,55.147325 246.34488,52.927644 244.37232,51.364779 C 242.42317,49.779324 239.67565,48.986581 236.12971,48.986547 C 233.87529,48.986581 231.67960,49.247054 229.54264,49.767966 C 227.40565,50.288946 225.35088,51.070362 223.37828,52.112223 L 223.37828,46.336520 C 225.75008,45.453216 228.05145,44.796369 230.28237,44.365986 C 232.51326,43.913029 234.68547,43.686531 236.79896,43.686492 C 242.50537,43.686531 246.76759,45.113468 249.58561,47.967306 C 252.40355,50.821214 253.81254,55.147325 253.81259,60.945649 M 290.05901,50.447461 C 289.33099,50.039796 288.53257,49.745350 287.66372,49.564119 C 286.81829,49.360304 285.87896,49.258379 284.84572,49.258346 C 281.18232,49.258379 278.36433,50.413519 276.39174,52.723768 C 274.44262,55.011426 273.46807,58.306972 273.46809,62.610412 L 273.46809,82.655497 L 266.95149,82.655497 L 266.95149,44.603809 L 273.46809,44.603809 L 273.46809,50.515411 C 274.83010,48.205164 276.60308,46.495104 278.78704,45.385227 C 280.97097,44.252777 283.62458,43.686531 286.74787,43.686492 C 287.19402,43.686531 287.68717,43.720505 288.22732,43.788415 C 288.76740,43.833755 289.36621,43.913029 290.02378,44.026238 L 290.05901,50.447461 M 327.29170,37.571041 L 327.29170,77.015693 L 335.88657,77.015693 C 343.14287,77.015698 348.45008,75.430213 351.80822,72.259231 C 355.18977,69.088271 356.88057,64.082666 356.88060,57.242406 C 356.88057,50.447492 355.18977,45.475864 351.80822,42.327503 C 348.45008,39.156572 343.14287,37.571088 335.88657,37.571041 L 327.29170,37.571041 M 320.17629,31.931238 L 334.79460,31.931238 C 344.98630,31.931289 352.46572,33.981095 357.23285,38.080662 C 361.99991,42.157669 364.38347,48.544911 364.38351,57.242406 C 364.38347,65.985250 361.98818,72.406466 357.19764,76.506073 C 352.40700,80.605690 344.93934,82.655497 334.79460,82.655497 L 320.17629,82.655497 L 320.17629,31.931238 M 375.40891,44.603809 L 381.89028,44.603809 L 381.89028,82.655497 L 375.40891,82.655497 L 375.40891,44.603809 M 375.40891,29.790832 L 381.89028,29.790832 L 381.89028,37.706940 L 375.40891,37.706940 L 375.40891,29.790832 M 420.56720,45.724975 L 420.56720,51.636576 C 418.73547,50.730616 416.83334,50.051121 414.86078,49.598093 C 412.88815,49.145130 410.84510,48.918633 408.73163,48.918599 C 405.51442,48.918633 403.09564,49.394279 401.47532,50.345537 C 399.87843,51.296860 399.08002,52.723798 399.08003,54.626351 C 399.08002,56.075966 399.65535,57.219781 400.80604,58.057799 C 401.95670,58.873216 404.26981,59.654634 407.74534,60.402054 L 409.96450,60.877700 C 414.56719,61.829014 417.83136,63.176675 419.75703,64.920693 C 421.70612,66.642092 422.68067,69.054295 422.68069,72.157308 C 422.68067,75.690685 421.22469,78.487935 418.31281,80.549062 C 415.42433,82.610196 411.44392,83.640761 406.37158,83.640763 C 404.25807,83.640761 402.05065,83.436913 399.74930,83.029218 C 397.47140,82.644171 395.06438,82.055277 392.52819,81.262533 L 392.52819,74.807336 C 394.92347,76.007782 397.28354,76.913773 399.60839,77.525315 C 401.93323,78.114214 404.23457,78.408660 406.51248,78.408656 C 409.56527,78.408660 411.91361,77.910364 413.55744,76.913767 C 415.20124,75.894533 416.02316,74.467596 416.02319,72.632954 C 416.02316,70.934228 415.42433,69.631867 414.22671,68.725860 C 413.05254,67.819883 410.45764,66.947865 406.44202,66.109806 L 404.18762,65.600187 C 400.17198,64.784811 397.27182,63.539073 395.48709,61.862967 C 393.70234,60.164253 392.80998,57.842650 392.80998,54.898150 C 392.80998,51.319509 394.12504,48.556235 396.75517,46.608316 C 399.38529,44.660471 403.11912,43.686531 407.95669,43.686492 C 410.35196,43.686531 412.60634,43.856404 414.71988,44.196113 C 416.83334,44.535897 418.78243,45.045516 420.56720,45.724975 M 439.44775,33.799847 L 439.44775,44.603809 L 452.79798,44.603809 L 452.79798,49.462194 L 439.44775,49.462194 L 439.44775,70.118825 C 439.44774,73.221859 439.88218,75.215039 440.75106,76.098374 C 441.64341,76.981724 443.43988,77.423395 446.14048,77.423390 L 452.79798,77.423390 L 452.79798,82.655497 L 446.14048,82.655497 C 441.13852,82.655497 437.68650,81.760829 435.78436,79.971493 C 433.88220,78.159512 432.93113,74.875293 432.93115,70.118825 L 432.93115,49.462194 L 428.17578,49.462194 L 428.17578,44.603809 L 432.93115,44.603809 L 432.93115,33.799847 L 439.44775,33.799847 M 484.21857,50.447461 C 483.49056,50.039796 482.69213,49.745350 481.82328,49.564119 C 480.97785,49.360304 480.03852,49.258379 479.00527,49.258346 C 475.34187,49.258379 472.52388,50.413519 470.55131,52.723768 C 468.60218,55.011426 467.62763,58.306972 467.62764,62.610412 L 467.62764,82.655497 L 461.11105,82.655497 L 461.11105,44.603809 L 467.62764,44.603809 L 467.62764,50.515411 C 468.98965,48.205164 470.76263,46.495104 472.94660,45.385227 C 475.13053,44.252777 477.78412,43.686531 480.90742,43.686492 C 481.35358,43.686531 481.84672,43.720505 482.38688,43.788415 C 482.92696,43.833755 483.52577,43.913029 484.18334,44.026238 L 484.21857,50.447461 M 491.08744,44.603809 L 497.56881,44.603809 L 497.56881,82.655497 L 491.08744,82.655497 L 491.08744,44.603809 M 491.08744,29.790832 L 497.56881,29.790832 L 497.56881,37.706940 L 491.08744,37.706940 L 491.08744,29.790832 M 539.41596,63.663626 C 539.41593,59.065738 538.42964,55.464422 536.45706,52.859666 C 534.50793,50.232321 531.81910,48.918633 528.39058,48.918599 C 524.96200,48.918633 522.26142,50.232321 520.28885,52.859666 C 518.33973,55.464422 517.36517,59.065738 517.36519,63.663626 C 517.36517,68.261554 518.33973,71.874194 520.28885,74.501563 C 522.26142,77.106296 524.96200,78.408660 528.39058,78.408656 C 531.81910,78.408660 534.50793,77.106296 536.45706,74.501563 C 538.42964,71.874194 539.41593,68.261554 539.41596,63.663626 M 517.36519,50.379511 C 518.72720,48.114566 520.44147,46.438480 522.50803,45.351254 C 524.59801,44.241452 527.08723,43.686531 529.97570,43.686492 C 534.76624,43.686531 538.65273,45.521163 541.63513,49.190396 C 544.64094,52.859696 546.14389,57.684101 546.14393,63.663626 C 546.14389,69.643191 544.64094,74.467596 541.63513,78.136859 C 538.65273,81.806129 534.76624,83.640761 529.97570,83.640763 C 527.08723,83.640761 524.59801,83.097167 522.50803,82.009976 C 520.44147,80.900137 518.72720,79.212728 517.36519,76.947743 L 517.36519,82.655497 L 510.84858,82.655497 L 510.84858,29.790832 L 517.36519,29.790832 L 517.36519,50.379511 M 556.21826,67.638671 L 556.21826,44.603809 L 562.69963,44.603809 L 562.69963,67.400846 C 562.69962,71.002179 563.42760,73.708830 564.88358,75.520804 C 566.33952,77.310145 568.52346,78.204812 571.43541,78.204808 C 574.93439,78.204812 577.69368,77.128948 579.71326,74.977210 C 581.75627,72.825486 582.77778,69.892338 582.77781,66.177756 L 582.77781,44.603809 L 589.25921,44.603809 L 589.25921,82.655497 L 582.77781,82.655497 L 582.77781,76.811844 C 581.20441,79.122128 579.37272,80.843513 577.28274,81.976002 C 575.21619,83.085842 572.80916,83.640761 570.06163,83.640763 C 565.52934,83.640761 562.08905,82.281775 559.74073,79.563797 C 557.39242,76.845824 556.21825,72.870787 556.21826,67.638671 M 609.09083,33.799847 L 609.09083,44.603809 L 622.44107,44.603809 L 622.44107,49.462194 L 609.09083,49.462194 L 609.09083,70.118825 C 609.09082,73.221859 609.52526,75.215039 610.39415,76.098374 C 611.28649,76.981724 613.08298,77.423395 615.78355,77.423390 L 622.44107,77.423390 L 622.44107,82.655497 L 615.78355,82.655497 C 610.78161,82.655497 607.32958,81.760829 605.42744,79.971493 C 603.52529,78.159512 602.57422,74.875293 602.57423,70.118825 L 602.57423,49.462194 L 597.81887,49.462194 L 597.81887,44.603809 L 602.57423,44.603809 L 602.57423,33.799847 L 609.09083,33.799847 M 631.00070,44.603809 L 637.48207,44.603809 L 637.48207,82.655497 L 631.00070,82.655497 L 631.00070,44.603809 M 631.00070,29.790832 L 637.48207,29.790832 L 637.48207,37.706940 L 631.00070,37.706940 L 631.00070,29.790832 M 666.29603,48.986547 C 662.82049,48.986581 660.07297,50.300270 658.05341,52.927614 C 656.03383,55.532371 655.02406,59.111037 655.02408,63.663626 C 655.02406,68.216253 656.02209,71.806245 658.01818,74.433613 C 660.03772,77.038347 662.79700,78.340712 666.29603,78.340705 C 669.74804,78.340712 672.48384,77.027023 674.50342,74.399638 C 676.52296,71.772272 677.53274,68.193603 677.53277,63.663626 C 677.53274,59.156339 676.52296,55.588996 674.50342,52.961591 C 672.48384,50.311595 669.74804,48.986581 666.29603,48.986547 M 666.29603,43.686492 C 671.93198,43.686531 676.35857,45.453216 679.57580,48.986547 C 682.79297,52.519949 684.40158,57.412303 684.40162,63.663626 C 684.40158,69.892338 682.79297,74.784693 679.57580,78.340705 C 676.35857,81.874079 671.93198,83.640761 666.29603,83.640763 C 660.63654,83.640761 656.19822,81.874079 652.98102,78.340705 C 649.78731,74.784693 648.19044,69.892338 648.19044,63.663626 C 648.19044,57.412303 649.78731,52.519949 652.98102,48.986547 C 656.19822,45.453216 660.63654,43.686531 666.29603,43.686492 M 727.90433,59.688585 L 727.90433,82.655497 L 721.42297,82.655497 L 721.42297,59.892434 C 721.42292,56.291139 720.69495,53.595815 719.23901,51.806449 C 717.78303,50.017147 715.59908,49.122480 712.68719,49.122446 C 709.18815,49.122480 706.42889,50.198344 704.40934,52.350045 C 702.38975,54.501805 701.37999,57.434955 701.38000,61.149498 L 701.38000,82.655497 L 694.86339,82.655497 L 694.86339,44.603809 L 701.38000,44.603809 L 701.38000,50.515411 C 702.92989,48.227813 704.74983,46.517754 706.83987,45.385227 C 708.95333,44.252777 711.38385,43.686531 714.13140,43.686492 C 718.66365,43.686531 722.09220,45.045516 724.41707,47.763458 C 726.74187,50.458818 727.90429,54.433856 727.90433,59.688585"
       id="text2065" />
    <path
       style="font-size:40.000000px;font-style:normal;font-variant:normal;font-weight:normal;font-stretch:normal;text-indent:0.0000000;text-align:start;text-decoration:none;line-height:125.00000%;letter-spacing:normal;word-spacing:normal;text-transform:none;direction:ltr;block-progression:tb;writing-mode:lr-tb;text-anchor:start;color:#000000;fill:#f80707;fill-opacity:1.0000000;fill-rule:nonzero;stroke:none;stroke-width:1.0000000pt;stroke-linecap:butt;stroke-linejoin:miter;stroke-miterlimit:4.0000000;stroke-dashoffset:0.0000000;stroke-opacity:1.0000000;marker:none;marker-start:none;marker-mid:none;marker-end:none;visibility:visible;display:inline;overflow:visible;font-family:Bitstream Vera Sans"
       d="M 159.13799,948.66412 L 159.13799,959.34772 L 165.46611,959.34772 C 167.58849,959.34772 169.15750,958.91152 170.17314,958.03912 C 171.20177,957.15371 171.71609,955.80606 171.71611,953.99615 C 171.71609,952.17325 171.20177,950.83210 170.17314,949.97272 C 169.15750,949.10033 167.58849,948.66414 165.46611,948.66412 L 159.13799,948.66412 M 159.13799,936.67194 L 159.13799,945.46100 L 164.97783,945.46100 C 166.90490,945.46102 168.33719,945.10294 169.27470,944.38678 C 170.22521,943.65763 170.70047,942.55086 170.70049,941.06647 C 170.70047,939.59514 170.22521,938.49488 169.27470,937.76569 C 168.33719,937.03654 166.90490,936.67196 164.97783,936.67194 L 159.13799,936.67194 M 155.19267,933.42975 L 165.27080,933.42975 C 168.27859,933.42978 170.59630,934.05478 172.22392,935.30475 C 173.85150,936.55477 174.66531,938.33212 174.66533,940.63678 C 174.66531,942.42065 174.24864,943.83992 173.41533,944.89459 C 172.58197,945.94930 171.35802,946.60685 169.74345,946.86725 C 171.68354,947.28393 173.18744,948.15633 174.25517,949.48444 C 175.33588,950.79955 175.87624,952.44669 175.87627,954.42584 C 175.87624,957.03001 174.99083,959.04173 173.22002,960.46100 C 171.44916,961.88027 168.92963,962.58990 165.66142,962.58990 L 155.19267,962.58990 L 155.19267,933.42975 M 190.93486,943.23444 C 189.00777,943.23446 187.48433,943.98966 186.36455,945.50006 C 185.24475,946.99747 184.68485,949.05476 184.68486,951.67194 C 184.68485,954.28913 185.23824,956.35293 186.34502,957.86334 C 187.46480,959.36074 188.99475,960.10944 190.93486,960.10944 C 192.84891,960.10944 194.36583,959.35423 195.48564,957.84381 C 196.60542,956.33340 197.16531,954.27611 197.16533,951.67194 C 197.16531,949.08080 196.60542,947.03002 195.48564,945.51959 C 194.36583,943.99617 192.84891,943.23446 190.93486,943.23444 M 190.93486,940.18756 C 194.05984,940.18758 196.51427,941.20321 198.29814,943.23444 C 200.08197,945.26570 200.97390,948.07820 200.97392,951.67194 C 200.97390,955.25267 200.08197,958.06517 198.29814,960.10944 C 196.51427,962.14069 194.05984,963.15631 190.93486,963.15631 C 187.79683,963.15631 185.33590,962.14069 183.55205,960.10944 C 181.78121,958.06517 180.89580,955.25267 180.89580,951.67194 C 180.89580,948.07820 181.78121,945.26570 183.55205,943.23444 C 185.33590,941.20321 187.79683,940.18758 190.93486,940.18756 M 215.38799,943.23444 C 213.46089,943.23446 211.93746,943.98966 210.81767,945.50006 C 209.69787,946.99747 209.13798,949.05476 209.13799,951.67194 C 209.13798,954.28913 209.69136,956.35293 210.79814,957.86334 C 211.91792,959.36074 213.44787,960.10944 215.38799,960.10944 C 217.30203,960.10944 218.81896,959.35423 219.93877,957.84381 C 221.05854,956.33340 221.61844,954.27611 221.61845,951.67194 C 221.61844,949.08080 221.05854,947.03002 219.93877,945.51959 C 218.81896,943.99617 217.30203,943.23446 215.38799,943.23444 M 215.38799,940.18756 C 218.51297,940.18758 220.96739,941.20321 222.75127,943.23444 C 224.53510,945.26570 225.42703,948.07820 225.42705,951.67194 C 225.42703,955.25267 224.53510,958.06517 222.75127,960.10944 C 220.96739,962.14069 218.51297,963.15631 215.38799,963.15631 C 212.24996,963.15631 209.78902,962.14069 208.00517,960.10944 C 206.23434,958.06517 205.34892,955.25267 205.34892,951.67194 C 205.34892,948.07820 206.23434,945.26570 208.00517,943.23444 C 209.78902,941.20321 212.24996,940.18758 215.38799,940.18756 M 234.91924,934.50397 L 234.91924,940.71490 L 242.32158,940.71490 L 242.32158,943.50787 L 234.91924,943.50787 L 234.91924,955.38287 C 234.91923,957.16673 235.16011,958.31257 235.64189,958.82037 C 236.13667,959.32819 237.13277,959.58210 238.63017,959.58209 L 242.32158,959.58209 L 242.32158,962.58990 L 238.63017,962.58990 C 235.85673,962.58990 233.94267,962.07558 232.88799,961.04694 C 231.83329,960.00527 231.30595,958.11725 231.30595,955.38287 L 231.30595,943.50787 L 228.66924,943.50787 L 228.66924,940.71490 L 231.30595,940.71490 L 231.30595,934.50397 L 234.91924,934.50397 M 247.06767,940.71490 L 250.66142,940.71490 L 250.66142,962.58990 L 247.06767,962.58990 L 247.06767,940.71490 M 247.06767,932.19928 L 250.66142,932.19928 L 250.66142,936.75006 L 247.06767,936.75006 L 247.06767,932.19928 M 276.34502,949.38678 L 276.34502,962.58990 L 272.75127,962.58990 L 272.75127,949.50397 C 272.75125,947.43367 272.34760,945.88419 271.54033,944.85553 C 270.73302,943.82690 269.52208,943.31258 267.90752,943.31256 C 265.96740,943.31258 264.43745,943.93107 263.31767,945.16803 C 262.19787,946.40503 261.63798,948.09122 261.63799,950.22662 L 261.63799,962.58990 L 258.02470,962.58990 L 258.02470,940.71490 L 261.63799,940.71490 L 261.63799,944.11334 C 262.49735,942.79826 263.50647,941.81519 264.66533,941.16412 C 265.83719,940.51310 267.18485,940.18758 268.70830,940.18756 C 271.22130,940.18758 273.12234,940.96883 274.41142,942.53131 C 275.70046,944.08081 276.34499,946.36596 276.34502,949.38678 M 297.94658,951.39850 C 297.94656,948.79435 297.40620,946.77612 296.32549,945.34381 C 295.25776,943.91154 293.75386,943.19539 291.81377,943.19537 C 289.88667,943.19539 288.38277,943.91154 287.30205,945.34381 C 286.23433,946.77612 285.70048,948.79435 285.70049,951.39850 C 285.70048,953.98965 286.23433,956.00137 287.30205,957.43365 C 288.38277,958.86595 289.88667,959.58210 291.81377,959.58209 C 293.75386,959.58210 295.25776,958.86595 296.32549,957.43365 C 297.40620,956.00137 297.94656,953.98965 297.94658,951.39850 M 301.54033,959.87506 C 301.54031,963.59902 300.71349,966.36594 299.05986,968.17584 C 297.40620,969.99875 294.87365,970.91021 291.46220,970.91022 C 290.19917,970.91021 289.00777,970.81255 287.88799,970.61725 C 286.76819,970.43495 285.68095,970.14849 284.62627,969.75787 L 284.62627,966.26178 C 285.68095,966.83469 286.72261,967.25787 287.75127,967.53131 C 288.77990,967.80474 289.82808,967.94146 290.89580,967.94147 C 293.25256,967.94146 295.01688,967.32297 296.18877,966.08600 C 297.36062,964.86204 297.94656,963.00657 297.94658,960.51959 L 297.94658,958.74225 C 297.20437,960.03131 296.25385,960.99485 295.09502,961.63287 C 293.93615,962.27089 292.54943,962.58990 290.93486,962.58990 C 288.25256,962.58990 286.09110,961.56777 284.45049,959.52350 C 282.80986,957.47923 281.98955,954.77090 281.98955,951.39850 C 281.98955,948.01310 282.80986,945.29826 284.45049,943.25397 C 286.09110,941.20972 288.25256,940.18758 290.93486,940.18756 C 292.54943,940.18758 293.93615,940.50659 295.09502,941.14459 C 296.25385,941.78263 297.20437,942.74617 297.94658,944.03522 L 297.94658,940.71490 L 301.54033,940.71490 L 301.54033,959.87506 M 309.86064,957.62897 L 313.98174,957.62897 L 313.98174,960.98834 L 310.77861,967.23834 L 308.25908,967.23834 L 309.86064,960.98834 L 309.86064,957.62897 M 337.88799,959.30865 L 337.88799,970.91022 L 334.27470,970.91022 L 334.27470,940.71490 L 337.88799,940.71490 L 337.88799,944.03522 C 338.64319,942.73315 339.59371,941.76961 340.73955,941.14459 C 341.89839,940.50659 343.27860,940.18758 344.88017,940.18756 C 347.53641,940.18758 349.69135,941.24227 351.34502,943.35162 C 353.01166,945.46102 353.84499,948.23445 353.84502,951.67194 C 353.84499,955.10944 353.01166,957.88288 351.34502,959.99225 C 349.69135,962.10162 347.53641,963.15631 344.88017,963.15631 C 343.27860,963.15631 341.89839,962.84381 340.73955,962.21881 C 339.59371,961.58079 338.64319,960.61074 337.88799,959.30865 M 350.11455,951.67194 C 350.11453,949.02872 349.56765,946.95841 348.47392,945.46100 C 347.39318,943.95060 345.90229,943.19539 344.00127,943.19537 C 342.10021,943.19539 340.60282,943.95060 339.50908,945.46100 C 338.42834,946.95841 337.88798,949.02872 337.88799,951.67194 C 337.88798,954.31517 338.42834,956.39199 339.50908,957.90240 C 340.60282,959.39980 342.10021,960.14850 344.00127,960.14850 C 345.90229,960.14850 347.39318,959.39980 348.47392,957.90240 C 349.56765,956.39199 350.11453,954.31517 350.11455,951.67194 M 359.80205,932.19928 L 363.39580,932.19928 L 363.39580,962.58990 L 359.80205,962.58990 L 359.80205,932.19928 M 389.60674,950.75397 L 389.60674,952.51178 L 373.08330,952.51178 C 373.23954,954.98575 373.98173,956.87376 375.30986,958.17584 C 376.65100,959.46491 378.51297,960.10944 380.89580,960.10944 C 382.27599,960.10944 383.61062,959.94017 384.89970,959.60162 C 386.20177,959.26309 387.49083,958.75527 388.76689,958.07819 L 388.76689,961.47662 C 387.47781,962.02350 386.15620,962.44017 384.80205,962.72662 C 383.44786,963.01308 382.07417,963.15631 380.68095,963.15631 C 377.19136,963.15631 374.42444,962.14069 372.38017,960.10944 C 370.34892,958.07819 369.33330,955.33080 369.33330,951.86725 C 369.33330,948.28653 370.29684,945.44799 372.22392,943.35162 C 374.16402,941.24227 376.77469,940.18758 380.05595,940.18756 C 382.99865,940.18758 385.32286,941.13810 387.02861,943.03912 C 388.74734,944.92716 389.60671,947.49877 389.60674,950.75397 M 386.01299,949.69928 C 385.98692,947.73315 385.43354,946.16414 384.35283,944.99225 C 383.28510,943.82039 381.86584,943.23446 380.09502,943.23444 C 378.08980,943.23446 376.48173,943.80086 375.27080,944.93365 C 374.07287,946.06648 373.38277,947.66153 373.20049,949.71881 L 386.01299,949.69928 M 405.44658,951.59381 C 402.54292,951.59382 400.53121,951.92585 399.41142,952.58990 C 398.29162,953.25398 397.73173,954.38679 397.73174,955.98834 C 397.73173,957.26439 398.14840,958.28001 398.98174,959.03522 C 399.82808,959.77741 400.97391,960.14850 402.41924,960.14850 C 404.41141,960.14850 406.00646,959.44538 407.20439,958.03912 C 408.41531,956.61986 409.02078,954.73835 409.02080,952.39459 L 409.02080,951.59381 L 405.44658,951.59381 M 412.61455,950.10944 L 412.61455,962.58990 L 409.02080,962.58990 L 409.02080,959.26959 C 408.20047,960.59772 407.17833,961.58079 405.95439,962.21881 C 404.73042,962.84381 403.23303,963.15631 401.46220,963.15631 C 399.22261,963.15631 397.43876,962.53131 396.11064,961.28131 C 394.79553,960.01829 394.13798,958.33210 394.13799,956.22272 C 394.13798,953.76179 394.95829,951.90632 396.59892,950.65631 C 398.25256,949.40632 400.71350,948.78132 403.98174,948.78131 L 409.02080,948.78131 L 409.02080,948.42975 C 409.02078,946.77612 408.47391,945.50008 407.38017,944.60162 C 406.29943,943.69018 404.77599,943.23446 402.80986,943.23444 C 401.55985,943.23446 400.34240,943.38419 399.15752,943.68365 C 397.97261,943.98315 396.83329,944.43237 395.73955,945.03131 L 395.73955,941.71100 C 397.05465,941.20321 398.33069,940.82560 399.56767,940.57819 C 400.80464,940.31779 402.00907,940.18758 403.18095,940.18756 C 406.34500,940.18758 408.70828,941.00790 410.27080,942.64850 C 411.83328,944.28914 412.61453,946.77612 412.61455,950.10944 M 433.98174,941.35944 L 433.98174,944.75787 C 432.96609,944.23706 431.91141,943.84643 430.81767,943.58600 C 429.72391,943.32560 428.59110,943.19539 427.41924,943.19537 C 425.63537,943.19539 424.29423,943.46883 423.39580,944.01569 C 422.51037,944.56258 422.06767,945.38289 422.06767,946.47662 C 422.06767,947.30997 422.38668,947.96752 423.02470,948.44928 C 423.66272,948.91804 424.94527,949.36726 426.87236,949.79694 L 428.10283,950.07037 C 430.65490,950.61726 432.46479,951.39200 433.53252,952.39459 C 434.61323,953.38418 435.15359,954.77090 435.15361,956.55475 C 435.15359,958.58600 434.34630,960.19407 432.73174,961.37897 C 431.13016,962.56386 428.92313,963.15631 426.11064,963.15631 C 424.93876,963.15631 423.71480,963.03912 422.43877,962.80475 C 421.17574,962.58339 419.84111,962.24485 418.43486,961.78912 L 418.43486,958.07819 C 419.76298,958.76829 421.07157,959.28913 422.36064,959.64069 C 423.64970,959.97923 424.92574,960.14850 426.18877,960.14850 C 427.88146,960.14850 429.18355,959.86204 430.09502,959.28912 C 431.00646,958.70319 431.46219,957.88288 431.46220,956.82819 C 431.46219,955.85163 431.13016,955.10293 430.46611,954.58209 C 429.81506,954.06127 428.37625,953.55997 426.14970,953.07819 L 424.89970,952.78522 C 422.67314,952.31648 421.06506,951.60033 420.07549,950.63678 C 419.08590,949.66023 418.59111,948.32560 418.59111,946.63287 C 418.59111,944.57560 419.32027,942.98706 420.77861,941.86725 C 422.23694,940.74748 424.30725,940.18758 426.98955,940.18756 C 428.31766,940.18758 429.56766,940.28524 430.73955,940.48053 C 431.91141,940.67586 432.99214,940.96883 433.98174,941.35944 M 459.60674,950.75397 L 459.60674,952.51178 L 443.08330,952.51178 C 443.23954,954.98575 443.98173,956.87376 445.30986,958.17584 C 446.65100,959.46491 448.51297,960.10944 450.89580,960.10944 C 452.27599,960.10944 453.61062,959.94017 454.89970,959.60162 C 456.20177,959.26309 457.49083,958.75527 458.76689,958.07819 L 458.76689,961.47662 C 457.47781,962.02350 456.15620,962.44017 454.80205,962.72662 C 453.44786,963.01308 452.07417,963.15631 450.68095,963.15631 C 447.19136,963.15631 444.42444,962.14069 442.38017,960.10944 C 440.34892,958.07819 439.33330,955.33080 439.33330,951.86725 C 439.33330,948.28653 440.29684,945.44799 442.22392,943.35162 C 444.16402,941.24227 446.77469,940.18758 450.05595,940.18756 C 452.99865,940.18758 455.32286,941.13810 457.02861,943.03912 C 458.74734,944.92716 459.60671,947.49877 459.60674,950.75397 M 456.01299,949.69928 C 455.98692,947.73315 455.43354,946.16414 454.35283,944.99225 C 453.28510,943.82039 451.86584,943.23446 450.09502,943.23444 C 448.08980,943.23446 446.48173,943.80086 445.27080,944.93365 C 444.07287,946.06648 443.38277,947.66153 443.20049,949.71881 L 456.01299,949.69928 M 476.14970,940.71490 L 479.74345,940.71490 L 484.23564,957.78522 L 488.70830,940.71490 L 492.94658,940.71490 L 497.43877,957.78522 L 501.91142,940.71490 L 505.50517,940.71490 L 499.78252,962.58990 L 495.54424,962.58990 L 490.83720,944.66022 L 486.11064,962.58990 L 481.87236,962.58990 L 476.14970,940.71490 M 520.91533,951.59381 C 518.01167,951.59382 515.99996,951.92585 514.88017,952.58990 C 513.76037,953.25398 513.20048,954.38679 513.20049,955.98834 C 513.20048,957.26439 513.61715,958.28001 514.45049,959.03522 C 515.29683,959.77741 516.44266,960.14850 517.88799,960.14850 C 519.88016,960.14850 521.47521,959.44538 522.67314,958.03912 C 523.88406,956.61986 524.48953,954.73835 524.48955,952.39459 L 524.48955,951.59381 L 520.91533,951.59381 M 528.08330,950.10944 L 528.08330,962.58990 L 524.48955,962.58990 L 524.48955,959.26959 C 523.66922,960.59772 522.64708,961.58079 521.42314,962.21881 C 520.19917,962.84381 518.70178,963.15631 516.93095,963.15631 C 514.69136,963.15631 512.90751,962.53131 511.57939,961.28131 C 510.26428,960.01829 509.60673,958.33210 509.60674,956.22272 C 509.60673,953.76179 510.42704,951.90632 512.06767,950.65631 C 513.72131,949.40632 516.18225,948.78132 519.45049,948.78131 L 524.48955,948.78131 L 524.48955,948.42975 C 524.48953,946.77612 523.94266,945.50008 522.84892,944.60162 C 521.76818,943.69018 520.24474,943.23446 518.27861,943.23444 C 517.02860,943.23446 515.81115,943.38419 514.62627,943.68365 C 513.44136,943.98315 512.30204,944.43237 511.20830,945.03131 L 511.20830,941.71100 C 512.52340,941.20321 513.79944,940.82560 515.03642,940.57819 C 516.27339,940.31779 517.47782,940.18758 518.64970,940.18756 C 521.81375,940.18758 524.17703,941.00790 525.73955,942.64850 C 527.30203,944.28914 528.08328,946.77612 528.08330,950.10944 M 535.50517,940.71490 L 539.09892,940.71490 L 539.09892,962.58990 L 535.50517,962.58990 L 535.50517,940.71490 M 535.50517,932.19928 L 539.09892,932.19928 L 539.09892,936.75006 L 535.50517,936.75006 L 535.50517,932.19928 M 550.15361,934.50397 L 550.15361,940.71490 L 557.55595,940.71490 L 557.55595,943.50787 L 550.15361,943.50787 L 550.15361,955.38287 C 550.15360,957.16673 550.39449,958.31257 550.87627,958.82037 C 551.37105,959.32819 552.36714,959.58210 553.86455,959.58209 L 557.55595,959.58209 L 557.55595,962.58990 L 553.86455,962.58990 C 551.09110,962.58990 549.17704,962.07558 548.12236,961.04694 C 547.06767,960.00527 546.54033,958.11725 546.54033,955.38287 L 546.54033,943.50787 L 543.90361,943.50787 L 543.90361,940.71490 L 546.54033,940.71490 L 546.54033,934.50397 L 550.15361,934.50397"
       id="text2086" />
  </g>
</svg>
