<?xml version="1.0" encoding="UTF-8" standalone="no"?>
<!-- Created with Sodipodi ("http://www.sodipodi.com/") -->
<svg
   xmlns:dc="http://purl.org/dc/elements/1.1/"
   xmlns:cc="http://web.resource.org/cc/"
   xmlns:rdf="http://www.w3.org/1999/02/22-rdf-syntax-ns#"
   xmlns:svg="http://www.w3.org/2000/svg"
   xmlns="http://www.w3.org/2000/svg"
   xmlns:sodipodi="http://inkscape.sourceforge.net/DTD/sodipodi-0.dtd"
   xmlns:inkscape="http://www.inkscape.org/namespaces/inkscape"
   id="svg1"
   sodipodi:version="0.32"
   inkscape:version="0.42.2"
   width="170.00000pt"
   height="226.00000pt"
   sodipodi:docname="splash-p6__.svg"
   sodipodi:docbase="/home/reno/gpe/splash-ng"
   inkscape:export-filename="/tmp/splash-p3.png"
   inkscape:export-xdpi="101.64706"
   inkscape:export-ydpi="101.64706">
  <metadata
     id="metadata1148">
    <rdf:RDF>
      <cc:Work
         rdf:about="">
        <dc:format>image/svg+xml</dc:format>
        <dc:type
           rdf:resource="http://purl.org/dc/dcmitype/StillImage" />
        <cc:license
           rdf:resource="http://creativecommons.org/licenses/GPL/2.0/" />
      </cc:Work>
      <cc:License
         rdf:about="http://creativecommons.org/licenses/GPL/2.0/">
        <cc:permits
           rdf:resource="http://web.resource.org/cc/Reproduction" />
        <cc:permits
           rdf:resource="http://web.resource.org/cc/Distribution" />
        <cc:requires
           rdf:resource="http://web.resource.org/cc/Notice" />
        <cc:permits
           rdf:resource="http://web.resource.org/cc/DerivativeWorks" />
        <cc:requires
           rdf:resource="http://web.resource.org/cc/ShareAlike" />
        <cc:requires
           rdf:resource="http://web.resource.org/cc/SourceCode" />
      </cc:License>
    </rdf:RDF>
  </metadata>
  <defs
     id="defs3" />
  <sodipodi:namedview
     id="base"
     pagecolor="#ffffff"
     bordercolor="#666666"
     borderopacity="1.0"
     inkscape:pageopacity="0.0"
     inkscape:pageshadow="2"
     inkscape:zoom="19.711800"
     inkscape:cx="139.54618"
     inkscape:cy="-16.431110"
     inkscape:window-width="1598"
     inkscape:window-height="1151"
     showguides="true"
     snaptoguides="true"
     inkscape:window-x="0"
     inkscape:window-y="25"
     inkscape:current-layer="svg1"
     showborder="true"
     inkscape:showpageshadow="false" />
  <g
     id="g625"
     transform="matrix(0.628343,0.000000,0.000000,0.628343,24.28754,-302.8388)">
    <path
       style="font-size:12.000000px;fill:#3673b9;fill-rule:evenodd;stroke:#000000;stroke-width:5.0000000;stroke-linecap:round;stroke-linejoin:round"
       d="M 94.024300,653.14400 C 92.914800,643.84800 92.792500,633.53000 100.93700,626.20500 C 110.40300,617.65400 128.33900,609.24000 161.17900,608.43700 C 198.93700,607.89500 218.38600,616.40600 225.07600,630.58000 C 228.36500,637.91400 224.72100,648.08900 221.44800,650.92700 C 213.78000,658.20700 201.68300,661.71100 188.67300,661.84800 C 186.64100,661.92800 175.96700,663.21100 169.53100,664.71300 C 164.67300,665.76300 155.85000,669.83400 156.45900,677.06300 C 156.84400,681.44700 161.19300,684.03400 165.18300,684.87100 C 170.44500,686.33900 176.02700,688.99000 178.25800,694.85900 C 181.54600,704.10500 177.95900,710.95700 168.80000,715.90300 C 161.70900,719.63400 154.41500,719.21300 147.27800,719.07100 C 140.14100,718.92900 133.16200,719.06600 126.70000,716.62600 C 117.33000,713.31500 110.46300,707.24700 105.64500,695.93300 C 97.880600,678.55500 95.433800,662.38300 94.024300,653.14400 z "
       id="path616"
       sodipodi:nodetypes="cssssssssssssss" />
    <path
       style="font-size:12.000000px;fill:#3673b9;fill-rule:evenodd;stroke:#000000;stroke-width:5.0000000;stroke-linecap:round;stroke-linejoin:round"
       d="M 194.06200,704.69000 C 193.14000,694.18500 196.65200,689.20800 200.95300,687.12400 C 209.47200,682.64900 222.59000,684.24800 225.98700,684.09900 C 229.38500,683.95100 240.20900,683.73500 243.86500,684.20500 C 249.75400,684.60100 256.04900,688.54300 258.82000,692.57100 C 265.33200,701.23200 261.46900,710.70000 256.41100,712.48900 C 249.96200,715.24400 244.28900,715.67700 227.77400,716.56400 C 204.06500,718.34400 195.45600,716.62200 194.06200,704.69000 z "
       id="path617"
       sodipodi:nodetypes="csssssss" />
    <path
       style="font-size:12.000000px;fill:#3673b9;fill-rule:evenodd;stroke:#000000;stroke-width:5.0000000;stroke-linecap:round;stroke-linejoin:round"
       d="M 223.57200,534.43700 C 234.34600,534.71200 236.99600,549.59900 235.82900,563.59600 C 235.42100,567.17400 233.42900,584.09200 233.00200,587.69200 C 231.88200,597.71000 226.09400,605.34000 215.92800,601.76400 C 208.09500,599.27900 204.24500,594.86200 204.96100,585.10200 C 205.23600,571.73100 206.46300,562.43500 206.90100,558.88100 C 208.57200,545.91000 212.50900,533.78300 223.57200,534.43700 z "
       id="path618"
       sodipodi:nodetypes="cssssss" />
    <path
       style="font-size:12.000000px;fill:#3673b9;fill-rule:evenodd;stroke:#000000;stroke-width:5.0000000;stroke-linecap:round;stroke-linejoin:round"
       d="M 190.99600,543.84400 C 191.24800,547.43500 190.83000,570.43000 190.84200,574.05500 C 190.52300,588.35700 184.24100,590.16500 176.73700,590.02900 C 168.36500,589.86800 163.49000,586.73400 162.86800,574.19100 C 162.79600,570.77900 162.30200,547.26500 162.34300,543.72400 C 162.46700,532.53500 165.29600,520.12200 176.46100,519.77700 C 188.95300,519.79900 190.56900,532.18000 190.99600,543.84400 z "
       id="path619"
       sodipodi:nodetypes="cssssss" />
    <path
       style="font-size:12.000000px;fill:#3673b9;fill-rule:evenodd;stroke:#000000;stroke-width:5.0000000;stroke-linecap:round;stroke-linejoin:round"
       d="M 130.75800,527.27800 C 119.98100,527.40200 117.12400,542.25000 118.09400,556.26200 C 118.45200,559.84600 120.20700,576.79000 120.58400,580.39500 C 121.56300,590.42800 126.70600,597.39900 135.90500,595.19800 C 144.24400,593.30800 148.70100,589.50600 148.65900,578.19800 C 148.24400,564.83100 147.47300,555.51300 147.08600,551.95300 C 145.59700,538.96000 141.82900,526.77900 130.75800,527.27800 z "
       id="path620"
       sodipodi:nodetypes="cssssss" />
    <path
       style="font-size:12.000000px;fill:#3673b9;fill-rule:evenodd;stroke:#000000;stroke-width:5.0000000;stroke-linecap:round;stroke-linejoin:round"
       d="M 85.985600,547.51200 C 75.810100,548.42000 74.216900,562.55700 76.178700,575.63100 C 76.784300,578.96400 79.706000,594.21600 81.361600,598.08600 C 84.042800,607.18700 88.785900,615.40600 97.975700,610.33300 C 107.28300,605.46700 110.04500,600.46700 108.76200,592.93600 C 106.17000,580.73900 104.92000,575.86400 103.25700,569.46300 C 99.908700,557.61300 96.410300,546.23200 85.985600,547.51200 z "
       id="path621"
       sodipodi:nodetypes="cssssss" />
  </g>
  <path
     style="font-size:24.000000px;font-style:normal;font-weight:normal;fill:#000000;fill-opacity:1.0000000;stroke:none;stroke-width:1.0000000pt;stroke-linecap:butt;stroke-linejoin:miter;stroke-opacity:1.0000000;font-family:Bitstream Vera Sans"
     d="M 80.850287,206.30543 L 80.850287,198.43151 L 74.370502,198.43151 L 74.370502,195.17197 L 84.777433,195.17197 L 84.777433,207.75847 C 83.245817,208.84498 81.557148,209.66968 79.711414,210.23257 C 77.865636,210.78238 75.895520,211.05727 73.801066,211.05727 C 69.219392,211.05727 65.632601,209.72206 63.040694,207.05159 C 60.461862,204.36806 59.172456,200.63727 59.172456,195.85924 C 59.172456,191.06812 60.461862,187.33734 63.040694,184.66687 C 65.632601,181.98335 69.219392,180.64156 73.801066,180.64155 C 75.712262,180.64156 77.525281,180.87721 79.240155,181.34844 C 80.968082,181.81973 82.558563,182.51351 84.011641,183.42982 L 84.011641,187.65149 C 82.545477,186.40793 80.987711,185.47196 79.338333,184.84359 C 77.688921,184.21527 75.954429,183.90110 74.134878,183.90107 C 70.548066,183.90110 67.851438,184.90252 66.044962,186.90534 C 64.251561,188.90820 63.354855,191.89282 63.354866,195.85924 C 63.354855,199.81257 64.251561,202.79064 66.044962,204.79348 C 67.851438,206.79632 70.548066,207.79775 74.134878,207.79775 C 75.535536,207.79775 76.785672,207.67994 77.885298,207.44430 C 78.984869,207.19557 79.973199,206.81596 80.850287,206.30543 M 96.009053,184.43125 L 96.009053,195.44688 L 100.99653,195.44688 C 102.84227,195.44689 104.26913,194.96910 105.27712,194.01347 C 106.28507,193.05788 106.78905,191.69647 106.78906,189.92925 C 106.78905,188.17513 106.28507,186.82027 105.27712,185.86464 C 104.26913,184.90908 102.84227,184.43126 100.99653,184.43125 L 96.009053,184.43125 M 92.042649,181.17171 L 100.99653,181.17171 C 104.28223,181.17174 106.76287,181.91789 108.43847,183.41019 C 110.12711,184.88944 110.97145,187.06245 110.97147,189.92925 C 110.97145,192.82227 110.12711,195.00836 108.43847,196.48757 C 106.76287,197.96681 104.28223,198.70641 100.99653,198.70641 L 96.009053,198.70641 L 96.009053,210.48784 L 92.042649,210.48784 L 92.042649,181.17171 M 116.31238,181.17171 L 134.84850,181.17171 L 134.84850,184.50978 L 120.27880,184.50978 L 120.27880,193.18878 L 134.23979,193.18878 L 134.23979,196.52685 L 120.27880,196.52685 L 120.27880,207.14976 L 135.20194,207.14976 L 135.20194,210.48784 L 116.31238,210.48784 L 116.31238,181.17171 M 158.33281,207.14976 L 172.17599,207.14976 L 172.17599,210.48784 L 153.56134,210.48784 L 153.56134,207.14976 C 155.06673,205.59200 157.11540,203.50407 159.70732,200.88598 C 162.31231,198.25479 163.94861,196.55957 164.61624,195.80032 C 165.88601,194.37348 166.76961,193.16915 167.26707,192.18735 C 167.77757,191.19250 168.03284,190.21725 168.03285,189.26163 C 168.03284,187.70388 167.48304,186.43412 166.38345,185.45231 C 165.29694,184.47054 163.87662,183.97966 162.12251,183.97961 C 160.87891,183.97966 159.56330,184.19565 158.17572,184.62760 C 156.80122,185.05961 155.32854,185.71413 153.75771,186.59117 L 153.75771,182.58549 C 155.35473,181.94409 156.84703,181.45974 158.23463,181.13244 C 159.62222,180.80520 160.89199,180.64156 162.04397,180.64155 C 165.08095,180.64156 167.50268,181.40082 169.30918,182.91929 C 171.11564,184.43782 172.01889,186.46683 172.01891,189.00635 C 172.01889,190.21071 171.78981,191.35612 171.33167,192.44262 C 170.88656,193.51605 170.06841,194.78582 168.87718,196.25194 C 168.54990,196.63158 167.50922,197.73117 165.75511,199.55073 C 164.00098,201.35723 161.52689,203.89025 158.33281,207.14976 M 180.52116,205.50036 L 184.66432,205.50036 L 184.66432,210.48784 L 180.52116,210.48784 L 180.52116,205.50036 M 192.32223,181.17171 L 211.17252,181.17171 L 211.17252,182.86040 L 200.52998,210.48784 L 196.38682,210.48784 L 206.40103,184.50978 L 192.32223,184.50978 L 192.32223,181.17171"
     id="text1326" />
  <path
     style="font-size:46.729351px;font-style:normal;font-variant:normal;font-weight:bold;font-stretch:normal;text-align:start;line-height:125.00000%;writing-mode:lr-tb;text-anchor:start;fill:#000000;fill-opacity:0.50819671;stroke:none;stroke-width:1.0000000px;stroke-linecap:butt;stroke-linejoin:miter;stroke-opacity:1.0000000;font-family:Bitstream Vera Sans"
     d="M 6.1940754,302.79753 L 6.1940754,269.02543 L 11.830269,269.02543 L 11.830269,290.28333 L 17.214675,290.28333 L 17.214675,270.29311 L 22.850868,270.29311 L 22.850868,290.28333 L 35.111042,290.28333 L 35.111042,302.79753 L 6.1940754,302.79753 M 25.349387,245.39471 C 25.349397,247.82173 25.594729,249.65281 26.085385,250.88797 C 26.576058,252.10148 27.299143,252.70822 28.254641,252.70821 C 29.132680,252.70822 29.823484,252.22066 30.327056,251.24552 C 30.817726,250.24872 31.063058,248.87270 31.063054,247.11745 C 31.063058,244.92885 30.598218,243.08693 29.668532,241.59170 C 28.725945,240.09652 27.550932,239.34892 26.143490,239.34889 L 25.349387,239.34889 L 25.349387,245.39471 M 22.734658,227.61480 L 35.111042,227.61480 L 35.111042,239.34889 L 31.895894,239.34889 C 33.212944,240.90914 34.174906,242.66437 34.781780,244.61460 C 35.375743,246.56489 35.672724,248.93772 35.672724,251.73308 C 35.672724,255.50360 35.020657,258.56986 33.716520,260.93183 C 32.399474,263.27215 30.695060,264.44232 28.603272,264.44230 C 26.059570,264.44232 24.193752,262.97962 23.005815,260.05421 C 21.817902,257.10715 21.223940,252.49153 21.223925,246.20733 L 21.223925,239.34889 L 20.681611,239.34889 C 19.584087,239.34892 18.783528,240.07485 18.279934,241.52668 C 17.763462,242.97857 17.505217,245.24305 17.505200,248.32011 C 17.505217,250.81214 17.653708,253.13079 17.950672,255.27606 C 18.247671,257.42137 18.693143,259.41497 19.287090,261.25687 L 13.999526,261.25687 C 13.638004,258.76488 13.366848,256.26204 13.186055,253.74835 C 12.992393,251.23469 12.895551,248.72102 12.895529,246.20733 C 12.895551,239.64146 13.670285,234.90665 15.219733,232.00289 C 16.756308,229.07753 19.261281,227.61484 22.734658,227.61480 M 17.020991,182.98622 C 15.678137,181.51272 14.658071,179.76833 13.960789,177.75301 C 13.250637,175.71610 12.895551,173.48414 12.895529,171.05709 C 12.895551,166.87492 13.663829,163.68949 15.200365,161.50080 C 16.736939,159.31222 18.970755,158.21791 21.901819,158.21784 L 35.111042,158.21784 L 35.111042,169.91944 L 23.799918,169.91944 C 23.632071,169.89782 23.457755,169.88699 23.276972,169.88693 C 23.096213,169.86532 22.837968,169.85448 22.502238,169.85443 C 20.965695,169.85448 19.855243,170.23370 19.170879,170.99208 C 18.473634,171.75057 18.125005,172.97491 18.124988,174.66509 C 18.125005,176.87543 18.667318,178.58733 19.751930,179.80079 C 20.836573,180.99266 22.405408,181.61023 24.458442,181.65354 L 35.111042,181.65354 L 35.111042,193.35513 L 23.799918,193.35513 C 21.398255,193.35516 19.855243,193.70187 19.170879,194.39528 C 18.473634,195.08873 18.125005,196.32390 18.124988,198.10077 C 18.125005,200.33277 18.673774,202.05550 19.771298,203.26898 C 20.855941,204.48250 22.411865,205.08924 24.439074,205.08922 L 35.111042,205.08922 L 35.111042,216.79083 L 13.418475,216.79083 L 13.418475,205.08922 L 16.594886,205.08922 C 15.368243,203.65905 14.445019,202.02300 13.825211,200.18107 C 13.205445,198.31749 12.895551,196.26972 12.895529,194.03772 C 12.895551,191.52408 13.257094,189.30295 13.980158,187.37431 C 14.703264,185.44575 15.716874,183.98306 17.020991,182.98622 M 13.418475,147.29636 L 13.418475,135.65978 L 35.111042,135.65978 L 35.111042,147.29636 L 13.418475,147.29636 M 4.9738686,147.29636 L 4.9738686,135.65978 L 10.629431,135.65978 L 10.629431,147.29636 L 4.9738686,147.29636 M 4.9738686,124.41325 L 4.9738686,112.77666 L 35.111042,112.77666 L 35.111042,124.41325 L 4.9738686,124.41325 M 13.418475,101.53013 L 13.418475,89.893543 L 35.111042,89.893543 L 35.111042,101.53013 L 13.418475,101.53013 M 4.9738686,101.53013 L 4.9738686,89.893543 L 10.629431,89.893543 L 10.629431,101.53013 L 4.9738686,101.53013 M 25.349387,62.329785 C 25.349397,64.756802 25.594729,66.587883 26.085385,67.823033 C 26.576058,69.036547 27.299143,69.643296 28.254641,69.643281 C 29.132680,69.643296 29.823484,69.155731 30.327056,68.180582 C 30.817726,67.183797 31.063058,65.807777 31.063054,64.052521 C 31.063058,61.863911 30.598218,60.021995 29.668532,58.526767 C 28.725945,57.031591 27.550932,56.283990 26.143490,56.283963 L 25.349387,56.283963 L 25.349387,62.329785 M 22.734658,44.549865 L 35.111042,44.549865 L 35.111042,56.283963 L 31.895894,56.283963 C 33.212944,57.844202 34.174906,59.599439 34.781780,61.549680 C 35.375743,63.499966 35.672724,65.872786 35.672724,68.668149 C 35.672724,72.438674 35.020657,75.504922 33.716520,77.866902 C 32.399474,80.207224 30.695060,81.377382 28.603272,81.377380 C 26.059570,81.377382 24.193752,79.914685 23.005815,76.989282 C 21.817902,74.042224 21.223940,69.426601 21.223925,63.142397 L 21.223925,56.283963 L 20.681611,56.283963 C 19.584087,56.283990 18.783528,57.009922 18.279934,58.461759 C 17.763462,59.913648 17.505217,62.178120 17.505200,65.255184 C 17.505217,67.747206 17.653708,70.065853 17.950672,72.211131 C 18.247671,74.356432 18.693143,76.350036 19.287090,78.191945 L 13.999526,78.191945 C 13.638004,75.699948 13.366848,73.197110 13.186055,70.683423 C 12.992393,68.169764 12.895551,65.656091 12.895529,63.142397 C 12.895551,56.576530 13.670285,51.841723 15.219733,48.937962 C 16.756308,46.012602 19.261281,44.549904 22.734658,44.549865 M 19.325826,6.6172104 C 19.041772,7.6357140 18.835177,8.6541850 18.706039,9.6726265 C 18.564020,10.669457 18.493002,11.677094 18.492986,12.695538 C 18.493002,15.685969 19.067597,17.993781 20.216771,19.618981 C 21.353062,21.222551 22.986458,22.024325 25.116966,22.024308 L 35.111042,22.024308 L 35.111042,33.660893 L 13.418475,33.660893 L 13.418475,22.024308 L 16.982254,22.024308 C 15.561927,20.529123 14.528948,18.817225 13.883316,16.888610 C 13.224814,14.938368 12.895551,12.608886 12.895529,9.9001575 C 12.895551,9.5101340 12.908463,9.0875770 12.934266,8.6324849 C 12.947200,8.1774540 12.985937,7.5165312 13.050476,6.6497149 L 19.325826,6.6172104"
     id="text1325" />
  <path
     style="font-size:12.000000px;font-style:normal;font-weight:normal;line-height:125.00000%;fill:#000000;fill-opacity:1.0000000;stroke:none;stroke-width:1.0000000px;stroke-linecap:butt;stroke-linejoin:miter;stroke-opacity:1.0000000;font-family:Bitstream Vera Sans"
     d="M 78.094488,250.08318 L 78.094488,253.02026 L 79.834183,253.02026 C 80.417657,253.02026 80.849000,252.90034 81.128215,252.66051 C 81.411000,252.41710 81.552395,252.04661 81.552400,251.54904 C 81.552395,251.04790 81.411000,250.67920 81.128215,250.44293 C 80.849000,250.20311 80.417657,250.08319 79.834183,250.08318 L 78.094488,250.08318 M 78.094488,246.78636 L 78.094488,249.20260 L 79.699947,249.20260 C 80.229726,249.20261 80.623484,249.10417 80.881221,248.90728 C 81.142529,248.70683 81.273185,248.40256 81.273189,247.99448 C 81.273185,247.58999 81.142529,247.28751 80.881221,247.08705 C 80.623484,246.88659 80.229726,246.78636 79.699947,246.78636 L 78.094488,246.78636 M 77.009863,245.89503 L 79.780489,245.89503 C 80.607375,245.89504 81.244548,246.06686 81.692005,246.41050 C 82.139451,246.75415 82.363178,247.24276 82.363183,247.87635 C 82.363178,248.36677 82.248630,248.75694 82.019540,249.04688 C 81.790439,249.33684 81.453954,249.51762 81.010088,249.58920 C 81.543446,249.70375 81.956891,249.94359 82.250425,250.30870 C 82.547528,250.67025 82.696082,251.12307 82.696089,251.66716 C 82.696082,252.38310 82.452668,252.93615 81.965846,253.32632 C 81.479012,253.71650 80.786357,253.91159 79.887877,253.91159 L 77.009863,253.91159 L 77.009863,245.89503 M 86.835918,248.59048 C 86.306132,248.59049 85.887317,248.79811 85.579471,249.21334 C 85.271623,249.62500 85.117699,250.19057 85.117700,250.91008 C 85.117699,251.62959 85.269833,252.19696 85.574102,252.61219 C 85.881947,253.02385 86.302552,253.22967 86.835918,253.22967 C 87.362118,253.22967 87.779143,253.02205 88.086995,252.60682 C 88.394837,252.19158 88.548761,251.62600 88.548765,250.91008 C 88.548761,250.19773 88.394837,249.63395 88.086995,249.21871 C 87.779143,248.79990 87.362118,248.59049 86.835918,248.59048 M 86.835918,247.75285 C 87.695022,247.75286 88.369780,248.03208 88.860192,248.59048 C 89.350595,249.14891 89.595798,249.92210 89.595804,250.91008 C 89.595798,251.89447 89.350595,252.66768 88.860192,253.22967 C 88.369780,253.78810 87.695022,254.06730 86.835918,254.06730 C 85.973227,254.06730 85.296680,253.78810 84.806274,253.22967 C 84.319445,252.66768 84.076031,251.89447 84.076032,250.91008 C 84.076031,249.92210 84.319445,249.14891 84.806274,248.59048 C 85.296680,248.03208 85.973227,247.75286 86.835918,247.75285 M 93.558442,248.59048 C 93.028656,248.59049 92.609841,248.79811 92.301996,249.21334 C 91.994147,249.62500 91.840224,250.19057 91.840225,250.91008 C 91.840224,251.62959 91.992357,252.19696 92.296626,252.61219 C 92.604471,253.02385 93.025077,253.22967 93.558442,253.22967 C 94.084643,253.22967 94.501668,253.02205 94.809520,252.60682 C 95.117361,252.19158 95.271285,251.62600 95.271291,250.91008 C 95.271285,250.19773 95.117361,249.63395 94.809520,249.21871 C 94.501668,248.79990 94.084643,248.59049 93.558442,248.59048 M 93.558442,247.75285 C 94.417547,247.75286 95.092305,248.03208 95.582717,248.59048 C 96.073119,249.14891 96.318322,249.92210 96.318329,250.91008 C 96.318322,251.89447 96.073119,252.66768 95.582717,253.22967 C 95.092305,253.78810 94.417547,254.06730 93.558442,254.06730 C 92.695752,254.06730 92.019204,253.78810 91.528798,253.22967 C 91.041969,252.66768 90.798555,251.89447 90.798556,250.91008 C 90.798555,249.92210 91.041969,249.14891 91.528798,248.59048 C 92.019204,248.03208 92.695752,247.75286 93.558442,247.75285 M 98.927871,246.19036 L 98.927871,247.89783 L 100.96288,247.89783 L 100.96288,248.66565 L 98.927871,248.66565 L 98.927871,251.93027 C 98.927869,252.42068 98.994091,252.73569 99.126540,252.87529 C 99.262563,253.01489 99.536404,253.08470 99.948062,253.08470 L 100.96288,253.08470 L 100.96288,253.91159 L 99.948062,253.91159 C 99.185601,253.91159 98.659398,253.77019 98.369450,253.48741 C 98.079501,253.20103 97.934526,252.68199 97.934527,251.93027 L 97.934527,248.66565 L 97.209654,248.66565 L 97.209654,247.89783 L 97.934527,247.89783 L 97.934527,246.19036 L 98.927871,246.19036 M 102.26766,247.89783 L 103.25563,247.89783 L 103.25563,253.91159 L 102.26766,253.91159 L 102.26766,247.89783 M 102.26766,245.55675 L 103.25563,245.55675 L 103.25563,246.80784 L 102.26766,246.80784 L 102.26766,245.55675 M 110.31643,250.28186 L 110.31643,253.91159 L 109.32845,253.91159 L 109.32845,250.31408 C 109.32845,249.74492 109.21748,249.31894 108.99555,249.03615 C 108.77361,248.75336 108.44070,248.61197 107.99684,248.61196 C 107.46347,248.61197 107.04286,248.78200 106.73502,249.12206 C 106.42717,249.46213 106.27325,249.92569 106.27325,250.51274 L 106.27325,253.91159 L 105.27990,253.91159 L 105.27990,247.89783 L 106.27325,247.89783 L 106.27325,248.83211 C 106.50950,248.47058 106.78692,248.20031 107.10551,248.02132 C 107.42767,247.84235 107.79816,247.75286 108.21698,247.75285 C 108.90784,247.75286 109.43047,247.96764 109.78485,248.39718 C 110.13923,248.82317 110.31643,249.45138 110.31643,250.28186 M 116.25502,250.83491 C 116.25502,250.11899 116.10646,249.56414 115.80936,249.17039 C 115.51582,248.77663 115.10237,248.57975 114.56902,248.57975 C 114.03924,248.57975 113.62579,248.77663 113.32868,249.17039 C 113.03515,249.56414 112.88839,250.11899 112.88839,250.83491 C 112.88839,251.54726 113.03515,252.10031 113.32868,252.49406 C 113.62579,252.88782 114.03924,253.08470 114.56902,253.08470 C 115.10237,253.08470 115.51582,252.88782 115.80936,252.49406 C 116.10646,252.10031 116.25502,251.54726 116.25502,250.83491 M 117.24299,253.16524 C 117.24298,254.18901 117.01568,254.94968 116.56107,255.44724 C 116.10646,255.94839 115.41022,256.19897 114.47237,256.19897 C 114.12514,256.19897 113.79761,256.17211 113.48976,256.11843 C 113.18191,256.06831 112.88301,255.98956 112.59306,255.88217 L 112.59306,254.92104 C 112.88301,255.07855 113.16938,255.19488 113.45217,255.27005 C 113.73496,255.34523 114.02313,255.38281 114.31666,255.38281 C 114.96457,255.38281 115.44960,255.21278 115.77177,254.87271 C 116.09393,254.53623 116.25502,254.02614 116.25502,253.34243 L 116.25502,252.85382 C 116.05097,253.20819 115.78966,253.47309 115.47108,253.64848 C 115.15249,253.82389 114.77126,253.91159 114.32739,253.91159 C 113.58999,253.91159 112.99577,253.63059 112.54474,253.06859 C 112.09371,252.50659 111.86819,251.76203 111.86819,250.83491 C 111.86819,249.90421 112.09371,249.15786 112.54474,248.59586 C 112.99577,248.03386 113.58999,247.75286 114.32739,247.75285 C 114.77126,247.75286 115.15249,247.84056 115.47108,248.01595 C 115.78966,248.19136 116.05097,248.45626 116.25502,248.81063 L 116.25502,247.89783 L 117.24299,247.89783 L 117.24299,253.16524 M 119.41761,252.54776 L 120.55056,252.54776 L 120.55056,253.91159 L 119.41761,253.91159 L 119.41761,252.54776 M 127.40732,246.78636 L 127.40732,249.79861 L 128.77116,249.79861 C 129.27588,249.79861 129.66606,249.66795 129.94169,249.40664 C 130.21732,249.14533 130.35513,248.77305 130.35514,248.28980 C 130.35513,247.81013 130.21732,247.43964 129.94169,247.17832 C 129.66606,246.91702 129.27588,246.78636 128.77116,246.78636 L 127.40732,246.78636 M 126.32270,245.89503 L 128.77116,245.89503 C 129.66963,245.89504 130.34797,246.09907 130.80616,246.50715 C 131.26793,246.91165 131.49882,247.50587 131.49883,248.28980 C 131.49882,249.08090 131.26793,249.67869 130.80616,250.08318 C 130.34797,250.48769 129.66963,250.68994 128.77116,250.68993 L 127.40732,250.68993 L 127.40732,253.91159 L 126.32270,253.91159 L 126.32270,245.89503 M 132.91636,245.55675 L 133.90433,245.55675 L 133.90433,253.91159 L 132.91636,253.91159 L 132.91636,245.55675 M 141.11010,250.65772 L 141.11010,251.14097 L 136.56756,251.14097 C 136.61052,251.82109 136.81456,252.34013 137.17968,252.69809 C 137.54838,253.05248 138.06026,253.22967 138.71534,253.22967 C 139.09477,253.22967 139.46168,253.18314 139.81607,253.09007 C 140.17403,252.99700 140.52840,252.85739 140.87922,252.67125 L 140.87922,253.60553 C 140.52483,253.75588 140.16150,253.87043 139.78922,253.94918 C 139.41693,254.02792 139.03929,254.06730 138.65628,254.06730 C 137.69694,254.06730 136.93627,253.78810 136.37427,253.22967 C 135.81585,252.67125 135.53663,251.91595 135.53663,250.96378 C 135.53663,249.97938 135.80153,249.19902 136.33131,248.62270 C 136.86467,248.04281 137.58238,247.75286 138.48446,247.75285 C 139.29344,247.75286 139.93240,248.01417 140.40134,248.53679 C 140.87384,249.05584 141.11010,249.76282 141.11010,250.65772 M 140.12212,250.36776 C 140.11496,249.82725 139.96283,249.39591 139.66572,249.07374 C 139.37219,248.75157 138.98202,248.59049 138.49519,248.59048 C 137.94393,248.59049 137.50185,248.74620 137.16895,249.05763 C 136.83962,249.36905 136.64990,249.80756 136.59978,250.37314 L 140.12212,250.36776 M 145.46471,250.88860 C 144.66645,250.88860 144.11340,250.97989 143.80555,251.16244 C 143.49770,251.34501 143.34378,251.65643 143.34378,252.09672 C 143.34378,252.44752 143.45833,252.72674 143.68743,252.93435 C 143.92010,253.13840 144.23511,253.24041 144.63245,253.24041 C 145.18013,253.24041 145.61863,253.04711 145.94796,252.66051 C 146.28086,252.27034 146.44731,251.75308 146.44732,251.10875 L 146.44732,250.88860 L 145.46471,250.88860 M 147.43528,250.48052 L 147.43528,253.91159 L 146.44732,253.91159 L 146.44732,252.99878 C 146.22179,253.36390 145.94079,253.63417 145.60432,253.80957 C 145.26782,253.98140 144.85617,254.06730 144.36935,254.06730 C 143.75365,254.06730 143.26324,253.89548 142.89812,253.55184 C 142.53658,253.20462 142.35581,252.74106 142.35581,252.16115 C 142.35581,251.48461 142.58132,250.97451 143.03236,250.63087 C 143.48697,250.28722 144.16351,250.11541 145.06200,250.11540 L 146.44732,250.11540 L 146.44732,250.01875 C 146.44731,249.56414 146.29696,249.21334 145.99628,248.96635 C 145.69916,248.71578 145.28036,248.59049 144.73983,248.59048 C 144.39619,248.59049 144.06150,248.63165 143.73576,248.71398 C 143.41000,248.79632 143.09679,248.91982 142.79610,249.08447 L 142.79610,248.17167 C 143.15764,248.03208 143.50845,247.92826 143.84852,247.86024 C 144.18857,247.78865 144.51968,247.75286 144.84186,247.75285 C 145.71170,247.75286 146.36140,247.97838 146.79096,248.42940 C 147.22051,248.88044 147.43528,249.56414 147.43528,250.48052 M 153.30944,248.07502 L 153.30944,249.00930 C 153.03023,248.86612 152.74028,248.75873 152.43960,248.68713 C 152.13890,248.61554 151.82748,248.57975 151.50532,248.57975 C 151.01491,248.57975 150.64620,248.65492 150.39922,248.80527 C 150.15580,248.95561 150.03409,249.18113 150.03410,249.48181 C 150.03409,249.71091 150.12180,249.89168 150.29719,250.02412 C 150.47260,250.15299 150.82518,250.27649 151.35497,250.39462 L 151.69324,250.46979 C 152.39485,250.62013 152.89242,250.83312 153.18595,251.10875 C 153.48305,251.38080 153.63160,251.76203 153.63161,252.25243 C 153.63160,252.81085 153.40967,253.25294 152.96580,253.57869 C 152.52551,253.90443 151.91876,254.06730 151.14557,254.06730 C 150.82340,254.06730 150.48692,254.03508 150.13611,253.97065 C 149.78888,253.90980 149.42197,253.81673 149.03538,253.69144 L 149.03538,252.67125 C 149.40050,252.86097 149.76025,253.00416 150.11464,253.10081 C 150.46901,253.19387 150.81981,253.24041 151.16704,253.24041 C 151.63239,253.24041 151.99035,253.16165 152.24093,253.00415 C 152.49149,252.84307 152.61678,252.61755 152.61679,252.32761 C 152.61678,252.05914 152.52551,251.85331 152.34294,251.71013 C 152.16396,251.56694 151.76841,251.42913 151.15630,251.29668 L 150.81266,251.21614 C 150.20054,251.08727 149.75846,250.89040 149.48641,250.62550 C 149.21436,250.35703 149.07833,249.99012 149.07833,249.52476 C 149.07833,248.95919 149.27880,248.52248 149.67971,248.21463 C 150.08062,247.90678 150.64979,247.75286 151.38718,247.75285 C 151.75230,247.75286 152.09595,247.77970 152.41811,247.83340 C 152.74028,247.88710 153.03739,247.96764 153.30944,248.07502 M 160.35413,250.65772 L 160.35413,251.14097 L 155.81160,251.14097 C 155.85455,251.82109 156.05859,252.34013 156.42371,252.69809 C 156.79241,253.05248 157.30429,253.22967 157.95937,253.22967 C 158.33880,253.22967 158.70571,253.18314 159.06010,253.09007 C 159.41806,252.99700 159.77244,252.85739 160.12325,252.67125 L 160.12325,253.60553 C 159.76886,253.75588 159.40553,253.87043 159.03326,253.94918 C 158.66097,254.02792 158.28332,254.06730 157.90031,254.06730 C 156.94097,254.06730 156.18030,253.78810 155.61830,253.22967 C 155.05988,252.67125 154.78067,251.91595 154.78067,250.96378 C 154.78067,249.97938 155.04556,249.19902 155.57535,248.62270 C 156.10870,248.04281 156.82642,247.75286 157.72849,247.75285 C 158.53747,247.75286 159.17643,248.01417 159.64537,248.53679 C 160.11787,249.05584 160.35413,249.76282 160.35413,250.65772 M 159.36616,250.36776 C 159.35900,249.82725 159.20686,249.39591 158.90975,249.07374 C 158.61622,248.75157 158.22605,248.59049 157.73922,248.59048 C 157.18796,248.59049 156.74588,248.74620 156.41298,249.05763 C 156.08365,249.36905 155.89393,249.80756 155.84382,250.37314 L 159.36616,250.36776 M 164.90204,247.89783 L 165.89001,247.89783 L 167.12499,252.59071 L 168.35458,247.89783 L 169.51975,247.89783 L 170.75472,252.59071 L 171.98431,247.89783 L 172.97229,247.89783 L 171.39905,253.91159 L 170.23389,253.91159 L 168.93985,248.98246 L 167.64045,253.91159 L 166.47529,253.91159 L 164.90204,247.89783 M 177.20877,250.88860 C 176.41052,250.88860 175.85747,250.97989 175.54962,251.16244 C 175.24177,251.34501 175.08785,251.65643 175.08785,252.09672 C 175.08785,252.44752 175.20239,252.72674 175.43149,252.93435 C 175.66416,253.13840 175.97917,253.24041 176.37651,253.24041 C 176.92419,253.24041 177.36269,253.04711 177.69202,252.66051 C 178.02492,252.27034 178.19137,251.75308 178.19137,251.10875 L 178.19137,250.88860 L 177.20877,250.88860 M 179.17935,250.48052 L 179.17935,253.91159 L 178.19137,253.91159 L 178.19137,252.99878 C 177.96585,253.36390 177.68486,253.63417 177.34837,253.80957 C 177.01189,253.98140 176.60023,254.06730 176.11341,254.06730 C 175.49771,254.06730 175.00730,253.89548 174.64218,253.55184 C 174.28064,253.20462 174.09987,252.74106 174.09987,252.16115 C 174.09987,251.48461 174.32539,250.97451 174.77642,250.63087 C 175.23103,250.28722 175.90758,250.11541 176.80607,250.11540 L 178.19137,250.11540 L 178.19137,250.01875 C 178.19137,249.56414 178.04103,249.21334 177.74035,248.96635 C 177.44323,248.71578 177.02441,248.59049 176.48390,248.59048 C 176.14025,248.59049 175.80556,248.63165 175.47981,248.71398 C 175.15407,248.79632 174.84085,248.91982 174.54016,249.08447 L 174.54016,248.17167 C 174.90171,248.03208 175.25251,247.92826 175.59257,247.86024 C 175.93264,247.78865 176.26375,247.75286 176.58591,247.75285 C 177.45577,247.75286 178.10546,247.97838 178.53501,248.42940 C 178.96456,248.88044 179.17935,249.56414 179.17935,250.48052 M 181.21973,247.89783 L 182.20771,247.89783 L 182.20771,253.91159 L 181.21973,253.91159 L 181.21973,247.89783 M 181.21973,245.55675 L 182.20771,245.55675 L 182.20771,246.80784 L 181.21973,246.80784 L 181.21973,245.55675 M 185.24681,246.19036 L 185.24681,247.89783 L 187.28182,247.89783 L 187.28182,248.66565 L 185.24681,248.66565 L 185.24681,251.93027 C 185.24681,252.42068 185.31303,252.73569 185.44547,252.87529 C 185.58150,253.01489 185.85533,253.08470 186.26699,253.08470 L 187.28182,253.08470 L 187.28182,253.91159 L 186.26699,253.91159 C 185.50453,253.91159 184.97833,253.77019 184.68839,253.48741 C 184.39843,253.20103 184.25346,252.68199 184.25346,251.93027 L 184.25346,248.66565 L 183.52859,248.66565 L 183.52859,247.89783 L 184.25346,247.89783 L 184.25346,246.19036 L 185.24681,246.19036 M 188.72619,252.54776 L 189.85915,252.54776 L 189.85915,253.91159 L 188.72619,253.91159 L 188.72619,252.54776"
     id="text3642" />
  <path
     style="fill:#9ca3c2;fill-rule:evenodd;stroke:#000000;stroke-width:0.084245086;stroke-linecap:round;stroke-linejoin:round"
     d="M 124.78426,300.15604 C 124.79951,303.59089 122.02419,306.39097 118.58934,306.40623 C 115.15451,306.42149 112.35441,303.64617 112.33915,300.21133 C 112.32389,296.77649 115.09921,293.97640 118.53405,293.96115 C 121.96890,293.94588 124.76899,296.72120 124.78426,300.15604 z M 122.34091,300.16691 C 122.35448,303.22112 120.67240,305.70743 118.58628,305.71670 C 116.50015,305.72596 114.79606,303.25469 114.78248,300.20048 C 114.76892,297.14625 116.45100,294.65995 118.53712,294.65068 C 120.62323,294.64142 122.32734,297.11268 122.34091,300.16691 z "
     id="path3646" />
  <path
     style="fill:#9ca3c2;fill-rule:evenodd;stroke:#000000;stroke-width:0.084245086;stroke-linecap:round;stroke-linejoin:round"
     d="M 123.04015,300.12600 C 123.04069,297.54357 124.86610,293.91566 129.25283,293.89388 C 130.30920,293.89461 131.89323,294.61586 132.08350,295.21771 C 128.00150,293.63391 124.84359,297.01806 124.84863,300.16770 C 124.87863,303.34207 128.15984,306.67960 132.13730,305.01116 C 131.86276,305.59133 130.49618,306.36731 129.29493,306.37823 C 124.93313,306.41802 123.03972,302.73330 123.04015,300.12600 z "
     id="path3648"
     sodipodi:nodetypes="csczcsz" />
  <path
     style="fill:#9ca3c2;fill-rule:evenodd;stroke:#000000;stroke-width:0.084245086;stroke-linecap:round;stroke-linejoin:round"
     d="M 126.97916,297.25333 C 128.33592,297.21831 129.42318,298.59938 129.44605,300.11797 C 129.46053,301.64507 128.44120,303.06462 127.00237,303.01616 C 128.42566,302.13328 128.45660,300.40752 128.45220,300.12735 C 128.44775,299.83870 128.37375,298.08845 126.97916,297.25333 z "
     id="path3650"
     sodipodi:nodetypes="czczc" />
  <path
     style="font-size:56.000000px;stroke-width:3.0000000pt;font-family:Verdana"
     d="M 158.89246,302.18315 L 158.07423,302.19368 L 158.03858,299.42555 C 158.03571,299.20215 158.01998,298.99340 157.99136,298.79932 C 157.96270,298.60237 157.91284,298.44919 157.84179,298.33983 C 157.76767,298.21888 157.66205,298.13029 157.52493,298.07401 C 157.38779,298.01484 157.21038,297.98665 156.99276,297.98944 C 156.76934,297.99232 156.53647,298.05045 156.29415,298.16385 C 156.05184,298.27725 155.82009,298.42100 155.59886,298.59506 L 155.64560,302.22495 L 154.82733,302.23549 L 154.76475,297.37388 L 155.58300,297.36335 L 155.58996,297.90302 C 155.84256,297.68793 156.10448,297.51914 156.37571,297.39667 C 156.64692,297.27418 156.92616,297.21109 157.21342,297.20740 C 157.73861,297.20063 158.14105,297.35362 158.42078,297.66635 C 158.70051,297.97908 158.84419,298.43284 158.85183,299.02765 L 158.89246,302.18315 z M 153.55672,299.90551 L 149.97470,299.95164 C 149.97854,300.25049 150.02689,300.51104 150.11973,300.73333 C 150.21251,300.95269 150.33816,301.13245 150.49667,301.27260 C 150.64935,301.40994 150.82915,301.51211 151.03606,301.57909 C 151.24587,301.64603 151.47554,301.67790 151.72506,301.67469 C 152.05585,301.67042 152.38725,301.60088 152.71926,301.46601 C 153.05412,301.32818 153.29180,301.19454 153.43234,301.06505 L 153.47588,301.06448 L 153.48735,301.95672 C 153.21319,302.07633 152.93300,302.17716 152.64675,302.25919 C 152.36050,302.34123 152.05924,302.38429 151.74296,302.38836 C 150.93632,302.39873 150.30387,302.18925 149.84563,301.75982 C 149.38734,301.32751 149.15303,300.70948 149.14267,299.90574 C 149.13244,299.11072 149.34049,298.47684 149.76680,298.00412 C 150.19603,297.53136 150.76464,297.29041 151.47261,297.28131 C 152.12838,297.27285 152.63572,297.45787 152.99464,297.83631 C 153.35648,298.21475 153.54192,298.75647 153.55101,299.46157 L 153.55672,299.90551 z M 152.75216,299.28903 C 152.74374,298.85964 152.63065,298.52881 152.41291,298.29655 C 152.19806,298.06423 151.87302,297.95087 151.43779,297.95649 C 150.99964,297.96212 150.65167,298.09575 150.39386,298.35735 C 150.13893,298.61892 149.99653,298.94142 149.96664,299.32490 L 152.75216,299.28903 z M 148.21015,299.83068 C 148.21523,300.22530 148.16329,300.58728 148.05434,300.91662 C 147.94538,301.24305 147.78935,301.52077 147.58623,301.74974 C 147.39750,301.96692 147.17332,302.13667 146.91371,302.25901 C 146.65696,302.37837 146.38351,302.43996 146.09334,302.44368 C 145.84092,302.44693 145.61134,302.42234 145.40461,302.36984 C 145.20080,302.31731 144.99222,302.23439 144.77891,302.12106 L 144.80512,304.15798 L 143.98689,304.16851 L 143.90122,297.51374 L 144.71947,297.50320 L 144.72601,298.01241 C 144.94129,297.82682 145.18306,297.67135 145.45133,297.54599 C 145.72248,297.41773 146.01184,297.35160 146.31940,297.34764 C 146.90553,297.34010 147.36394,297.55622 147.69463,297.99597 C 148.02818,298.43279 148.20002,299.04434 148.21015,299.83068 z M 147.36605,299.86333 C 147.35852,299.27721 147.25278,298.84036 147.04881,298.55276 C 146.84489,298.26519 146.53545,298.12407 146.12052,298.12942 C 145.88549,298.13245 145.64967,298.18627 145.41305,298.29088 C 145.17644,298.39549 144.95037,298.53191 144.73487,298.70010 L 144.77034,301.45514 C 145.00380,301.55662 145.20349,301.62515 145.36937,301.66076 C 145.53815,301.69629 145.72845,301.71271 145.94027,301.70999 C 146.39581,301.70411 146.74927,301.54575 147.00065,301.23491 C 147.25202,300.92405 147.37384,300.46685 147.36605,299.86333 z M 142.66599,299.96301 C 142.67619,300.75514 142.48114,301.38304 142.08081,301.84673 C 141.68049,302.31042 141.13940,302.54664 140.45754,302.55542 C 139.76985,302.56427 139.21995,302.34210 138.80783,301.88886 C 138.39862,301.43561 138.18889,300.81292 138.17870,300.02078 C 138.16850,299.22865 138.36211,298.60075 138.75952,298.13713 C 139.15981,297.67054 139.70379,297.43282 140.39148,297.42395 C 141.07334,297.41517 141.62035,297.63886 142.03251,298.09499 C 142.44463,298.54820 142.65580,299.17088 142.66599,299.96301 z M 141.82164,299.97388 C 141.81354,299.34424 141.68419,298.87867 141.43363,298.57718 C 141.18305,298.27279 140.83869,298.12341 140.40054,298.12905 C 139.95659,298.13476 139.61329,298.29299 139.37061,298.60374 C 139.13080,298.91154 139.01495,299.38026 139.02306,300.00992 C 139.03090,300.61925 139.16019,301.08046 139.41088,301.39356 C 139.66156,301.70376 140.00742,301.85600 140.44844,301.85032 C 140.88368,301.84472 141.22264,301.68511 141.46526,301.37148 C 141.71078,301.05489 141.82956,300.58901 141.82164,299.97388 z "
     id="path3652" />
  <path
     style="font-size:56.000000px;fill:#929292;stroke-width:3.0000000pt;font-family:Verdana"
     d="M 205.78285,302.06313 L 204.96453,302.06486 L 204.96347,301.55559 C 204.72883,301.75923 204.48395,301.91789 204.22885,302.03160 C 203.97374,302.14531 203.69674,302.20248 203.39783,302.20311 C 202.81749,302.20434 202.35561,301.98190 202.01225,301.53574 C 201.67179,301.08957 201.50070,300.47040 201.49902,299.67820 C 201.49815,299.26616 201.55541,298.89895 201.67081,298.57660 C 201.78908,298.25424 201.94811,297.97966 202.14784,297.75294 C 202.34471,297.53194 202.57359,297.36316 202.83450,297.24654 C 203.09834,297.12989 203.37098,297.07129 203.65246,297.07068 C 203.90781,297.07015 204.13421,297.09721 204.33167,297.15196 C 204.52908,297.20376 204.73674,297.28602 204.95462,297.39874 L 204.95016,295.29202 L 205.76846,295.29028 L 205.78285,302.06313 z M 204.96199,300.86786 L 204.95606,298.07776 C 204.73532,297.97957 204.53786,297.91179 204.36365,297.87445 C 204.18947,297.83709 203.99936,297.81863 203.79334,297.81906 C 203.33485,297.82003 202.97825,297.98041 202.72357,298.30014 C 202.46889,298.61987 202.34217,299.07283 202.34343,299.65898 C 202.34464,300.23645 202.44425,300.67589 202.64222,300.97726 C 202.84017,301.27571 203.15678,301.42449 203.59206,301.42357 C 203.82420,301.42308 204.05913,301.37178 204.29687,301.26972 C 204.53460,301.16476 204.75632,301.03080 204.96199,300.86786 z M 200.59375,299.72802 L 197.01145,299.73561 C 197.01209,300.03450 197.05763,300.29557 197.14806,300.51881 C 197.23848,300.73917 197.36220,300.92027 197.51919,301.06213 C 197.67039,301.20110 197.84909,301.30518 198.05525,301.37439 C 198.26432,301.44359 198.49366,301.47792 198.74321,301.47738 C 199.07402,301.47669 199.40615,301.41070 199.73955,301.27941 C 200.07590,301.14520 200.31501,301.01409 200.45693,300.88613 L 200.50046,300.88603 L 200.50235,301.77834 C 200.22693,301.89501 199.94565,301.99281 199.65856,302.07177 C 199.37142,302.15073 199.06973,302.19054 198.75342,302.19122 C 197.94673,302.19292 197.31656,301.97663 196.86295,301.54232 C 196.40934,301.10511 196.18167,300.48459 196.17996,299.68079 C 196.17828,298.88569 196.39313,298.25410 196.82451,297.78599 C 197.25878,297.31788 197.82995,297.08305 198.53800,297.08155 C 199.19381,297.08016 199.69912,297.27060 200.05395,297.65288 C 200.41169,298.03518 200.59131,298.57888 200.59280,299.28402 L 200.59375,299.72802 z M 199.79587,299.10291 C 199.79206,298.67344 199.68253,298.34143 199.46730,298.10682 C 199.25497,297.87223 198.93118,297.75538 198.49589,297.75630 C 198.05772,297.75725 197.70833,297.88710 197.44770,298.14594 C 197.19001,298.40474 197.04413,298.72570 197.01013,299.10881 L 199.79587,299.10291 z M 194.91843,302.08619 L 194.10012,302.08793 L 194.09903,301.57865 C 193.86442,301.78229 193.61957,301.94095 193.36445,302.05467 C 193.10931,302.16838 192.83230,302.22556 192.53343,302.22618 C 191.95306,302.22742 191.49118,302.00496 191.14782,301.55880 C 190.80737,301.11265 190.63629,300.49349 190.63461,299.70127 C 190.63373,299.28921 190.69098,298.92201 190.80637,298.59966 C 190.92467,298.27731 191.08369,298.00274 191.28342,297.77599 C 191.48029,297.55501 191.70917,297.38624 191.97011,297.26961 C 192.23392,297.15296 192.50656,297.09435 192.78804,297.09376 C 193.04341,297.09321 193.26981,297.12029 193.46725,297.17502 C 193.66469,297.22684 193.87233,297.30909 194.09021,297.42181 L 194.08573,295.31508 L 194.90406,295.31335 L 194.91843,302.08619 z M 194.09758,300.89092 L 194.09166,298.10084 C 193.87089,298.00263 193.67344,297.93486 193.49925,297.89750 C 193.32505,297.86016 193.13495,297.84170 192.92891,297.84213 C 192.47043,297.84312 192.11386,298.00347 191.85917,298.32320 C 191.60447,298.64295 191.47776,299.09589 191.47901,299.68205 C 191.48023,300.25953 191.57981,300.69896 191.77779,301.00032 C 191.97574,301.29879 192.29235,301.44757 192.72763,301.44664 C 192.95978,301.44614 193.19472,301.39487 193.43245,301.29282 C 193.67018,301.18782 193.89189,301.05387 194.09758,300.89092 z M 189.36435,302.09799 L 188.54603,302.09972 L 188.54496,301.59044 C 188.31034,301.79408 188.06546,301.95275 187.81034,302.06644 C 187.55523,302.18018 187.27824,302.23734 186.97934,302.23799 C 186.39897,302.23921 185.93711,302.01676 185.59375,301.57060 C 185.25329,301.12444 185.08221,300.50527 185.08053,299.71305 C 185.07966,299.30102 185.13693,298.93381 185.25231,298.61146 C 185.37059,298.28910 185.52961,298.01454 185.72936,297.78777 C 185.92620,297.56680 186.15509,297.39805 186.41602,297.28140 C 186.67982,297.16478 186.95248,297.10613 187.23396,297.10554 C 187.48931,297.10500 187.71571,297.13209 187.91316,297.18682 C 188.11058,297.23862 188.31824,297.32088 188.53613,297.43360 L 188.53164,295.32688 L 189.34995,295.32514 L 189.36435,302.09799 z M 188.54349,300.90271 L 188.53756,298.11262 C 188.31682,298.01443 188.11936,297.94665 187.94516,297.90930 C 187.77098,297.87195 187.58086,297.85349 187.37484,297.85393 C 186.91633,297.85489 186.55975,298.01525 186.30507,298.33500 C 186.05039,298.65473 185.92367,299.10770 185.92492,299.69385 C 185.92614,300.27131 186.02574,300.71076 186.22372,301.01212 C 186.42167,301.31058 186.73830,301.45936 187.17355,301.45843 C 187.40570,301.45794 187.64065,301.40665 187.87837,301.30459 C 188.11610,301.19960 188.33780,301.06566 188.54349,300.90271 z M 184.17526,299.76287 L 180.59296,299.77048 C 180.59359,300.06936 180.63914,300.33043 180.72956,300.55369 C 180.81999,300.77403 180.94371,300.95514 181.10070,301.09699 C 181.25189,301.23595 181.43058,301.34004 181.63674,301.40925 C 181.84582,301.47844 182.07515,301.51278 182.32469,301.51226 C 182.65552,301.51155 182.98764,301.44557 183.32107,301.31426 C 183.65740,301.18005 183.89650,301.04896 184.03844,300.92099 L 184.08195,300.92089 L 184.08384,301.81320 C 183.80843,301.92988 183.52714,302.02767 183.24006,302.10663 C 182.95291,302.18558 182.65123,302.22540 182.33493,302.22609 C 181.52823,302.22778 180.89805,302.01151 180.44446,301.57718 C 179.99084,301.13996 179.76317,300.51946 179.76146,299.71565 C 179.75978,298.92056 179.97464,298.28895 180.40600,297.82085 C 180.84028,297.35274 181.41145,297.11790 182.11950,297.11641 C 182.77532,297.11501 183.28062,297.30547 183.63547,297.68774 C 183.99321,298.07004 184.17282,298.61374 184.17431,299.31890 L 184.17526,299.76287 z M 183.37739,299.13777 C 183.37359,298.70831 183.26405,298.37628 183.04882,298.14170 C 182.83649,297.90708 182.51268,297.79024 182.07739,297.79117 C 181.63922,297.79211 181.28984,297.92198 181.02920,298.18079 C 180.77150,298.43961 180.62564,298.76056 180.59162,299.14368 L 183.37739,299.13777 z M 178.82985,299.65235 C 178.83072,300.05860 178.77344,300.42435 178.65806,300.74960 C 178.54559,301.07484 178.39235,301.34794 178.19843,301.56889 C 177.99288,301.79856 177.76688,301.97171 177.52050,302.08831 C 177.27406,302.20201 177.00287,302.25916 176.70689,302.25980 C 176.43122,302.26038 176.19029,302.22751 175.98413,302.16121 C 175.77796,302.09783 175.57464,302.01120 175.37419,301.90136 L 175.32243,302.12781 L 174.55637,302.12942 L 174.54198,295.35659 L 175.36028,295.35484 L 175.36543,297.77495 C 175.59426,297.58586 175.83769,297.43153 176.09569,297.31202 C 176.35370,297.18960 176.64375,297.12802 176.96585,297.12734 C 177.54042,297.12613 177.99357,297.34572 178.32532,297.78608 C 178.65995,298.22646 178.82814,298.84852 178.82985,299.65235 z M 177.98546,299.67590 C 177.98423,299.09554 177.88755,298.65612 177.69539,298.35763 C 177.50324,298.05625 177.19385,297.90600 176.76730,297.90692 C 176.52934,297.90741 176.28860,297.96017 176.04508,298.06514 C 175.80153,298.16723 175.57547,298.29974 175.36688,298.46269 L 175.37281,301.24843 C 175.60516,301.35241 175.80411,301.42453 175.96959,301.46481 C 176.13798,301.50507 176.32809,301.52498 176.53992,301.52453 C 176.99261,301.52358 177.34631,301.37483 177.60105,301.07830 C 177.85867,300.77887 177.98680,300.31140 177.98546,299.67590 z M 172.98066,302.13276 L 172.16235,302.13451 L 172.15648,299.36617 C 172.15604,299.15724 172.14544,298.95559 172.12472,298.76122 C 172.10691,298.56682 172.06740,298.41165 172.00621,298.29572 C 171.93921,298.17107 171.84324,298.07698 171.71832,298.01339 C 171.59342,297.94982 171.41343,297.91828 171.17838,297.91878 C 170.94914,297.91927 170.72002,297.97780 170.49103,298.09435 C 170.26203,298.20802 170.03308,298.35358 169.80422,298.53108 C 169.81306,298.59783 169.82049,298.67614 169.82647,298.76609 C 169.83246,298.85313 169.83555,298.94018 169.83575,299.02724 L 169.84235,302.13944 L 169.02403,302.14117 L 169.01815,299.37283 C 169.01768,299.15810 169.00711,298.95500 168.98639,298.76351 C 168.96855,298.56914 168.92907,298.41397 168.86788,298.29801 C 168.80087,298.17339 168.70492,298.08073 168.58002,298.02006 C 168.45508,297.95648 168.27511,297.92495 168.04007,297.92545 C 167.81664,297.92593 167.59184,297.98152 167.36574,298.09227 C 167.14253,298.20302 166.91940,298.34424 166.69633,298.51592 L 166.70403,302.14610 L 165.88570,302.14783 L 165.87540,297.28585 L 166.69370,297.28409 L 166.69486,297.82384 C 166.94976,297.61146 167.20333,297.44553 167.45552,297.32601 C 167.71064,297.20648 167.98182,297.14643 168.26911,297.14582 C 168.59991,297.14510 168.88008,297.21416 169.10964,297.35296 C 169.34206,297.49175 169.51513,297.68436 169.62883,297.93078 C 169.95904,297.65150 170.26041,297.45062 170.53293,297.32816 C 170.80544,297.20283 171.09693,297.13981 171.40743,297.13914 C 171.94137,297.13801 172.33489,297.29969 172.58806,297.62415 C 172.84410,297.94570 172.97273,298.39667 172.97396,298.97702 L 172.98066,302.13276 z M 164.64020,299.80435 L 161.05791,299.81194 C 161.05853,300.11084 161.10408,300.37190 161.19450,300.59517 C 161.28493,300.81550 161.40866,300.99661 161.56563,301.13847 C 161.71684,301.27744 161.89552,301.38152 162.10169,301.45073 C 162.31078,301.51993 162.54010,301.55426 162.78965,301.55374 C 163.12046,301.55303 163.45258,301.48703 163.78601,301.35576 C 164.12234,301.22154 164.36144,301.09044 164.50338,300.96248 L 164.54691,300.96237 L 164.54880,301.85468 C 164.27338,301.97134 163.99210,302.06915 163.70499,302.14810 C 163.41788,302.22706 163.11617,302.26688 162.79987,302.26755 C 161.99316,302.26926 161.36300,302.05296 160.90939,301.61865 C 160.45579,301.18144 160.22811,300.56094 160.22639,299.75712 C 160.22471,298.96204 160.43956,298.33043 160.87095,297.86232 C 161.30522,297.39421 161.87640,297.15938 162.58443,297.15788 C 163.24024,297.15649 163.74557,297.34694 164.10040,297.72923 C 164.45816,298.11152 164.63775,298.65522 164.63927,299.36038 L 164.64020,299.80435 z M 163.84233,299.17925 C 163.83851,298.74978 163.72899,298.41776 163.51374,298.18316 C 163.30142,297.94855 162.97761,297.83172 162.54234,297.83264 C 162.10415,297.83359 161.75477,297.96344 161.49418,298.22226 C 161.23644,298.48109 161.09059,298.80204 161.05658,299.18515 L 163.84233,299.17925 z "
     id="path3654" />
  <g
     id="g3656"
     style="stroke:#000000;stroke-opacity:0.11999995"
     transform="matrix(1.626518e-3,0.267247,-0.267247,1.626518e-3,10.08347,314.6427)">
    <path
       style="fill:none;fill-opacity:0.75000000;fill-rule:evenodd;stroke:#000000;stroke-width:0.31078178;stroke-opacity:0.11999995"
       d="M -51.676826,-378.28741 L -51.517365,-475.31955"
       id="path3658"
       sodipodi:nodetypes="cc" />
    <path
       style="fill:none;fill-rule:evenodd;stroke:#000000;stroke-width:0.31078178;stroke-linejoin:round;stroke-opacity:0.11999995"
       d="M -51.526778,-469.59328 C -38.674247,-469.57216 -28.260345,-459.12397 -28.281467,-446.27144 C -28.302588,-433.41891 -38.750775,-423.00501 -51.603306,-423.02613 C -64.455839,-423.04725 -74.869737,-433.49544 -74.848615,-446.34797 C -74.827494,-459.20050 -64.379311,-469.61440 -51.526778,-469.59328 z "
       id="path3660" />
    <path
       style="fill:none;fill-rule:evenodd;stroke:#000000;stroke-width:0.31078178;stroke-linejoin:round;stroke-opacity:0.11999995"
       d="M -51.608130,-420.09190 C -43.952780,-420.07932 -37.749954,-413.85607 -37.762534,-406.20073 C -37.775115,-398.54537 -43.998362,-392.34255 -51.653713,-392.35513 C -59.309066,-392.36771 -65.511889,-398.59096 -65.499309,-406.24631 C -65.486728,-413.90166 -59.263484,-420.10448 -51.608130,-420.09190 z "
       id="path3662" />
    <path
       style="fill:none;fill-opacity:0.75000000;fill-rule:evenodd;stroke:#000000;stroke-width:0.31078178;stroke-linejoin:round;stroke-opacity:0.11999995"
       d="M -77.843105,-406.26659 L -25.418735,-406.18044"
       id="path3664"
       sodipodi:nodetypes="cc" />
    <path
       style="fill:none;fill-rule:evenodd;stroke:#000000;stroke-width:0.31078178;stroke-linejoin:round;stroke-opacity:0.11999995"
       d="M -51.542251,-460.17809 C -43.886901,-460.16551 -37.684072,-453.94227 -37.696653,-446.28692 C -37.709234,-438.63157 -43.932483,-432.42874 -51.587833,-432.44132 C -59.243186,-432.45390 -65.446010,-438.67715 -65.433430,-446.33250 C -65.420849,-453.98785 -59.197604,-460.19067 -51.542251,-460.17809 z "
       id="path3666" />
    <path
       style="fill:none;fill-opacity:0.75000000;fill-rule:evenodd;stroke:#000000;stroke-width:0.31078178;stroke-linejoin:round;stroke-opacity:0.11999995"
       d="M -77.777228,-446.35279 L -25.352858,-446.26663"
       id="path3668"
       sodipodi:nodetypes="cc" />
    <path
       style="fill:none;fill-rule:evenodd;stroke:#000000;stroke-width:0.28026143;stroke-linejoin:round;stroke-opacity:0.11999995"
       d="M -51.596353,-427.22050 C -40.006003,-427.20146 -30.614802,-417.77933 -30.633850,-406.18899 C -30.652897,-394.59864 -40.075015,-385.20744 -51.665366,-385.22649 C -63.255714,-385.24554 -72.646912,-394.66765 -72.627865,-406.25800 C -72.608817,-417.84835 -63.186702,-427.23955 -51.596353,-427.22050 z "
       id="path3670" />
    <path
       style="fill:none;fill-rule:evenodd;stroke:#000000;stroke-width:0.28026143;stroke-linejoin:round;stroke-opacity:0.11999995"
       d="M -51.530536,-467.30671 C -39.940185,-467.28767 -30.548983,-457.86554 -30.568031,-446.27520 C -30.587078,-434.68485 -40.009197,-425.29365 -51.599549,-425.31270 C -63.189897,-425.33174 -72.581095,-434.75386 -72.562047,-446.34421 C -72.543000,-457.93456 -63.120884,-467.32576 -51.530536,-467.30671 z "
       id="path3672" />
  </g>
  <path
     style="font-size:6.7119541px;font-style:normal;font-variant:normal;font-weight:normal;font-stretch:normal;text-align:start;line-height:125.00000%;writing-mode:lr-tb;text-anchor:start;fill:#000000;fill-opacity:0.55191255;stroke:none;stroke-width:1.0000000px;stroke-linecap:butt;stroke-linejoin:miter;stroke-opacity:1.0000000;font-family:Bitstream Vera Sans"
     d="M 62.745557,301.88974 L 62.759798,304.47485 L 62.031084,304.47976 L 61.994022,297.75150 L 62.722735,297.74660 L 62.726810,298.48645 C 62.877517,298.19528 63.068033,297.97929 63.298355,297.83850 C 63.531281,297.69474 63.809244,297.62179 64.132244,297.61962 C 64.667943,297.61602 65.103838,297.84810 65.439931,298.31587 C 65.778644,298.78364 65.950111,299.40050 65.954335,300.16645 C 65.958551,300.93241 65.793891,301.55155 65.460357,302.02382 C 65.129442,302.49608 64.696136,302.73401 64.160437,302.73762 C 63.837436,302.73979 63.558699,302.67203 63.324222,302.53433 C 63.092349,302.39372 62.899460,302.17885 62.745557,301.88974 M 65.201988,300.17151 C 65.198741,299.58253 65.085908,299.12197 64.863491,298.78978 C 64.643676,298.45470 64.342072,298.28845 63.958681,298.29102 C 63.575285,298.29361 63.274223,298.46391 63.055496,298.80195 C 62.839375,299.13708 62.732937,299.59912 62.736184,300.18810 C 62.739426,300.77707 62.850953,301.23911 63.070766,301.57421 C 63.293186,301.90638 63.596094,302.07117 63.979490,302.06859 C 64.362882,302.06602 64.662639,301.89716 64.878762,301.56204 C 65.097487,301.22400 65.205230,300.76049 65.201988,300.17151 M 68.854890,298.26680 C 68.466240,298.26941 68.159928,298.43977 67.935946,298.77783 C 67.711948,299.11301 67.601557,299.57219 67.604771,300.15536 C 67.607981,300.73852 67.722119,301.19766 67.947183,301.53271 C 68.174854,301.86484 68.484328,302.02960 68.875602,302.02696 C 69.261620,302.02437 69.566620,301.85404 69.790605,301.51596 C 70.014583,301.17788 70.124976,300.71871 70.121782,300.13844 C 70.118598,299.56106 70.003163,299.10484 69.775478,298.76981 C 69.547771,298.43188 69.240908,298.26420 68.854890,298.26680 M 68.851150,297.58789 C 69.481383,297.58365 69.977630,297.80663 70.339887,298.25681 C 70.702137,298.70700 70.885469,299.33249 70.889885,300.13325 C 70.894276,300.93116 70.717849,301.55905 70.360600,302.01698 C 70.003329,302.47201 69.509576,302.70166 68.879342,302.70590 C 68.246476,302.71013 67.748918,302.48719 67.386665,302.03697 C 67.027021,301.58386 66.845001,300.95839 66.840607,300.16049 C 66.836195,299.35973 67.011309,298.73182 67.365953,298.27681 C 67.723218,297.82179 68.218283,297.59214 68.851150,297.58789 M 71.652416,297.68655 L 72.377189,297.68168 L 73.304109,301.47928 L 74.185184,297.66952 L 75.039944,297.66378 L 75.966862,301.46137 L 76.847939,297.65161 L 77.572711,297.64674 L 76.445439,302.52880 L 75.590679,302.53454 L 74.619377,298.54574 L 73.688149,302.54733 L 72.833389,302.55308 L 71.652416,297.68655 M 82.461498,299.85092 L 82.463657,300.24259 L 79.131274,300.26500 C 79.165822,300.81606 79.317819,301.23573 79.587270,301.52407 C 79.859327,301.80947 80.235635,301.95057 80.716195,301.94733 C 80.994547,301.94546 81.263503,301.90596 81.523064,301.82875 C 81.785243,301.75156 82.044592,301.63666 82.301114,301.48405 L 82.305284,302.24131 C 82.045979,302.36492 81.779953,302.45956 81.507205,302.52523 C 81.234449,302.59088 80.957584,302.62467 80.676605,302.62656 C 79.972839,302.63129 79.413569,302.40873 78.998796,301.95888 C 78.586648,301.50903 78.378448,300.89821 78.374198,300.12645 C 78.369802,299.32859 78.560641,298.69479 78.946715,298.22505 C 79.335398,297.75241 79.860614,297.51386 80.522366,297.50940 C 81.115837,297.50541 81.585741,297.71406 81.932082,298.13535 C 82.281028,298.55372 82.457500,299.12556 82.461498,299.85092 M 81.735430,299.62077 C 81.727762,299.18269 81.614232,298.83384 81.394840,298.57418 C 81.178066,298.31450 80.891115,298.18587 80.533983,298.18827 C 80.129578,298.19098 79.805964,298.31936 79.563140,298.57345 C 79.322937,298.82748 79.185717,299.18383 79.151479,299.64249 L 81.735430,299.62077 M 86.199276,298.33731 C 86.117580,298.28565 86.028087,298.24853 85.930802,298.22596 C 85.836120,298.20050 85.731009,298.18813 85.615468,298.18892 C 85.205810,298.19167 84.891507,298.34176 84.672556,298.63917 C 84.456211,298.93369 84.349559,299.35657 84.352596,299.90781 L 84.366741,302.47553 L 83.638027,302.48043 L 83.611178,297.60613 L 84.339891,297.60124 L 84.344062,298.35849 C 84.494737,298.06153 84.691792,297.84115 84.935229,297.69733 C 85.178644,297.55062 85.474981,297.47611 85.824241,297.47376 C 85.874132,297.47342 85.929303,297.47741 85.989749,297.48569 C 86.050176,297.49108 86.117194,297.50080 86.190806,297.51481 L 86.199276,298.33731 M 90.575811,299.79635 L 90.577968,300.18802 L 87.245585,300.21044 C 87.280134,300.76149 87.432133,301.18117 87.701582,301.46950 C 87.973639,301.75491 88.349949,301.89600 88.830507,301.89277 C 89.108859,301.89091 89.377814,301.85139 89.637376,301.77419 C 89.899555,301.69700 90.158905,301.58209 90.415424,301.42950 L 90.419596,302.18674 C 90.160291,302.31036 89.894262,302.40500 89.621516,302.47066 C 89.348761,302.53632 89.071895,302.57011 88.790918,302.57200 C 88.087149,302.57672 87.527880,302.35417 87.113108,301.90433 C 86.700960,301.45446 86.492760,300.84365 86.488510,300.07189 C 86.484114,299.27404 86.674953,298.64023 87.061027,298.17048 C 87.449708,297.69785 87.974925,297.45929 88.636677,297.45483 C 89.230146,297.45086 89.700053,297.65951 90.046396,298.08079 C 90.395338,298.49915 90.571809,299.07100 90.575811,299.79635 M 89.849741,299.56619 C 89.842073,299.12813 89.728544,298.77928 89.509151,298.51961 C 89.292379,298.25995 89.005426,298.13131 88.648295,298.13370 C 88.243889,298.13643 87.920275,298.26481 87.677450,298.51888 C 87.437249,298.77291 87.300027,299.12927 87.265793,299.58793 L 89.849741,299.56619 M 94.660170,298.27171 L 94.645643,295.63438 L 95.370417,295.62950 L 95.407719,302.40129 L 94.682944,302.40615 L 94.678918,301.67501 C 94.528204,301.96617 94.336385,302.18362 94.103459,302.32736 C 93.873137,302.46818 93.595165,302.53968 93.269545,302.54187 C 92.736467,302.54546 92.300570,302.31337 91.961856,301.84560 C 91.625766,301.37783 91.455611,300.76096 91.451392,299.99500 C 91.447171,299.22905 91.610520,298.60994 91.941431,298.13766 C 92.274968,297.66540 92.708274,297.42745 93.241352,297.42387 C 93.566972,297.42169 93.845719,297.49091 94.077590,297.63151 C 94.312071,297.76920 94.506261,297.98260 94.660170,298.27171 M 92.199800,299.98997 C 92.203044,300.57895 92.314572,301.04097 92.534383,301.37607 C 92.756803,301.70824 93.059710,301.87305 93.443106,301.87046 C 93.826499,301.86789 94.127569,301.69904 94.346317,301.36389 C 94.565042,301.02584 94.672785,300.56233 94.669543,299.97337 C 94.666296,299.38438 94.553464,298.92382 94.331046,298.59164 C 94.108606,298.25657 93.805689,298.09032 93.422299,298.09289 C 93.038902,298.09549 92.737841,298.26579 92.519112,298.60382 C 92.302991,298.93895 92.196554,299.40099 92.199800,299.98997 M 102.62237,299.91989 C 102.61912,299.33091 102.50629,298.87033 102.28386,298.53816 C 102.06405,298.20307 101.76244,298.03682 101.37905,298.03938 C 100.99565,298.04197 100.69459,298.21228 100.47586,298.55031 C 100.25975,298.88544 100.15330,299.34749 100.15655,299.93647 C 100.15980,300.52544 100.27132,300.98748 100.49114,301.32257 C 100.71356,301.65474 101.01646,301.81955 101.39985,301.81696 C 101.78326,301.81439 102.08302,301.64554 102.29914,301.31041 C 102.51786,300.97237 102.62561,300.50886 102.62237,299.91989 M 100.14718,298.23482 C 100.29788,297.94366 100.48840,297.72767 100.71873,297.58686 C 100.95165,297.44312 101.22961,297.37016 101.55262,297.36798 C 102.08832,297.36438 102.52421,297.59648 102.86032,298.06424 C 103.19902,298.53201 103.37049,299.14887 103.37471,299.91483 C 103.37893,300.68078 103.21427,301.29991 102.88073,301.77218 C 102.54982,302.24445 102.11651,302.48239 101.58082,302.48599 C 101.25781,302.48817 100.97907,302.42040 100.74459,302.28271 C 100.51271,302.14209 100.31983,301.92723 100.16592,301.63811 L 100.16996,302.36925 L 99.441240,302.37415 L 99.403938,295.60239 L 100.13265,295.59749 L 100.14718,298.23482 M 106.42756,302.77981 C 106.22593,303.36145 106.02844,303.74143 105.83510,303.91973 C 105.64175,304.09801 105.38226,304.18825 105.05664,304.19043 L 104.47760,304.19434 L 104.47391,303.52412 L 104.89931,303.52126 C 105.09889,303.51991 105.25355,303.46665 105.36325,303.36145 C 105.47298,303.25627 105.59373,303.00883 105.72550,302.61915 L 105.85348,302.25269 L 104.04270,297.46875 L 104.81080,297.46358 L 106.21045,301.26670 L 107.56810,297.44503 L 108.33621,297.43987 L 106.42756,302.77981"
     id="text3674" />
</svg>
